G04 #@! TF.GenerationSoftware,KiCad,Pcbnew,(5.1.10)-1*
G04 #@! TF.CreationDate,2021-12-09T23:22:53+01:00*
G04 #@! TF.ProjectId,UARTtoESP,55415254-746f-4455-9350-2e6b69636164,rev?*
G04 #@! TF.SameCoordinates,Original*
G04 #@! TF.FileFunction,Copper,L2,Bot*
G04 #@! TF.FilePolarity,Positive*
%FSLAX46Y46*%
G04 Gerber Fmt 4.6, Leading zero omitted, Abs format (unit mm)*
G04 Created by KiCad (PCBNEW (5.1.10)-1) date 2021-12-09 23:22:53*
%MOMM*%
%LPD*%
G01*
G04 APERTURE LIST*
G04 #@! TA.AperFunction,NonConductor*
%ADD10C,0.300000*%
G04 #@! TD*
G04 #@! TA.AperFunction,ComponentPad*
%ADD11C,1.700000*%
G04 #@! TD*
G04 #@! TA.AperFunction,ComponentPad*
%ADD12C,1.600000*%
G04 #@! TD*
G04 #@! TA.AperFunction,ComponentPad*
%ADD13O,1.600000X1.600000*%
G04 #@! TD*
G04 #@! TA.AperFunction,ComponentPad*
%ADD14O,1.050000X1.500000*%
G04 #@! TD*
G04 #@! TA.AperFunction,ComponentPad*
%ADD15R,1.050000X1.500000*%
G04 #@! TD*
G04 #@! TA.AperFunction,ComponentPad*
%ADD16O,1.700000X1.700000*%
G04 #@! TD*
G04 #@! TA.AperFunction,ComponentPad*
%ADD17R,1.700000X1.700000*%
G04 #@! TD*
G04 #@! TA.AperFunction,ComponentPad*
%ADD18C,2.000000*%
G04 #@! TD*
G04 #@! TA.AperFunction,ComponentPad*
%ADD19R,2.000000X2.000000*%
G04 #@! TD*
G04 #@! TA.AperFunction,ComponentPad*
%ADD20O,1.300000X2.700000*%
G04 #@! TD*
G04 #@! TA.AperFunction,ComponentPad*
%ADD21C,1.524000*%
G04 #@! TD*
G04 #@! TA.AperFunction,ViaPad*
%ADD22C,1.000000*%
G04 #@! TD*
G04 #@! TA.AperFunction,Conductor*
%ADD23C,0.500000*%
G04 #@! TD*
G04 #@! TA.AperFunction,Conductor*
%ADD24C,0.800000*%
G04 #@! TD*
G04 #@! TA.AperFunction,Conductor*
%ADD25C,0.254000*%
G04 #@! TD*
G04 #@! TA.AperFunction,Conductor*
%ADD26C,0.350000*%
G04 #@! TD*
%ADD27C,0.350000*%
G04 APERTURE END LIST*
D10*
X227469428Y-97214571D02*
X227469428Y-98714571D01*
X227469428Y-97286000D02*
X227326571Y-97214571D01*
X227040857Y-97214571D01*
X226898000Y-97286000D01*
X226826571Y-97357428D01*
X226755142Y-97500285D01*
X226755142Y-97928857D01*
X226826571Y-98071714D01*
X226898000Y-98143142D01*
X227040857Y-98214571D01*
X227326571Y-98214571D01*
X227469428Y-98143142D01*
X225898000Y-98214571D02*
X226040857Y-98143142D01*
X226112285Y-98000285D01*
X226112285Y-96714571D01*
X224683714Y-98214571D02*
X224683714Y-97428857D01*
X224755142Y-97286000D01*
X224898000Y-97214571D01*
X225183714Y-97214571D01*
X225326571Y-97286000D01*
X224683714Y-98143142D02*
X224826571Y-98214571D01*
X225183714Y-98214571D01*
X225326571Y-98143142D01*
X225398000Y-98000285D01*
X225398000Y-97857428D01*
X225326571Y-97714571D01*
X225183714Y-97643142D01*
X224826571Y-97643142D01*
X224683714Y-97571714D01*
X224183714Y-97214571D02*
X223612285Y-97214571D01*
X223969428Y-96714571D02*
X223969428Y-98000285D01*
X223898000Y-98143142D01*
X223755142Y-98214571D01*
X223612285Y-98214571D01*
X223326571Y-97214571D02*
X222755142Y-97214571D01*
X223112285Y-98214571D02*
X223112285Y-96928857D01*
X223040857Y-96786000D01*
X222898000Y-96714571D01*
X222755142Y-96714571D01*
X222040857Y-98214571D02*
X222183714Y-98143142D01*
X222255142Y-98071714D01*
X222326571Y-97928857D01*
X222326571Y-97500285D01*
X222255142Y-97357428D01*
X222183714Y-97286000D01*
X222040857Y-97214571D01*
X221826571Y-97214571D01*
X221683714Y-97286000D01*
X221612285Y-97357428D01*
X221540857Y-97500285D01*
X221540857Y-97928857D01*
X221612285Y-98071714D01*
X221683714Y-98143142D01*
X221826571Y-98214571D01*
X222040857Y-98214571D01*
X220898000Y-98214571D02*
X220898000Y-97214571D01*
X220898000Y-97500285D02*
X220826571Y-97357428D01*
X220755142Y-97286000D01*
X220612285Y-97214571D01*
X220469428Y-97214571D01*
X219969428Y-98214571D02*
X219969428Y-97214571D01*
X219969428Y-97357428D02*
X219898000Y-97286000D01*
X219755142Y-97214571D01*
X219540857Y-97214571D01*
X219398000Y-97286000D01*
X219326571Y-97428857D01*
X219326571Y-98214571D01*
X219326571Y-97428857D02*
X219255142Y-97286000D01*
X219112285Y-97214571D01*
X218898000Y-97214571D01*
X218755142Y-97286000D01*
X218683714Y-97428857D01*
X218683714Y-98214571D01*
X217969428Y-98214571D02*
X217969428Y-97214571D01*
X217969428Y-96714571D02*
X218040857Y-96786000D01*
X217969428Y-96857428D01*
X217898000Y-96786000D01*
X217969428Y-96714571D01*
X217969428Y-96857428D01*
X217040857Y-98214571D02*
X217183714Y-98143142D01*
X217255142Y-98071714D01*
X217326571Y-97928857D01*
X217326571Y-97500285D01*
X217255142Y-97357428D01*
X217183714Y-97286000D01*
X217040857Y-97214571D01*
X216826571Y-97214571D01*
X216683714Y-97286000D01*
X216612285Y-97357428D01*
X216540857Y-97500285D01*
X216540857Y-97928857D01*
X216612285Y-98071714D01*
X216683714Y-98143142D01*
X216826571Y-98214571D01*
X217040857Y-98214571D01*
X215898000Y-98071714D02*
X215826571Y-98143142D01*
X215898000Y-98214571D01*
X215969428Y-98143142D01*
X215898000Y-98071714D01*
X215898000Y-98214571D01*
X215183714Y-98214571D02*
X215183714Y-97214571D01*
X215183714Y-96714571D02*
X215255142Y-96786000D01*
X215183714Y-96857428D01*
X215112285Y-96786000D01*
X215183714Y-96714571D01*
X215183714Y-96857428D01*
X214469428Y-97214571D02*
X214469428Y-98214571D01*
X214469428Y-97357428D02*
X214398000Y-97286000D01*
X214255142Y-97214571D01*
X214040857Y-97214571D01*
X213898000Y-97286000D01*
X213826571Y-97428857D01*
X213826571Y-98214571D01*
X213112285Y-98214571D02*
X213112285Y-97214571D01*
X213112285Y-96714571D02*
X213183714Y-96786000D01*
X213112285Y-96857428D01*
X213040857Y-96786000D01*
X213112285Y-96714571D01*
X213112285Y-96857428D01*
X212398000Y-98071714D02*
X212326571Y-98143142D01*
X212398000Y-98214571D01*
X212469428Y-98143142D01*
X212398000Y-98071714D01*
X212398000Y-98214571D01*
X212398000Y-97286000D02*
X212326571Y-97357428D01*
X212398000Y-97428857D01*
X212469428Y-97357428D01*
X212398000Y-97286000D01*
X212398000Y-97428857D01*
X210612285Y-96714571D02*
X210612285Y-97000285D01*
X210040857Y-96714571D02*
X210040857Y-97000285D01*
X208755142Y-97214571D02*
X208755142Y-98214571D01*
X209398000Y-97214571D02*
X209398000Y-98000285D01*
X209326571Y-98143142D01*
X209183714Y-98214571D01*
X208969428Y-98214571D01*
X208826571Y-98143142D01*
X208755142Y-98071714D01*
X208040857Y-97214571D02*
X208040857Y-98714571D01*
X208040857Y-97286000D02*
X207898000Y-97214571D01*
X207612285Y-97214571D01*
X207469428Y-97286000D01*
X207398000Y-97357428D01*
X207326571Y-97500285D01*
X207326571Y-97928857D01*
X207398000Y-98071714D01*
X207469428Y-98143142D01*
X207612285Y-98214571D01*
X207898000Y-98214571D01*
X208040857Y-98143142D01*
X206469428Y-98214571D02*
X206612285Y-98143142D01*
X206683714Y-98000285D01*
X206683714Y-96714571D01*
X205683714Y-98214571D02*
X205826571Y-98143142D01*
X205898000Y-98071714D01*
X205969428Y-97928857D01*
X205969428Y-97500285D01*
X205898000Y-97357428D01*
X205826571Y-97286000D01*
X205683714Y-97214571D01*
X205469428Y-97214571D01*
X205326571Y-97286000D01*
X205255142Y-97357428D01*
X205183714Y-97500285D01*
X205183714Y-97928857D01*
X205255142Y-98071714D01*
X205326571Y-98143142D01*
X205469428Y-98214571D01*
X205683714Y-98214571D01*
X203898000Y-98214571D02*
X203898000Y-97428857D01*
X203969428Y-97286000D01*
X204112285Y-97214571D01*
X204398000Y-97214571D01*
X204540857Y-97286000D01*
X203898000Y-98143142D02*
X204040857Y-98214571D01*
X204398000Y-98214571D01*
X204540857Y-98143142D01*
X204612285Y-98000285D01*
X204612285Y-97857428D01*
X204540857Y-97714571D01*
X204398000Y-97643142D01*
X204040857Y-97643142D01*
X203898000Y-97571714D01*
X202540857Y-98214571D02*
X202540857Y-96714571D01*
X202540857Y-98143142D02*
X202683714Y-98214571D01*
X202969428Y-98214571D01*
X203112285Y-98143142D01*
X203183714Y-98071714D01*
X203255142Y-97928857D01*
X203255142Y-97500285D01*
X203183714Y-97357428D01*
X203112285Y-97286000D01*
X202969428Y-97214571D01*
X202683714Y-97214571D01*
X202540857Y-97286000D01*
X202183714Y-98357428D02*
X201040857Y-98357428D01*
X200683714Y-98214571D02*
X200683714Y-97214571D01*
X200683714Y-97500285D02*
X200612285Y-97357428D01*
X200540857Y-97286000D01*
X200398000Y-97214571D01*
X200255142Y-97214571D01*
X199183714Y-98143142D02*
X199326571Y-98214571D01*
X199612285Y-98214571D01*
X199755142Y-98143142D01*
X199826571Y-98000285D01*
X199826571Y-97428857D01*
X199755142Y-97286000D01*
X199612285Y-97214571D01*
X199326571Y-97214571D01*
X199183714Y-97286000D01*
X199112285Y-97428857D01*
X199112285Y-97571714D01*
X199826571Y-97714571D01*
X198540857Y-98143142D02*
X198397999Y-98214571D01*
X198112285Y-98214571D01*
X197969428Y-98143142D01*
X197897999Y-98000285D01*
X197897999Y-97928857D01*
X197969428Y-97786000D01*
X198112285Y-97714571D01*
X198326571Y-97714571D01*
X198469428Y-97643142D01*
X198540857Y-97500285D01*
X198540857Y-97428857D01*
X198469428Y-97286000D01*
X198326571Y-97214571D01*
X198112285Y-97214571D01*
X197969428Y-97286000D01*
X196683714Y-98143142D02*
X196826571Y-98214571D01*
X197112285Y-98214571D01*
X197255142Y-98143142D01*
X197326571Y-98000285D01*
X197326571Y-97428857D01*
X197255142Y-97286000D01*
X197112285Y-97214571D01*
X196826571Y-97214571D01*
X196683714Y-97286000D01*
X196612285Y-97428857D01*
X196612285Y-97571714D01*
X197326571Y-97714571D01*
X196183714Y-97214571D02*
X195612285Y-97214571D01*
X195969428Y-96714571D02*
X195969428Y-98000285D01*
X195897999Y-98143142D01*
X195755142Y-98214571D01*
X195612285Y-98214571D01*
X195112285Y-98214571D02*
X195112285Y-97214571D01*
X195112285Y-97357428D02*
X195040857Y-97286000D01*
X194897999Y-97214571D01*
X194683714Y-97214571D01*
X194540857Y-97286000D01*
X194469428Y-97428857D01*
X194469428Y-98214571D01*
X194469428Y-97428857D02*
X194397999Y-97286000D01*
X194255142Y-97214571D01*
X194040857Y-97214571D01*
X193897999Y-97286000D01*
X193826571Y-97428857D01*
X193826571Y-98214571D01*
X192540857Y-98143142D02*
X192683714Y-98214571D01*
X192969428Y-98214571D01*
X193112285Y-98143142D01*
X193183714Y-98000285D01*
X193183714Y-97428857D01*
X193112285Y-97286000D01*
X192969428Y-97214571D01*
X192683714Y-97214571D01*
X192540857Y-97286000D01*
X192469428Y-97428857D01*
X192469428Y-97571714D01*
X193183714Y-97714571D01*
X192040857Y-97214571D02*
X191469428Y-97214571D01*
X191826571Y-96714571D02*
X191826571Y-98000285D01*
X191755142Y-98143142D01*
X191612285Y-98214571D01*
X191469428Y-98214571D01*
X190969428Y-98214571D02*
X190969428Y-96714571D01*
X190326571Y-98214571D02*
X190326571Y-97428857D01*
X190397999Y-97286000D01*
X190540857Y-97214571D01*
X190755142Y-97214571D01*
X190897999Y-97286000D01*
X190969428Y-97357428D01*
X189397999Y-98214571D02*
X189540857Y-98143142D01*
X189612285Y-98071714D01*
X189683714Y-97928857D01*
X189683714Y-97500285D01*
X189612285Y-97357428D01*
X189540857Y-97286000D01*
X189397999Y-97214571D01*
X189183714Y-97214571D01*
X189040857Y-97286000D01*
X188969428Y-97357428D01*
X188897999Y-97500285D01*
X188897999Y-97928857D01*
X188969428Y-98071714D01*
X189040857Y-98143142D01*
X189183714Y-98214571D01*
X189397999Y-98214571D01*
X187612285Y-98214571D02*
X187612285Y-96714571D01*
X187612285Y-98143142D02*
X187755142Y-98214571D01*
X188040857Y-98214571D01*
X188183714Y-98143142D01*
X188255142Y-98071714D01*
X188326571Y-97928857D01*
X188326571Y-97500285D01*
X188255142Y-97357428D01*
X188183714Y-97286000D01*
X188040857Y-97214571D01*
X187755142Y-97214571D01*
X187612285Y-97286000D01*
X185755142Y-97428857D02*
X184612285Y-97428857D01*
X184612285Y-97857428D02*
X185755142Y-97857428D01*
X182755142Y-97214571D02*
X182755142Y-98214571D01*
X182755142Y-97357428D02*
X182683714Y-97286000D01*
X182540857Y-97214571D01*
X182326571Y-97214571D01*
X182183714Y-97286000D01*
X182112285Y-97428857D01*
X182112285Y-98214571D01*
X181183714Y-98214571D02*
X181326571Y-98143142D01*
X181397999Y-98071714D01*
X181469428Y-97928857D01*
X181469428Y-97500285D01*
X181397999Y-97357428D01*
X181326571Y-97286000D01*
X181183714Y-97214571D01*
X180969428Y-97214571D01*
X180826571Y-97286000D01*
X180755142Y-97357428D01*
X180683714Y-97500285D01*
X180683714Y-97928857D01*
X180755142Y-98071714D01*
X180826571Y-98143142D01*
X180969428Y-98214571D01*
X181183714Y-98214571D01*
X179397999Y-98214571D02*
X179397999Y-96714571D01*
X179397999Y-98143142D02*
X179540857Y-98214571D01*
X179826571Y-98214571D01*
X179969428Y-98143142D01*
X180040857Y-98071714D01*
X180112285Y-97928857D01*
X180112285Y-97500285D01*
X180040857Y-97357428D01*
X179969428Y-97286000D01*
X179826571Y-97214571D01*
X179540857Y-97214571D01*
X179397999Y-97286000D01*
X178112285Y-98143142D02*
X178255142Y-98214571D01*
X178540857Y-98214571D01*
X178683714Y-98143142D01*
X178755142Y-98000285D01*
X178755142Y-97428857D01*
X178683714Y-97286000D01*
X178540857Y-97214571D01*
X178255142Y-97214571D01*
X178112285Y-97286000D01*
X178040857Y-97428857D01*
X178040857Y-97571714D01*
X178755142Y-97714571D01*
X177397999Y-98214571D02*
X177397999Y-97214571D01*
X177397999Y-97357428D02*
X177326571Y-97286000D01*
X177183714Y-97214571D01*
X176969428Y-97214571D01*
X176826571Y-97286000D01*
X176755142Y-97428857D01*
X176755142Y-98214571D01*
X176755142Y-97428857D02*
X176683714Y-97286000D01*
X176540857Y-97214571D01*
X176326571Y-97214571D01*
X176183714Y-97286000D01*
X176112285Y-97428857D01*
X176112285Y-98214571D01*
X174755142Y-98143142D02*
X174897999Y-98214571D01*
X175183714Y-98214571D01*
X175326571Y-98143142D01*
X175397999Y-98071714D01*
X175469428Y-97928857D01*
X175469428Y-97500285D01*
X175397999Y-97357428D01*
X175326571Y-97286000D01*
X175183714Y-97214571D01*
X174897999Y-97214571D01*
X174755142Y-97286000D01*
X173469428Y-97214571D02*
X173469428Y-98214571D01*
X174112285Y-97214571D02*
X174112285Y-98000285D01*
X174040857Y-98143142D01*
X173897999Y-98214571D01*
X173683714Y-98214571D01*
X173540857Y-98143142D01*
X173469428Y-98071714D01*
X172826571Y-96714571D02*
X172826571Y-97000285D01*
X172255142Y-96714571D02*
X172255142Y-97000285D01*
X233371428Y-51248571D02*
X233371428Y-52462857D01*
X233300000Y-52605714D01*
X233228571Y-52677142D01*
X233085714Y-52748571D01*
X232800000Y-52748571D01*
X232657142Y-52677142D01*
X232585714Y-52605714D01*
X232514285Y-52462857D01*
X232514285Y-51248571D01*
X231871428Y-52320000D02*
X231157142Y-52320000D01*
X232014285Y-52748571D02*
X231514285Y-51248571D01*
X231014285Y-52748571D01*
X229657142Y-52748571D02*
X230157142Y-52034285D01*
X230514285Y-52748571D02*
X230514285Y-51248571D01*
X229942857Y-51248571D01*
X229800000Y-51320000D01*
X229728571Y-51391428D01*
X229657142Y-51534285D01*
X229657142Y-51748571D01*
X229728571Y-51891428D01*
X229800000Y-51962857D01*
X229942857Y-52034285D01*
X230514285Y-52034285D01*
X229228571Y-51248571D02*
X228371428Y-51248571D01*
X228800000Y-52748571D02*
X228800000Y-51248571D01*
X228085714Y-51748571D02*
X227514285Y-51748571D01*
X227871428Y-51248571D02*
X227871428Y-52534285D01*
X227800000Y-52677142D01*
X227657142Y-52748571D01*
X227514285Y-52748571D01*
X226800000Y-52748571D02*
X226942857Y-52677142D01*
X227014285Y-52605714D01*
X227085714Y-52462857D01*
X227085714Y-52034285D01*
X227014285Y-51891428D01*
X226942857Y-51820000D01*
X226800000Y-51748571D01*
X226585714Y-51748571D01*
X226442857Y-51820000D01*
X226371428Y-51891428D01*
X226300000Y-52034285D01*
X226300000Y-52462857D01*
X226371428Y-52605714D01*
X226442857Y-52677142D01*
X226585714Y-52748571D01*
X226800000Y-52748571D01*
X225657142Y-51962857D02*
X225157142Y-51962857D01*
X224942857Y-52748571D02*
X225657142Y-52748571D01*
X225657142Y-51248571D01*
X224942857Y-51248571D01*
X224371428Y-52677142D02*
X224157142Y-52748571D01*
X223800000Y-52748571D01*
X223657142Y-52677142D01*
X223585714Y-52605714D01*
X223514285Y-52462857D01*
X223514285Y-52320000D01*
X223585714Y-52177142D01*
X223657142Y-52105714D01*
X223800000Y-52034285D01*
X224085714Y-51962857D01*
X224228571Y-51891428D01*
X224300000Y-51820000D01*
X224371428Y-51677142D01*
X224371428Y-51534285D01*
X224300000Y-51391428D01*
X224228571Y-51320000D01*
X224085714Y-51248571D01*
X223728571Y-51248571D01*
X223514285Y-51320000D01*
X222871428Y-52748571D02*
X222871428Y-51248571D01*
X222300000Y-51248571D01*
X222157142Y-51320000D01*
X222085714Y-51391428D01*
X222014285Y-51534285D01*
X222014285Y-51748571D01*
X222085714Y-51891428D01*
X222157142Y-51962857D01*
X222300000Y-52034285D01*
X222871428Y-52034285D01*
X220228571Y-52748571D02*
X220228571Y-51248571D01*
X219657142Y-51248571D01*
X219514285Y-51320000D01*
X219442857Y-51391428D01*
X219371428Y-51534285D01*
X219371428Y-51748571D01*
X219442857Y-51891428D01*
X219514285Y-51962857D01*
X219657142Y-52034285D01*
X220228571Y-52034285D01*
X218728571Y-52748571D02*
X218728571Y-51748571D01*
X218728571Y-52034285D02*
X218657142Y-51891428D01*
X218585714Y-51820000D01*
X218442857Y-51748571D01*
X218300000Y-51748571D01*
X217585714Y-52748571D02*
X217728571Y-52677142D01*
X217800000Y-52605714D01*
X217871428Y-52462857D01*
X217871428Y-52034285D01*
X217800000Y-51891428D01*
X217728571Y-51820000D01*
X217585714Y-51748571D01*
X217371428Y-51748571D01*
X217228571Y-51820000D01*
X217157142Y-51891428D01*
X217085714Y-52034285D01*
X217085714Y-52462857D01*
X217157142Y-52605714D01*
X217228571Y-52677142D01*
X217371428Y-52748571D01*
X217585714Y-52748571D01*
X215800000Y-51748571D02*
X215800000Y-52962857D01*
X215871428Y-53105714D01*
X215942857Y-53177142D01*
X216085714Y-53248571D01*
X216300000Y-53248571D01*
X216442857Y-53177142D01*
X215800000Y-52677142D02*
X215942857Y-52748571D01*
X216228571Y-52748571D01*
X216371428Y-52677142D01*
X216442857Y-52605714D01*
X216514285Y-52462857D01*
X216514285Y-52034285D01*
X216442857Y-51891428D01*
X216371428Y-51820000D01*
X216228571Y-51748571D01*
X215942857Y-51748571D01*
X215800000Y-51820000D01*
X214014285Y-52320000D02*
X213300000Y-52320000D01*
X214157142Y-52748571D02*
X213657142Y-51248571D01*
X213157142Y-52748571D01*
X212014285Y-52748571D02*
X212014285Y-51248571D01*
X212014285Y-52677142D02*
X212157142Y-52748571D01*
X212442857Y-52748571D01*
X212585714Y-52677142D01*
X212657142Y-52605714D01*
X212728571Y-52462857D01*
X212728571Y-52034285D01*
X212657142Y-51891428D01*
X212585714Y-51820000D01*
X212442857Y-51748571D01*
X212157142Y-51748571D01*
X212014285Y-51820000D01*
X210657142Y-52748571D02*
X210657142Y-51962857D01*
X210728571Y-51820000D01*
X210871428Y-51748571D01*
X211157142Y-51748571D01*
X211300000Y-51820000D01*
X210657142Y-52677142D02*
X210800000Y-52748571D01*
X211157142Y-52748571D01*
X211300000Y-52677142D01*
X211371428Y-52534285D01*
X211371428Y-52391428D01*
X211300000Y-52248571D01*
X211157142Y-52177142D01*
X210800000Y-52177142D01*
X210657142Y-52105714D01*
X209942857Y-51748571D02*
X209942857Y-53248571D01*
X209942857Y-51820000D02*
X209800000Y-51748571D01*
X209514285Y-51748571D01*
X209371428Y-51820000D01*
X209300000Y-51891428D01*
X209228571Y-52034285D01*
X209228571Y-52462857D01*
X209300000Y-52605714D01*
X209371428Y-52677142D01*
X209514285Y-52748571D01*
X209800000Y-52748571D01*
X209942857Y-52677142D01*
X208800000Y-51748571D02*
X208228571Y-51748571D01*
X208585714Y-51248571D02*
X208585714Y-52534285D01*
X208514285Y-52677142D01*
X208371428Y-52748571D01*
X208228571Y-52748571D01*
X207157142Y-52677142D02*
X207300000Y-52748571D01*
X207585714Y-52748571D01*
X207728571Y-52677142D01*
X207800000Y-52534285D01*
X207800000Y-51962857D01*
X207728571Y-51820000D01*
X207585714Y-51748571D01*
X207300000Y-51748571D01*
X207157142Y-51820000D01*
X207085714Y-51962857D01*
X207085714Y-52105714D01*
X207800000Y-52248571D01*
X206442857Y-52748571D02*
X206442857Y-51748571D01*
X206442857Y-52034285D02*
X206371428Y-51891428D01*
X206300000Y-51820000D01*
X206157142Y-51748571D01*
X206014285Y-51748571D01*
X203442857Y-51248571D02*
X202942857Y-52748571D01*
X202442857Y-51248571D01*
X202014285Y-51391428D02*
X201942857Y-51320000D01*
X201800000Y-51248571D01*
X201442857Y-51248571D01*
X201300000Y-51320000D01*
X201228571Y-51391428D01*
X201157142Y-51534285D01*
X201157142Y-51677142D01*
X201228571Y-51891428D01*
X202085714Y-52748571D01*
X201157142Y-52748571D01*
X200514285Y-52605714D02*
X200442857Y-52677142D01*
X200514285Y-52748571D01*
X200585714Y-52677142D01*
X200514285Y-52605714D01*
X200514285Y-52748571D01*
X199085714Y-51248571D02*
X199800000Y-51248571D01*
X199871428Y-51962857D01*
X199800000Y-51891428D01*
X199657142Y-51820000D01*
X199300000Y-51820000D01*
X199157142Y-51891428D01*
X199085714Y-51962857D01*
X199014285Y-52105714D01*
X199014285Y-52462857D01*
X199085714Y-52605714D01*
X199157142Y-52677142D01*
X199300000Y-52748571D01*
X199657142Y-52748571D01*
X199800000Y-52677142D01*
X199871428Y-52605714D01*
X195657142Y-51248571D02*
X195657142Y-52320000D01*
X195728571Y-52534285D01*
X195871428Y-52677142D01*
X196085714Y-52748571D01*
X196228571Y-52748571D01*
X194728571Y-52748571D02*
X194871428Y-52677142D01*
X194942857Y-52605714D01*
X195014285Y-52462857D01*
X195014285Y-52034285D01*
X194942857Y-51891428D01*
X194871428Y-51820000D01*
X194728571Y-51748571D01*
X194514285Y-51748571D01*
X194371428Y-51820000D01*
X194300000Y-51891428D01*
X194228571Y-52034285D01*
X194228571Y-52462857D01*
X194300000Y-52605714D01*
X194371428Y-52677142D01*
X194514285Y-52748571D01*
X194728571Y-52748571D01*
X193085714Y-51962857D02*
X192871428Y-52034285D01*
X192800000Y-52105714D01*
X192728571Y-52248571D01*
X192728571Y-52462857D01*
X192800000Y-52605714D01*
X192871428Y-52677142D01*
X193014285Y-52748571D01*
X193585714Y-52748571D01*
X193585714Y-51248571D01*
X193085714Y-51248571D01*
X192942857Y-51320000D01*
X192871428Y-51391428D01*
X192800000Y-51534285D01*
X192800000Y-51677142D01*
X192871428Y-51820000D01*
X192942857Y-51891428D01*
X193085714Y-51962857D01*
X193585714Y-51962857D01*
X191442857Y-51748571D02*
X191442857Y-52748571D01*
X192085714Y-51748571D02*
X192085714Y-52534285D01*
X192014285Y-52677142D01*
X191871428Y-52748571D01*
X191657142Y-52748571D01*
X191514285Y-52677142D01*
X191442857Y-52605714D01*
X190800000Y-51391428D02*
X190728571Y-51320000D01*
X190585714Y-51248571D01*
X190228571Y-51248571D01*
X190085714Y-51320000D01*
X190014285Y-51391428D01*
X189942857Y-51534285D01*
X189942857Y-51677142D01*
X190014285Y-51891428D01*
X190871428Y-52748571D01*
X189942857Y-52748571D01*
X189014285Y-51248571D02*
X188871428Y-51248571D01*
X188728571Y-51320000D01*
X188657142Y-51391428D01*
X188585714Y-51534285D01*
X188514285Y-51820000D01*
X188514285Y-52177142D01*
X188585714Y-52462857D01*
X188657142Y-52605714D01*
X188728571Y-52677142D01*
X188871428Y-52748571D01*
X189014285Y-52748571D01*
X189157142Y-52677142D01*
X189228571Y-52605714D01*
X189300000Y-52462857D01*
X189371428Y-52177142D01*
X189371428Y-51820000D01*
X189300000Y-51534285D01*
X189228571Y-51391428D01*
X189157142Y-51320000D01*
X189014285Y-51248571D01*
X187942857Y-51391428D02*
X187871428Y-51320000D01*
X187728571Y-51248571D01*
X187371428Y-51248571D01*
X187228571Y-51320000D01*
X187157142Y-51391428D01*
X187085714Y-51534285D01*
X187085714Y-51677142D01*
X187157142Y-51891428D01*
X188014285Y-52748571D01*
X187085714Y-52748571D01*
X186157142Y-51248571D02*
X186014285Y-51248571D01*
X185871428Y-51320000D01*
X185800000Y-51391428D01*
X185728571Y-51534285D01*
X185657142Y-51820000D01*
X185657142Y-52177142D01*
X185728571Y-52462857D01*
X185800000Y-52605714D01*
X185871428Y-52677142D01*
X186014285Y-52748571D01*
X186157142Y-52748571D01*
X186300000Y-52677142D01*
X186371428Y-52605714D01*
X186442857Y-52462857D01*
X186514285Y-52177142D01*
X186514285Y-51820000D01*
X186442857Y-51534285D01*
X186371428Y-51391428D01*
X186300000Y-51320000D01*
X186157142Y-51248571D01*
D11*
G04 #@! TO.P,SW2,1*
G04 #@! TO.N,RST*
X218948000Y-91821000D03*
G04 #@! TO.P,SW2,2*
X218948000Y-85321000D03*
G04 #@! TO.P,SW2,3*
G04 #@! TO.N,GND*
X223448000Y-91821000D03*
G04 #@! TO.P,SW2,4*
X223448000Y-85321000D03*
G04 #@! TD*
D12*
G04 #@! TO.P,R3,1*
G04 #@! TO.N,/DTRR*
X180848000Y-66040000D03*
D13*
G04 #@! TO.P,R3,2*
G04 #@! TO.N,/DTR*
X180848000Y-55880000D03*
G04 #@! TD*
D14*
G04 #@! TO.P,Q2,2*
G04 #@! TO.N,/DTRR*
X185166000Y-62230000D03*
G04 #@! TO.P,Q2,3*
G04 #@! TO.N,/RTS*
X183896000Y-62230000D03*
D15*
G04 #@! TO.P,Q2,1*
G04 #@! TO.N,RST*
X186436000Y-62230000D03*
G04 #@! TD*
D16*
G04 #@! TO.P,J3,6*
G04 #@! TO.N,GND*
X234950000Y-78994000D03*
G04 #@! TO.P,J3,5*
G04 #@! TO.N,TX*
X234950000Y-76454000D03*
G04 #@! TO.P,J3,4*
G04 #@! TO.N,RX*
X234950000Y-73914000D03*
G04 #@! TO.P,J3,3*
G04 #@! TO.N,RST*
X234950000Y-71374000D03*
G04 #@! TO.P,J3,2*
G04 #@! TO.N,0*
X234950000Y-68834000D03*
D17*
G04 #@! TO.P,J3,1*
G04 #@! TO.N,VCC*
X234950000Y-66294000D03*
G04 #@! TD*
D18*
G04 #@! TO.P,C1,2*
G04 #@! TO.N,GND*
X180848000Y-87296000D03*
D19*
G04 #@! TO.P,C1,1*
G04 #@! TO.N,VCC*
X180848000Y-82296000D03*
G04 #@! TD*
D13*
G04 #@! TO.P,R4,2*
G04 #@! TO.N,VCC*
X228092000Y-62484000D03*
D12*
G04 #@! TO.P,R4,1*
G04 #@! TO.N,0*
X238252000Y-62484000D03*
G04 #@! TD*
D20*
G04 #@! TO.P,U3,16*
G04 #@! TO.N,TX*
X212344000Y-79724000D03*
G04 #@! TO.P,U3,15*
G04 #@! TO.N,RX*
X210344000Y-79724000D03*
G04 #@! TO.P,U3,14*
G04 #@! TO.N,5*
X208344000Y-79724000D03*
G04 #@! TO.P,U3,13*
G04 #@! TO.N,4*
X206344000Y-79724000D03*
G04 #@! TO.P,U3,12*
G04 #@! TO.N,0*
X204344000Y-79724000D03*
G04 #@! TO.P,U3,11*
G04 #@! TO.N,2*
X202344000Y-79724000D03*
G04 #@! TO.P,U3,10*
G04 #@! TO.N,15*
X200344000Y-79724000D03*
G04 #@! TO.P,U3,9*
G04 #@! TO.N,GND*
X198344000Y-79724000D03*
G04 #@! TO.P,U3,8*
G04 #@! TO.N,VCC*
X198344000Y-64324000D03*
G04 #@! TO.P,U3,7*
G04 #@! TO.N,13*
X200344000Y-64324000D03*
G04 #@! TO.P,U3,6*
G04 #@! TO.N,12*
X202344000Y-64324000D03*
G04 #@! TO.P,U3,5*
G04 #@! TO.N,14*
X204344000Y-64324000D03*
G04 #@! TO.P,U3,4*
G04 #@! TO.N,16*
X206344000Y-64324000D03*
G04 #@! TO.P,U3,3*
G04 #@! TO.N,VCC*
X208344000Y-64324000D03*
G04 #@! TO.P,U3,2*
G04 #@! TO.N,ADC*
X210344000Y-64324000D03*
G04 #@! TO.P,U3,1*
G04 #@! TO.N,RST*
X212344000Y-64324000D03*
G04 #@! TD*
G04 #@! TO.P,U2,16*
G04 #@! TO.N,TX*
X212344000Y-82264000D03*
G04 #@! TO.P,U2,15*
G04 #@! TO.N,RX*
X210344000Y-82264000D03*
G04 #@! TO.P,U2,14*
G04 #@! TO.N,5*
X208344000Y-82264000D03*
G04 #@! TO.P,U2,13*
G04 #@! TO.N,4*
X206344000Y-82264000D03*
G04 #@! TO.P,U2,12*
G04 #@! TO.N,0*
X204344000Y-82264000D03*
G04 #@! TO.P,U2,11*
G04 #@! TO.N,2*
X202344000Y-82264000D03*
G04 #@! TO.P,U2,10*
G04 #@! TO.N,15*
X200344000Y-82264000D03*
G04 #@! TO.P,U2,9*
G04 #@! TO.N,GND*
X198344000Y-82264000D03*
G04 #@! TO.P,U2,8*
G04 #@! TO.N,VCC*
X198344000Y-66864000D03*
G04 #@! TO.P,U2,7*
G04 #@! TO.N,13*
X200344000Y-66864000D03*
G04 #@! TO.P,U2,6*
G04 #@! TO.N,12*
X202344000Y-66864000D03*
G04 #@! TO.P,U2,5*
G04 #@! TO.N,14*
X204344000Y-66864000D03*
G04 #@! TO.P,U2,4*
G04 #@! TO.N,16*
X206344000Y-66864000D03*
G04 #@! TO.P,U2,3*
G04 #@! TO.N,VCC*
X208344000Y-66864000D03*
G04 #@! TO.P,U2,2*
G04 #@! TO.N,ADC*
X210344000Y-66864000D03*
G04 #@! TO.P,U2,1*
G04 #@! TO.N,RST*
X212344000Y-66864000D03*
G04 #@! TD*
D16*
G04 #@! TO.P,J1,8*
G04 #@! TO.N,TX*
X214884000Y-86614000D03*
G04 #@! TO.P,J1,7*
G04 #@! TO.N,RX*
X212344000Y-86614000D03*
G04 #@! TO.P,J1,6*
G04 #@! TO.N,5*
X209804000Y-86614000D03*
G04 #@! TO.P,J1,5*
G04 #@! TO.N,4*
X207264000Y-86614000D03*
G04 #@! TO.P,J1,4*
G04 #@! TO.N,0*
X204724000Y-86614000D03*
G04 #@! TO.P,J1,3*
G04 #@! TO.N,2*
X202184000Y-86614000D03*
G04 #@! TO.P,J1,2*
G04 #@! TO.N,15*
X199644000Y-86614000D03*
D17*
G04 #@! TO.P,J1,1*
G04 #@! TO.N,GND*
X197104000Y-86614000D03*
G04 #@! TD*
D12*
G04 #@! TO.P,C2,1*
G04 #@! TO.N,VCC*
X187325000Y-81407000D03*
G04 #@! TO.P,C2,2*
G04 #@! TO.N,GND*
X187325000Y-86407000D03*
G04 #@! TD*
D21*
G04 #@! TO.P,U1,1*
G04 #@! TO.N,Net-(U1-Pad1)*
X158750000Y-66040000D03*
G04 #@! TO.P,U1,2*
G04 #@! TO.N,Net-(U1-Pad2)*
X158750000Y-68580000D03*
G04 #@! TO.P,U1,3*
G04 #@! TO.N,Net-(U1-Pad3)*
X158750000Y-71120000D03*
G04 #@! TO.P,U1,4*
G04 #@! TO.N,Net-(U1-Pad4)*
X158750000Y-73660000D03*
G04 #@! TO.P,U1,5*
G04 #@! TO.N,Net-(U1-Pad5)*
X158750000Y-76200000D03*
G04 #@! TO.P,U1,6*
G04 #@! TO.N,Net-(U1-Pad6)*
X158750000Y-78740000D03*
G04 #@! TO.P,U1,7*
G04 #@! TO.N,Net-(U1-Pad7)*
X158750000Y-81280000D03*
G04 #@! TO.P,U1,8*
G04 #@! TO.N,Net-(U1-Pad8)*
X158750000Y-83820000D03*
G04 #@! TO.P,U1,9*
G04 #@! TO.N,GND*
X158750000Y-86360000D03*
G04 #@! TO.P,U1,10*
G04 #@! TO.N,RX*
X173990000Y-86360000D03*
G04 #@! TO.P,U1,11*
G04 #@! TO.N,/DTR*
X173990000Y-83820000D03*
G04 #@! TO.P,U1,12*
G04 #@! TO.N,/RTS*
X173990000Y-81280000D03*
G04 #@! TO.P,U1,13*
G04 #@! TO.N,VCC*
X173990000Y-78740000D03*
G04 #@! TO.P,U1,14*
G04 #@! TO.N,TX*
X173990000Y-76200000D03*
G04 #@! TO.P,U1,15*
G04 #@! TO.N,Net-(U1-Pad15)*
X173990000Y-73660000D03*
G04 #@! TO.P,U1,16*
G04 #@! TO.N,GND*
X173990000Y-71120000D03*
G04 #@! TO.P,U1,17*
G04 #@! TO.N,Net-(U1-Pad17)*
X173990000Y-68580000D03*
G04 #@! TO.P,U1,18*
G04 #@! TO.N,Net-(U1-Pad18)*
X173990000Y-66040000D03*
G04 #@! TD*
D11*
G04 #@! TO.P,SW1,1*
G04 #@! TO.N,0*
X227203000Y-91821000D03*
G04 #@! TO.P,SW1,2*
X227203000Y-85321000D03*
G04 #@! TO.P,SW1,3*
G04 #@! TO.N,GND*
X231703000Y-91821000D03*
G04 #@! TO.P,SW1,4*
X231703000Y-85321000D03*
G04 #@! TD*
D12*
G04 #@! TO.P,R2,1*
G04 #@! TO.N,/RTSR*
X177292000Y-55880000D03*
D13*
G04 #@! TO.P,R2,2*
G04 #@! TO.N,/RTS*
X177292000Y-66040000D03*
G04 #@! TD*
D12*
G04 #@! TO.P,R1,1*
G04 #@! TO.N,15*
X187198000Y-92202000D03*
D13*
G04 #@! TO.P,R1,2*
G04 #@! TO.N,GND*
X177038000Y-92202000D03*
G04 #@! TD*
D14*
G04 #@! TO.P,Q1,2*
G04 #@! TO.N,/RTSR*
X185166000Y-57404000D03*
G04 #@! TO.P,Q1,3*
G04 #@! TO.N,/DTR*
X183896000Y-57404000D03*
D15*
G04 #@! TO.P,Q1,1*
G04 #@! TO.N,0*
X186436000Y-57404000D03*
G04 #@! TD*
D17*
G04 #@! TO.P,J2,1*
G04 #@! TO.N,RST*
X214884000Y-59944000D03*
D16*
G04 #@! TO.P,J2,2*
G04 #@! TO.N,ADC*
X212344000Y-59944000D03*
G04 #@! TO.P,J2,3*
G04 #@! TO.N,VCC*
X209804000Y-59944000D03*
G04 #@! TO.P,J2,4*
G04 #@! TO.N,16*
X207264000Y-59944000D03*
G04 #@! TO.P,J2,5*
G04 #@! TO.N,14*
X204724000Y-59944000D03*
G04 #@! TO.P,J2,6*
G04 #@! TO.N,12*
X202184000Y-59944000D03*
G04 #@! TO.P,J2,7*
G04 #@! TO.N,13*
X199644000Y-59944000D03*
G04 #@! TO.P,J2,8*
G04 #@! TO.N,VCC*
X197104000Y-59944000D03*
G04 #@! TD*
D22*
G04 #@! TO.N,TX*
X214630000Y-76708000D03*
X192024000Y-76057179D03*
G04 #@! TO.N,RX*
X194935764Y-78166010D03*
X208026000Y-77404010D03*
G04 #@! TO.N,RST*
X218948000Y-62484000D03*
G04 #@! TD*
D23*
G04 #@! TO.N,TX*
X212344000Y-79024000D02*
X212344000Y-84074000D01*
X212344000Y-84074000D02*
X214884000Y-86614000D01*
X234950000Y-76454000D02*
X214884000Y-76454000D01*
X214630000Y-76708000D02*
X212344000Y-78994000D01*
X214884000Y-76454000D02*
X214630000Y-76708000D01*
X173990000Y-76200000D02*
X191881179Y-76200000D01*
X191881179Y-76200000D02*
X192024000Y-76057179D01*
G04 #@! TO.N,RX*
X210344000Y-79024000D02*
X210344000Y-84614000D01*
X210344000Y-84614000D02*
X212344000Y-86614000D01*
X210344000Y-79024000D02*
X210790000Y-79024000D01*
X173990000Y-86360000D02*
X176530000Y-83820000D01*
X189281774Y-83820000D02*
X194935764Y-78166010D01*
X176530000Y-83820000D02*
X189281774Y-83820000D01*
X234950000Y-73914000D02*
X233172000Y-75692000D01*
X233172000Y-75692000D02*
X209738010Y-75692000D01*
X209738010Y-75692000D02*
X208026000Y-77404010D01*
X208026000Y-77404010D02*
X208722010Y-77404010D01*
X208722010Y-77404010D02*
X210312000Y-78994000D01*
G04 #@! TO.N,5*
X208344000Y-79024000D02*
X208344000Y-85154000D01*
X208344000Y-85154000D02*
X209804000Y-86614000D01*
G04 #@! TO.N,4*
X206344000Y-79024000D02*
X206344000Y-85694000D01*
X206344000Y-85694000D02*
X207264000Y-86614000D01*
G04 #@! TO.N,0*
X204344000Y-79024000D02*
X204344000Y-86234000D01*
X204344000Y-86234000D02*
X204724000Y-86614000D01*
X227330000Y-85344000D02*
X227330000Y-91694000D01*
X234950000Y-68834000D02*
X238252000Y-65532000D01*
X238252000Y-65532000D02*
X238252000Y-62484000D01*
X186436000Y-57404000D02*
X233172000Y-57404000D01*
X233172000Y-57404000D02*
X238252000Y-62484000D01*
X237236000Y-71120000D02*
X234950000Y-68834000D01*
X237236000Y-89154000D02*
X237236000Y-71120000D01*
X232410000Y-93980000D02*
X237236000Y-89154000D01*
X229362000Y-93980000D02*
X232410000Y-93980000D01*
X227203000Y-91821000D02*
X229362000Y-93980000D01*
X234950000Y-68834000D02*
X228854000Y-74930000D01*
X207664276Y-74930000D02*
X204470000Y-78124276D01*
X204470000Y-78124276D02*
X204470000Y-78994000D01*
X228854000Y-74930000D02*
X207664276Y-74930000D01*
G04 #@! TO.N,2*
X202344000Y-79024000D02*
X202344000Y-86454000D01*
X202344000Y-86454000D02*
X202184000Y-86614000D01*
G04 #@! TO.N,15*
X200344000Y-79024000D02*
X200344000Y-85914000D01*
X200344000Y-85914000D02*
X199644000Y-86614000D01*
X200279000Y-78994000D02*
X200279000Y-85979000D01*
X200279000Y-85979000D02*
X199644000Y-86614000D01*
X199644000Y-86614000D02*
X194056000Y-92202000D01*
X194056000Y-92202000D02*
X187198000Y-92202000D01*
D24*
G04 #@! TO.N,GND*
X197104000Y-86614000D02*
X197104000Y-84074000D01*
X197104000Y-84074000D02*
X198374000Y-82804000D01*
X198374000Y-82804000D02*
X198374000Y-78994000D01*
X197104000Y-86614000D02*
X197104000Y-86974002D01*
X187452000Y-86360000D02*
X181864000Y-86360000D01*
X181864000Y-86360000D02*
X177292000Y-90932000D01*
X177292000Y-90932000D02*
X177292000Y-91948000D01*
X177292000Y-91948000D02*
X177038000Y-92202000D01*
X160528000Y-87884000D02*
X159004000Y-86360000D01*
X172974000Y-90170000D02*
X170688000Y-87884000D01*
X175006000Y-90170000D02*
X172974000Y-90170000D01*
X177038000Y-92202000D02*
X175006000Y-90170000D01*
X231648000Y-85344000D02*
X231648000Y-91948000D01*
X223520000Y-91694000D02*
X223520000Y-85344000D01*
X231703000Y-85321000D02*
X231703000Y-82241000D01*
X187325000Y-86407000D02*
X196897000Y-86407000D01*
X196897000Y-86407000D02*
X197104000Y-86614000D01*
X180848000Y-87924002D02*
X180848000Y-87122000D01*
X187411998Y-94488000D02*
X180848000Y-87924002D01*
X223448000Y-91821000D02*
X220781000Y-94488000D01*
X220781000Y-94488000D02*
X215392000Y-94488000D01*
X215392000Y-94488000D02*
X187411998Y-94488000D01*
X232537000Y-81407000D02*
X234950000Y-78994000D01*
X231703000Y-82241000D02*
X232537000Y-81407000D01*
X170688000Y-87884000D02*
X168402000Y-87884000D01*
X168402000Y-87884000D02*
X168402000Y-87122000D01*
X168402000Y-87884000D02*
X160528000Y-87884000D01*
X230886000Y-83058000D02*
X232537000Y-81407000D01*
X219064998Y-83058000D02*
X230886000Y-83058000D01*
X217497999Y-84624999D02*
X219064998Y-83058000D01*
X217497999Y-92382001D02*
X217497999Y-84624999D01*
X215392000Y-94488000D02*
X217497999Y-92382001D01*
D23*
G04 #@! TO.N,13*
X200344000Y-67564000D02*
X200344000Y-60644000D01*
X200344000Y-60644000D02*
X199644000Y-59944000D01*
G04 #@! TO.N,12*
X202344000Y-67564000D02*
X202344000Y-60104000D01*
G04 #@! TO.N,14*
X204344000Y-67564000D02*
X204344000Y-60324000D01*
G04 #@! TO.N,16*
X206344000Y-67564000D02*
X206344000Y-60864000D01*
X206344000Y-60864000D02*
X207264000Y-59944000D01*
G04 #@! TO.N,ADC*
X210344000Y-67564000D02*
X210344000Y-65014000D01*
X210654010Y-64703990D02*
X210654010Y-61923990D01*
X210344000Y-65014000D02*
X210654010Y-64703990D01*
X210654010Y-61923990D02*
X212374000Y-60204000D01*
X212374000Y-60204000D02*
X212374000Y-59974000D01*
G04 #@! TO.N,RST*
X212344000Y-67564000D02*
X212344000Y-65024000D01*
X212344000Y-65024000D02*
X212344000Y-62484000D01*
X212344000Y-62484000D02*
X214884000Y-59944000D01*
X218948000Y-91821000D02*
X218948000Y-85344000D01*
X186436000Y-60980000D02*
X188996000Y-58420000D01*
X186436000Y-62230000D02*
X186436000Y-60980000D01*
X188996000Y-58420000D02*
X213360000Y-58420000D01*
X213360000Y-58420000D02*
X214884000Y-59944000D01*
X227827001Y-84020999D02*
X220271001Y-84020999D01*
X228503001Y-84696999D02*
X227827001Y-84020999D01*
X228503001Y-91196999D02*
X228503001Y-84696999D01*
X230524002Y-93218000D02*
X228503001Y-91196999D01*
X232182038Y-93218000D02*
X230524002Y-93218000D01*
X236535990Y-88864048D02*
X232182038Y-93218000D01*
X236535990Y-72959990D02*
X236535990Y-88864048D01*
X234950000Y-71374000D02*
X236535990Y-72959990D01*
X220271001Y-84020999D02*
X218948000Y-85344000D01*
X218948000Y-62484000D02*
X216916000Y-60452000D01*
X216916000Y-60452000D02*
X216408000Y-59944000D01*
X216408000Y-59944000D02*
X214884000Y-59944000D01*
G04 #@! TO.N,/DTR*
X183896000Y-57404000D02*
X183896000Y-57150000D01*
X183896000Y-57150000D02*
X182626000Y-55880000D01*
X182626000Y-55880000D02*
X180848000Y-55880000D01*
X180848000Y-56134000D02*
X180848000Y-55880000D01*
X172077989Y-64904011D02*
X180848000Y-56134000D01*
X172077989Y-81907989D02*
X172077989Y-64904011D01*
X173990000Y-83820000D02*
X172077989Y-81907989D01*
G04 #@! TO.N,/RTSR*
X185166000Y-57070128D02*
X182725871Y-54629999D01*
X182725871Y-54629999D02*
X178542001Y-54629999D01*
X185166000Y-57404000D02*
X185166000Y-57070128D01*
X178542001Y-54629999D02*
X177292000Y-55880000D01*
G04 #@! TO.N,/RTS*
X173408239Y-64827999D02*
X176079999Y-64827999D01*
X172777999Y-80067999D02*
X172777999Y-65458239D01*
X172777999Y-65458239D02*
X173408239Y-64827999D01*
X173990000Y-81280000D02*
X172777999Y-80067999D01*
X176079999Y-64827999D02*
X179070000Y-67818000D01*
X179070000Y-67818000D02*
X181610000Y-67818000D01*
X181610000Y-67818000D02*
X183896000Y-65532000D01*
X183896000Y-65532000D02*
X183896000Y-62230000D01*
G04 #@! TO.N,/DTRR*
X184299862Y-61029990D02*
X185166000Y-61896128D01*
X183492138Y-61029990D02*
X184299862Y-61029990D01*
X180848000Y-63674128D02*
X183492138Y-61029990D01*
X180848000Y-66040000D02*
X180848000Y-63674128D01*
X185166000Y-61896128D02*
X185166000Y-62230000D01*
D24*
G04 #@! TO.N,VCC*
X208534000Y-62484000D02*
X209804000Y-61214000D01*
X208534000Y-67564000D02*
X208534000Y-62484000D01*
X209804000Y-61214000D02*
X209804000Y-59944000D01*
X198344000Y-67564000D02*
X198344000Y-61184000D01*
X198344000Y-61184000D02*
X197104000Y-59944000D01*
X173990000Y-78740000D02*
X177546000Y-78740000D01*
X177546000Y-78740000D02*
X180848000Y-82042000D01*
X180848000Y-82042000D02*
X186690000Y-82042000D01*
X186690000Y-82042000D02*
X187452000Y-81280000D01*
X198374000Y-71120000D02*
X198374000Y-67564000D01*
X208344000Y-70802000D02*
X208026000Y-71120000D01*
X208344000Y-67564000D02*
X208344000Y-70802000D01*
X208026000Y-71120000D02*
X209550000Y-71120000D01*
X204978000Y-71120000D02*
X208026000Y-71120000D01*
X198374000Y-71882000D02*
X198374000Y-71628000D01*
X198374000Y-71120000D02*
X198882000Y-71120000D01*
X198374000Y-71882000D02*
X198374000Y-71120000D01*
X209550000Y-71120000D02*
X223520000Y-71120000D01*
X223520000Y-71120000D02*
X228346000Y-66294000D01*
X228346000Y-66294000D02*
X234950000Y-66294000D01*
X228346000Y-66294000D02*
X228346000Y-62738000D01*
X228346000Y-62738000D02*
X228092000Y-62484000D01*
X197485000Y-72771000D02*
X199136000Y-71120000D01*
X198882000Y-71120000D02*
X199136000Y-71120000D01*
X199136000Y-71120000D02*
X204978000Y-71120000D01*
X197485000Y-72771000D02*
X198374000Y-71882000D01*
X187325000Y-81407000D02*
X188849000Y-81407000D01*
X188849000Y-81407000D02*
X197485000Y-72771000D01*
G04 #@! TD*
D25*
G04 #@! TO.N,GND*
X238958395Y-49674843D02*
X239150765Y-49726388D01*
X239331260Y-49810555D01*
X239494390Y-49924780D01*
X239635220Y-50065610D01*
X239749445Y-50228740D01*
X239833612Y-50409235D01*
X239885157Y-50601605D01*
X239903000Y-50805548D01*
X239903000Y-99054452D01*
X239885157Y-99258395D01*
X239833612Y-99450765D01*
X239749445Y-99631260D01*
X239635220Y-99794390D01*
X239494390Y-99935220D01*
X239331260Y-100049445D01*
X239150765Y-100133612D01*
X238958395Y-100185157D01*
X238754452Y-100203000D01*
X154945548Y-100203000D01*
X154741605Y-100185157D01*
X154549235Y-100133612D01*
X154368740Y-100049445D01*
X154205610Y-99935220D01*
X154064780Y-99794390D01*
X153950555Y-99631260D01*
X153866388Y-99450765D01*
X153814843Y-99258395D01*
X153797000Y-99054452D01*
X153797000Y-96299872D01*
X155245000Y-96299872D01*
X155245000Y-96740128D01*
X155330890Y-97171925D01*
X155499369Y-97578669D01*
X155743962Y-97944729D01*
X156055271Y-98256038D01*
X156421331Y-98500631D01*
X156828075Y-98669110D01*
X157259872Y-98755000D01*
X157700128Y-98755000D01*
X158131925Y-98669110D01*
X158538669Y-98500631D01*
X158904729Y-98256038D01*
X159216038Y-97944729D01*
X159460631Y-97578669D01*
X159629110Y-97171925D01*
X159715000Y-96740128D01*
X159715000Y-96299872D01*
X159629110Y-95868075D01*
X159578545Y-95746000D01*
X171184429Y-95746000D01*
X171184429Y-99566000D01*
X228611572Y-99566000D01*
X228611572Y-96299872D01*
X233985000Y-96299872D01*
X233985000Y-96740128D01*
X234070890Y-97171925D01*
X234239369Y-97578669D01*
X234483962Y-97944729D01*
X234795271Y-98256038D01*
X235161331Y-98500631D01*
X235568075Y-98669110D01*
X235999872Y-98755000D01*
X236440128Y-98755000D01*
X236871925Y-98669110D01*
X237278669Y-98500631D01*
X237644729Y-98256038D01*
X237956038Y-97944729D01*
X238200631Y-97578669D01*
X238369110Y-97171925D01*
X238455000Y-96740128D01*
X238455000Y-96299872D01*
X238369110Y-95868075D01*
X238200631Y-95461331D01*
X237956038Y-95095271D01*
X237644729Y-94783962D01*
X237278669Y-94539369D01*
X236871925Y-94370890D01*
X236440128Y-94285000D01*
X235999872Y-94285000D01*
X235568075Y-94370890D01*
X235161331Y-94539369D01*
X234795271Y-94783962D01*
X234483962Y-95095271D01*
X234239369Y-95461331D01*
X234070890Y-95868075D01*
X233985000Y-96299872D01*
X228611572Y-96299872D01*
X228611572Y-95746000D01*
X171184429Y-95746000D01*
X159578545Y-95746000D01*
X159460631Y-95461331D01*
X159216038Y-95095271D01*
X158904729Y-94783962D01*
X158538669Y-94539369D01*
X158131925Y-94370890D01*
X157700128Y-94285000D01*
X157259872Y-94285000D01*
X156828075Y-94370890D01*
X156421331Y-94539369D01*
X156055271Y-94783962D01*
X155743962Y-95095271D01*
X155499369Y-95461331D01*
X155330890Y-95868075D01*
X155245000Y-96299872D01*
X153797000Y-96299872D01*
X153797000Y-92551039D01*
X175646096Y-92551039D01*
X175686754Y-92685087D01*
X175806963Y-92939420D01*
X175974481Y-93165414D01*
X176182869Y-93354385D01*
X176424119Y-93499070D01*
X176688960Y-93593909D01*
X176911000Y-93472624D01*
X176911000Y-92329000D01*
X177165000Y-92329000D01*
X177165000Y-93472624D01*
X177387040Y-93593909D01*
X177651881Y-93499070D01*
X177893131Y-93354385D01*
X178101519Y-93165414D01*
X178269037Y-92939420D01*
X178389246Y-92685087D01*
X178429904Y-92551039D01*
X178307915Y-92329000D01*
X177165000Y-92329000D01*
X176911000Y-92329000D01*
X175768085Y-92329000D01*
X175646096Y-92551039D01*
X153797000Y-92551039D01*
X153797000Y-91852961D01*
X175646096Y-91852961D01*
X175768085Y-92075000D01*
X176911000Y-92075000D01*
X176911000Y-90931376D01*
X177165000Y-90931376D01*
X177165000Y-92075000D01*
X178307915Y-92075000D01*
X178429904Y-91852961D01*
X178389246Y-91718913D01*
X178269037Y-91464580D01*
X178101519Y-91238586D01*
X177893131Y-91049615D01*
X177651881Y-90904930D01*
X177387040Y-90810091D01*
X177165000Y-90931376D01*
X176911000Y-90931376D01*
X176688960Y-90810091D01*
X176424119Y-90904930D01*
X176182869Y-91049615D01*
X175974481Y-91238586D01*
X175806963Y-91464580D01*
X175686754Y-91718913D01*
X175646096Y-91852961D01*
X153797000Y-91852961D01*
X153797000Y-88431413D01*
X179892192Y-88431413D01*
X179987956Y-88695814D01*
X180277571Y-88836704D01*
X180589108Y-88918384D01*
X180910595Y-88937718D01*
X181229675Y-88893961D01*
X181534088Y-88788795D01*
X181708044Y-88695814D01*
X181803808Y-88431413D01*
X180848000Y-87475605D01*
X179892192Y-88431413D01*
X153797000Y-88431413D01*
X153797000Y-87325565D01*
X157964040Y-87325565D01*
X158031020Y-87565656D01*
X158280048Y-87682756D01*
X158547135Y-87749023D01*
X158822017Y-87761910D01*
X159094133Y-87720922D01*
X159353023Y-87627636D01*
X159468980Y-87565656D01*
X159535960Y-87325565D01*
X158750000Y-86539605D01*
X157964040Y-87325565D01*
X153797000Y-87325565D01*
X153797000Y-86432017D01*
X157348090Y-86432017D01*
X157389078Y-86704133D01*
X157482364Y-86963023D01*
X157544344Y-87078980D01*
X157784435Y-87145960D01*
X158570395Y-86360000D01*
X158929605Y-86360000D01*
X159715565Y-87145960D01*
X159955656Y-87078980D01*
X160072756Y-86829952D01*
X160139023Y-86562865D01*
X160151910Y-86287983D01*
X160110922Y-86015867D01*
X160017636Y-85756977D01*
X159955656Y-85641020D01*
X159715565Y-85574040D01*
X158929605Y-86360000D01*
X158570395Y-86360000D01*
X157784435Y-85574040D01*
X157544344Y-85641020D01*
X157427244Y-85890048D01*
X157360977Y-86157135D01*
X157348090Y-86432017D01*
X153797000Y-86432017D01*
X153797000Y-65902408D01*
X157353000Y-65902408D01*
X157353000Y-66177592D01*
X157406686Y-66447490D01*
X157511995Y-66701727D01*
X157664880Y-66930535D01*
X157859465Y-67125120D01*
X158088273Y-67278005D01*
X158165515Y-67310000D01*
X158088273Y-67341995D01*
X157859465Y-67494880D01*
X157664880Y-67689465D01*
X157511995Y-67918273D01*
X157406686Y-68172510D01*
X157353000Y-68442408D01*
X157353000Y-68717592D01*
X157406686Y-68987490D01*
X157511995Y-69241727D01*
X157664880Y-69470535D01*
X157859465Y-69665120D01*
X158088273Y-69818005D01*
X158165515Y-69850000D01*
X158088273Y-69881995D01*
X157859465Y-70034880D01*
X157664880Y-70229465D01*
X157511995Y-70458273D01*
X157406686Y-70712510D01*
X157353000Y-70982408D01*
X157353000Y-71257592D01*
X157406686Y-71527490D01*
X157511995Y-71781727D01*
X157664880Y-72010535D01*
X157859465Y-72205120D01*
X158088273Y-72358005D01*
X158165515Y-72390000D01*
X158088273Y-72421995D01*
X157859465Y-72574880D01*
X157664880Y-72769465D01*
X157511995Y-72998273D01*
X157406686Y-73252510D01*
X157353000Y-73522408D01*
X157353000Y-73797592D01*
X157406686Y-74067490D01*
X157511995Y-74321727D01*
X157664880Y-74550535D01*
X157859465Y-74745120D01*
X158088273Y-74898005D01*
X158165515Y-74930000D01*
X158088273Y-74961995D01*
X157859465Y-75114880D01*
X157664880Y-75309465D01*
X157511995Y-75538273D01*
X157406686Y-75792510D01*
X157353000Y-76062408D01*
X157353000Y-76337592D01*
X157406686Y-76607490D01*
X157511995Y-76861727D01*
X157664880Y-77090535D01*
X157859465Y-77285120D01*
X158088273Y-77438005D01*
X158165515Y-77470000D01*
X158088273Y-77501995D01*
X157859465Y-77654880D01*
X157664880Y-77849465D01*
X157511995Y-78078273D01*
X157406686Y-78332510D01*
X157353000Y-78602408D01*
X157353000Y-78877592D01*
X157406686Y-79147490D01*
X157511995Y-79401727D01*
X157664880Y-79630535D01*
X157859465Y-79825120D01*
X158088273Y-79978005D01*
X158165515Y-80010000D01*
X158088273Y-80041995D01*
X157859465Y-80194880D01*
X157664880Y-80389465D01*
X157511995Y-80618273D01*
X157406686Y-80872510D01*
X157353000Y-81142408D01*
X157353000Y-81417592D01*
X157406686Y-81687490D01*
X157511995Y-81941727D01*
X157664880Y-82170535D01*
X157859465Y-82365120D01*
X158088273Y-82518005D01*
X158165515Y-82550000D01*
X158088273Y-82581995D01*
X157859465Y-82734880D01*
X157664880Y-82929465D01*
X157511995Y-83158273D01*
X157406686Y-83412510D01*
X157353000Y-83682408D01*
X157353000Y-83957592D01*
X157406686Y-84227490D01*
X157511995Y-84481727D01*
X157664880Y-84710535D01*
X157859465Y-84905120D01*
X158088273Y-85058005D01*
X158159943Y-85087692D01*
X158146977Y-85092364D01*
X158031020Y-85154344D01*
X157964040Y-85394435D01*
X158750000Y-86180395D01*
X159535960Y-85394435D01*
X159468980Y-85154344D01*
X159333240Y-85090515D01*
X159411727Y-85058005D01*
X159640535Y-84905120D01*
X159835120Y-84710535D01*
X159988005Y-84481727D01*
X160093314Y-84227490D01*
X160147000Y-83957592D01*
X160147000Y-83682408D01*
X160093314Y-83412510D01*
X159988005Y-83158273D01*
X159835120Y-82929465D01*
X159640535Y-82734880D01*
X159411727Y-82581995D01*
X159334485Y-82550000D01*
X159411727Y-82518005D01*
X159640535Y-82365120D01*
X159835120Y-82170535D01*
X159988005Y-81941727D01*
X160093314Y-81687490D01*
X160147000Y-81417592D01*
X160147000Y-81142408D01*
X160093314Y-80872510D01*
X159988005Y-80618273D01*
X159835120Y-80389465D01*
X159640535Y-80194880D01*
X159411727Y-80041995D01*
X159334485Y-80010000D01*
X159411727Y-79978005D01*
X159640535Y-79825120D01*
X159835120Y-79630535D01*
X159988005Y-79401727D01*
X160093314Y-79147490D01*
X160147000Y-78877592D01*
X160147000Y-78602408D01*
X160093314Y-78332510D01*
X159988005Y-78078273D01*
X159835120Y-77849465D01*
X159640535Y-77654880D01*
X159411727Y-77501995D01*
X159334485Y-77470000D01*
X159411727Y-77438005D01*
X159640535Y-77285120D01*
X159835120Y-77090535D01*
X159988005Y-76861727D01*
X160093314Y-76607490D01*
X160147000Y-76337592D01*
X160147000Y-76062408D01*
X160093314Y-75792510D01*
X159988005Y-75538273D01*
X159835120Y-75309465D01*
X159640535Y-75114880D01*
X159411727Y-74961995D01*
X159334485Y-74930000D01*
X159411727Y-74898005D01*
X159640535Y-74745120D01*
X159835120Y-74550535D01*
X159988005Y-74321727D01*
X160093314Y-74067490D01*
X160147000Y-73797592D01*
X160147000Y-73522408D01*
X160093314Y-73252510D01*
X159988005Y-72998273D01*
X159835120Y-72769465D01*
X159640535Y-72574880D01*
X159411727Y-72421995D01*
X159334485Y-72390000D01*
X159411727Y-72358005D01*
X159640535Y-72205120D01*
X159835120Y-72010535D01*
X159988005Y-71781727D01*
X160093314Y-71527490D01*
X160147000Y-71257592D01*
X160147000Y-70982408D01*
X160093314Y-70712510D01*
X159988005Y-70458273D01*
X159835120Y-70229465D01*
X159640535Y-70034880D01*
X159411727Y-69881995D01*
X159334485Y-69850000D01*
X159411727Y-69818005D01*
X159640535Y-69665120D01*
X159835120Y-69470535D01*
X159988005Y-69241727D01*
X160093314Y-68987490D01*
X160147000Y-68717592D01*
X160147000Y-68442408D01*
X160093314Y-68172510D01*
X159988005Y-67918273D01*
X159835120Y-67689465D01*
X159640535Y-67494880D01*
X159411727Y-67341995D01*
X159334485Y-67310000D01*
X159411727Y-67278005D01*
X159640535Y-67125120D01*
X159835120Y-66930535D01*
X159988005Y-66701727D01*
X160093314Y-66447490D01*
X160147000Y-66177592D01*
X160147000Y-65902408D01*
X160093314Y-65632510D01*
X159988005Y-65378273D01*
X159835120Y-65149465D01*
X159640535Y-64954880D01*
X159564405Y-64904011D01*
X171188708Y-64904011D01*
X171192990Y-64947490D01*
X171192989Y-81864520D01*
X171188708Y-81907989D01*
X171192989Y-81951458D01*
X171192989Y-81951465D01*
X171205794Y-82081478D01*
X171256400Y-82248301D01*
X171338578Y-82402047D01*
X171449172Y-82536806D01*
X171482945Y-82564523D01*
X172594299Y-83675878D01*
X172593000Y-83682408D01*
X172593000Y-83957592D01*
X172646686Y-84227490D01*
X172751995Y-84481727D01*
X172904880Y-84710535D01*
X173099465Y-84905120D01*
X173328273Y-85058005D01*
X173405515Y-85090000D01*
X173328273Y-85121995D01*
X173099465Y-85274880D01*
X172904880Y-85469465D01*
X172751995Y-85698273D01*
X172646686Y-85952510D01*
X172593000Y-86222408D01*
X172593000Y-86497592D01*
X172646686Y-86767490D01*
X172751995Y-87021727D01*
X172904880Y-87250535D01*
X173099465Y-87445120D01*
X173328273Y-87598005D01*
X173582510Y-87703314D01*
X173852408Y-87757000D01*
X174127592Y-87757000D01*
X174397490Y-87703314D01*
X174651727Y-87598005D01*
X174880535Y-87445120D01*
X174967060Y-87358595D01*
X179206282Y-87358595D01*
X179250039Y-87677675D01*
X179355205Y-87982088D01*
X179448186Y-88156044D01*
X179712587Y-88251808D01*
X180668395Y-87296000D01*
X181027605Y-87296000D01*
X181983413Y-88251808D01*
X182247814Y-88156044D01*
X182388704Y-87866429D01*
X182470384Y-87554892D01*
X182479717Y-87399702D01*
X186511903Y-87399702D01*
X186583486Y-87643671D01*
X186838996Y-87764571D01*
X187113184Y-87833300D01*
X187395512Y-87847217D01*
X187675130Y-87805787D01*
X187941292Y-87710603D01*
X188066514Y-87643671D01*
X188138097Y-87399702D01*
X187325000Y-86586605D01*
X186511903Y-87399702D01*
X182479717Y-87399702D01*
X182489718Y-87233405D01*
X182445961Y-86914325D01*
X182340795Y-86609912D01*
X182270027Y-86477512D01*
X185884783Y-86477512D01*
X185926213Y-86757130D01*
X186021397Y-87023292D01*
X186088329Y-87148514D01*
X186332298Y-87220097D01*
X187145395Y-86407000D01*
X187504605Y-86407000D01*
X188317702Y-87220097D01*
X188561671Y-87148514D01*
X188682571Y-86893004D01*
X188751300Y-86618816D01*
X188765217Y-86336488D01*
X188723787Y-86056870D01*
X188628603Y-85790708D01*
X188614328Y-85764000D01*
X195615928Y-85764000D01*
X195619000Y-86328250D01*
X195777750Y-86487000D01*
X196977000Y-86487000D01*
X196977000Y-85287750D01*
X196818250Y-85129000D01*
X196254000Y-85125928D01*
X196129518Y-85138188D01*
X196009820Y-85174498D01*
X195899506Y-85233463D01*
X195802815Y-85312815D01*
X195723463Y-85409506D01*
X195664498Y-85519820D01*
X195628188Y-85639518D01*
X195615928Y-85764000D01*
X188614328Y-85764000D01*
X188561671Y-85665486D01*
X188317702Y-85593903D01*
X187504605Y-86407000D01*
X187145395Y-86407000D01*
X186332298Y-85593903D01*
X186088329Y-85665486D01*
X185967429Y-85920996D01*
X185898700Y-86195184D01*
X185884783Y-86477512D01*
X182270027Y-86477512D01*
X182247814Y-86435956D01*
X181983413Y-86340192D01*
X181027605Y-87296000D01*
X180668395Y-87296000D01*
X179712587Y-86340192D01*
X179448186Y-86435956D01*
X179307296Y-86725571D01*
X179225616Y-87037108D01*
X179206282Y-87358595D01*
X174967060Y-87358595D01*
X175075120Y-87250535D01*
X175228005Y-87021727D01*
X175333314Y-86767490D01*
X175387000Y-86497592D01*
X175387000Y-86222408D01*
X175385701Y-86215877D01*
X175440991Y-86160587D01*
X179892192Y-86160587D01*
X180848000Y-87116395D01*
X181803808Y-86160587D01*
X181708044Y-85896186D01*
X181418429Y-85755296D01*
X181106892Y-85673616D01*
X180785405Y-85654282D01*
X180466325Y-85698039D01*
X180161912Y-85803205D01*
X179987956Y-85896186D01*
X179892192Y-86160587D01*
X175440991Y-86160587D01*
X176187280Y-85414298D01*
X186511903Y-85414298D01*
X187325000Y-86227395D01*
X188138097Y-85414298D01*
X188066514Y-85170329D01*
X187811004Y-85049429D01*
X187536816Y-84980700D01*
X187254488Y-84966783D01*
X186974870Y-85008213D01*
X186708708Y-85103397D01*
X186583486Y-85170329D01*
X186511903Y-85414298D01*
X176187280Y-85414298D01*
X176896579Y-84705000D01*
X189238305Y-84705000D01*
X189281774Y-84709281D01*
X189325243Y-84705000D01*
X189325251Y-84705000D01*
X189455264Y-84692195D01*
X189622087Y-84641589D01*
X189775833Y-84559411D01*
X189910591Y-84448817D01*
X189938308Y-84415044D01*
X191962352Y-82391000D01*
X197059000Y-82391000D01*
X197059000Y-83091000D01*
X197108467Y-83339251D01*
X197205415Y-83573081D01*
X197346118Y-83783505D01*
X197525170Y-83962436D01*
X197735689Y-84102997D01*
X197969585Y-84199787D01*
X198018529Y-84207099D01*
X198217000Y-84083067D01*
X198217000Y-82391000D01*
X197059000Y-82391000D01*
X191962352Y-82391000D01*
X194502352Y-79851000D01*
X197059000Y-79851000D01*
X197059000Y-80551000D01*
X197108467Y-80799251D01*
X197189212Y-80994000D01*
X197108467Y-81188749D01*
X197059000Y-81437000D01*
X197059000Y-82137000D01*
X198217000Y-82137000D01*
X198217000Y-79851000D01*
X197059000Y-79851000D01*
X194502352Y-79851000D01*
X195053532Y-79299820D01*
X195266831Y-79257393D01*
X195473388Y-79171834D01*
X195659284Y-79047622D01*
X195809906Y-78897000D01*
X197059000Y-78897000D01*
X197059000Y-79597000D01*
X198217000Y-79597000D01*
X198217000Y-77904933D01*
X198018529Y-77780901D01*
X197969585Y-77788213D01*
X197735689Y-77885003D01*
X197525170Y-78025564D01*
X197346118Y-78204495D01*
X197205415Y-78414919D01*
X197108467Y-78648749D01*
X197059000Y-78897000D01*
X195809906Y-78897000D01*
X195817376Y-78889530D01*
X195941588Y-78703634D01*
X196027147Y-78497077D01*
X196070764Y-78277798D01*
X196070764Y-78054222D01*
X196027147Y-77834943D01*
X195941588Y-77628386D01*
X195817376Y-77442490D01*
X195659284Y-77284398D01*
X195473388Y-77160186D01*
X195266831Y-77074627D01*
X195047552Y-77031010D01*
X194823976Y-77031010D01*
X194655112Y-77064599D01*
X198252803Y-73466908D01*
X198252807Y-73466903D01*
X198627298Y-73092412D01*
X199069908Y-72649803D01*
X199109396Y-72617396D01*
X199141805Y-72577906D01*
X199564711Y-72155000D01*
X207975172Y-72155000D01*
X208026000Y-72160006D01*
X208076828Y-72155000D01*
X223469172Y-72155000D01*
X223520000Y-72160006D01*
X223570828Y-72155000D01*
X223570838Y-72155000D01*
X223722895Y-72140024D01*
X223917993Y-72080841D01*
X224097797Y-71984734D01*
X224255396Y-71855396D01*
X224287807Y-71815903D01*
X228774711Y-67329000D01*
X233492546Y-67329000D01*
X233510498Y-67388180D01*
X233569463Y-67498494D01*
X233648815Y-67595185D01*
X233745506Y-67674537D01*
X233855820Y-67733502D01*
X233928380Y-67755513D01*
X233796525Y-67887368D01*
X233634010Y-68130589D01*
X233522068Y-68400842D01*
X233465000Y-68687740D01*
X233465000Y-68980260D01*
X233479461Y-69052960D01*
X228487422Y-74045000D01*
X207707741Y-74045000D01*
X207664275Y-74040719D01*
X207620809Y-74045000D01*
X207620799Y-74045000D01*
X207490786Y-74057805D01*
X207323963Y-74108411D01*
X207170217Y-74190589D01*
X207170215Y-74190590D01*
X207170216Y-74190590D01*
X207069229Y-74273468D01*
X207069227Y-74273470D01*
X207035459Y-74301183D01*
X207007746Y-74334951D01*
X203874956Y-77467742D01*
X203841183Y-77495459D01*
X203730589Y-77630218D01*
X203648411Y-77783964D01*
X203618692Y-77881932D01*
X203600582Y-77941634D01*
X203597805Y-77950787D01*
X203595312Y-77976102D01*
X203430973Y-78110972D01*
X203344001Y-78216948D01*
X203257028Y-78110972D01*
X203061362Y-77950392D01*
X202838127Y-77831071D01*
X202595904Y-77757593D01*
X202344000Y-77732783D01*
X202092097Y-77757593D01*
X201849874Y-77831071D01*
X201626639Y-77950392D01*
X201430973Y-78110972D01*
X201344001Y-78216948D01*
X201257028Y-78110972D01*
X201061362Y-77950392D01*
X200838127Y-77831071D01*
X200595904Y-77757593D01*
X200344000Y-77732783D01*
X200092097Y-77757593D01*
X199849874Y-77831071D01*
X199626639Y-77950392D01*
X199430973Y-78110972D01*
X199347421Y-78212779D01*
X199341882Y-78204495D01*
X199162830Y-78025564D01*
X198952311Y-77885003D01*
X198718415Y-77788213D01*
X198669471Y-77780901D01*
X198471000Y-77904933D01*
X198471000Y-79597000D01*
X198491000Y-79597000D01*
X198491000Y-79851000D01*
X198471000Y-79851000D01*
X198471000Y-82137000D01*
X198491000Y-82137000D01*
X198491000Y-82391000D01*
X198471000Y-82391000D01*
X198471000Y-84083067D01*
X198669471Y-84207099D01*
X198718415Y-84199787D01*
X198952311Y-84102997D01*
X199162830Y-83962436D01*
X199341882Y-83783505D01*
X199347421Y-83775221D01*
X199394001Y-83831978D01*
X199394001Y-85149635D01*
X199210842Y-85186068D01*
X198940589Y-85298010D01*
X198697368Y-85460525D01*
X198565513Y-85592380D01*
X198543502Y-85519820D01*
X198484537Y-85409506D01*
X198405185Y-85312815D01*
X198308494Y-85233463D01*
X198198180Y-85174498D01*
X198078482Y-85138188D01*
X197954000Y-85125928D01*
X197389750Y-85129000D01*
X197231000Y-85287750D01*
X197231000Y-86487000D01*
X197251000Y-86487000D01*
X197251000Y-86741000D01*
X197231000Y-86741000D01*
X197231000Y-86761000D01*
X196977000Y-86761000D01*
X196977000Y-86741000D01*
X195777750Y-86741000D01*
X195619000Y-86899750D01*
X195615928Y-87464000D01*
X195628188Y-87588482D01*
X195664498Y-87708180D01*
X195723463Y-87818494D01*
X195802815Y-87915185D01*
X195899506Y-87994537D01*
X196009820Y-88053502D01*
X196129518Y-88089812D01*
X196254000Y-88102072D01*
X196818250Y-88099000D01*
X196976998Y-87940252D01*
X196976998Y-88029423D01*
X193689422Y-91317000D01*
X188332521Y-91317000D01*
X188312637Y-91287241D01*
X188112759Y-91087363D01*
X187877727Y-90930320D01*
X187616574Y-90822147D01*
X187339335Y-90767000D01*
X187056665Y-90767000D01*
X186779426Y-90822147D01*
X186518273Y-90930320D01*
X186283241Y-91087363D01*
X186083363Y-91287241D01*
X185926320Y-91522273D01*
X185818147Y-91783426D01*
X185763000Y-92060665D01*
X185763000Y-92343335D01*
X185818147Y-92620574D01*
X185926320Y-92881727D01*
X186083363Y-93116759D01*
X186283241Y-93316637D01*
X186518273Y-93473680D01*
X186779426Y-93581853D01*
X187056665Y-93637000D01*
X187339335Y-93637000D01*
X187616574Y-93581853D01*
X187877727Y-93473680D01*
X188112759Y-93316637D01*
X188312637Y-93116759D01*
X188332521Y-93087000D01*
X194012531Y-93087000D01*
X194056000Y-93091281D01*
X194099469Y-93087000D01*
X194099477Y-93087000D01*
X194229490Y-93074195D01*
X194396313Y-93023589D01*
X194550059Y-92941411D01*
X194684817Y-92830817D01*
X194712534Y-92797044D01*
X199425040Y-88084539D01*
X199497740Y-88099000D01*
X199790260Y-88099000D01*
X200077158Y-88041932D01*
X200347411Y-87929990D01*
X200590632Y-87767475D01*
X200797475Y-87560632D01*
X200914000Y-87386240D01*
X201030525Y-87560632D01*
X201237368Y-87767475D01*
X201480589Y-87929990D01*
X201750842Y-88041932D01*
X202037740Y-88099000D01*
X202330260Y-88099000D01*
X202617158Y-88041932D01*
X202887411Y-87929990D01*
X203130632Y-87767475D01*
X203337475Y-87560632D01*
X203454000Y-87386240D01*
X203570525Y-87560632D01*
X203777368Y-87767475D01*
X204020589Y-87929990D01*
X204290842Y-88041932D01*
X204577740Y-88099000D01*
X204870260Y-88099000D01*
X205157158Y-88041932D01*
X205427411Y-87929990D01*
X205670632Y-87767475D01*
X205877475Y-87560632D01*
X205994000Y-87386240D01*
X206110525Y-87560632D01*
X206317368Y-87767475D01*
X206560589Y-87929990D01*
X206830842Y-88041932D01*
X207117740Y-88099000D01*
X207410260Y-88099000D01*
X207697158Y-88041932D01*
X207967411Y-87929990D01*
X208210632Y-87767475D01*
X208417475Y-87560632D01*
X208534000Y-87386240D01*
X208650525Y-87560632D01*
X208857368Y-87767475D01*
X209100589Y-87929990D01*
X209370842Y-88041932D01*
X209657740Y-88099000D01*
X209950260Y-88099000D01*
X210237158Y-88041932D01*
X210507411Y-87929990D01*
X210750632Y-87767475D01*
X210957475Y-87560632D01*
X211074000Y-87386240D01*
X211190525Y-87560632D01*
X211397368Y-87767475D01*
X211640589Y-87929990D01*
X211910842Y-88041932D01*
X212197740Y-88099000D01*
X212490260Y-88099000D01*
X212777158Y-88041932D01*
X213047411Y-87929990D01*
X213290632Y-87767475D01*
X213497475Y-87560632D01*
X213614000Y-87386240D01*
X213730525Y-87560632D01*
X213937368Y-87767475D01*
X214180589Y-87929990D01*
X214450842Y-88041932D01*
X214737740Y-88099000D01*
X215030260Y-88099000D01*
X215317158Y-88041932D01*
X215587411Y-87929990D01*
X215830632Y-87767475D01*
X216037475Y-87560632D01*
X216199990Y-87317411D01*
X216311932Y-87047158D01*
X216369000Y-86760260D01*
X216369000Y-86467740D01*
X216311932Y-86180842D01*
X216199990Y-85910589D01*
X216037475Y-85667368D01*
X215830632Y-85460525D01*
X215587411Y-85298010D01*
X215317158Y-85186068D01*
X215030260Y-85129000D01*
X214737740Y-85129000D01*
X214665040Y-85143461D01*
X213320845Y-83799267D01*
X213417608Y-83681362D01*
X213536929Y-83458127D01*
X213610407Y-83215904D01*
X213629000Y-83027123D01*
X213629000Y-81500877D01*
X213610407Y-81312096D01*
X213536929Y-81069873D01*
X213496374Y-80994000D01*
X213536929Y-80918127D01*
X213610407Y-80675904D01*
X213629000Y-80487123D01*
X213629000Y-79350890D01*
X233508524Y-79350890D01*
X233553175Y-79498099D01*
X233678359Y-79760920D01*
X233852412Y-79994269D01*
X234068645Y-80189178D01*
X234318748Y-80338157D01*
X234593109Y-80435481D01*
X234823000Y-80314814D01*
X234823000Y-79121000D01*
X233629845Y-79121000D01*
X233508524Y-79350890D01*
X213629000Y-79350890D01*
X213629000Y-78960877D01*
X213628973Y-78960605D01*
X214747768Y-77841810D01*
X214961067Y-77799383D01*
X215167624Y-77713824D01*
X215353520Y-77589612D01*
X215511612Y-77431520D01*
X215573432Y-77339000D01*
X233755344Y-77339000D01*
X233796525Y-77400632D01*
X234003368Y-77607475D01*
X234185534Y-77729195D01*
X234068645Y-77798822D01*
X233852412Y-77993731D01*
X233678359Y-78227080D01*
X233553175Y-78489901D01*
X233508524Y-78637110D01*
X233629845Y-78867000D01*
X234823000Y-78867000D01*
X234823000Y-78847000D01*
X235077000Y-78847000D01*
X235077000Y-78867000D01*
X235097000Y-78867000D01*
X235097000Y-79121000D01*
X235077000Y-79121000D01*
X235077000Y-80314814D01*
X235306891Y-80435481D01*
X235581252Y-80338157D01*
X235650990Y-80296616D01*
X235650991Y-88497468D01*
X233021625Y-91126835D01*
X232980472Y-91049843D01*
X232731397Y-90972208D01*
X231882605Y-91821000D01*
X231896748Y-91835143D01*
X231717143Y-92014748D01*
X231703000Y-92000605D01*
X231688858Y-92014748D01*
X231509253Y-91835143D01*
X231523395Y-91821000D01*
X230674603Y-90972208D01*
X230425528Y-91049843D01*
X230299629Y-91313883D01*
X230227661Y-91597411D01*
X230224051Y-91666470D01*
X229388001Y-90830421D01*
X229388001Y-90792603D01*
X230854208Y-90792603D01*
X231703000Y-91641395D01*
X232551792Y-90792603D01*
X232474157Y-90543528D01*
X232210117Y-90417629D01*
X231926589Y-90345661D01*
X231634469Y-90330389D01*
X231344981Y-90372401D01*
X231069253Y-90470081D01*
X230931843Y-90543528D01*
X230854208Y-90792603D01*
X229388001Y-90792603D01*
X229388001Y-86349397D01*
X230854208Y-86349397D01*
X230931843Y-86598472D01*
X231195883Y-86724371D01*
X231479411Y-86796339D01*
X231771531Y-86811611D01*
X232061019Y-86769599D01*
X232336747Y-86671919D01*
X232474157Y-86598472D01*
X232551792Y-86349397D01*
X231703000Y-85500605D01*
X230854208Y-86349397D01*
X229388001Y-86349397D01*
X229388001Y-85389531D01*
X230212389Y-85389531D01*
X230254401Y-85679019D01*
X230352081Y-85954747D01*
X230425528Y-86092157D01*
X230674603Y-86169792D01*
X231523395Y-85321000D01*
X231882605Y-85321000D01*
X232731397Y-86169792D01*
X232980472Y-86092157D01*
X233106371Y-85828117D01*
X233178339Y-85544589D01*
X233193611Y-85252469D01*
X233151599Y-84962981D01*
X233053919Y-84687253D01*
X232980472Y-84549843D01*
X232731397Y-84472208D01*
X231882605Y-85321000D01*
X231523395Y-85321000D01*
X230674603Y-84472208D01*
X230425528Y-84549843D01*
X230299629Y-84813883D01*
X230227661Y-85097411D01*
X230212389Y-85389531D01*
X229388001Y-85389531D01*
X229388001Y-84740464D01*
X229392282Y-84696998D01*
X229388001Y-84653532D01*
X229388001Y-84653522D01*
X229375196Y-84523509D01*
X229324590Y-84356686D01*
X229290338Y-84292603D01*
X230854208Y-84292603D01*
X231703000Y-85141395D01*
X232551792Y-84292603D01*
X232474157Y-84043528D01*
X232210117Y-83917629D01*
X231926589Y-83845661D01*
X231634469Y-83830389D01*
X231344981Y-83872401D01*
X231069253Y-83970081D01*
X230931843Y-84043528D01*
X230854208Y-84292603D01*
X229290338Y-84292603D01*
X229242412Y-84202940D01*
X229213347Y-84167525D01*
X229159533Y-84101952D01*
X229159531Y-84101950D01*
X229131818Y-84068182D01*
X229098050Y-84040469D01*
X228483535Y-83425955D01*
X228455818Y-83392182D01*
X228321060Y-83281588D01*
X228167314Y-83199410D01*
X228000491Y-83148804D01*
X227870478Y-83135999D01*
X227870470Y-83135999D01*
X227827001Y-83131718D01*
X227783532Y-83135999D01*
X220314470Y-83135999D01*
X220271001Y-83131718D01*
X220227532Y-83135999D01*
X220227524Y-83135999D01*
X220112307Y-83147347D01*
X220097510Y-83148804D01*
X220066296Y-83158273D01*
X219930688Y-83199410D01*
X219776942Y-83281588D01*
X219776940Y-83281589D01*
X219776941Y-83281589D01*
X219675954Y-83364467D01*
X219675952Y-83364469D01*
X219642184Y-83392182D01*
X219614471Y-83425950D01*
X219186144Y-83854277D01*
X219094260Y-83836000D01*
X218801740Y-83836000D01*
X218514842Y-83893068D01*
X218244589Y-84005010D01*
X218001368Y-84167525D01*
X217794525Y-84374368D01*
X217632010Y-84617589D01*
X217520068Y-84887842D01*
X217463000Y-85174740D01*
X217463000Y-85467260D01*
X217520068Y-85754158D01*
X217632010Y-86024411D01*
X217794525Y-86267632D01*
X218001368Y-86474475D01*
X218063001Y-86515657D01*
X218063000Y-90626344D01*
X218001368Y-90667525D01*
X217794525Y-90874368D01*
X217632010Y-91117589D01*
X217520068Y-91387842D01*
X217463000Y-91674740D01*
X217463000Y-91967260D01*
X217520068Y-92254158D01*
X217632010Y-92524411D01*
X217794525Y-92767632D01*
X218001368Y-92974475D01*
X218244589Y-93136990D01*
X218514842Y-93248932D01*
X218801740Y-93306000D01*
X219094260Y-93306000D01*
X219381158Y-93248932D01*
X219651411Y-93136990D01*
X219894632Y-92974475D01*
X220019710Y-92849397D01*
X222599208Y-92849397D01*
X222676843Y-93098472D01*
X222940883Y-93224371D01*
X223224411Y-93296339D01*
X223516531Y-93311611D01*
X223806019Y-93269599D01*
X224081747Y-93171919D01*
X224219157Y-93098472D01*
X224296792Y-92849397D01*
X223448000Y-92000605D01*
X222599208Y-92849397D01*
X220019710Y-92849397D01*
X220101475Y-92767632D01*
X220263990Y-92524411D01*
X220375932Y-92254158D01*
X220433000Y-91967260D01*
X220433000Y-91889531D01*
X221957389Y-91889531D01*
X221999401Y-92179019D01*
X222097081Y-92454747D01*
X222170528Y-92592157D01*
X222419603Y-92669792D01*
X223268395Y-91821000D01*
X223627605Y-91821000D01*
X224476397Y-92669792D01*
X224725472Y-92592157D01*
X224851371Y-92328117D01*
X224923339Y-92044589D01*
X224938611Y-91752469D01*
X224896599Y-91462981D01*
X224798919Y-91187253D01*
X224725472Y-91049843D01*
X224476397Y-90972208D01*
X223627605Y-91821000D01*
X223268395Y-91821000D01*
X222419603Y-90972208D01*
X222170528Y-91049843D01*
X222044629Y-91313883D01*
X221972661Y-91597411D01*
X221957389Y-91889531D01*
X220433000Y-91889531D01*
X220433000Y-91674740D01*
X220375932Y-91387842D01*
X220263990Y-91117589D01*
X220101475Y-90874368D01*
X220019710Y-90792603D01*
X222599208Y-90792603D01*
X223448000Y-91641395D01*
X224296792Y-90792603D01*
X224219157Y-90543528D01*
X223955117Y-90417629D01*
X223671589Y-90345661D01*
X223379469Y-90330389D01*
X223089981Y-90372401D01*
X222814253Y-90470081D01*
X222676843Y-90543528D01*
X222599208Y-90792603D01*
X220019710Y-90792603D01*
X219894632Y-90667525D01*
X219833000Y-90626344D01*
X219833000Y-86515656D01*
X219894632Y-86474475D01*
X220019710Y-86349397D01*
X222599208Y-86349397D01*
X222676843Y-86598472D01*
X222940883Y-86724371D01*
X223224411Y-86796339D01*
X223516531Y-86811611D01*
X223806019Y-86769599D01*
X224081747Y-86671919D01*
X224219157Y-86598472D01*
X224296792Y-86349397D01*
X223448000Y-85500605D01*
X222599208Y-86349397D01*
X220019710Y-86349397D01*
X220101475Y-86267632D01*
X220263990Y-86024411D01*
X220375932Y-85754158D01*
X220433000Y-85467260D01*
X220433000Y-85174740D01*
X220422355Y-85121224D01*
X220637580Y-84905999D01*
X222021247Y-84905999D01*
X221972661Y-85097411D01*
X221957389Y-85389531D01*
X221999401Y-85679019D01*
X222097081Y-85954747D01*
X222170528Y-86092157D01*
X222419603Y-86169792D01*
X223268395Y-85321000D01*
X223254253Y-85306858D01*
X223433858Y-85127253D01*
X223448000Y-85141395D01*
X223462143Y-85127253D01*
X223641748Y-85306858D01*
X223627605Y-85321000D01*
X224476397Y-86169792D01*
X224725472Y-86092157D01*
X224851371Y-85828117D01*
X224923339Y-85544589D01*
X224938611Y-85252469D01*
X224896599Y-84962981D01*
X224876412Y-84905999D01*
X225771456Y-84905999D01*
X225718000Y-85174740D01*
X225718000Y-85467260D01*
X225775068Y-85754158D01*
X225887010Y-86024411D01*
X226049525Y-86267632D01*
X226256368Y-86474475D01*
X226445000Y-86600515D01*
X226445001Y-90541485D01*
X226256368Y-90667525D01*
X226049525Y-90874368D01*
X225887010Y-91117589D01*
X225775068Y-91387842D01*
X225718000Y-91674740D01*
X225718000Y-91967260D01*
X225775068Y-92254158D01*
X225887010Y-92524411D01*
X226049525Y-92767632D01*
X226256368Y-92974475D01*
X226499589Y-93136990D01*
X226769842Y-93248932D01*
X227056740Y-93306000D01*
X227349260Y-93306000D01*
X227421960Y-93291539D01*
X228705470Y-94575049D01*
X228733183Y-94608817D01*
X228766951Y-94636530D01*
X228766953Y-94636532D01*
X228838452Y-94695210D01*
X228867941Y-94719411D01*
X229021687Y-94801589D01*
X229188510Y-94852195D01*
X229318523Y-94865000D01*
X229318533Y-94865000D01*
X229361999Y-94869281D01*
X229405466Y-94865000D01*
X232366531Y-94865000D01*
X232410000Y-94869281D01*
X232453469Y-94865000D01*
X232453477Y-94865000D01*
X232583490Y-94852195D01*
X232750313Y-94801589D01*
X232904059Y-94719411D01*
X233038817Y-94608817D01*
X233066534Y-94575044D01*
X237831051Y-89810528D01*
X237864817Y-89782817D01*
X237975411Y-89648059D01*
X237999250Y-89603459D01*
X238057589Y-89494314D01*
X238108195Y-89327490D01*
X238108195Y-89327489D01*
X238121000Y-89197477D01*
X238121000Y-89197469D01*
X238125281Y-89154000D01*
X238121000Y-89110531D01*
X238121000Y-71163465D01*
X238125281Y-71119999D01*
X238121000Y-71076533D01*
X238121000Y-71076523D01*
X238108195Y-70946510D01*
X238057589Y-70779687D01*
X237975411Y-70625941D01*
X237915067Y-70552412D01*
X237892532Y-70524953D01*
X237892530Y-70524951D01*
X237864817Y-70491183D01*
X237831049Y-70463470D01*
X236420539Y-69052960D01*
X236435000Y-68980260D01*
X236435000Y-68687740D01*
X236420539Y-68615039D01*
X238847050Y-66188529D01*
X238880817Y-66160817D01*
X238918607Y-66114771D01*
X238991410Y-66026060D01*
X238991411Y-66026059D01*
X239073589Y-65872313D01*
X239124195Y-65705490D01*
X239137000Y-65575477D01*
X239137000Y-65575467D01*
X239141281Y-65532001D01*
X239137000Y-65488535D01*
X239137000Y-63618521D01*
X239166759Y-63598637D01*
X239366637Y-63398759D01*
X239523680Y-63163727D01*
X239631853Y-62902574D01*
X239687000Y-62625335D01*
X239687000Y-62342665D01*
X239631853Y-62065426D01*
X239523680Y-61804273D01*
X239366637Y-61569241D01*
X239166759Y-61369363D01*
X238931727Y-61212320D01*
X238670574Y-61104147D01*
X238393335Y-61049000D01*
X238110665Y-61049000D01*
X238075561Y-61055983D01*
X233828534Y-56808956D01*
X233800817Y-56775183D01*
X233666059Y-56664589D01*
X233512313Y-56582411D01*
X233345490Y-56531805D01*
X233215477Y-56519000D01*
X233215469Y-56519000D01*
X233172000Y-56514719D01*
X233128531Y-56519000D01*
X187583621Y-56519000D01*
X187550502Y-56409820D01*
X187491537Y-56299506D01*
X187412185Y-56202815D01*
X187315494Y-56123463D01*
X187205180Y-56064498D01*
X187085482Y-56028188D01*
X186961000Y-56015928D01*
X185911000Y-56015928D01*
X185786518Y-56028188D01*
X185666820Y-56064498D01*
X185602098Y-56099093D01*
X185393400Y-56035785D01*
X185382125Y-56034675D01*
X183382405Y-54034955D01*
X183354688Y-54001182D01*
X183219930Y-53890588D01*
X183066184Y-53808410D01*
X182899361Y-53757804D01*
X182769348Y-53744999D01*
X182769340Y-53744999D01*
X182725871Y-53740718D01*
X182682402Y-53744999D01*
X178585466Y-53744999D01*
X178542000Y-53740718D01*
X178498534Y-53744999D01*
X178498524Y-53744999D01*
X178368511Y-53757804D01*
X178201688Y-53808410D01*
X178047942Y-53890588D01*
X178047940Y-53890589D01*
X178047941Y-53890589D01*
X177946954Y-53973467D01*
X177946952Y-53973469D01*
X177913184Y-54001182D01*
X177885471Y-54034950D01*
X177468439Y-54451983D01*
X177433335Y-54445000D01*
X177150665Y-54445000D01*
X176873426Y-54500147D01*
X176612273Y-54608320D01*
X176377241Y-54765363D01*
X176177363Y-54965241D01*
X176020320Y-55200273D01*
X175912147Y-55461426D01*
X175857000Y-55738665D01*
X175857000Y-56021335D01*
X175912147Y-56298574D01*
X176020320Y-56559727D01*
X176177363Y-56794759D01*
X176377241Y-56994637D01*
X176612273Y-57151680D01*
X176873426Y-57259853D01*
X177150665Y-57315000D01*
X177433335Y-57315000D01*
X177710574Y-57259853D01*
X177971727Y-57151680D01*
X178206759Y-56994637D01*
X178406637Y-56794759D01*
X178563680Y-56559727D01*
X178671853Y-56298574D01*
X178727000Y-56021335D01*
X178727000Y-55738665D01*
X178720017Y-55703561D01*
X178908580Y-55514999D01*
X179457491Y-55514999D01*
X179413000Y-55738665D01*
X179413000Y-56021335D01*
X179462124Y-56268297D01*
X171482941Y-64247481D01*
X171449173Y-64275194D01*
X171421460Y-64308962D01*
X171421457Y-64308965D01*
X171338579Y-64409952D01*
X171256401Y-64563698D01*
X171205794Y-64730521D01*
X171188708Y-64904011D01*
X159564405Y-64904011D01*
X159411727Y-64801995D01*
X159157490Y-64696686D01*
X158887592Y-64643000D01*
X158612408Y-64643000D01*
X158342510Y-64696686D01*
X158088273Y-64801995D01*
X157859465Y-64954880D01*
X157664880Y-65149465D01*
X157511995Y-65378273D01*
X157406686Y-65632510D01*
X157353000Y-65902408D01*
X153797000Y-65902408D01*
X153797000Y-53119872D01*
X155245000Y-53119872D01*
X155245000Y-53560128D01*
X155330890Y-53991925D01*
X155499369Y-54398669D01*
X155743962Y-54764729D01*
X156055271Y-55076038D01*
X156421331Y-55320631D01*
X156828075Y-55489110D01*
X157259872Y-55575000D01*
X157700128Y-55575000D01*
X158131925Y-55489110D01*
X158538669Y-55320631D01*
X158904729Y-55076038D01*
X159216038Y-54764729D01*
X159460631Y-54398669D01*
X159629110Y-53991925D01*
X159715000Y-53560128D01*
X159715000Y-53119872D01*
X159629110Y-52688075D01*
X159460631Y-52281331D01*
X159216038Y-51915271D01*
X158904729Y-51603962D01*
X158538669Y-51359369D01*
X158131925Y-51190890D01*
X157700128Y-51105000D01*
X157259872Y-51105000D01*
X156828075Y-51190890D01*
X156421331Y-51359369D01*
X156055271Y-51603962D01*
X155743962Y-51915271D01*
X155499369Y-52281331D01*
X155330890Y-52688075D01*
X155245000Y-53119872D01*
X153797000Y-53119872D01*
X153797000Y-50805548D01*
X153814843Y-50601605D01*
X153866388Y-50409235D01*
X153926651Y-50280000D01*
X184586429Y-50280000D01*
X184586429Y-54100000D01*
X234115656Y-54100000D01*
X234239369Y-54398669D01*
X234483962Y-54764729D01*
X234795271Y-55076038D01*
X235161331Y-55320631D01*
X235568075Y-55489110D01*
X235999872Y-55575000D01*
X236440128Y-55575000D01*
X236871925Y-55489110D01*
X237278669Y-55320631D01*
X237644729Y-55076038D01*
X237956038Y-54764729D01*
X238200631Y-54398669D01*
X238369110Y-53991925D01*
X238455000Y-53560128D01*
X238455000Y-53119872D01*
X238369110Y-52688075D01*
X238200631Y-52281331D01*
X237956038Y-51915271D01*
X237644729Y-51603962D01*
X237278669Y-51359369D01*
X236871925Y-51190890D01*
X236440128Y-51105000D01*
X235999872Y-51105000D01*
X235568075Y-51190890D01*
X235161331Y-51359369D01*
X234795271Y-51603962D01*
X234513572Y-51885661D01*
X234513572Y-50280000D01*
X184586429Y-50280000D01*
X153926651Y-50280000D01*
X153950555Y-50228740D01*
X154064780Y-50065610D01*
X154205610Y-49924780D01*
X154368740Y-49810555D01*
X154549235Y-49726388D01*
X154741605Y-49674843D01*
X154945548Y-49657000D01*
X238754452Y-49657000D01*
X238958395Y-49674843D01*
G04 #@! TA.AperFunction,Conductor*
D26*
G36*
X238958395Y-49674843D02*
G01*
X239150765Y-49726388D01*
X239331260Y-49810555D01*
X239494390Y-49924780D01*
X239635220Y-50065610D01*
X239749445Y-50228740D01*
X239833612Y-50409235D01*
X239885157Y-50601605D01*
X239903000Y-50805548D01*
X239903000Y-99054452D01*
X239885157Y-99258395D01*
X239833612Y-99450765D01*
X239749445Y-99631260D01*
X239635220Y-99794390D01*
X239494390Y-99935220D01*
X239331260Y-100049445D01*
X239150765Y-100133612D01*
X238958395Y-100185157D01*
X238754452Y-100203000D01*
X154945548Y-100203000D01*
X154741605Y-100185157D01*
X154549235Y-100133612D01*
X154368740Y-100049445D01*
X154205610Y-99935220D01*
X154064780Y-99794390D01*
X153950555Y-99631260D01*
X153866388Y-99450765D01*
X153814843Y-99258395D01*
X153797000Y-99054452D01*
X153797000Y-96299872D01*
X155245000Y-96299872D01*
X155245000Y-96740128D01*
X155330890Y-97171925D01*
X155499369Y-97578669D01*
X155743962Y-97944729D01*
X156055271Y-98256038D01*
X156421331Y-98500631D01*
X156828075Y-98669110D01*
X157259872Y-98755000D01*
X157700128Y-98755000D01*
X158131925Y-98669110D01*
X158538669Y-98500631D01*
X158904729Y-98256038D01*
X159216038Y-97944729D01*
X159460631Y-97578669D01*
X159629110Y-97171925D01*
X159715000Y-96740128D01*
X159715000Y-96299872D01*
X159629110Y-95868075D01*
X159578545Y-95746000D01*
X171184429Y-95746000D01*
X171184429Y-99566000D01*
X228611572Y-99566000D01*
X228611572Y-96299872D01*
X233985000Y-96299872D01*
X233985000Y-96740128D01*
X234070890Y-97171925D01*
X234239369Y-97578669D01*
X234483962Y-97944729D01*
X234795271Y-98256038D01*
X235161331Y-98500631D01*
X235568075Y-98669110D01*
X235999872Y-98755000D01*
X236440128Y-98755000D01*
X236871925Y-98669110D01*
X237278669Y-98500631D01*
X237644729Y-98256038D01*
X237956038Y-97944729D01*
X238200631Y-97578669D01*
X238369110Y-97171925D01*
X238455000Y-96740128D01*
X238455000Y-96299872D01*
X238369110Y-95868075D01*
X238200631Y-95461331D01*
X237956038Y-95095271D01*
X237644729Y-94783962D01*
X237278669Y-94539369D01*
X236871925Y-94370890D01*
X236440128Y-94285000D01*
X235999872Y-94285000D01*
X235568075Y-94370890D01*
X235161331Y-94539369D01*
X234795271Y-94783962D01*
X234483962Y-95095271D01*
X234239369Y-95461331D01*
X234070890Y-95868075D01*
X233985000Y-96299872D01*
X228611572Y-96299872D01*
X228611572Y-95746000D01*
X171184429Y-95746000D01*
X159578545Y-95746000D01*
X159460631Y-95461331D01*
X159216038Y-95095271D01*
X158904729Y-94783962D01*
X158538669Y-94539369D01*
X158131925Y-94370890D01*
X157700128Y-94285000D01*
X157259872Y-94285000D01*
X156828075Y-94370890D01*
X156421331Y-94539369D01*
X156055271Y-94783962D01*
X155743962Y-95095271D01*
X155499369Y-95461331D01*
X155330890Y-95868075D01*
X155245000Y-96299872D01*
X153797000Y-96299872D01*
X153797000Y-92551039D01*
X175646096Y-92551039D01*
X175686754Y-92685087D01*
X175806963Y-92939420D01*
X175974481Y-93165414D01*
X176182869Y-93354385D01*
X176424119Y-93499070D01*
X176688960Y-93593909D01*
X176911000Y-93472624D01*
X176911000Y-92329000D01*
X177165000Y-92329000D01*
X177165000Y-93472624D01*
X177387040Y-93593909D01*
X177651881Y-93499070D01*
X177893131Y-93354385D01*
X178101519Y-93165414D01*
X178269037Y-92939420D01*
X178389246Y-92685087D01*
X178429904Y-92551039D01*
X178307915Y-92329000D01*
X177165000Y-92329000D01*
X176911000Y-92329000D01*
X175768085Y-92329000D01*
X175646096Y-92551039D01*
X153797000Y-92551039D01*
X153797000Y-91852961D01*
X175646096Y-91852961D01*
X175768085Y-92075000D01*
X176911000Y-92075000D01*
X176911000Y-90931376D01*
X177165000Y-90931376D01*
X177165000Y-92075000D01*
X178307915Y-92075000D01*
X178429904Y-91852961D01*
X178389246Y-91718913D01*
X178269037Y-91464580D01*
X178101519Y-91238586D01*
X177893131Y-91049615D01*
X177651881Y-90904930D01*
X177387040Y-90810091D01*
X177165000Y-90931376D01*
X176911000Y-90931376D01*
X176688960Y-90810091D01*
X176424119Y-90904930D01*
X176182869Y-91049615D01*
X175974481Y-91238586D01*
X175806963Y-91464580D01*
X175686754Y-91718913D01*
X175646096Y-91852961D01*
X153797000Y-91852961D01*
X153797000Y-88431413D01*
X179892192Y-88431413D01*
X179987956Y-88695814D01*
X180277571Y-88836704D01*
X180589108Y-88918384D01*
X180910595Y-88937718D01*
X181229675Y-88893961D01*
X181534088Y-88788795D01*
X181708044Y-88695814D01*
X181803808Y-88431413D01*
X180848000Y-87475605D01*
X179892192Y-88431413D01*
X153797000Y-88431413D01*
X153797000Y-87325565D01*
X157964040Y-87325565D01*
X158031020Y-87565656D01*
X158280048Y-87682756D01*
X158547135Y-87749023D01*
X158822017Y-87761910D01*
X159094133Y-87720922D01*
X159353023Y-87627636D01*
X159468980Y-87565656D01*
X159535960Y-87325565D01*
X158750000Y-86539605D01*
X157964040Y-87325565D01*
X153797000Y-87325565D01*
X153797000Y-86432017D01*
X157348090Y-86432017D01*
X157389078Y-86704133D01*
X157482364Y-86963023D01*
X157544344Y-87078980D01*
X157784435Y-87145960D01*
X158570395Y-86360000D01*
X158929605Y-86360000D01*
X159715565Y-87145960D01*
X159955656Y-87078980D01*
X160072756Y-86829952D01*
X160139023Y-86562865D01*
X160151910Y-86287983D01*
X160110922Y-86015867D01*
X160017636Y-85756977D01*
X159955656Y-85641020D01*
X159715565Y-85574040D01*
X158929605Y-86360000D01*
X158570395Y-86360000D01*
X157784435Y-85574040D01*
X157544344Y-85641020D01*
X157427244Y-85890048D01*
X157360977Y-86157135D01*
X157348090Y-86432017D01*
X153797000Y-86432017D01*
X153797000Y-65902408D01*
X157353000Y-65902408D01*
X157353000Y-66177592D01*
X157406686Y-66447490D01*
X157511995Y-66701727D01*
X157664880Y-66930535D01*
X157859465Y-67125120D01*
X158088273Y-67278005D01*
X158165515Y-67310000D01*
X158088273Y-67341995D01*
X157859465Y-67494880D01*
X157664880Y-67689465D01*
X157511995Y-67918273D01*
X157406686Y-68172510D01*
X157353000Y-68442408D01*
X157353000Y-68717592D01*
X157406686Y-68987490D01*
X157511995Y-69241727D01*
X157664880Y-69470535D01*
X157859465Y-69665120D01*
X158088273Y-69818005D01*
X158165515Y-69850000D01*
X158088273Y-69881995D01*
X157859465Y-70034880D01*
X157664880Y-70229465D01*
X157511995Y-70458273D01*
X157406686Y-70712510D01*
X157353000Y-70982408D01*
X157353000Y-71257592D01*
X157406686Y-71527490D01*
X157511995Y-71781727D01*
X157664880Y-72010535D01*
X157859465Y-72205120D01*
X158088273Y-72358005D01*
X158165515Y-72390000D01*
X158088273Y-72421995D01*
X157859465Y-72574880D01*
X157664880Y-72769465D01*
X157511995Y-72998273D01*
X157406686Y-73252510D01*
X157353000Y-73522408D01*
X157353000Y-73797592D01*
X157406686Y-74067490D01*
X157511995Y-74321727D01*
X157664880Y-74550535D01*
X157859465Y-74745120D01*
X158088273Y-74898005D01*
X158165515Y-74930000D01*
X158088273Y-74961995D01*
X157859465Y-75114880D01*
X157664880Y-75309465D01*
X157511995Y-75538273D01*
X157406686Y-75792510D01*
X157353000Y-76062408D01*
X157353000Y-76337592D01*
X157406686Y-76607490D01*
X157511995Y-76861727D01*
X157664880Y-77090535D01*
X157859465Y-77285120D01*
X158088273Y-77438005D01*
X158165515Y-77470000D01*
X158088273Y-77501995D01*
X157859465Y-77654880D01*
X157664880Y-77849465D01*
X157511995Y-78078273D01*
X157406686Y-78332510D01*
X157353000Y-78602408D01*
X157353000Y-78877592D01*
X157406686Y-79147490D01*
X157511995Y-79401727D01*
X157664880Y-79630535D01*
X157859465Y-79825120D01*
X158088273Y-79978005D01*
X158165515Y-80010000D01*
X158088273Y-80041995D01*
X157859465Y-80194880D01*
X157664880Y-80389465D01*
X157511995Y-80618273D01*
X157406686Y-80872510D01*
X157353000Y-81142408D01*
X157353000Y-81417592D01*
X157406686Y-81687490D01*
X157511995Y-81941727D01*
X157664880Y-82170535D01*
X157859465Y-82365120D01*
X158088273Y-82518005D01*
X158165515Y-82550000D01*
X158088273Y-82581995D01*
X157859465Y-82734880D01*
X157664880Y-82929465D01*
X157511995Y-83158273D01*
X157406686Y-83412510D01*
X157353000Y-83682408D01*
X157353000Y-83957592D01*
X157406686Y-84227490D01*
X157511995Y-84481727D01*
X157664880Y-84710535D01*
X157859465Y-84905120D01*
X158088273Y-85058005D01*
X158159943Y-85087692D01*
X158146977Y-85092364D01*
X158031020Y-85154344D01*
X157964040Y-85394435D01*
X158750000Y-86180395D01*
X159535960Y-85394435D01*
X159468980Y-85154344D01*
X159333240Y-85090515D01*
X159411727Y-85058005D01*
X159640535Y-84905120D01*
X159835120Y-84710535D01*
X159988005Y-84481727D01*
X160093314Y-84227490D01*
X160147000Y-83957592D01*
X160147000Y-83682408D01*
X160093314Y-83412510D01*
X159988005Y-83158273D01*
X159835120Y-82929465D01*
X159640535Y-82734880D01*
X159411727Y-82581995D01*
X159334485Y-82550000D01*
X159411727Y-82518005D01*
X159640535Y-82365120D01*
X159835120Y-82170535D01*
X159988005Y-81941727D01*
X160093314Y-81687490D01*
X160147000Y-81417592D01*
X160147000Y-81142408D01*
X160093314Y-80872510D01*
X159988005Y-80618273D01*
X159835120Y-80389465D01*
X159640535Y-80194880D01*
X159411727Y-80041995D01*
X159334485Y-80010000D01*
X159411727Y-79978005D01*
X159640535Y-79825120D01*
X159835120Y-79630535D01*
X159988005Y-79401727D01*
X160093314Y-79147490D01*
X160147000Y-78877592D01*
X160147000Y-78602408D01*
X160093314Y-78332510D01*
X159988005Y-78078273D01*
X159835120Y-77849465D01*
X159640535Y-77654880D01*
X159411727Y-77501995D01*
X159334485Y-77470000D01*
X159411727Y-77438005D01*
X159640535Y-77285120D01*
X159835120Y-77090535D01*
X159988005Y-76861727D01*
X160093314Y-76607490D01*
X160147000Y-76337592D01*
X160147000Y-76062408D01*
X160093314Y-75792510D01*
X159988005Y-75538273D01*
X159835120Y-75309465D01*
X159640535Y-75114880D01*
X159411727Y-74961995D01*
X159334485Y-74930000D01*
X159411727Y-74898005D01*
X159640535Y-74745120D01*
X159835120Y-74550535D01*
X159988005Y-74321727D01*
X160093314Y-74067490D01*
X160147000Y-73797592D01*
X160147000Y-73522408D01*
X160093314Y-73252510D01*
X159988005Y-72998273D01*
X159835120Y-72769465D01*
X159640535Y-72574880D01*
X159411727Y-72421995D01*
X159334485Y-72390000D01*
X159411727Y-72358005D01*
X159640535Y-72205120D01*
X159835120Y-72010535D01*
X159988005Y-71781727D01*
X160093314Y-71527490D01*
X160147000Y-71257592D01*
X160147000Y-70982408D01*
X160093314Y-70712510D01*
X159988005Y-70458273D01*
X159835120Y-70229465D01*
X159640535Y-70034880D01*
X159411727Y-69881995D01*
X159334485Y-69850000D01*
X159411727Y-69818005D01*
X159640535Y-69665120D01*
X159835120Y-69470535D01*
X159988005Y-69241727D01*
X160093314Y-68987490D01*
X160147000Y-68717592D01*
X160147000Y-68442408D01*
X160093314Y-68172510D01*
X159988005Y-67918273D01*
X159835120Y-67689465D01*
X159640535Y-67494880D01*
X159411727Y-67341995D01*
X159334485Y-67310000D01*
X159411727Y-67278005D01*
X159640535Y-67125120D01*
X159835120Y-66930535D01*
X159988005Y-66701727D01*
X160093314Y-66447490D01*
X160147000Y-66177592D01*
X160147000Y-65902408D01*
X160093314Y-65632510D01*
X159988005Y-65378273D01*
X159835120Y-65149465D01*
X159640535Y-64954880D01*
X159564405Y-64904011D01*
X171188708Y-64904011D01*
X171192990Y-64947490D01*
X171192989Y-81864520D01*
X171188708Y-81907989D01*
X171192989Y-81951458D01*
X171192989Y-81951465D01*
X171205794Y-82081478D01*
X171256400Y-82248301D01*
X171338578Y-82402047D01*
X171449172Y-82536806D01*
X171482945Y-82564523D01*
X172594299Y-83675878D01*
X172593000Y-83682408D01*
X172593000Y-83957592D01*
X172646686Y-84227490D01*
X172751995Y-84481727D01*
X172904880Y-84710535D01*
X173099465Y-84905120D01*
X173328273Y-85058005D01*
X173405515Y-85090000D01*
X173328273Y-85121995D01*
X173099465Y-85274880D01*
X172904880Y-85469465D01*
X172751995Y-85698273D01*
X172646686Y-85952510D01*
X172593000Y-86222408D01*
X172593000Y-86497592D01*
X172646686Y-86767490D01*
X172751995Y-87021727D01*
X172904880Y-87250535D01*
X173099465Y-87445120D01*
X173328273Y-87598005D01*
X173582510Y-87703314D01*
X173852408Y-87757000D01*
X174127592Y-87757000D01*
X174397490Y-87703314D01*
X174651727Y-87598005D01*
X174880535Y-87445120D01*
X174967060Y-87358595D01*
X179206282Y-87358595D01*
X179250039Y-87677675D01*
X179355205Y-87982088D01*
X179448186Y-88156044D01*
X179712587Y-88251808D01*
X180668395Y-87296000D01*
X181027605Y-87296000D01*
X181983413Y-88251808D01*
X182247814Y-88156044D01*
X182388704Y-87866429D01*
X182470384Y-87554892D01*
X182479717Y-87399702D01*
X186511903Y-87399702D01*
X186583486Y-87643671D01*
X186838996Y-87764571D01*
X187113184Y-87833300D01*
X187395512Y-87847217D01*
X187675130Y-87805787D01*
X187941292Y-87710603D01*
X188066514Y-87643671D01*
X188138097Y-87399702D01*
X187325000Y-86586605D01*
X186511903Y-87399702D01*
X182479717Y-87399702D01*
X182489718Y-87233405D01*
X182445961Y-86914325D01*
X182340795Y-86609912D01*
X182270027Y-86477512D01*
X185884783Y-86477512D01*
X185926213Y-86757130D01*
X186021397Y-87023292D01*
X186088329Y-87148514D01*
X186332298Y-87220097D01*
X187145395Y-86407000D01*
X187504605Y-86407000D01*
X188317702Y-87220097D01*
X188561671Y-87148514D01*
X188682571Y-86893004D01*
X188751300Y-86618816D01*
X188765217Y-86336488D01*
X188723787Y-86056870D01*
X188628603Y-85790708D01*
X188614328Y-85764000D01*
X195615928Y-85764000D01*
X195619000Y-86328250D01*
X195777750Y-86487000D01*
X196977000Y-86487000D01*
X196977000Y-85287750D01*
X196818250Y-85129000D01*
X196254000Y-85125928D01*
X196129518Y-85138188D01*
X196009820Y-85174498D01*
X195899506Y-85233463D01*
X195802815Y-85312815D01*
X195723463Y-85409506D01*
X195664498Y-85519820D01*
X195628188Y-85639518D01*
X195615928Y-85764000D01*
X188614328Y-85764000D01*
X188561671Y-85665486D01*
X188317702Y-85593903D01*
X187504605Y-86407000D01*
X187145395Y-86407000D01*
X186332298Y-85593903D01*
X186088329Y-85665486D01*
X185967429Y-85920996D01*
X185898700Y-86195184D01*
X185884783Y-86477512D01*
X182270027Y-86477512D01*
X182247814Y-86435956D01*
X181983413Y-86340192D01*
X181027605Y-87296000D01*
X180668395Y-87296000D01*
X179712587Y-86340192D01*
X179448186Y-86435956D01*
X179307296Y-86725571D01*
X179225616Y-87037108D01*
X179206282Y-87358595D01*
X174967060Y-87358595D01*
X175075120Y-87250535D01*
X175228005Y-87021727D01*
X175333314Y-86767490D01*
X175387000Y-86497592D01*
X175387000Y-86222408D01*
X175385701Y-86215877D01*
X175440991Y-86160587D01*
X179892192Y-86160587D01*
X180848000Y-87116395D01*
X181803808Y-86160587D01*
X181708044Y-85896186D01*
X181418429Y-85755296D01*
X181106892Y-85673616D01*
X180785405Y-85654282D01*
X180466325Y-85698039D01*
X180161912Y-85803205D01*
X179987956Y-85896186D01*
X179892192Y-86160587D01*
X175440991Y-86160587D01*
X176187280Y-85414298D01*
X186511903Y-85414298D01*
X187325000Y-86227395D01*
X188138097Y-85414298D01*
X188066514Y-85170329D01*
X187811004Y-85049429D01*
X187536816Y-84980700D01*
X187254488Y-84966783D01*
X186974870Y-85008213D01*
X186708708Y-85103397D01*
X186583486Y-85170329D01*
X186511903Y-85414298D01*
X176187280Y-85414298D01*
X176896579Y-84705000D01*
X189238305Y-84705000D01*
X189281774Y-84709281D01*
X189325243Y-84705000D01*
X189325251Y-84705000D01*
X189455264Y-84692195D01*
X189622087Y-84641589D01*
X189775833Y-84559411D01*
X189910591Y-84448817D01*
X189938308Y-84415044D01*
X191962352Y-82391000D01*
X197059000Y-82391000D01*
X197059000Y-83091000D01*
X197108467Y-83339251D01*
X197205415Y-83573081D01*
X197346118Y-83783505D01*
X197525170Y-83962436D01*
X197735689Y-84102997D01*
X197969585Y-84199787D01*
X198018529Y-84207099D01*
X198217000Y-84083067D01*
X198217000Y-82391000D01*
X197059000Y-82391000D01*
X191962352Y-82391000D01*
X194502352Y-79851000D01*
X197059000Y-79851000D01*
X197059000Y-80551000D01*
X197108467Y-80799251D01*
X197189212Y-80994000D01*
X197108467Y-81188749D01*
X197059000Y-81437000D01*
X197059000Y-82137000D01*
X198217000Y-82137000D01*
X198217000Y-79851000D01*
X197059000Y-79851000D01*
X194502352Y-79851000D01*
X195053532Y-79299820D01*
X195266831Y-79257393D01*
X195473388Y-79171834D01*
X195659284Y-79047622D01*
X195809906Y-78897000D01*
X197059000Y-78897000D01*
X197059000Y-79597000D01*
X198217000Y-79597000D01*
X198217000Y-77904933D01*
X198018529Y-77780901D01*
X197969585Y-77788213D01*
X197735689Y-77885003D01*
X197525170Y-78025564D01*
X197346118Y-78204495D01*
X197205415Y-78414919D01*
X197108467Y-78648749D01*
X197059000Y-78897000D01*
X195809906Y-78897000D01*
X195817376Y-78889530D01*
X195941588Y-78703634D01*
X196027147Y-78497077D01*
X196070764Y-78277798D01*
X196070764Y-78054222D01*
X196027147Y-77834943D01*
X195941588Y-77628386D01*
X195817376Y-77442490D01*
X195659284Y-77284398D01*
X195473388Y-77160186D01*
X195266831Y-77074627D01*
X195047552Y-77031010D01*
X194823976Y-77031010D01*
X194655112Y-77064599D01*
X198252803Y-73466908D01*
X198252807Y-73466903D01*
X198627298Y-73092412D01*
X199069908Y-72649803D01*
X199109396Y-72617396D01*
X199141805Y-72577906D01*
X199564711Y-72155000D01*
X207975172Y-72155000D01*
X208026000Y-72160006D01*
X208076828Y-72155000D01*
X223469172Y-72155000D01*
X223520000Y-72160006D01*
X223570828Y-72155000D01*
X223570838Y-72155000D01*
X223722895Y-72140024D01*
X223917993Y-72080841D01*
X224097797Y-71984734D01*
X224255396Y-71855396D01*
X224287807Y-71815903D01*
X228774711Y-67329000D01*
X233492546Y-67329000D01*
X233510498Y-67388180D01*
X233569463Y-67498494D01*
X233648815Y-67595185D01*
X233745506Y-67674537D01*
X233855820Y-67733502D01*
X233928380Y-67755513D01*
X233796525Y-67887368D01*
X233634010Y-68130589D01*
X233522068Y-68400842D01*
X233465000Y-68687740D01*
X233465000Y-68980260D01*
X233479461Y-69052960D01*
X228487422Y-74045000D01*
X207707741Y-74045000D01*
X207664275Y-74040719D01*
X207620809Y-74045000D01*
X207620799Y-74045000D01*
X207490786Y-74057805D01*
X207323963Y-74108411D01*
X207170217Y-74190589D01*
X207170215Y-74190590D01*
X207170216Y-74190590D01*
X207069229Y-74273468D01*
X207069227Y-74273470D01*
X207035459Y-74301183D01*
X207007746Y-74334951D01*
X203874956Y-77467742D01*
X203841183Y-77495459D01*
X203730589Y-77630218D01*
X203648411Y-77783964D01*
X203618692Y-77881932D01*
X203600582Y-77941634D01*
X203597805Y-77950787D01*
X203595312Y-77976102D01*
X203430973Y-78110972D01*
X203344001Y-78216948D01*
X203257028Y-78110972D01*
X203061362Y-77950392D01*
X202838127Y-77831071D01*
X202595904Y-77757593D01*
X202344000Y-77732783D01*
X202092097Y-77757593D01*
X201849874Y-77831071D01*
X201626639Y-77950392D01*
X201430973Y-78110972D01*
X201344001Y-78216948D01*
X201257028Y-78110972D01*
X201061362Y-77950392D01*
X200838127Y-77831071D01*
X200595904Y-77757593D01*
X200344000Y-77732783D01*
X200092097Y-77757593D01*
X199849874Y-77831071D01*
X199626639Y-77950392D01*
X199430973Y-78110972D01*
X199347421Y-78212779D01*
X199341882Y-78204495D01*
X199162830Y-78025564D01*
X198952311Y-77885003D01*
X198718415Y-77788213D01*
X198669471Y-77780901D01*
X198471000Y-77904933D01*
X198471000Y-79597000D01*
X198491000Y-79597000D01*
X198491000Y-79851000D01*
X198471000Y-79851000D01*
X198471000Y-82137000D01*
X198491000Y-82137000D01*
X198491000Y-82391000D01*
X198471000Y-82391000D01*
X198471000Y-84083067D01*
X198669471Y-84207099D01*
X198718415Y-84199787D01*
X198952311Y-84102997D01*
X199162830Y-83962436D01*
X199341882Y-83783505D01*
X199347421Y-83775221D01*
X199394001Y-83831978D01*
X199394001Y-85149635D01*
X199210842Y-85186068D01*
X198940589Y-85298010D01*
X198697368Y-85460525D01*
X198565513Y-85592380D01*
X198543502Y-85519820D01*
X198484537Y-85409506D01*
X198405185Y-85312815D01*
X198308494Y-85233463D01*
X198198180Y-85174498D01*
X198078482Y-85138188D01*
X197954000Y-85125928D01*
X197389750Y-85129000D01*
X197231000Y-85287750D01*
X197231000Y-86487000D01*
X197251000Y-86487000D01*
X197251000Y-86741000D01*
X197231000Y-86741000D01*
X197231000Y-86761000D01*
X196977000Y-86761000D01*
X196977000Y-86741000D01*
X195777750Y-86741000D01*
X195619000Y-86899750D01*
X195615928Y-87464000D01*
X195628188Y-87588482D01*
X195664498Y-87708180D01*
X195723463Y-87818494D01*
X195802815Y-87915185D01*
X195899506Y-87994537D01*
X196009820Y-88053502D01*
X196129518Y-88089812D01*
X196254000Y-88102072D01*
X196818250Y-88099000D01*
X196976998Y-87940252D01*
X196976998Y-88029423D01*
X193689422Y-91317000D01*
X188332521Y-91317000D01*
X188312637Y-91287241D01*
X188112759Y-91087363D01*
X187877727Y-90930320D01*
X187616574Y-90822147D01*
X187339335Y-90767000D01*
X187056665Y-90767000D01*
X186779426Y-90822147D01*
X186518273Y-90930320D01*
X186283241Y-91087363D01*
X186083363Y-91287241D01*
X185926320Y-91522273D01*
X185818147Y-91783426D01*
X185763000Y-92060665D01*
X185763000Y-92343335D01*
X185818147Y-92620574D01*
X185926320Y-92881727D01*
X186083363Y-93116759D01*
X186283241Y-93316637D01*
X186518273Y-93473680D01*
X186779426Y-93581853D01*
X187056665Y-93637000D01*
X187339335Y-93637000D01*
X187616574Y-93581853D01*
X187877727Y-93473680D01*
X188112759Y-93316637D01*
X188312637Y-93116759D01*
X188332521Y-93087000D01*
X194012531Y-93087000D01*
X194056000Y-93091281D01*
X194099469Y-93087000D01*
X194099477Y-93087000D01*
X194229490Y-93074195D01*
X194396313Y-93023589D01*
X194550059Y-92941411D01*
X194684817Y-92830817D01*
X194712534Y-92797044D01*
X199425040Y-88084539D01*
X199497740Y-88099000D01*
X199790260Y-88099000D01*
X200077158Y-88041932D01*
X200347411Y-87929990D01*
X200590632Y-87767475D01*
X200797475Y-87560632D01*
X200914000Y-87386240D01*
X201030525Y-87560632D01*
X201237368Y-87767475D01*
X201480589Y-87929990D01*
X201750842Y-88041932D01*
X202037740Y-88099000D01*
X202330260Y-88099000D01*
X202617158Y-88041932D01*
X202887411Y-87929990D01*
X203130632Y-87767475D01*
X203337475Y-87560632D01*
X203454000Y-87386240D01*
X203570525Y-87560632D01*
X203777368Y-87767475D01*
X204020589Y-87929990D01*
X204290842Y-88041932D01*
X204577740Y-88099000D01*
X204870260Y-88099000D01*
X205157158Y-88041932D01*
X205427411Y-87929990D01*
X205670632Y-87767475D01*
X205877475Y-87560632D01*
X205994000Y-87386240D01*
X206110525Y-87560632D01*
X206317368Y-87767475D01*
X206560589Y-87929990D01*
X206830842Y-88041932D01*
X207117740Y-88099000D01*
X207410260Y-88099000D01*
X207697158Y-88041932D01*
X207967411Y-87929990D01*
X208210632Y-87767475D01*
X208417475Y-87560632D01*
X208534000Y-87386240D01*
X208650525Y-87560632D01*
X208857368Y-87767475D01*
X209100589Y-87929990D01*
X209370842Y-88041932D01*
X209657740Y-88099000D01*
X209950260Y-88099000D01*
X210237158Y-88041932D01*
X210507411Y-87929990D01*
X210750632Y-87767475D01*
X210957475Y-87560632D01*
X211074000Y-87386240D01*
X211190525Y-87560632D01*
X211397368Y-87767475D01*
X211640589Y-87929990D01*
X211910842Y-88041932D01*
X212197740Y-88099000D01*
X212490260Y-88099000D01*
X212777158Y-88041932D01*
X213047411Y-87929990D01*
X213290632Y-87767475D01*
X213497475Y-87560632D01*
X213614000Y-87386240D01*
X213730525Y-87560632D01*
X213937368Y-87767475D01*
X214180589Y-87929990D01*
X214450842Y-88041932D01*
X214737740Y-88099000D01*
X215030260Y-88099000D01*
X215317158Y-88041932D01*
X215587411Y-87929990D01*
X215830632Y-87767475D01*
X216037475Y-87560632D01*
X216199990Y-87317411D01*
X216311932Y-87047158D01*
X216369000Y-86760260D01*
X216369000Y-86467740D01*
X216311932Y-86180842D01*
X216199990Y-85910589D01*
X216037475Y-85667368D01*
X215830632Y-85460525D01*
X215587411Y-85298010D01*
X215317158Y-85186068D01*
X215030260Y-85129000D01*
X214737740Y-85129000D01*
X214665040Y-85143461D01*
X213320845Y-83799267D01*
X213417608Y-83681362D01*
X213536929Y-83458127D01*
X213610407Y-83215904D01*
X213629000Y-83027123D01*
X213629000Y-81500877D01*
X213610407Y-81312096D01*
X213536929Y-81069873D01*
X213496374Y-80994000D01*
X213536929Y-80918127D01*
X213610407Y-80675904D01*
X213629000Y-80487123D01*
X213629000Y-79350890D01*
X233508524Y-79350890D01*
X233553175Y-79498099D01*
X233678359Y-79760920D01*
X233852412Y-79994269D01*
X234068645Y-80189178D01*
X234318748Y-80338157D01*
X234593109Y-80435481D01*
X234823000Y-80314814D01*
X234823000Y-79121000D01*
X233629845Y-79121000D01*
X233508524Y-79350890D01*
X213629000Y-79350890D01*
X213629000Y-78960877D01*
X213628973Y-78960605D01*
X214747768Y-77841810D01*
X214961067Y-77799383D01*
X215167624Y-77713824D01*
X215353520Y-77589612D01*
X215511612Y-77431520D01*
X215573432Y-77339000D01*
X233755344Y-77339000D01*
X233796525Y-77400632D01*
X234003368Y-77607475D01*
X234185534Y-77729195D01*
X234068645Y-77798822D01*
X233852412Y-77993731D01*
X233678359Y-78227080D01*
X233553175Y-78489901D01*
X233508524Y-78637110D01*
X233629845Y-78867000D01*
X234823000Y-78867000D01*
X234823000Y-78847000D01*
X235077000Y-78847000D01*
X235077000Y-78867000D01*
X235097000Y-78867000D01*
X235097000Y-79121000D01*
X235077000Y-79121000D01*
X235077000Y-80314814D01*
X235306891Y-80435481D01*
X235581252Y-80338157D01*
X235650990Y-80296616D01*
X235650991Y-88497468D01*
X233021625Y-91126835D01*
X232980472Y-91049843D01*
X232731397Y-90972208D01*
X231882605Y-91821000D01*
X231896748Y-91835143D01*
X231717143Y-92014748D01*
X231703000Y-92000605D01*
X231688858Y-92014748D01*
X231509253Y-91835143D01*
X231523395Y-91821000D01*
X230674603Y-90972208D01*
X230425528Y-91049843D01*
X230299629Y-91313883D01*
X230227661Y-91597411D01*
X230224051Y-91666470D01*
X229388001Y-90830421D01*
X229388001Y-90792603D01*
X230854208Y-90792603D01*
X231703000Y-91641395D01*
X232551792Y-90792603D01*
X232474157Y-90543528D01*
X232210117Y-90417629D01*
X231926589Y-90345661D01*
X231634469Y-90330389D01*
X231344981Y-90372401D01*
X231069253Y-90470081D01*
X230931843Y-90543528D01*
X230854208Y-90792603D01*
X229388001Y-90792603D01*
X229388001Y-86349397D01*
X230854208Y-86349397D01*
X230931843Y-86598472D01*
X231195883Y-86724371D01*
X231479411Y-86796339D01*
X231771531Y-86811611D01*
X232061019Y-86769599D01*
X232336747Y-86671919D01*
X232474157Y-86598472D01*
X232551792Y-86349397D01*
X231703000Y-85500605D01*
X230854208Y-86349397D01*
X229388001Y-86349397D01*
X229388001Y-85389531D01*
X230212389Y-85389531D01*
X230254401Y-85679019D01*
X230352081Y-85954747D01*
X230425528Y-86092157D01*
X230674603Y-86169792D01*
X231523395Y-85321000D01*
X231882605Y-85321000D01*
X232731397Y-86169792D01*
X232980472Y-86092157D01*
X233106371Y-85828117D01*
X233178339Y-85544589D01*
X233193611Y-85252469D01*
X233151599Y-84962981D01*
X233053919Y-84687253D01*
X232980472Y-84549843D01*
X232731397Y-84472208D01*
X231882605Y-85321000D01*
X231523395Y-85321000D01*
X230674603Y-84472208D01*
X230425528Y-84549843D01*
X230299629Y-84813883D01*
X230227661Y-85097411D01*
X230212389Y-85389531D01*
X229388001Y-85389531D01*
X229388001Y-84740464D01*
X229392282Y-84696998D01*
X229388001Y-84653532D01*
X229388001Y-84653522D01*
X229375196Y-84523509D01*
X229324590Y-84356686D01*
X229290338Y-84292603D01*
X230854208Y-84292603D01*
X231703000Y-85141395D01*
X232551792Y-84292603D01*
X232474157Y-84043528D01*
X232210117Y-83917629D01*
X231926589Y-83845661D01*
X231634469Y-83830389D01*
X231344981Y-83872401D01*
X231069253Y-83970081D01*
X230931843Y-84043528D01*
X230854208Y-84292603D01*
X229290338Y-84292603D01*
X229242412Y-84202940D01*
X229213347Y-84167525D01*
X229159533Y-84101952D01*
X229159531Y-84101950D01*
X229131818Y-84068182D01*
X229098050Y-84040469D01*
X228483535Y-83425955D01*
X228455818Y-83392182D01*
X228321060Y-83281588D01*
X228167314Y-83199410D01*
X228000491Y-83148804D01*
X227870478Y-83135999D01*
X227870470Y-83135999D01*
X227827001Y-83131718D01*
X227783532Y-83135999D01*
X220314470Y-83135999D01*
X220271001Y-83131718D01*
X220227532Y-83135999D01*
X220227524Y-83135999D01*
X220112307Y-83147347D01*
X220097510Y-83148804D01*
X220066296Y-83158273D01*
X219930688Y-83199410D01*
X219776942Y-83281588D01*
X219776940Y-83281589D01*
X219776941Y-83281589D01*
X219675954Y-83364467D01*
X219675952Y-83364469D01*
X219642184Y-83392182D01*
X219614471Y-83425950D01*
X219186144Y-83854277D01*
X219094260Y-83836000D01*
X218801740Y-83836000D01*
X218514842Y-83893068D01*
X218244589Y-84005010D01*
X218001368Y-84167525D01*
X217794525Y-84374368D01*
X217632010Y-84617589D01*
X217520068Y-84887842D01*
X217463000Y-85174740D01*
X217463000Y-85467260D01*
X217520068Y-85754158D01*
X217632010Y-86024411D01*
X217794525Y-86267632D01*
X218001368Y-86474475D01*
X218063001Y-86515657D01*
X218063000Y-90626344D01*
X218001368Y-90667525D01*
X217794525Y-90874368D01*
X217632010Y-91117589D01*
X217520068Y-91387842D01*
X217463000Y-91674740D01*
X217463000Y-91967260D01*
X217520068Y-92254158D01*
X217632010Y-92524411D01*
X217794525Y-92767632D01*
X218001368Y-92974475D01*
X218244589Y-93136990D01*
X218514842Y-93248932D01*
X218801740Y-93306000D01*
X219094260Y-93306000D01*
X219381158Y-93248932D01*
X219651411Y-93136990D01*
X219894632Y-92974475D01*
X220019710Y-92849397D01*
X222599208Y-92849397D01*
X222676843Y-93098472D01*
X222940883Y-93224371D01*
X223224411Y-93296339D01*
X223516531Y-93311611D01*
X223806019Y-93269599D01*
X224081747Y-93171919D01*
X224219157Y-93098472D01*
X224296792Y-92849397D01*
X223448000Y-92000605D01*
X222599208Y-92849397D01*
X220019710Y-92849397D01*
X220101475Y-92767632D01*
X220263990Y-92524411D01*
X220375932Y-92254158D01*
X220433000Y-91967260D01*
X220433000Y-91889531D01*
X221957389Y-91889531D01*
X221999401Y-92179019D01*
X222097081Y-92454747D01*
X222170528Y-92592157D01*
X222419603Y-92669792D01*
X223268395Y-91821000D01*
X223627605Y-91821000D01*
X224476397Y-92669792D01*
X224725472Y-92592157D01*
X224851371Y-92328117D01*
X224923339Y-92044589D01*
X224938611Y-91752469D01*
X224896599Y-91462981D01*
X224798919Y-91187253D01*
X224725472Y-91049843D01*
X224476397Y-90972208D01*
X223627605Y-91821000D01*
X223268395Y-91821000D01*
X222419603Y-90972208D01*
X222170528Y-91049843D01*
X222044629Y-91313883D01*
X221972661Y-91597411D01*
X221957389Y-91889531D01*
X220433000Y-91889531D01*
X220433000Y-91674740D01*
X220375932Y-91387842D01*
X220263990Y-91117589D01*
X220101475Y-90874368D01*
X220019710Y-90792603D01*
X222599208Y-90792603D01*
X223448000Y-91641395D01*
X224296792Y-90792603D01*
X224219157Y-90543528D01*
X223955117Y-90417629D01*
X223671589Y-90345661D01*
X223379469Y-90330389D01*
X223089981Y-90372401D01*
X222814253Y-90470081D01*
X222676843Y-90543528D01*
X222599208Y-90792603D01*
X220019710Y-90792603D01*
X219894632Y-90667525D01*
X219833000Y-90626344D01*
X219833000Y-86515656D01*
X219894632Y-86474475D01*
X220019710Y-86349397D01*
X222599208Y-86349397D01*
X222676843Y-86598472D01*
X222940883Y-86724371D01*
X223224411Y-86796339D01*
X223516531Y-86811611D01*
X223806019Y-86769599D01*
X224081747Y-86671919D01*
X224219157Y-86598472D01*
X224296792Y-86349397D01*
X223448000Y-85500605D01*
X222599208Y-86349397D01*
X220019710Y-86349397D01*
X220101475Y-86267632D01*
X220263990Y-86024411D01*
X220375932Y-85754158D01*
X220433000Y-85467260D01*
X220433000Y-85174740D01*
X220422355Y-85121224D01*
X220637580Y-84905999D01*
X222021247Y-84905999D01*
X221972661Y-85097411D01*
X221957389Y-85389531D01*
X221999401Y-85679019D01*
X222097081Y-85954747D01*
X222170528Y-86092157D01*
X222419603Y-86169792D01*
X223268395Y-85321000D01*
X223254253Y-85306858D01*
X223433858Y-85127253D01*
X223448000Y-85141395D01*
X223462143Y-85127253D01*
X223641748Y-85306858D01*
X223627605Y-85321000D01*
X224476397Y-86169792D01*
X224725472Y-86092157D01*
X224851371Y-85828117D01*
X224923339Y-85544589D01*
X224938611Y-85252469D01*
X224896599Y-84962981D01*
X224876412Y-84905999D01*
X225771456Y-84905999D01*
X225718000Y-85174740D01*
X225718000Y-85467260D01*
X225775068Y-85754158D01*
X225887010Y-86024411D01*
X226049525Y-86267632D01*
X226256368Y-86474475D01*
X226445000Y-86600515D01*
X226445001Y-90541485D01*
X226256368Y-90667525D01*
X226049525Y-90874368D01*
X225887010Y-91117589D01*
X225775068Y-91387842D01*
X225718000Y-91674740D01*
X225718000Y-91967260D01*
X225775068Y-92254158D01*
X225887010Y-92524411D01*
X226049525Y-92767632D01*
X226256368Y-92974475D01*
X226499589Y-93136990D01*
X226769842Y-93248932D01*
X227056740Y-93306000D01*
X227349260Y-93306000D01*
X227421960Y-93291539D01*
X228705470Y-94575049D01*
X228733183Y-94608817D01*
X228766951Y-94636530D01*
X228766953Y-94636532D01*
X228838452Y-94695210D01*
X228867941Y-94719411D01*
X229021687Y-94801589D01*
X229188510Y-94852195D01*
X229318523Y-94865000D01*
X229318533Y-94865000D01*
X229361999Y-94869281D01*
X229405466Y-94865000D01*
X232366531Y-94865000D01*
X232410000Y-94869281D01*
X232453469Y-94865000D01*
X232453477Y-94865000D01*
X232583490Y-94852195D01*
X232750313Y-94801589D01*
X232904059Y-94719411D01*
X233038817Y-94608817D01*
X233066534Y-94575044D01*
X237831051Y-89810528D01*
X237864817Y-89782817D01*
X237975411Y-89648059D01*
X237999250Y-89603459D01*
X238057589Y-89494314D01*
X238108195Y-89327490D01*
X238108195Y-89327489D01*
X238121000Y-89197477D01*
X238121000Y-89197469D01*
X238125281Y-89154000D01*
X238121000Y-89110531D01*
X238121000Y-71163465D01*
X238125281Y-71119999D01*
X238121000Y-71076533D01*
X238121000Y-71076523D01*
X238108195Y-70946510D01*
X238057589Y-70779687D01*
X237975411Y-70625941D01*
X237915067Y-70552412D01*
X237892532Y-70524953D01*
X237892530Y-70524951D01*
X237864817Y-70491183D01*
X237831049Y-70463470D01*
X236420539Y-69052960D01*
X236435000Y-68980260D01*
X236435000Y-68687740D01*
X236420539Y-68615039D01*
X238847050Y-66188529D01*
X238880817Y-66160817D01*
X238918607Y-66114771D01*
X238991410Y-66026060D01*
X238991411Y-66026059D01*
X239073589Y-65872313D01*
X239124195Y-65705490D01*
X239137000Y-65575477D01*
X239137000Y-65575467D01*
X239141281Y-65532001D01*
X239137000Y-65488535D01*
X239137000Y-63618521D01*
X239166759Y-63598637D01*
X239366637Y-63398759D01*
X239523680Y-63163727D01*
X239631853Y-62902574D01*
X239687000Y-62625335D01*
X239687000Y-62342665D01*
X239631853Y-62065426D01*
X239523680Y-61804273D01*
X239366637Y-61569241D01*
X239166759Y-61369363D01*
X238931727Y-61212320D01*
X238670574Y-61104147D01*
X238393335Y-61049000D01*
X238110665Y-61049000D01*
X238075561Y-61055983D01*
X233828534Y-56808956D01*
X233800817Y-56775183D01*
X233666059Y-56664589D01*
X233512313Y-56582411D01*
X233345490Y-56531805D01*
X233215477Y-56519000D01*
X233215469Y-56519000D01*
X233172000Y-56514719D01*
X233128531Y-56519000D01*
X187583621Y-56519000D01*
X187550502Y-56409820D01*
X187491537Y-56299506D01*
X187412185Y-56202815D01*
X187315494Y-56123463D01*
X187205180Y-56064498D01*
X187085482Y-56028188D01*
X186961000Y-56015928D01*
X185911000Y-56015928D01*
X185786518Y-56028188D01*
X185666820Y-56064498D01*
X185602098Y-56099093D01*
X185393400Y-56035785D01*
X185382125Y-56034675D01*
X183382405Y-54034955D01*
X183354688Y-54001182D01*
X183219930Y-53890588D01*
X183066184Y-53808410D01*
X182899361Y-53757804D01*
X182769348Y-53744999D01*
X182769340Y-53744999D01*
X182725871Y-53740718D01*
X182682402Y-53744999D01*
X178585466Y-53744999D01*
X178542000Y-53740718D01*
X178498534Y-53744999D01*
X178498524Y-53744999D01*
X178368511Y-53757804D01*
X178201688Y-53808410D01*
X178047942Y-53890588D01*
X178047940Y-53890589D01*
X178047941Y-53890589D01*
X177946954Y-53973467D01*
X177946952Y-53973469D01*
X177913184Y-54001182D01*
X177885471Y-54034950D01*
X177468439Y-54451983D01*
X177433335Y-54445000D01*
X177150665Y-54445000D01*
X176873426Y-54500147D01*
X176612273Y-54608320D01*
X176377241Y-54765363D01*
X176177363Y-54965241D01*
X176020320Y-55200273D01*
X175912147Y-55461426D01*
X175857000Y-55738665D01*
X175857000Y-56021335D01*
X175912147Y-56298574D01*
X176020320Y-56559727D01*
X176177363Y-56794759D01*
X176377241Y-56994637D01*
X176612273Y-57151680D01*
X176873426Y-57259853D01*
X177150665Y-57315000D01*
X177433335Y-57315000D01*
X177710574Y-57259853D01*
X177971727Y-57151680D01*
X178206759Y-56994637D01*
X178406637Y-56794759D01*
X178563680Y-56559727D01*
X178671853Y-56298574D01*
X178727000Y-56021335D01*
X178727000Y-55738665D01*
X178720017Y-55703561D01*
X178908580Y-55514999D01*
X179457491Y-55514999D01*
X179413000Y-55738665D01*
X179413000Y-56021335D01*
X179462124Y-56268297D01*
X171482941Y-64247481D01*
X171449173Y-64275194D01*
X171421460Y-64308962D01*
X171421457Y-64308965D01*
X171338579Y-64409952D01*
X171256401Y-64563698D01*
X171205794Y-64730521D01*
X171188708Y-64904011D01*
X159564405Y-64904011D01*
X159411727Y-64801995D01*
X159157490Y-64696686D01*
X158887592Y-64643000D01*
X158612408Y-64643000D01*
X158342510Y-64696686D01*
X158088273Y-64801995D01*
X157859465Y-64954880D01*
X157664880Y-65149465D01*
X157511995Y-65378273D01*
X157406686Y-65632510D01*
X157353000Y-65902408D01*
X153797000Y-65902408D01*
X153797000Y-53119872D01*
X155245000Y-53119872D01*
X155245000Y-53560128D01*
X155330890Y-53991925D01*
X155499369Y-54398669D01*
X155743962Y-54764729D01*
X156055271Y-55076038D01*
X156421331Y-55320631D01*
X156828075Y-55489110D01*
X157259872Y-55575000D01*
X157700128Y-55575000D01*
X158131925Y-55489110D01*
X158538669Y-55320631D01*
X158904729Y-55076038D01*
X159216038Y-54764729D01*
X159460631Y-54398669D01*
X159629110Y-53991925D01*
X159715000Y-53560128D01*
X159715000Y-53119872D01*
X159629110Y-52688075D01*
X159460631Y-52281331D01*
X159216038Y-51915271D01*
X158904729Y-51603962D01*
X158538669Y-51359369D01*
X158131925Y-51190890D01*
X157700128Y-51105000D01*
X157259872Y-51105000D01*
X156828075Y-51190890D01*
X156421331Y-51359369D01*
X156055271Y-51603962D01*
X155743962Y-51915271D01*
X155499369Y-52281331D01*
X155330890Y-52688075D01*
X155245000Y-53119872D01*
X153797000Y-53119872D01*
X153797000Y-50805548D01*
X153814843Y-50601605D01*
X153866388Y-50409235D01*
X153926651Y-50280000D01*
X184586429Y-50280000D01*
X184586429Y-54100000D01*
X234115656Y-54100000D01*
X234239369Y-54398669D01*
X234483962Y-54764729D01*
X234795271Y-55076038D01*
X235161331Y-55320631D01*
X235568075Y-55489110D01*
X235999872Y-55575000D01*
X236440128Y-55575000D01*
X236871925Y-55489110D01*
X237278669Y-55320631D01*
X237644729Y-55076038D01*
X237956038Y-54764729D01*
X238200631Y-54398669D01*
X238369110Y-53991925D01*
X238455000Y-53560128D01*
X238455000Y-53119872D01*
X238369110Y-52688075D01*
X238200631Y-52281331D01*
X237956038Y-51915271D01*
X237644729Y-51603962D01*
X237278669Y-51359369D01*
X236871925Y-51190890D01*
X236440128Y-51105000D01*
X235999872Y-51105000D01*
X235568075Y-51190890D01*
X235161331Y-51359369D01*
X234795271Y-51603962D01*
X234513572Y-51885661D01*
X234513572Y-50280000D01*
X184586429Y-50280000D01*
X153926651Y-50280000D01*
X153950555Y-50228740D01*
X154064780Y-50065610D01*
X154205610Y-49924780D01*
X154368740Y-49810555D01*
X154549235Y-49726388D01*
X154741605Y-49674843D01*
X154945548Y-49657000D01*
X238754452Y-49657000D01*
X238958395Y-49674843D01*
G37*
G04 #@! TD.AperFunction*
D25*
X195676068Y-59510842D02*
X195619000Y-59797740D01*
X195619000Y-60090260D01*
X195676068Y-60377158D01*
X195788010Y-60647411D01*
X195950525Y-60890632D01*
X196157368Y-61097475D01*
X196400589Y-61259990D01*
X196670842Y-61371932D01*
X196957740Y-61429000D01*
X197125289Y-61429000D01*
X197309001Y-61612712D01*
X197309001Y-62859595D01*
X197270393Y-62906638D01*
X197151071Y-63129873D01*
X197077593Y-63372096D01*
X197059000Y-63560877D01*
X197059000Y-65087122D01*
X197077593Y-65275903D01*
X197151071Y-65518126D01*
X197191626Y-65594000D01*
X197151071Y-65669873D01*
X197077593Y-65912096D01*
X197059000Y-66100877D01*
X197059000Y-67627122D01*
X197077593Y-67815903D01*
X197151071Y-68058126D01*
X197270392Y-68281361D01*
X197339001Y-68364961D01*
X197339000Y-71069162D01*
X197333993Y-71120000D01*
X197339000Y-71170837D01*
X197339000Y-71453289D01*
X196789097Y-72003193D01*
X196789092Y-72003197D01*
X193100971Y-75691318D01*
X193029824Y-75519555D01*
X192905612Y-75333659D01*
X192747520Y-75175567D01*
X192561624Y-75051355D01*
X192355067Y-74965796D01*
X192135788Y-74922179D01*
X191912212Y-74922179D01*
X191692933Y-74965796D01*
X191486376Y-75051355D01*
X191300480Y-75175567D01*
X191161047Y-75315000D01*
X175078818Y-75315000D01*
X175075120Y-75309465D01*
X174880535Y-75114880D01*
X174651727Y-74961995D01*
X174574485Y-74930000D01*
X174651727Y-74898005D01*
X174880535Y-74745120D01*
X175075120Y-74550535D01*
X175228005Y-74321727D01*
X175333314Y-74067490D01*
X175387000Y-73797592D01*
X175387000Y-73522408D01*
X175333314Y-73252510D01*
X175228005Y-72998273D01*
X175075120Y-72769465D01*
X174880535Y-72574880D01*
X174651727Y-72421995D01*
X174580057Y-72392308D01*
X174593023Y-72387636D01*
X174708980Y-72325656D01*
X174775960Y-72085565D01*
X173990000Y-71299605D01*
X173975858Y-71313748D01*
X173796253Y-71134143D01*
X173810395Y-71120000D01*
X174169605Y-71120000D01*
X174955565Y-71905960D01*
X175195656Y-71838980D01*
X175312756Y-71589952D01*
X175379023Y-71322865D01*
X175391910Y-71047983D01*
X175350922Y-70775867D01*
X175257636Y-70516977D01*
X175195656Y-70401020D01*
X174955565Y-70334040D01*
X174169605Y-71120000D01*
X173810395Y-71120000D01*
X173796253Y-71105858D01*
X173975858Y-70926253D01*
X173990000Y-70940395D01*
X174775960Y-70154435D01*
X174708980Y-69914344D01*
X174573240Y-69850515D01*
X174651727Y-69818005D01*
X174880535Y-69665120D01*
X175075120Y-69470535D01*
X175228005Y-69241727D01*
X175333314Y-68987490D01*
X175387000Y-68717592D01*
X175387000Y-68442408D01*
X175333314Y-68172510D01*
X175228005Y-67918273D01*
X175075120Y-67689465D01*
X174880535Y-67494880D01*
X174651727Y-67341995D01*
X174574485Y-67310000D01*
X174651727Y-67278005D01*
X174880535Y-67125120D01*
X175075120Y-66930535D01*
X175228005Y-66701727D01*
X175333314Y-66447490D01*
X175387000Y-66177592D01*
X175387000Y-65902408D01*
X175349324Y-65712999D01*
X175713421Y-65712999D01*
X175863983Y-65863561D01*
X175857000Y-65898665D01*
X175857000Y-66181335D01*
X175912147Y-66458574D01*
X176020320Y-66719727D01*
X176177363Y-66954759D01*
X176377241Y-67154637D01*
X176612273Y-67311680D01*
X176873426Y-67419853D01*
X177150665Y-67475000D01*
X177433335Y-67475000D01*
X177468439Y-67468017D01*
X178413470Y-68413049D01*
X178441183Y-68446817D01*
X178474951Y-68474530D01*
X178474953Y-68474532D01*
X178536255Y-68524841D01*
X178575941Y-68557411D01*
X178729687Y-68639589D01*
X178845903Y-68674843D01*
X178896509Y-68690195D01*
X178911306Y-68691652D01*
X179026523Y-68703000D01*
X179026531Y-68703000D01*
X179070000Y-68707281D01*
X179113469Y-68703000D01*
X181566531Y-68703000D01*
X181610000Y-68707281D01*
X181653469Y-68703000D01*
X181653477Y-68703000D01*
X181783490Y-68690195D01*
X181950313Y-68639589D01*
X182104059Y-68557411D01*
X182238817Y-68446817D01*
X182266534Y-68413044D01*
X184491050Y-66188529D01*
X184524817Y-66160817D01*
X184562607Y-66114771D01*
X184635410Y-66026060D01*
X184635411Y-66026059D01*
X184717589Y-65872313D01*
X184768195Y-65705490D01*
X184781000Y-65575477D01*
X184781000Y-65575467D01*
X184785281Y-65532001D01*
X184781000Y-65488535D01*
X184781000Y-63550407D01*
X184938600Y-63598215D01*
X185166000Y-63620612D01*
X185393399Y-63598215D01*
X185602098Y-63534907D01*
X185666820Y-63569502D01*
X185786518Y-63605812D01*
X185911000Y-63618072D01*
X186961000Y-63618072D01*
X187085482Y-63605812D01*
X187205180Y-63569502D01*
X187315494Y-63510537D01*
X187412185Y-63431185D01*
X187491537Y-63334494D01*
X187550502Y-63224180D01*
X187586812Y-63104482D01*
X187599072Y-62980000D01*
X187599072Y-61480000D01*
X187586812Y-61355518D01*
X187550502Y-61235820D01*
X187509140Y-61158438D01*
X189362579Y-59305000D01*
X195761330Y-59305000D01*
X195676068Y-59510842D01*
G04 #@! TA.AperFunction,Conductor*
D26*
G36*
X195676068Y-59510842D02*
G01*
X195619000Y-59797740D01*
X195619000Y-60090260D01*
X195676068Y-60377158D01*
X195788010Y-60647411D01*
X195950525Y-60890632D01*
X196157368Y-61097475D01*
X196400589Y-61259990D01*
X196670842Y-61371932D01*
X196957740Y-61429000D01*
X197125289Y-61429000D01*
X197309001Y-61612712D01*
X197309001Y-62859595D01*
X197270393Y-62906638D01*
X197151071Y-63129873D01*
X197077593Y-63372096D01*
X197059000Y-63560877D01*
X197059000Y-65087122D01*
X197077593Y-65275903D01*
X197151071Y-65518126D01*
X197191626Y-65594000D01*
X197151071Y-65669873D01*
X197077593Y-65912096D01*
X197059000Y-66100877D01*
X197059000Y-67627122D01*
X197077593Y-67815903D01*
X197151071Y-68058126D01*
X197270392Y-68281361D01*
X197339001Y-68364961D01*
X197339000Y-71069162D01*
X197333993Y-71120000D01*
X197339000Y-71170837D01*
X197339000Y-71453289D01*
X196789097Y-72003193D01*
X196789092Y-72003197D01*
X193100971Y-75691318D01*
X193029824Y-75519555D01*
X192905612Y-75333659D01*
X192747520Y-75175567D01*
X192561624Y-75051355D01*
X192355067Y-74965796D01*
X192135788Y-74922179D01*
X191912212Y-74922179D01*
X191692933Y-74965796D01*
X191486376Y-75051355D01*
X191300480Y-75175567D01*
X191161047Y-75315000D01*
X175078818Y-75315000D01*
X175075120Y-75309465D01*
X174880535Y-75114880D01*
X174651727Y-74961995D01*
X174574485Y-74930000D01*
X174651727Y-74898005D01*
X174880535Y-74745120D01*
X175075120Y-74550535D01*
X175228005Y-74321727D01*
X175333314Y-74067490D01*
X175387000Y-73797592D01*
X175387000Y-73522408D01*
X175333314Y-73252510D01*
X175228005Y-72998273D01*
X175075120Y-72769465D01*
X174880535Y-72574880D01*
X174651727Y-72421995D01*
X174580057Y-72392308D01*
X174593023Y-72387636D01*
X174708980Y-72325656D01*
X174775960Y-72085565D01*
X173990000Y-71299605D01*
X173975858Y-71313748D01*
X173796253Y-71134143D01*
X173810395Y-71120000D01*
X174169605Y-71120000D01*
X174955565Y-71905960D01*
X175195656Y-71838980D01*
X175312756Y-71589952D01*
X175379023Y-71322865D01*
X175391910Y-71047983D01*
X175350922Y-70775867D01*
X175257636Y-70516977D01*
X175195656Y-70401020D01*
X174955565Y-70334040D01*
X174169605Y-71120000D01*
X173810395Y-71120000D01*
X173796253Y-71105858D01*
X173975858Y-70926253D01*
X173990000Y-70940395D01*
X174775960Y-70154435D01*
X174708980Y-69914344D01*
X174573240Y-69850515D01*
X174651727Y-69818005D01*
X174880535Y-69665120D01*
X175075120Y-69470535D01*
X175228005Y-69241727D01*
X175333314Y-68987490D01*
X175387000Y-68717592D01*
X175387000Y-68442408D01*
X175333314Y-68172510D01*
X175228005Y-67918273D01*
X175075120Y-67689465D01*
X174880535Y-67494880D01*
X174651727Y-67341995D01*
X174574485Y-67310000D01*
X174651727Y-67278005D01*
X174880535Y-67125120D01*
X175075120Y-66930535D01*
X175228005Y-66701727D01*
X175333314Y-66447490D01*
X175387000Y-66177592D01*
X175387000Y-65902408D01*
X175349324Y-65712999D01*
X175713421Y-65712999D01*
X175863983Y-65863561D01*
X175857000Y-65898665D01*
X175857000Y-66181335D01*
X175912147Y-66458574D01*
X176020320Y-66719727D01*
X176177363Y-66954759D01*
X176377241Y-67154637D01*
X176612273Y-67311680D01*
X176873426Y-67419853D01*
X177150665Y-67475000D01*
X177433335Y-67475000D01*
X177468439Y-67468017D01*
X178413470Y-68413049D01*
X178441183Y-68446817D01*
X178474951Y-68474530D01*
X178474953Y-68474532D01*
X178536255Y-68524841D01*
X178575941Y-68557411D01*
X178729687Y-68639589D01*
X178845903Y-68674843D01*
X178896509Y-68690195D01*
X178911306Y-68691652D01*
X179026523Y-68703000D01*
X179026531Y-68703000D01*
X179070000Y-68707281D01*
X179113469Y-68703000D01*
X181566531Y-68703000D01*
X181610000Y-68707281D01*
X181653469Y-68703000D01*
X181653477Y-68703000D01*
X181783490Y-68690195D01*
X181950313Y-68639589D01*
X182104059Y-68557411D01*
X182238817Y-68446817D01*
X182266534Y-68413044D01*
X184491050Y-66188529D01*
X184524817Y-66160817D01*
X184562607Y-66114771D01*
X184635410Y-66026060D01*
X184635411Y-66026059D01*
X184717589Y-65872313D01*
X184768195Y-65705490D01*
X184781000Y-65575477D01*
X184781000Y-65575467D01*
X184785281Y-65532001D01*
X184781000Y-65488535D01*
X184781000Y-63550407D01*
X184938600Y-63598215D01*
X185166000Y-63620612D01*
X185393399Y-63598215D01*
X185602098Y-63534907D01*
X185666820Y-63569502D01*
X185786518Y-63605812D01*
X185911000Y-63618072D01*
X186961000Y-63618072D01*
X187085482Y-63605812D01*
X187205180Y-63569502D01*
X187315494Y-63510537D01*
X187412185Y-63431185D01*
X187491537Y-63334494D01*
X187550502Y-63224180D01*
X187586812Y-63104482D01*
X187599072Y-62980000D01*
X187599072Y-61480000D01*
X187586812Y-61355518D01*
X187550502Y-61235820D01*
X187509140Y-61158438D01*
X189362579Y-59305000D01*
X195761330Y-59305000D01*
X195676068Y-59510842D01*
G37*
G04 #@! TD.AperFunction*
G04 #@! TD*
D27*
X214630000Y-76708000D03*
X192024000Y-76057179D03*
X194935764Y-78166010D03*
X208026000Y-77404010D03*
X218948000Y-62484000D03*
X218948000Y-91821000D03*
X218948000Y-85321000D03*
X223448000Y-91821000D03*
X223448000Y-85321000D03*
X180848000Y-66040000D03*
X180848000Y-55880000D03*
X185166000Y-62230000D03*
X183896000Y-62230000D03*
X186436000Y-62230000D03*
X234950000Y-78994000D03*
X234950000Y-76454000D03*
X234950000Y-73914000D03*
X234950000Y-71374000D03*
X234950000Y-68834000D03*
X234950000Y-66294000D03*
X180848000Y-87296000D03*
X180848000Y-82296000D03*
X228092000Y-62484000D03*
X238252000Y-62484000D03*
X212344000Y-79024000D03*
X210344000Y-79024000D03*
X208344000Y-79024000D03*
X206344000Y-79024000D03*
X204344000Y-79024000D03*
X202344000Y-79024000D03*
X200344000Y-79024000D03*
X198344000Y-79024000D03*
X198344000Y-65024000D03*
X200344000Y-65024000D03*
X202344000Y-65024000D03*
X204344000Y-65024000D03*
X206344000Y-65024000D03*
X208344000Y-65024000D03*
X210344000Y-65024000D03*
X212344000Y-65024000D03*
X212344000Y-81564000D03*
X210344000Y-81564000D03*
X208344000Y-81564000D03*
X206344000Y-81564000D03*
X204344000Y-81564000D03*
X202344000Y-81564000D03*
X200344000Y-81564000D03*
X198344000Y-81564000D03*
X198344000Y-67564000D03*
X200344000Y-67564000D03*
X202344000Y-67564000D03*
X204344000Y-67564000D03*
X206344000Y-67564000D03*
X208344000Y-67564000D03*
X210344000Y-67564000D03*
X212344000Y-67564000D03*
X236220000Y-53340000D03*
X236220000Y-96520000D03*
X157480000Y-96520000D03*
X157480000Y-53340000D03*
X214884000Y-86614000D03*
X212344000Y-86614000D03*
X209804000Y-86614000D03*
X207264000Y-86614000D03*
X204724000Y-86614000D03*
X202184000Y-86614000D03*
X199644000Y-86614000D03*
X197104000Y-86614000D03*
X187325000Y-81407000D03*
X187325000Y-86407000D03*
X158750000Y-66040000D03*
X158750000Y-68580000D03*
X158750000Y-71120000D03*
X158750000Y-73660000D03*
X158750000Y-76200000D03*
X158750000Y-78740000D03*
X158750000Y-81280000D03*
X158750000Y-83820000D03*
X158750000Y-86360000D03*
X173990000Y-86360000D03*
X173990000Y-83820000D03*
X173990000Y-81280000D03*
X173990000Y-78740000D03*
X173990000Y-76200000D03*
X173990000Y-73660000D03*
X173990000Y-71120000D03*
X173990000Y-68580000D03*
X173990000Y-66040000D03*
X227203000Y-91821000D03*
X227203000Y-85321000D03*
X231703000Y-91821000D03*
X231703000Y-85321000D03*
X177292000Y-55880000D03*
X177292000Y-66040000D03*
X187198000Y-92202000D03*
X177038000Y-92202000D03*
X185166000Y-57404000D03*
X183896000Y-57404000D03*
X186436000Y-57404000D03*
X214884000Y-59944000D03*
X212344000Y-59944000D03*
X209804000Y-59944000D03*
X207264000Y-59944000D03*
X204724000Y-59944000D03*
X202184000Y-59944000D03*
X199644000Y-59944000D03*
X197104000Y-59944000D03*
M02*
