G04 #@! TF.GenerationSoftware,KiCad,Pcbnew,(5.1.10)-1*
G04 #@! TF.CreationDate,2021-12-09T23:22:53+01:00*
G04 #@! TF.ProjectId,UARTtoESP,55415254-746f-4455-9350-2e6b69636164,rev?*
G04 #@! TF.SameCoordinates,Original*
G04 #@! TF.FileFunction,Copper,L1,Top*
G04 #@! TF.FilePolarity,Positive*
%FSLAX46Y46*%
G04 Gerber Fmt 4.6, Leading zero omitted, Abs format (unit mm)*
G04 Created by KiCad (PCBNEW (5.1.10)-1) date 2021-12-09 23:22:53*
%MOMM*%
%LPD*%
G01*
G04 APERTURE LIST*
G04 #@! TA.AperFunction,NonConductor*
%ADD10C,0.300000*%
G04 #@! TD*
G04 #@! TA.AperFunction,ComponentPad*
%ADD11C,1.700000*%
G04 #@! TD*
G04 #@! TA.AperFunction,ComponentPad*
%ADD12C,1.600000*%
G04 #@! TD*
G04 #@! TA.AperFunction,ComponentPad*
%ADD13O,1.600000X1.600000*%
G04 #@! TD*
G04 #@! TA.AperFunction,ComponentPad*
%ADD14O,1.050000X1.500000*%
G04 #@! TD*
G04 #@! TA.AperFunction,ComponentPad*
%ADD15R,1.050000X1.500000*%
G04 #@! TD*
G04 #@! TA.AperFunction,ComponentPad*
%ADD16O,1.700000X1.700000*%
G04 #@! TD*
G04 #@! TA.AperFunction,ComponentPad*
%ADD17R,1.700000X1.700000*%
G04 #@! TD*
G04 #@! TA.AperFunction,ComponentPad*
%ADD18C,2.000000*%
G04 #@! TD*
G04 #@! TA.AperFunction,ComponentPad*
%ADD19R,2.000000X2.000000*%
G04 #@! TD*
G04 #@! TA.AperFunction,ComponentPad*
%ADD20O,1.300000X2.700000*%
G04 #@! TD*
G04 #@! TA.AperFunction,SMDPad,CuDef*
%ADD21C,1.500000*%
G04 #@! TD*
G04 #@! TA.AperFunction,ComponentPad*
%ADD22C,1.524000*%
G04 #@! TD*
G04 #@! TA.AperFunction,ViaPad*
%ADD23C,1.000000*%
G04 #@! TD*
G04 #@! TA.AperFunction,Conductor*
%ADD24C,0.500000*%
G04 #@! TD*
G04 #@! TA.AperFunction,Conductor*
%ADD25C,0.254000*%
G04 #@! TD*
G04 #@! TA.AperFunction,Conductor*
%ADD26C,0.350000*%
G04 #@! TD*
%ADD27C,0.350000*%
G04 APERTURE END LIST*
D10*
X236902857Y-65472571D02*
X237831428Y-65472571D01*
X237331428Y-66044000D01*
X237545714Y-66044000D01*
X237688571Y-66115428D01*
X237760000Y-66186857D01*
X237831428Y-66329714D01*
X237831428Y-66686857D01*
X237760000Y-66829714D01*
X237688571Y-66901142D01*
X237545714Y-66972571D01*
X237117142Y-66972571D01*
X236974285Y-66901142D01*
X236902857Y-66829714D01*
X238260000Y-65472571D02*
X238760000Y-66972571D01*
X239260000Y-65472571D01*
X239617142Y-65472571D02*
X240545714Y-65472571D01*
X240045714Y-66044000D01*
X240260000Y-66044000D01*
X240402857Y-66115428D01*
X240474285Y-66186857D01*
X240545714Y-66329714D01*
X240545714Y-66686857D01*
X240474285Y-66829714D01*
X240402857Y-66901142D01*
X240260000Y-66972571D01*
X239831428Y-66972571D01*
X239688571Y-66901142D01*
X239617142Y-66829714D01*
X237418571Y-68012571D02*
X237561428Y-68012571D01*
X237704285Y-68084000D01*
X237775714Y-68155428D01*
X237847142Y-68298285D01*
X237918571Y-68584000D01*
X237918571Y-68941142D01*
X237847142Y-69226857D01*
X237775714Y-69369714D01*
X237704285Y-69441142D01*
X237561428Y-69512571D01*
X237418571Y-69512571D01*
X237275714Y-69441142D01*
X237204285Y-69369714D01*
X237132857Y-69226857D01*
X237061428Y-68941142D01*
X237061428Y-68584000D01*
X237132857Y-68298285D01*
X237204285Y-68155428D01*
X237275714Y-68084000D01*
X237418571Y-68012571D01*
X237938571Y-72306571D02*
X237438571Y-71592285D01*
X237081428Y-72306571D02*
X237081428Y-70806571D01*
X237652857Y-70806571D01*
X237795714Y-70878000D01*
X237867142Y-70949428D01*
X237938571Y-71092285D01*
X237938571Y-71306571D01*
X237867142Y-71449428D01*
X237795714Y-71520857D01*
X237652857Y-71592285D01*
X237081428Y-71592285D01*
X238510000Y-72235142D02*
X238724285Y-72306571D01*
X239081428Y-72306571D01*
X239224285Y-72235142D01*
X239295714Y-72163714D01*
X239367142Y-72020857D01*
X239367142Y-71878000D01*
X239295714Y-71735142D01*
X239224285Y-71663714D01*
X239081428Y-71592285D01*
X238795714Y-71520857D01*
X238652857Y-71449428D01*
X238581428Y-71378000D01*
X238510000Y-71235142D01*
X238510000Y-71092285D01*
X238581428Y-70949428D01*
X238652857Y-70878000D01*
X238795714Y-70806571D01*
X239152857Y-70806571D01*
X239367142Y-70878000D01*
X239795714Y-70806571D02*
X240652857Y-70806571D01*
X240224285Y-72306571D02*
X240224285Y-70806571D01*
X237938571Y-74846571D02*
X237438571Y-74132285D01*
X237081428Y-74846571D02*
X237081428Y-73346571D01*
X237652857Y-73346571D01*
X237795714Y-73418000D01*
X237867142Y-73489428D01*
X237938571Y-73632285D01*
X237938571Y-73846571D01*
X237867142Y-73989428D01*
X237795714Y-74060857D01*
X237652857Y-74132285D01*
X237081428Y-74132285D01*
X238438571Y-73346571D02*
X239438571Y-74846571D01*
X239438571Y-73346571D02*
X238438571Y-74846571D01*
X240224285Y-73346571D02*
X240224285Y-73703714D01*
X239867142Y-73560857D02*
X240224285Y-73703714D01*
X240581428Y-73560857D01*
X240010000Y-73989428D02*
X240224285Y-73703714D01*
X240438571Y-73989428D01*
X237045714Y-76140571D02*
X237902857Y-76140571D01*
X237474285Y-77640571D02*
X237474285Y-76140571D01*
X238260000Y-76140571D02*
X239260000Y-77640571D01*
X239260000Y-76140571D02*
X238260000Y-77640571D01*
X240045714Y-76140571D02*
X240045714Y-76497714D01*
X239688571Y-76354857D02*
X240045714Y-76497714D01*
X240402857Y-76354857D01*
X239831428Y-76783428D02*
X240045714Y-76497714D01*
X240260000Y-76783428D01*
X237871142Y-78498000D02*
X237728285Y-78426571D01*
X237514000Y-78426571D01*
X237299714Y-78498000D01*
X237156857Y-78640857D01*
X237085428Y-78783714D01*
X237014000Y-79069428D01*
X237014000Y-79283714D01*
X237085428Y-79569428D01*
X237156857Y-79712285D01*
X237299714Y-79855142D01*
X237514000Y-79926571D01*
X237656857Y-79926571D01*
X237871142Y-79855142D01*
X237942571Y-79783714D01*
X237942571Y-79283714D01*
X237656857Y-79283714D01*
X238585428Y-79926571D02*
X238585428Y-78426571D01*
X239442571Y-79926571D01*
X239442571Y-78426571D01*
X240156857Y-79926571D02*
X240156857Y-78426571D01*
X240514000Y-78426571D01*
X240728285Y-78498000D01*
X240871142Y-78640857D01*
X240942571Y-78783714D01*
X241014000Y-79069428D01*
X241014000Y-79283714D01*
X240942571Y-79569428D01*
X240871142Y-79712285D01*
X240728285Y-79855142D01*
X240514000Y-79926571D01*
X240156857Y-79926571D01*
X217598857Y-96309571D02*
X217098857Y-95595285D01*
X216741714Y-96309571D02*
X216741714Y-94809571D01*
X217313142Y-94809571D01*
X217456000Y-94881000D01*
X217527428Y-94952428D01*
X217598857Y-95095285D01*
X217598857Y-95309571D01*
X217527428Y-95452428D01*
X217456000Y-95523857D01*
X217313142Y-95595285D01*
X216741714Y-95595285D01*
X218813142Y-96238142D02*
X218670285Y-96309571D01*
X218384571Y-96309571D01*
X218241714Y-96238142D01*
X218170285Y-96095285D01*
X218170285Y-95523857D01*
X218241714Y-95381000D01*
X218384571Y-95309571D01*
X218670285Y-95309571D01*
X218813142Y-95381000D01*
X218884571Y-95523857D01*
X218884571Y-95666714D01*
X218170285Y-95809571D01*
X219456000Y-96238142D02*
X219598857Y-96309571D01*
X219884571Y-96309571D01*
X220027428Y-96238142D01*
X220098857Y-96095285D01*
X220098857Y-96023857D01*
X220027428Y-95881000D01*
X219884571Y-95809571D01*
X219670285Y-95809571D01*
X219527428Y-95738142D01*
X219456000Y-95595285D01*
X219456000Y-95523857D01*
X219527428Y-95381000D01*
X219670285Y-95309571D01*
X219884571Y-95309571D01*
X220027428Y-95381000D01*
X221313142Y-96238142D02*
X221170285Y-96309571D01*
X220884571Y-96309571D01*
X220741714Y-96238142D01*
X220670285Y-96095285D01*
X220670285Y-95523857D01*
X220741714Y-95381000D01*
X220884571Y-95309571D01*
X221170285Y-95309571D01*
X221313142Y-95381000D01*
X221384571Y-95523857D01*
X221384571Y-95666714D01*
X220670285Y-95809571D01*
X221813142Y-95309571D02*
X222384571Y-95309571D01*
X222027428Y-94809571D02*
X222027428Y-96095285D01*
X222098857Y-96238142D01*
X222241714Y-96309571D01*
X222384571Y-96309571D01*
X223988857Y-96309571D02*
X223988857Y-94809571D01*
X224560285Y-94809571D01*
X224703142Y-94881000D01*
X224774571Y-94952428D01*
X224846000Y-95095285D01*
X224846000Y-95309571D01*
X224774571Y-95452428D01*
X224703142Y-95523857D01*
X224560285Y-95595285D01*
X223988857Y-95595285D01*
X225488857Y-96309571D02*
X225488857Y-95309571D01*
X225488857Y-95595285D02*
X225560285Y-95452428D01*
X225631714Y-95381000D01*
X225774571Y-95309571D01*
X225917428Y-95309571D01*
X226631714Y-96309571D02*
X226488857Y-96238142D01*
X226417428Y-96166714D01*
X226346000Y-96023857D01*
X226346000Y-95595285D01*
X226417428Y-95452428D01*
X226488857Y-95381000D01*
X226631714Y-95309571D01*
X226846000Y-95309571D01*
X226988857Y-95381000D01*
X227060285Y-95452428D01*
X227131714Y-95595285D01*
X227131714Y-96023857D01*
X227060285Y-96166714D01*
X226988857Y-96238142D01*
X226846000Y-96309571D01*
X226631714Y-96309571D01*
X228417428Y-95309571D02*
X228417428Y-96523857D01*
X228346000Y-96666714D01*
X228274571Y-96738142D01*
X228131714Y-96809571D01*
X227917428Y-96809571D01*
X227774571Y-96738142D01*
X228417428Y-96238142D02*
X228274571Y-96309571D01*
X227988857Y-96309571D01*
X227846000Y-96238142D01*
X227774571Y-96166714D01*
X227703142Y-96023857D01*
X227703142Y-95595285D01*
X227774571Y-95452428D01*
X227846000Y-95381000D01*
X227988857Y-95309571D01*
X228274571Y-95309571D01*
X228417428Y-95381000D01*
X229131714Y-96309571D02*
X229131714Y-95309571D01*
X229131714Y-95595285D02*
X229203142Y-95452428D01*
X229274571Y-95381000D01*
X229417428Y-95309571D01*
X229560285Y-95309571D01*
X230703142Y-96309571D02*
X230703142Y-95523857D01*
X230631714Y-95381000D01*
X230488857Y-95309571D01*
X230203142Y-95309571D01*
X230060285Y-95381000D01*
X230703142Y-96238142D02*
X230560285Y-96309571D01*
X230203142Y-96309571D01*
X230060285Y-96238142D01*
X229988857Y-96095285D01*
X229988857Y-95952428D01*
X230060285Y-95809571D01*
X230203142Y-95738142D01*
X230560285Y-95738142D01*
X230703142Y-95666714D01*
X231417428Y-96309571D02*
X231417428Y-95309571D01*
X231417428Y-95452428D02*
X231488857Y-95381000D01*
X231631714Y-95309571D01*
X231846000Y-95309571D01*
X231988857Y-95381000D01*
X232060285Y-95523857D01*
X232060285Y-96309571D01*
X232060285Y-95523857D02*
X232131714Y-95381000D01*
X232274571Y-95309571D01*
X232488857Y-95309571D01*
X232631714Y-95381000D01*
X232703142Y-95523857D01*
X232703142Y-96309571D01*
X214205428Y-54042571D02*
X214919714Y-53542571D01*
X214205428Y-53185428D02*
X215705428Y-53185428D01*
X215705428Y-53756857D01*
X215634000Y-53899714D01*
X215562571Y-53971142D01*
X215419714Y-54042571D01*
X215205428Y-54042571D01*
X215062571Y-53971142D01*
X214991142Y-53899714D01*
X214919714Y-53756857D01*
X214919714Y-53185428D01*
X214276857Y-54614000D02*
X214205428Y-54828285D01*
X214205428Y-55185428D01*
X214276857Y-55328285D01*
X214348285Y-55399714D01*
X214491142Y-55471142D01*
X214634000Y-55471142D01*
X214776857Y-55399714D01*
X214848285Y-55328285D01*
X214919714Y-55185428D01*
X214991142Y-54899714D01*
X215062571Y-54756857D01*
X215134000Y-54685428D01*
X215276857Y-54614000D01*
X215419714Y-54614000D01*
X215562571Y-54685428D01*
X215634000Y-54756857D01*
X215705428Y-54899714D01*
X215705428Y-55256857D01*
X215634000Y-55471142D01*
X215705428Y-55899714D02*
X215705428Y-56756857D01*
X214205428Y-56328285D02*
X215705428Y-56328285D01*
X212094000Y-53006857D02*
X212094000Y-53721142D01*
X211665428Y-52864000D02*
X213165428Y-53364000D01*
X211665428Y-53864000D01*
X211665428Y-54364000D02*
X213165428Y-54364000D01*
X213165428Y-54721142D01*
X213094000Y-54935428D01*
X212951142Y-55078285D01*
X212808285Y-55149714D01*
X212522571Y-55221142D01*
X212308285Y-55221142D01*
X212022571Y-55149714D01*
X211879714Y-55078285D01*
X211736857Y-54935428D01*
X211665428Y-54721142D01*
X211665428Y-54364000D01*
X211808285Y-56721142D02*
X211736857Y-56649714D01*
X211665428Y-56435428D01*
X211665428Y-56292571D01*
X211736857Y-56078285D01*
X211879714Y-55935428D01*
X212022571Y-55864000D01*
X212308285Y-55792571D01*
X212522571Y-55792571D01*
X212808285Y-55864000D01*
X212951142Y-55935428D01*
X213094000Y-56078285D01*
X213165428Y-56292571D01*
X213165428Y-56435428D01*
X213094000Y-56649714D01*
X213022571Y-56721142D01*
X209911142Y-54391857D02*
X209911142Y-54891857D01*
X209125428Y-55106142D02*
X209125428Y-54391857D01*
X210625428Y-54391857D01*
X210625428Y-55106142D01*
X209125428Y-55749000D02*
X210625428Y-55749000D01*
X209125428Y-56606142D01*
X210625428Y-56606142D01*
X206585428Y-55213285D02*
X206585428Y-54356142D01*
X206585428Y-54784714D02*
X208085428Y-54784714D01*
X207871142Y-54641857D01*
X207728285Y-54499000D01*
X207656857Y-54356142D01*
X208085428Y-56499000D02*
X208085428Y-56213285D01*
X208014000Y-56070428D01*
X207942571Y-55999000D01*
X207728285Y-55856142D01*
X207442571Y-55784714D01*
X206871142Y-55784714D01*
X206728285Y-55856142D01*
X206656857Y-55927571D01*
X206585428Y-56070428D01*
X206585428Y-56356142D01*
X206656857Y-56499000D01*
X206728285Y-56570428D01*
X206871142Y-56641857D01*
X207228285Y-56641857D01*
X207371142Y-56570428D01*
X207442571Y-56499000D01*
X207514000Y-56356142D01*
X207514000Y-56070428D01*
X207442571Y-55927571D01*
X207371142Y-55856142D01*
X207228285Y-55784714D01*
X204045428Y-55213285D02*
X204045428Y-54356142D01*
X204045428Y-54784714D02*
X205545428Y-54784714D01*
X205331142Y-54641857D01*
X205188285Y-54499000D01*
X205116857Y-54356142D01*
X205045428Y-56499000D02*
X204045428Y-56499000D01*
X205616857Y-56141857D02*
X204545428Y-55784714D01*
X204545428Y-56713285D01*
X201505428Y-55213285D02*
X201505428Y-54356142D01*
X201505428Y-54784714D02*
X203005428Y-54784714D01*
X202791142Y-54641857D01*
X202648285Y-54499000D01*
X202576857Y-54356142D01*
X202862571Y-55784714D02*
X202934000Y-55856142D01*
X203005428Y-55999000D01*
X203005428Y-56356142D01*
X202934000Y-56499000D01*
X202862571Y-56570428D01*
X202719714Y-56641857D01*
X202576857Y-56641857D01*
X202362571Y-56570428D01*
X201505428Y-55713285D01*
X201505428Y-56641857D01*
X198965428Y-55213285D02*
X198965428Y-54356142D01*
X198965428Y-54784714D02*
X200465428Y-54784714D01*
X200251142Y-54641857D01*
X200108285Y-54499000D01*
X200036857Y-54356142D01*
X200465428Y-55713285D02*
X200465428Y-56641857D01*
X199894000Y-56141857D01*
X199894000Y-56356142D01*
X199822571Y-56499000D01*
X199751142Y-56570428D01*
X199608285Y-56641857D01*
X199251142Y-56641857D01*
X199108285Y-56570428D01*
X199036857Y-56499000D01*
X198965428Y-56356142D01*
X198965428Y-55927571D01*
X199036857Y-55784714D01*
X199108285Y-55713285D01*
X197925428Y-52864000D02*
X196425428Y-53364000D01*
X197925428Y-53864000D01*
X196568285Y-55221142D02*
X196496857Y-55149714D01*
X196425428Y-54935428D01*
X196425428Y-54792571D01*
X196496857Y-54578285D01*
X196639714Y-54435428D01*
X196782571Y-54364000D01*
X197068285Y-54292571D01*
X197282571Y-54292571D01*
X197568285Y-54364000D01*
X197711142Y-54435428D01*
X197854000Y-54578285D01*
X197925428Y-54792571D01*
X197925428Y-54935428D01*
X197854000Y-55149714D01*
X197782571Y-55221142D01*
X196568285Y-56721142D02*
X196496857Y-56649714D01*
X196425428Y-56435428D01*
X196425428Y-56292571D01*
X196496857Y-56078285D01*
X196639714Y-55935428D01*
X196782571Y-55864000D01*
X197068285Y-55792571D01*
X197282571Y-55792571D01*
X197568285Y-55864000D01*
X197711142Y-55935428D01*
X197854000Y-56078285D01*
X197925428Y-56292571D01*
X197925428Y-56435428D01*
X197854000Y-56649714D01*
X197782571Y-56721142D01*
X215705428Y-89725714D02*
X215705428Y-90582857D01*
X214205428Y-90154285D02*
X215705428Y-90154285D01*
X215705428Y-90940000D02*
X214205428Y-91940000D01*
X215705428Y-91940000D02*
X214205428Y-90940000D01*
X215705428Y-92725714D02*
X215348285Y-92725714D01*
X215491142Y-92368571D02*
X215348285Y-92725714D01*
X215491142Y-93082857D01*
X215062571Y-92511428D02*
X215348285Y-92725714D01*
X215062571Y-92940000D01*
X211665428Y-90618571D02*
X212379714Y-90118571D01*
X211665428Y-89761428D02*
X213165428Y-89761428D01*
X213165428Y-90332857D01*
X213094000Y-90475714D01*
X213022571Y-90547142D01*
X212879714Y-90618571D01*
X212665428Y-90618571D01*
X212522571Y-90547142D01*
X212451142Y-90475714D01*
X212379714Y-90332857D01*
X212379714Y-89761428D01*
X213165428Y-91118571D02*
X211665428Y-92118571D01*
X213165428Y-92118571D02*
X211665428Y-91118571D01*
X213165428Y-92904285D02*
X212808285Y-92904285D01*
X212951142Y-92547142D02*
X212808285Y-92904285D01*
X212951142Y-93261428D01*
X212522571Y-92690000D02*
X212808285Y-92904285D01*
X212522571Y-93118571D01*
X210625428Y-90781142D02*
X210625428Y-90066857D01*
X209911142Y-89995428D01*
X209982571Y-90066857D01*
X210054000Y-90209714D01*
X210054000Y-90566857D01*
X209982571Y-90709714D01*
X209911142Y-90781142D01*
X209768285Y-90852571D01*
X209411142Y-90852571D01*
X209268285Y-90781142D01*
X209196857Y-90709714D01*
X209125428Y-90566857D01*
X209125428Y-90209714D01*
X209196857Y-90066857D01*
X209268285Y-89995428D01*
X207585428Y-90709714D02*
X206585428Y-90709714D01*
X208156857Y-90352571D02*
X207085428Y-89995428D01*
X207085428Y-90924000D01*
X205545428Y-90352571D02*
X205545428Y-90495428D01*
X205474000Y-90638285D01*
X205402571Y-90709714D01*
X205259714Y-90781142D01*
X204974000Y-90852571D01*
X204616857Y-90852571D01*
X204331142Y-90781142D01*
X204188285Y-90709714D01*
X204116857Y-90638285D01*
X204045428Y-90495428D01*
X204045428Y-90352571D01*
X204116857Y-90209714D01*
X204188285Y-90138285D01*
X204331142Y-90066857D01*
X204616857Y-89995428D01*
X204974000Y-89995428D01*
X205259714Y-90066857D01*
X205402571Y-90138285D01*
X205474000Y-90209714D01*
X205545428Y-90352571D01*
X202862571Y-89995428D02*
X202934000Y-90066857D01*
X203005428Y-90209714D01*
X203005428Y-90566857D01*
X202934000Y-90709714D01*
X202862571Y-90781142D01*
X202719714Y-90852571D01*
X202576857Y-90852571D01*
X202362571Y-90781142D01*
X201505428Y-89924000D01*
X201505428Y-90852571D01*
X198965428Y-90773285D02*
X198965428Y-89916142D01*
X198965428Y-90344714D02*
X200465428Y-90344714D01*
X200251142Y-90201857D01*
X200108285Y-90059000D01*
X200036857Y-89916142D01*
X200465428Y-92130428D02*
X200465428Y-91416142D01*
X199751142Y-91344714D01*
X199822571Y-91416142D01*
X199894000Y-91559000D01*
X199894000Y-91916142D01*
X199822571Y-92059000D01*
X199751142Y-92130428D01*
X199608285Y-92201857D01*
X199251142Y-92201857D01*
X199108285Y-92130428D01*
X199036857Y-92059000D01*
X198965428Y-91916142D01*
X198965428Y-91559000D01*
X199036857Y-91416142D01*
X199108285Y-91344714D01*
X197854000Y-90551142D02*
X197925428Y-90408285D01*
X197925428Y-90194000D01*
X197854000Y-89979714D01*
X197711142Y-89836857D01*
X197568285Y-89765428D01*
X197282571Y-89694000D01*
X197068285Y-89694000D01*
X196782571Y-89765428D01*
X196639714Y-89836857D01*
X196496857Y-89979714D01*
X196425428Y-90194000D01*
X196425428Y-90336857D01*
X196496857Y-90551142D01*
X196568285Y-90622571D01*
X197068285Y-90622571D01*
X197068285Y-90336857D01*
X196425428Y-91265428D02*
X197925428Y-91265428D01*
X196425428Y-92122571D01*
X197925428Y-92122571D01*
X196425428Y-92836857D02*
X197925428Y-92836857D01*
X197925428Y-93194000D01*
X197854000Y-93408285D01*
X197711142Y-93551142D01*
X197568285Y-93622571D01*
X197282571Y-93694000D01*
X197068285Y-93694000D01*
X196782571Y-93622571D01*
X196639714Y-93551142D01*
X196496857Y-93408285D01*
X196425428Y-93194000D01*
X196425428Y-92836857D01*
X206296142Y-73806857D02*
X206796142Y-73806857D01*
X207010428Y-74592571D02*
X206296142Y-74592571D01*
X206296142Y-73092571D01*
X207010428Y-73092571D01*
X207581857Y-74521142D02*
X207796142Y-74592571D01*
X208153285Y-74592571D01*
X208296142Y-74521142D01*
X208367571Y-74449714D01*
X208439000Y-74306857D01*
X208439000Y-74164000D01*
X208367571Y-74021142D01*
X208296142Y-73949714D01*
X208153285Y-73878285D01*
X207867571Y-73806857D01*
X207724714Y-73735428D01*
X207653285Y-73664000D01*
X207581857Y-73521142D01*
X207581857Y-73378285D01*
X207653285Y-73235428D01*
X207724714Y-73164000D01*
X207867571Y-73092571D01*
X208224714Y-73092571D01*
X208439000Y-73164000D01*
X209081857Y-74592571D02*
X209081857Y-73092571D01*
X209653285Y-73092571D01*
X209796142Y-73164000D01*
X209867571Y-73235428D01*
X209939000Y-73378285D01*
X209939000Y-73592571D01*
X209867571Y-73735428D01*
X209796142Y-73806857D01*
X209653285Y-73878285D01*
X209081857Y-73878285D01*
X210581857Y-74021142D02*
X211724714Y-74021142D01*
X212724714Y-73092571D02*
X212867571Y-73092571D01*
X213010428Y-73164000D01*
X213081857Y-73235428D01*
X213153285Y-73378285D01*
X213224714Y-73664000D01*
X213224714Y-74021142D01*
X213153285Y-74306857D01*
X213081857Y-74449714D01*
X213010428Y-74521142D01*
X212867571Y-74592571D01*
X212724714Y-74592571D01*
X212581857Y-74521142D01*
X212510428Y-74449714D01*
X212439000Y-74306857D01*
X212367571Y-74021142D01*
X212367571Y-73664000D01*
X212439000Y-73378285D01*
X212510428Y-73235428D01*
X212581857Y-73164000D01*
X212724714Y-73092571D01*
X213724714Y-73092571D02*
X214724714Y-73092571D01*
X214081857Y-74592571D01*
X165842142Y-64152142D02*
X165842142Y-63652142D01*
X165056428Y-63652142D02*
X166556428Y-63652142D01*
X166556428Y-64366428D01*
X166556428Y-64723571D02*
X166556428Y-65580714D01*
X165056428Y-65152142D02*
X166556428Y-65152142D01*
X165056428Y-66080714D02*
X166556428Y-66080714D01*
X166556428Y-66437857D01*
X166485000Y-66652142D01*
X166342142Y-66795000D01*
X166199285Y-66866428D01*
X165913571Y-66937857D01*
X165699285Y-66937857D01*
X165413571Y-66866428D01*
X165270714Y-66795000D01*
X165127857Y-66652142D01*
X165056428Y-66437857D01*
X165056428Y-66080714D01*
X165056428Y-67580714D02*
X166556428Y-67580714D01*
X165056428Y-70295000D02*
X165770714Y-69795000D01*
X165056428Y-69437857D02*
X166556428Y-69437857D01*
X166556428Y-70009285D01*
X166485000Y-70152142D01*
X166413571Y-70223571D01*
X166270714Y-70295000D01*
X166056428Y-70295000D01*
X165913571Y-70223571D01*
X165842142Y-70152142D01*
X165770714Y-70009285D01*
X165770714Y-69437857D01*
X165127857Y-70866428D02*
X165056428Y-71080714D01*
X165056428Y-71437857D01*
X165127857Y-71580714D01*
X165199285Y-71652142D01*
X165342142Y-71723571D01*
X165485000Y-71723571D01*
X165627857Y-71652142D01*
X165699285Y-71580714D01*
X165770714Y-71437857D01*
X165842142Y-71152142D01*
X165913571Y-71009285D01*
X165985000Y-70937857D01*
X166127857Y-70866428D01*
X166270714Y-70866428D01*
X166413571Y-70937857D01*
X166485000Y-71009285D01*
X166556428Y-71152142D01*
X166556428Y-71509285D01*
X166485000Y-71723571D01*
X166413571Y-72295000D02*
X166485000Y-72366428D01*
X166556428Y-72509285D01*
X166556428Y-72866428D01*
X166485000Y-73009285D01*
X166413571Y-73080714D01*
X166270714Y-73152142D01*
X166127857Y-73152142D01*
X165913571Y-73080714D01*
X165056428Y-72223571D01*
X165056428Y-73152142D01*
X166556428Y-73652142D02*
X166556428Y-74580714D01*
X165985000Y-74080714D01*
X165985000Y-74295000D01*
X165913571Y-74437857D01*
X165842142Y-74509285D01*
X165699285Y-74580714D01*
X165342142Y-74580714D01*
X165199285Y-74509285D01*
X165127857Y-74437857D01*
X165056428Y-74295000D01*
X165056428Y-73866428D01*
X165127857Y-73723571D01*
X165199285Y-73652142D01*
X166413571Y-75152142D02*
X166485000Y-75223571D01*
X166556428Y-75366428D01*
X166556428Y-75723571D01*
X166485000Y-75866428D01*
X166413571Y-75937857D01*
X166270714Y-76009285D01*
X166127857Y-76009285D01*
X165913571Y-75937857D01*
X165056428Y-75080714D01*
X165056428Y-76009285D01*
X165056428Y-77795000D02*
X166556428Y-77795000D01*
X165485000Y-78295000D01*
X166556428Y-78795000D01*
X165056428Y-78795000D01*
X165056428Y-79723571D02*
X165127857Y-79580714D01*
X165199285Y-79509285D01*
X165342142Y-79437857D01*
X165770714Y-79437857D01*
X165913571Y-79509285D01*
X165985000Y-79580714D01*
X166056428Y-79723571D01*
X166056428Y-79937857D01*
X165985000Y-80080714D01*
X165913571Y-80152142D01*
X165770714Y-80223571D01*
X165342142Y-80223571D01*
X165199285Y-80152142D01*
X165127857Y-80080714D01*
X165056428Y-79937857D01*
X165056428Y-79723571D01*
X165056428Y-81509285D02*
X166556428Y-81509285D01*
X165127857Y-81509285D02*
X165056428Y-81366428D01*
X165056428Y-81080714D01*
X165127857Y-80937857D01*
X165199285Y-80866428D01*
X165342142Y-80795000D01*
X165770714Y-80795000D01*
X165913571Y-80866428D01*
X165985000Y-80937857D01*
X166056428Y-81080714D01*
X166056428Y-81366428D01*
X165985000Y-81509285D01*
X166056428Y-82866428D02*
X165056428Y-82866428D01*
X166056428Y-82223571D02*
X165270714Y-82223571D01*
X165127857Y-82295000D01*
X165056428Y-82437857D01*
X165056428Y-82652142D01*
X165127857Y-82795000D01*
X165199285Y-82866428D01*
X165056428Y-83795000D02*
X165127857Y-83652142D01*
X165270714Y-83580714D01*
X166556428Y-83580714D01*
X165127857Y-84937857D02*
X165056428Y-84795000D01*
X165056428Y-84509285D01*
X165127857Y-84366428D01*
X165270714Y-84295000D01*
X165842142Y-84295000D01*
X165985000Y-84366428D01*
X166056428Y-84509285D01*
X166056428Y-84795000D01*
X165985000Y-84937857D01*
X165842142Y-85009285D01*
X165699285Y-85009285D01*
X165556428Y-84295000D01*
D11*
G04 #@! TO.P,SW2,1*
G04 #@! TO.N,RST*
X218948000Y-91821000D03*
G04 #@! TO.P,SW2,2*
X218948000Y-85321000D03*
G04 #@! TO.P,SW2,3*
G04 #@! TO.N,GND*
X223448000Y-91821000D03*
G04 #@! TO.P,SW2,4*
X223448000Y-85321000D03*
G04 #@! TD*
D12*
G04 #@! TO.P,R3,1*
G04 #@! TO.N,/DTRR*
X180848000Y-66040000D03*
D13*
G04 #@! TO.P,R3,2*
G04 #@! TO.N,/DTR*
X180848000Y-55880000D03*
G04 #@! TD*
D14*
G04 #@! TO.P,Q2,2*
G04 #@! TO.N,/DTRR*
X185166000Y-62230000D03*
G04 #@! TO.P,Q2,3*
G04 #@! TO.N,/RTS*
X183896000Y-62230000D03*
D15*
G04 #@! TO.P,Q2,1*
G04 #@! TO.N,RST*
X186436000Y-62230000D03*
G04 #@! TD*
D16*
G04 #@! TO.P,J3,6*
G04 #@! TO.N,GND*
X234950000Y-78994000D03*
G04 #@! TO.P,J3,5*
G04 #@! TO.N,TX*
X234950000Y-76454000D03*
G04 #@! TO.P,J3,4*
G04 #@! TO.N,RX*
X234950000Y-73914000D03*
G04 #@! TO.P,J3,3*
G04 #@! TO.N,RST*
X234950000Y-71374000D03*
G04 #@! TO.P,J3,2*
G04 #@! TO.N,0*
X234950000Y-68834000D03*
D17*
G04 #@! TO.P,J3,1*
G04 #@! TO.N,VCC*
X234950000Y-66294000D03*
G04 #@! TD*
D18*
G04 #@! TO.P,C1,2*
G04 #@! TO.N,GND*
X180848000Y-87296000D03*
D19*
G04 #@! TO.P,C1,1*
G04 #@! TO.N,VCC*
X180848000Y-82296000D03*
G04 #@! TD*
D13*
G04 #@! TO.P,R4,2*
G04 #@! TO.N,VCC*
X228092000Y-62484000D03*
D12*
G04 #@! TO.P,R4,1*
G04 #@! TO.N,0*
X238252000Y-62484000D03*
G04 #@! TD*
D20*
G04 #@! TO.P,U3,16*
G04 #@! TO.N,TX*
X212344000Y-79724000D03*
G04 #@! TO.P,U3,15*
G04 #@! TO.N,RX*
X210344000Y-79724000D03*
G04 #@! TO.P,U3,14*
G04 #@! TO.N,5*
X208344000Y-79724000D03*
G04 #@! TO.P,U3,13*
G04 #@! TO.N,4*
X206344000Y-79724000D03*
G04 #@! TO.P,U3,12*
G04 #@! TO.N,0*
X204344000Y-79724000D03*
G04 #@! TO.P,U3,11*
G04 #@! TO.N,2*
X202344000Y-79724000D03*
G04 #@! TO.P,U3,10*
G04 #@! TO.N,15*
X200344000Y-79724000D03*
G04 #@! TO.P,U3,9*
G04 #@! TO.N,GND*
X198344000Y-79724000D03*
G04 #@! TO.P,U3,8*
G04 #@! TO.N,VCC*
X198344000Y-64324000D03*
G04 #@! TO.P,U3,7*
G04 #@! TO.N,13*
X200344000Y-64324000D03*
G04 #@! TO.P,U3,6*
G04 #@! TO.N,12*
X202344000Y-64324000D03*
G04 #@! TO.P,U3,5*
G04 #@! TO.N,14*
X204344000Y-64324000D03*
G04 #@! TO.P,U3,4*
G04 #@! TO.N,16*
X206344000Y-64324000D03*
G04 #@! TO.P,U3,3*
G04 #@! TO.N,VCC*
X208344000Y-64324000D03*
G04 #@! TO.P,U3,2*
G04 #@! TO.N,ADC*
X210344000Y-64324000D03*
G04 #@! TO.P,U3,1*
G04 #@! TO.N,RST*
X212344000Y-64324000D03*
G04 #@! TD*
G04 #@! TO.P,U2,16*
G04 #@! TO.N,TX*
X212344000Y-82264000D03*
G04 #@! TO.P,U2,15*
G04 #@! TO.N,RX*
X210344000Y-82264000D03*
G04 #@! TO.P,U2,14*
G04 #@! TO.N,5*
X208344000Y-82264000D03*
G04 #@! TO.P,U2,13*
G04 #@! TO.N,4*
X206344000Y-82264000D03*
G04 #@! TO.P,U2,12*
G04 #@! TO.N,0*
X204344000Y-82264000D03*
G04 #@! TO.P,U2,11*
G04 #@! TO.N,2*
X202344000Y-82264000D03*
G04 #@! TO.P,U2,10*
G04 #@! TO.N,15*
X200344000Y-82264000D03*
G04 #@! TO.P,U2,9*
G04 #@! TO.N,GND*
X198344000Y-82264000D03*
G04 #@! TO.P,U2,8*
G04 #@! TO.N,VCC*
X198344000Y-66864000D03*
G04 #@! TO.P,U2,7*
G04 #@! TO.N,13*
X200344000Y-66864000D03*
G04 #@! TO.P,U2,6*
G04 #@! TO.N,12*
X202344000Y-66864000D03*
G04 #@! TO.P,U2,5*
G04 #@! TO.N,14*
X204344000Y-66864000D03*
G04 #@! TO.P,U2,4*
G04 #@! TO.N,16*
X206344000Y-66864000D03*
G04 #@! TO.P,U2,3*
G04 #@! TO.N,VCC*
X208344000Y-66864000D03*
G04 #@! TO.P,U2,2*
G04 #@! TO.N,ADC*
X210344000Y-66864000D03*
G04 #@! TO.P,U2,1*
G04 #@! TO.N,RST*
X212344000Y-66864000D03*
G04 #@! TD*
D21*
G04 #@! TO.P,REF\u002A\u002A,1*
G04 #@! TO.N,N/C*
X236220000Y-96520000D03*
G04 #@! TD*
G04 #@! TO.P,REF\u002A\u002A,1*
G04 #@! TO.N,N/C*
X157480000Y-96520000D03*
G04 #@! TD*
G04 #@! TO.P,REF\u002A\u002A,1*
G04 #@! TO.N,N/C*
X157480000Y-53340000D03*
G04 #@! TD*
D16*
G04 #@! TO.P,J1,8*
G04 #@! TO.N,TX*
X214884000Y-86614000D03*
G04 #@! TO.P,J1,7*
G04 #@! TO.N,RX*
X212344000Y-86614000D03*
G04 #@! TO.P,J1,6*
G04 #@! TO.N,5*
X209804000Y-86614000D03*
G04 #@! TO.P,J1,5*
G04 #@! TO.N,4*
X207264000Y-86614000D03*
G04 #@! TO.P,J1,4*
G04 #@! TO.N,0*
X204724000Y-86614000D03*
G04 #@! TO.P,J1,3*
G04 #@! TO.N,2*
X202184000Y-86614000D03*
G04 #@! TO.P,J1,2*
G04 #@! TO.N,15*
X199644000Y-86614000D03*
D17*
G04 #@! TO.P,J1,1*
G04 #@! TO.N,GND*
X197104000Y-86614000D03*
G04 #@! TD*
D12*
G04 #@! TO.P,C2,1*
G04 #@! TO.N,VCC*
X187325000Y-81407000D03*
G04 #@! TO.P,C2,2*
G04 #@! TO.N,GND*
X187325000Y-86407000D03*
G04 #@! TD*
D22*
G04 #@! TO.P,U1,1*
G04 #@! TO.N,Net-(U1-Pad1)*
X158750000Y-66040000D03*
G04 #@! TO.P,U1,2*
G04 #@! TO.N,Net-(U1-Pad2)*
X158750000Y-68580000D03*
G04 #@! TO.P,U1,3*
G04 #@! TO.N,Net-(U1-Pad3)*
X158750000Y-71120000D03*
G04 #@! TO.P,U1,4*
G04 #@! TO.N,Net-(U1-Pad4)*
X158750000Y-73660000D03*
G04 #@! TO.P,U1,5*
G04 #@! TO.N,Net-(U1-Pad5)*
X158750000Y-76200000D03*
G04 #@! TO.P,U1,6*
G04 #@! TO.N,Net-(U1-Pad6)*
X158750000Y-78740000D03*
G04 #@! TO.P,U1,7*
G04 #@! TO.N,Net-(U1-Pad7)*
X158750000Y-81280000D03*
G04 #@! TO.P,U1,8*
G04 #@! TO.N,Net-(U1-Pad8)*
X158750000Y-83820000D03*
G04 #@! TO.P,U1,9*
G04 #@! TO.N,GND*
X158750000Y-86360000D03*
G04 #@! TO.P,U1,10*
G04 #@! TO.N,RX*
X173990000Y-86360000D03*
G04 #@! TO.P,U1,11*
G04 #@! TO.N,/DTR*
X173990000Y-83820000D03*
G04 #@! TO.P,U1,12*
G04 #@! TO.N,/RTS*
X173990000Y-81280000D03*
G04 #@! TO.P,U1,13*
G04 #@! TO.N,VCC*
X173990000Y-78740000D03*
G04 #@! TO.P,U1,14*
G04 #@! TO.N,TX*
X173990000Y-76200000D03*
G04 #@! TO.P,U1,15*
G04 #@! TO.N,Net-(U1-Pad15)*
X173990000Y-73660000D03*
G04 #@! TO.P,U1,16*
G04 #@! TO.N,GND*
X173990000Y-71120000D03*
G04 #@! TO.P,U1,17*
G04 #@! TO.N,Net-(U1-Pad17)*
X173990000Y-68580000D03*
G04 #@! TO.P,U1,18*
G04 #@! TO.N,Net-(U1-Pad18)*
X173990000Y-66040000D03*
G04 #@! TD*
D11*
G04 #@! TO.P,SW1,1*
G04 #@! TO.N,0*
X227203000Y-91821000D03*
G04 #@! TO.P,SW1,2*
X227203000Y-85321000D03*
G04 #@! TO.P,SW1,3*
G04 #@! TO.N,GND*
X231703000Y-91821000D03*
G04 #@! TO.P,SW1,4*
X231703000Y-85321000D03*
G04 #@! TD*
D12*
G04 #@! TO.P,R2,1*
G04 #@! TO.N,/RTSR*
X177292000Y-55880000D03*
D13*
G04 #@! TO.P,R2,2*
G04 #@! TO.N,/RTS*
X177292000Y-66040000D03*
G04 #@! TD*
D12*
G04 #@! TO.P,R1,1*
G04 #@! TO.N,15*
X187198000Y-92202000D03*
D13*
G04 #@! TO.P,R1,2*
G04 #@! TO.N,GND*
X177038000Y-92202000D03*
G04 #@! TD*
D14*
G04 #@! TO.P,Q1,2*
G04 #@! TO.N,/RTSR*
X185166000Y-57404000D03*
G04 #@! TO.P,Q1,3*
G04 #@! TO.N,/DTR*
X183896000Y-57404000D03*
D15*
G04 #@! TO.P,Q1,1*
G04 #@! TO.N,0*
X186436000Y-57404000D03*
G04 #@! TD*
D17*
G04 #@! TO.P,J2,1*
G04 #@! TO.N,RST*
X214884000Y-59944000D03*
D16*
G04 #@! TO.P,J2,2*
G04 #@! TO.N,ADC*
X212344000Y-59944000D03*
G04 #@! TO.P,J2,3*
G04 #@! TO.N,VCC*
X209804000Y-59944000D03*
G04 #@! TO.P,J2,4*
G04 #@! TO.N,16*
X207264000Y-59944000D03*
G04 #@! TO.P,J2,5*
G04 #@! TO.N,14*
X204724000Y-59944000D03*
G04 #@! TO.P,J2,6*
G04 #@! TO.N,12*
X202184000Y-59944000D03*
G04 #@! TO.P,J2,7*
G04 #@! TO.N,13*
X199644000Y-59944000D03*
G04 #@! TO.P,J2,8*
G04 #@! TO.N,VCC*
X197104000Y-59944000D03*
G04 #@! TD*
D23*
G04 #@! TO.N,TX*
X214630000Y-76708000D03*
X192024000Y-76057179D03*
G04 #@! TO.N,RX*
X194935764Y-78166010D03*
X208026000Y-77404010D03*
G04 #@! TO.N,RST*
X218948000Y-62484000D03*
G04 #@! TD*
D24*
G04 #@! TO.N,*
X217932000Y-70104000D02*
X217932000Y-71120000D01*
X215900000Y-73406000D02*
X217932000Y-73406000D01*
X215900000Y-72136000D02*
X215900000Y-73406000D01*
X217932000Y-71120000D02*
X217932000Y-72136000D01*
X217932000Y-72136000D02*
X215900000Y-72136000D01*
X217932000Y-73406000D02*
X217932000Y-74433998D01*
X217932000Y-74433998D02*
X217932000Y-74676000D01*
X217932000Y-74676000D02*
X215900000Y-74676000D01*
X215900000Y-74676000D02*
X215900000Y-75946000D01*
X215900000Y-75946000D02*
X217678000Y-75946000D01*
X217678000Y-75946000D02*
X217678000Y-76962000D01*
X217678000Y-76962000D02*
X215900000Y-76962000D01*
X215900000Y-76962000D02*
X215900000Y-77978000D01*
X215900000Y-77978000D02*
X217678000Y-77978000D01*
X217678000Y-77978000D02*
X217678000Y-79248000D01*
X217932000Y-70104000D02*
X215584010Y-70104000D01*
X217932000Y-71120000D02*
X215734001Y-71120000D01*
X217678000Y-79248000D02*
X215392000Y-79248000D01*
X160020000Y-90170000D02*
X160020000Y-95250000D01*
X162560000Y-90170000D02*
X162560000Y-95250000D01*
X165100000Y-90170000D02*
X165100000Y-95250000D01*
X167640000Y-90170000D02*
X167640000Y-95250000D01*
X170180000Y-90170000D02*
X170180000Y-95250000D01*
X172720000Y-90170000D02*
X172720000Y-95250000D01*
X162560000Y-52705000D02*
X162560000Y-62230000D01*
X162560000Y-62230000D02*
X170180000Y-62230000D01*
X170180000Y-62230000D02*
X170180000Y-52705000D01*
X170180000Y-52705000D02*
X162560000Y-52705000D01*
G04 #@! TO.N,TX*
X214630000Y-76708000D02*
X213979179Y-76057179D01*
X213979179Y-76057179D02*
X192024000Y-76057179D01*
G04 #@! TO.N,RX*
X194935764Y-78166010D02*
X195697764Y-77404010D01*
X195697764Y-77404010D02*
X208026000Y-77404010D01*
G04 #@! TO.N,RST*
X218948000Y-85321000D02*
X218948000Y-62484000D01*
G04 #@! TD*
D25*
G04 #@! TO.N,GND*
X238958395Y-49674843D02*
X239150765Y-49726388D01*
X239331260Y-49810555D01*
X239494390Y-49924780D01*
X239635220Y-50065610D01*
X239749445Y-50228740D01*
X239833612Y-50409235D01*
X239885157Y-50601605D01*
X239903000Y-50805548D01*
X239903000Y-64504000D01*
X235903572Y-64504000D01*
X235903572Y-64816129D01*
X235800000Y-64805928D01*
X234100000Y-64805928D01*
X233975518Y-64818188D01*
X233855820Y-64854498D01*
X233745506Y-64913463D01*
X233648815Y-64992815D01*
X233569463Y-65089506D01*
X233510498Y-65199820D01*
X233474188Y-65319518D01*
X233461928Y-65444000D01*
X233461928Y-67144000D01*
X233474188Y-67268482D01*
X233510498Y-67388180D01*
X233569463Y-67498494D01*
X233648815Y-67595185D01*
X233745506Y-67674537D01*
X233855820Y-67733502D01*
X233928380Y-67755513D01*
X233796525Y-67887368D01*
X233634010Y-68130589D01*
X233522068Y-68400842D01*
X233465000Y-68687740D01*
X233465000Y-68980260D01*
X233522068Y-69267158D01*
X233634010Y-69537411D01*
X233796525Y-69780632D01*
X234003368Y-69987475D01*
X234177760Y-70104000D01*
X234003368Y-70220525D01*
X233796525Y-70427368D01*
X233634010Y-70670589D01*
X233522068Y-70940842D01*
X233465000Y-71227740D01*
X233465000Y-71520260D01*
X233522068Y-71807158D01*
X233634010Y-72077411D01*
X233796525Y-72320632D01*
X234003368Y-72527475D01*
X234177760Y-72644000D01*
X234003368Y-72760525D01*
X233796525Y-72967368D01*
X233634010Y-73210589D01*
X233522068Y-73480842D01*
X233465000Y-73767740D01*
X233465000Y-74060260D01*
X233522068Y-74347158D01*
X233634010Y-74617411D01*
X233796525Y-74860632D01*
X234003368Y-75067475D01*
X234177760Y-75184000D01*
X234003368Y-75300525D01*
X233796525Y-75507368D01*
X233634010Y-75750589D01*
X233522068Y-76020842D01*
X233465000Y-76307740D01*
X233465000Y-76600260D01*
X233522068Y-76887158D01*
X233634010Y-77157411D01*
X233796525Y-77400632D01*
X234003368Y-77607475D01*
X234185534Y-77729195D01*
X234068645Y-77798822D01*
X233852412Y-77993731D01*
X233678359Y-78227080D01*
X233553175Y-78489901D01*
X233508524Y-78637110D01*
X233629845Y-78867000D01*
X234823000Y-78867000D01*
X234823000Y-78847000D01*
X235077000Y-78847000D01*
X235077000Y-78867000D01*
X235097000Y-78867000D01*
X235097000Y-79121000D01*
X235077000Y-79121000D01*
X235077000Y-80314814D01*
X235306891Y-80435481D01*
X235581252Y-80338157D01*
X235831355Y-80189178D01*
X235943286Y-80088285D01*
X235943286Y-81278000D01*
X239903000Y-81278000D01*
X239903000Y-99054452D01*
X239885157Y-99258395D01*
X239833612Y-99450765D01*
X239749445Y-99631260D01*
X239635220Y-99794390D01*
X239494390Y-99935220D01*
X239331260Y-100049445D01*
X239150765Y-100133612D01*
X238958395Y-100185157D01*
X238754452Y-100203000D01*
X154945548Y-100203000D01*
X154741605Y-100185157D01*
X154549235Y-100133612D01*
X154368740Y-100049445D01*
X154205610Y-99935220D01*
X154064780Y-99794390D01*
X153950555Y-99631260D01*
X153866388Y-99450765D01*
X153814843Y-99258395D01*
X153797000Y-99054452D01*
X153797000Y-96299872D01*
X155245000Y-96299872D01*
X155245000Y-96740128D01*
X155330890Y-97171925D01*
X155499369Y-97578669D01*
X155743962Y-97944729D01*
X156055271Y-98256038D01*
X156421331Y-98500631D01*
X156828075Y-98669110D01*
X157259872Y-98755000D01*
X157700128Y-98755000D01*
X158131925Y-98669110D01*
X158538669Y-98500631D01*
X158904729Y-98256038D01*
X159216038Y-97944729D01*
X159460631Y-97578669D01*
X159629110Y-97171925D01*
X159715000Y-96740128D01*
X159715000Y-96299872D01*
X159668390Y-96065550D01*
X159679688Y-96071589D01*
X159846511Y-96122195D01*
X160020000Y-96139282D01*
X160193490Y-96122195D01*
X160360313Y-96071589D01*
X160514059Y-95989411D01*
X160648817Y-95878817D01*
X160759411Y-95744059D01*
X160841589Y-95590313D01*
X160892195Y-95423490D01*
X160905000Y-95293477D01*
X160905000Y-90126524D01*
X161675000Y-90126524D01*
X161675001Y-95293477D01*
X161687806Y-95423490D01*
X161738412Y-95590313D01*
X161820590Y-95744059D01*
X161931184Y-95878817D01*
X162065942Y-95989411D01*
X162219688Y-96071589D01*
X162386511Y-96122195D01*
X162560000Y-96139282D01*
X162733490Y-96122195D01*
X162900313Y-96071589D01*
X163054059Y-95989411D01*
X163188817Y-95878817D01*
X163299411Y-95744059D01*
X163381589Y-95590313D01*
X163432195Y-95423490D01*
X163445000Y-95293477D01*
X163445000Y-90126524D01*
X164215000Y-90126524D01*
X164215001Y-95293477D01*
X164227806Y-95423490D01*
X164278412Y-95590313D01*
X164360590Y-95744059D01*
X164471184Y-95878817D01*
X164605942Y-95989411D01*
X164759688Y-96071589D01*
X164926511Y-96122195D01*
X165100000Y-96139282D01*
X165273490Y-96122195D01*
X165440313Y-96071589D01*
X165594059Y-95989411D01*
X165728817Y-95878817D01*
X165839411Y-95744059D01*
X165921589Y-95590313D01*
X165972195Y-95423490D01*
X165985000Y-95293477D01*
X165985000Y-90126524D01*
X166755000Y-90126524D01*
X166755001Y-95293477D01*
X166767806Y-95423490D01*
X166818412Y-95590313D01*
X166900590Y-95744059D01*
X167011184Y-95878817D01*
X167145942Y-95989411D01*
X167299688Y-96071589D01*
X167466511Y-96122195D01*
X167640000Y-96139282D01*
X167813490Y-96122195D01*
X167980313Y-96071589D01*
X168134059Y-95989411D01*
X168268817Y-95878817D01*
X168379411Y-95744059D01*
X168461589Y-95590313D01*
X168512195Y-95423490D01*
X168525000Y-95293477D01*
X168525000Y-90126524D01*
X169295000Y-90126524D01*
X169295001Y-95293477D01*
X169307806Y-95423490D01*
X169358412Y-95590313D01*
X169440590Y-95744059D01*
X169551184Y-95878817D01*
X169685942Y-95989411D01*
X169839688Y-96071589D01*
X170006511Y-96122195D01*
X170180000Y-96139282D01*
X170353490Y-96122195D01*
X170520313Y-96071589D01*
X170674059Y-95989411D01*
X170808817Y-95878817D01*
X170919411Y-95744059D01*
X171001589Y-95590313D01*
X171052195Y-95423490D01*
X171065000Y-95293477D01*
X171065000Y-90126524D01*
X171835000Y-90126524D01*
X171835001Y-95293477D01*
X171847806Y-95423490D01*
X171898412Y-95590313D01*
X171980590Y-95744059D01*
X172091184Y-95878817D01*
X172225942Y-95989411D01*
X172379688Y-96071589D01*
X172546511Y-96122195D01*
X172720000Y-96139282D01*
X172893490Y-96122195D01*
X173060313Y-96071589D01*
X173214059Y-95989411D01*
X173348817Y-95878817D01*
X173459411Y-95744059D01*
X173541589Y-95590313D01*
X173592195Y-95423490D01*
X173605000Y-95293477D01*
X173605000Y-92551039D01*
X175646096Y-92551039D01*
X175686754Y-92685087D01*
X175806963Y-92939420D01*
X175974481Y-93165414D01*
X176182869Y-93354385D01*
X176424119Y-93499070D01*
X176688960Y-93593909D01*
X176911000Y-93472624D01*
X176911000Y-92329000D01*
X177165000Y-92329000D01*
X177165000Y-93472624D01*
X177387040Y-93593909D01*
X177651881Y-93499070D01*
X177893131Y-93354385D01*
X178101519Y-93165414D01*
X178269037Y-92939420D01*
X178389246Y-92685087D01*
X178429904Y-92551039D01*
X178307915Y-92329000D01*
X177165000Y-92329000D01*
X176911000Y-92329000D01*
X175768085Y-92329000D01*
X175646096Y-92551039D01*
X173605000Y-92551039D01*
X173605000Y-91852961D01*
X175646096Y-91852961D01*
X175768085Y-92075000D01*
X176911000Y-92075000D01*
X176911000Y-90931376D01*
X177165000Y-90931376D01*
X177165000Y-92075000D01*
X178307915Y-92075000D01*
X178315790Y-92060665D01*
X185763000Y-92060665D01*
X185763000Y-92343335D01*
X185818147Y-92620574D01*
X185926320Y-92881727D01*
X186083363Y-93116759D01*
X186283241Y-93316637D01*
X186518273Y-93473680D01*
X186779426Y-93581853D01*
X187056665Y-93637000D01*
X187339335Y-93637000D01*
X187616574Y-93581853D01*
X187877727Y-93473680D01*
X188112759Y-93316637D01*
X188312637Y-93116759D01*
X188469680Y-92881727D01*
X188577853Y-92620574D01*
X188633000Y-92343335D01*
X188633000Y-92060665D01*
X188577853Y-91783426D01*
X188469680Y-91522273D01*
X188312637Y-91287241D01*
X188112759Y-91087363D01*
X187877727Y-90930320D01*
X187616574Y-90822147D01*
X187339335Y-90767000D01*
X187056665Y-90767000D01*
X186779426Y-90822147D01*
X186518273Y-90930320D01*
X186283241Y-91087363D01*
X186083363Y-91287241D01*
X185926320Y-91522273D01*
X185818147Y-91783426D01*
X185763000Y-92060665D01*
X178315790Y-92060665D01*
X178429904Y-91852961D01*
X178389246Y-91718913D01*
X178269037Y-91464580D01*
X178101519Y-91238586D01*
X177893131Y-91049615D01*
X177651881Y-90904930D01*
X177387040Y-90810091D01*
X177165000Y-90931376D01*
X176911000Y-90931376D01*
X176688960Y-90810091D01*
X176424119Y-90904930D01*
X176182869Y-91049615D01*
X175974481Y-91238586D01*
X175806963Y-91464580D01*
X175686754Y-91718913D01*
X175646096Y-91852961D01*
X173605000Y-91852961D01*
X173605000Y-90126523D01*
X173592195Y-89996510D01*
X173541589Y-89829687D01*
X173459411Y-89675941D01*
X173348817Y-89541183D01*
X173214058Y-89430589D01*
X173060312Y-89348411D01*
X172893489Y-89297805D01*
X172720000Y-89280718D01*
X172546510Y-89297805D01*
X172379687Y-89348411D01*
X172225941Y-89430589D01*
X172091183Y-89541183D01*
X171980589Y-89675942D01*
X171898411Y-89829688D01*
X171847805Y-89996511D01*
X171835000Y-90126524D01*
X171065000Y-90126524D01*
X171065000Y-90126523D01*
X171052195Y-89996510D01*
X171001589Y-89829687D01*
X170919411Y-89675941D01*
X170808817Y-89541183D01*
X170674058Y-89430589D01*
X170520312Y-89348411D01*
X170353489Y-89297805D01*
X170180000Y-89280718D01*
X170006510Y-89297805D01*
X169839687Y-89348411D01*
X169685941Y-89430589D01*
X169551183Y-89541183D01*
X169440589Y-89675942D01*
X169358411Y-89829688D01*
X169307805Y-89996511D01*
X169295000Y-90126524D01*
X168525000Y-90126524D01*
X168525000Y-90126523D01*
X168512195Y-89996510D01*
X168461589Y-89829687D01*
X168379411Y-89675941D01*
X168268817Y-89541183D01*
X168134058Y-89430589D01*
X167980312Y-89348411D01*
X167813489Y-89297805D01*
X167640000Y-89280718D01*
X167466510Y-89297805D01*
X167299687Y-89348411D01*
X167145941Y-89430589D01*
X167011183Y-89541183D01*
X166900589Y-89675942D01*
X166818411Y-89829688D01*
X166767805Y-89996511D01*
X166755000Y-90126524D01*
X165985000Y-90126524D01*
X165985000Y-90126523D01*
X165972195Y-89996510D01*
X165921589Y-89829687D01*
X165839411Y-89675941D01*
X165728817Y-89541183D01*
X165594058Y-89430589D01*
X165440312Y-89348411D01*
X165273489Y-89297805D01*
X165100000Y-89280718D01*
X164926510Y-89297805D01*
X164759687Y-89348411D01*
X164605941Y-89430589D01*
X164471183Y-89541183D01*
X164360589Y-89675942D01*
X164278411Y-89829688D01*
X164227805Y-89996511D01*
X164215000Y-90126524D01*
X163445000Y-90126524D01*
X163445000Y-90126523D01*
X163432195Y-89996510D01*
X163381589Y-89829687D01*
X163299411Y-89675941D01*
X163188817Y-89541183D01*
X163054058Y-89430589D01*
X162900312Y-89348411D01*
X162733489Y-89297805D01*
X162560000Y-89280718D01*
X162386510Y-89297805D01*
X162219687Y-89348411D01*
X162065941Y-89430589D01*
X161931183Y-89541183D01*
X161820589Y-89675942D01*
X161738411Y-89829688D01*
X161687805Y-89996511D01*
X161675000Y-90126524D01*
X160905000Y-90126524D01*
X160905000Y-90126523D01*
X160892195Y-89996510D01*
X160841589Y-89829687D01*
X160759411Y-89675941D01*
X160648817Y-89541183D01*
X160514058Y-89430589D01*
X160360312Y-89348411D01*
X160193489Y-89297805D01*
X160020000Y-89280718D01*
X159846510Y-89297805D01*
X159679687Y-89348411D01*
X159525941Y-89430589D01*
X159391183Y-89541183D01*
X159280589Y-89675942D01*
X159198411Y-89829688D01*
X159147805Y-89996511D01*
X159135000Y-90126524D01*
X159135001Y-95014234D01*
X158904729Y-94783962D01*
X158538669Y-94539369D01*
X158131925Y-94370890D01*
X157700128Y-94285000D01*
X157259872Y-94285000D01*
X156828075Y-94370890D01*
X156421331Y-94539369D01*
X156055271Y-94783962D01*
X155743962Y-95095271D01*
X155499369Y-95461331D01*
X155330890Y-95868075D01*
X155245000Y-96299872D01*
X153797000Y-96299872D01*
X153797000Y-88431413D01*
X179892192Y-88431413D01*
X179987956Y-88695814D01*
X180277571Y-88836704D01*
X180589108Y-88918384D01*
X180910595Y-88937718D01*
X181229675Y-88893961D01*
X181534088Y-88788795D01*
X181708044Y-88695814D01*
X181734313Y-88623286D01*
X195074000Y-88623286D01*
X195074000Y-94764715D01*
X198894000Y-94764715D01*
X198894000Y-93841000D01*
X215599572Y-93841000D01*
X215599572Y-97661000D01*
X233845286Y-97661000D01*
X233845286Y-96299872D01*
X233985000Y-96299872D01*
X233985000Y-96740128D01*
X234070890Y-97171925D01*
X234239369Y-97578669D01*
X234483962Y-97944729D01*
X234795271Y-98256038D01*
X235161331Y-98500631D01*
X235568075Y-98669110D01*
X235999872Y-98755000D01*
X236440128Y-98755000D01*
X236871925Y-98669110D01*
X237278669Y-98500631D01*
X237644729Y-98256038D01*
X237956038Y-97944729D01*
X238200631Y-97578669D01*
X238369110Y-97171925D01*
X238455000Y-96740128D01*
X238455000Y-96299872D01*
X238369110Y-95868075D01*
X238200631Y-95461331D01*
X237956038Y-95095271D01*
X237644729Y-94783962D01*
X237278669Y-94539369D01*
X236871925Y-94370890D01*
X236440128Y-94285000D01*
X235999872Y-94285000D01*
X235568075Y-94370890D01*
X235161331Y-94539369D01*
X234795271Y-94783962D01*
X234483962Y-95095271D01*
X234239369Y-95461331D01*
X234070890Y-95868075D01*
X233985000Y-96299872D01*
X233845286Y-96299872D01*
X233845286Y-93841000D01*
X215599572Y-93841000D01*
X198894000Y-93841000D01*
X198894000Y-93272572D01*
X201434000Y-93272572D01*
X201434000Y-91923286D01*
X210314000Y-91923286D01*
X210314000Y-93308286D01*
X214134000Y-93308286D01*
X214134000Y-93129715D01*
X216674000Y-93129715D01*
X216674000Y-91674740D01*
X217463000Y-91674740D01*
X217463000Y-91967260D01*
X217520068Y-92254158D01*
X217632010Y-92524411D01*
X217794525Y-92767632D01*
X218001368Y-92974475D01*
X218244589Y-93136990D01*
X218514842Y-93248932D01*
X218801740Y-93306000D01*
X219094260Y-93306000D01*
X219381158Y-93248932D01*
X219651411Y-93136990D01*
X219894632Y-92974475D01*
X220019710Y-92849397D01*
X222599208Y-92849397D01*
X222676843Y-93098472D01*
X222940883Y-93224371D01*
X223224411Y-93296339D01*
X223516531Y-93311611D01*
X223806019Y-93269599D01*
X224081747Y-93171919D01*
X224219157Y-93098472D01*
X224296792Y-92849397D01*
X223448000Y-92000605D01*
X222599208Y-92849397D01*
X220019710Y-92849397D01*
X220101475Y-92767632D01*
X220263990Y-92524411D01*
X220375932Y-92254158D01*
X220433000Y-91967260D01*
X220433000Y-91889531D01*
X221957389Y-91889531D01*
X221999401Y-92179019D01*
X222097081Y-92454747D01*
X222170528Y-92592157D01*
X222419603Y-92669792D01*
X223268395Y-91821000D01*
X223627605Y-91821000D01*
X224476397Y-92669792D01*
X224725472Y-92592157D01*
X224851371Y-92328117D01*
X224923339Y-92044589D01*
X224938611Y-91752469D01*
X224927331Y-91674740D01*
X225718000Y-91674740D01*
X225718000Y-91967260D01*
X225775068Y-92254158D01*
X225887010Y-92524411D01*
X226049525Y-92767632D01*
X226256368Y-92974475D01*
X226499589Y-93136990D01*
X226769842Y-93248932D01*
X227056740Y-93306000D01*
X227349260Y-93306000D01*
X227636158Y-93248932D01*
X227906411Y-93136990D01*
X228149632Y-92974475D01*
X228274710Y-92849397D01*
X230854208Y-92849397D01*
X230931843Y-93098472D01*
X231195883Y-93224371D01*
X231479411Y-93296339D01*
X231771531Y-93311611D01*
X232061019Y-93269599D01*
X232336747Y-93171919D01*
X232474157Y-93098472D01*
X232551792Y-92849397D01*
X231703000Y-92000605D01*
X230854208Y-92849397D01*
X228274710Y-92849397D01*
X228356475Y-92767632D01*
X228518990Y-92524411D01*
X228630932Y-92254158D01*
X228688000Y-91967260D01*
X228688000Y-91889531D01*
X230212389Y-91889531D01*
X230254401Y-92179019D01*
X230352081Y-92454747D01*
X230425528Y-92592157D01*
X230674603Y-92669792D01*
X231523395Y-91821000D01*
X231882605Y-91821000D01*
X232731397Y-92669792D01*
X232980472Y-92592157D01*
X233106371Y-92328117D01*
X233178339Y-92044589D01*
X233193611Y-91752469D01*
X233151599Y-91462981D01*
X233053919Y-91187253D01*
X232980472Y-91049843D01*
X232731397Y-90972208D01*
X231882605Y-91821000D01*
X231523395Y-91821000D01*
X230674603Y-90972208D01*
X230425528Y-91049843D01*
X230299629Y-91313883D01*
X230227661Y-91597411D01*
X230212389Y-91889531D01*
X228688000Y-91889531D01*
X228688000Y-91674740D01*
X228630932Y-91387842D01*
X228518990Y-91117589D01*
X228356475Y-90874368D01*
X228274710Y-90792603D01*
X230854208Y-90792603D01*
X231703000Y-91641395D01*
X232551792Y-90792603D01*
X232474157Y-90543528D01*
X232210117Y-90417629D01*
X231926589Y-90345661D01*
X231634469Y-90330389D01*
X231344981Y-90372401D01*
X231069253Y-90470081D01*
X230931843Y-90543528D01*
X230854208Y-90792603D01*
X228274710Y-90792603D01*
X228149632Y-90667525D01*
X227906411Y-90505010D01*
X227636158Y-90393068D01*
X227349260Y-90336000D01*
X227056740Y-90336000D01*
X226769842Y-90393068D01*
X226499589Y-90505010D01*
X226256368Y-90667525D01*
X226049525Y-90874368D01*
X225887010Y-91117589D01*
X225775068Y-91387842D01*
X225718000Y-91674740D01*
X224927331Y-91674740D01*
X224896599Y-91462981D01*
X224798919Y-91187253D01*
X224725472Y-91049843D01*
X224476397Y-90972208D01*
X223627605Y-91821000D01*
X223268395Y-91821000D01*
X222419603Y-90972208D01*
X222170528Y-91049843D01*
X222044629Y-91313883D01*
X221972661Y-91597411D01*
X221957389Y-91889531D01*
X220433000Y-91889531D01*
X220433000Y-91674740D01*
X220375932Y-91387842D01*
X220263990Y-91117589D01*
X220101475Y-90874368D01*
X220019710Y-90792603D01*
X222599208Y-90792603D01*
X223448000Y-91641395D01*
X224296792Y-90792603D01*
X224219157Y-90543528D01*
X223955117Y-90417629D01*
X223671589Y-90345661D01*
X223379469Y-90330389D01*
X223089981Y-90372401D01*
X222814253Y-90470081D01*
X222676843Y-90543528D01*
X222599208Y-90792603D01*
X220019710Y-90792603D01*
X219894632Y-90667525D01*
X219651411Y-90505010D01*
X219381158Y-90393068D01*
X219094260Y-90336000D01*
X218801740Y-90336000D01*
X218514842Y-90393068D01*
X218244589Y-90505010D01*
X218001368Y-90667525D01*
X217794525Y-90874368D01*
X217632010Y-91117589D01*
X217520068Y-91387842D01*
X217463000Y-91674740D01*
X216674000Y-91674740D01*
X216674000Y-88988286D01*
X214134000Y-88988286D01*
X214134000Y-88809715D01*
X210314000Y-88809715D01*
X210314000Y-88924715D01*
X201434000Y-88924715D01*
X201434000Y-88845429D01*
X198894000Y-88845429D01*
X198894000Y-88623286D01*
X195074000Y-88623286D01*
X181734313Y-88623286D01*
X181803808Y-88431413D01*
X180848000Y-87475605D01*
X179892192Y-88431413D01*
X153797000Y-88431413D01*
X153797000Y-87325565D01*
X157964040Y-87325565D01*
X158031020Y-87565656D01*
X158280048Y-87682756D01*
X158547135Y-87749023D01*
X158822017Y-87761910D01*
X159094133Y-87720922D01*
X159353023Y-87627636D01*
X159468980Y-87565656D01*
X159535960Y-87325565D01*
X158750000Y-86539605D01*
X157964040Y-87325565D01*
X153797000Y-87325565D01*
X153797000Y-86432017D01*
X157348090Y-86432017D01*
X157389078Y-86704133D01*
X157482364Y-86963023D01*
X157544344Y-87078980D01*
X157784435Y-87145960D01*
X158570395Y-86360000D01*
X158929605Y-86360000D01*
X159715565Y-87145960D01*
X159955656Y-87078980D01*
X160072756Y-86829952D01*
X160139023Y-86562865D01*
X160151910Y-86287983D01*
X160110922Y-86015867D01*
X160017636Y-85756977D01*
X159955656Y-85641020D01*
X159715565Y-85574040D01*
X158929605Y-86360000D01*
X158570395Y-86360000D01*
X157784435Y-85574040D01*
X157544344Y-85641020D01*
X157427244Y-85890048D01*
X157360977Y-86157135D01*
X157348090Y-86432017D01*
X153797000Y-86432017D01*
X153797000Y-65902408D01*
X157353000Y-65902408D01*
X157353000Y-66177592D01*
X157406686Y-66447490D01*
X157511995Y-66701727D01*
X157664880Y-66930535D01*
X157859465Y-67125120D01*
X158088273Y-67278005D01*
X158165515Y-67310000D01*
X158088273Y-67341995D01*
X157859465Y-67494880D01*
X157664880Y-67689465D01*
X157511995Y-67918273D01*
X157406686Y-68172510D01*
X157353000Y-68442408D01*
X157353000Y-68717592D01*
X157406686Y-68987490D01*
X157511995Y-69241727D01*
X157664880Y-69470535D01*
X157859465Y-69665120D01*
X158088273Y-69818005D01*
X158165515Y-69850000D01*
X158088273Y-69881995D01*
X157859465Y-70034880D01*
X157664880Y-70229465D01*
X157511995Y-70458273D01*
X157406686Y-70712510D01*
X157353000Y-70982408D01*
X157353000Y-71257592D01*
X157406686Y-71527490D01*
X157511995Y-71781727D01*
X157664880Y-72010535D01*
X157859465Y-72205120D01*
X158088273Y-72358005D01*
X158165515Y-72390000D01*
X158088273Y-72421995D01*
X157859465Y-72574880D01*
X157664880Y-72769465D01*
X157511995Y-72998273D01*
X157406686Y-73252510D01*
X157353000Y-73522408D01*
X157353000Y-73797592D01*
X157406686Y-74067490D01*
X157511995Y-74321727D01*
X157664880Y-74550535D01*
X157859465Y-74745120D01*
X158088273Y-74898005D01*
X158165515Y-74930000D01*
X158088273Y-74961995D01*
X157859465Y-75114880D01*
X157664880Y-75309465D01*
X157511995Y-75538273D01*
X157406686Y-75792510D01*
X157353000Y-76062408D01*
X157353000Y-76337592D01*
X157406686Y-76607490D01*
X157511995Y-76861727D01*
X157664880Y-77090535D01*
X157859465Y-77285120D01*
X158088273Y-77438005D01*
X158165515Y-77470000D01*
X158088273Y-77501995D01*
X157859465Y-77654880D01*
X157664880Y-77849465D01*
X157511995Y-78078273D01*
X157406686Y-78332510D01*
X157353000Y-78602408D01*
X157353000Y-78877592D01*
X157406686Y-79147490D01*
X157511995Y-79401727D01*
X157664880Y-79630535D01*
X157859465Y-79825120D01*
X158088273Y-79978005D01*
X158165515Y-80010000D01*
X158088273Y-80041995D01*
X157859465Y-80194880D01*
X157664880Y-80389465D01*
X157511995Y-80618273D01*
X157406686Y-80872510D01*
X157353000Y-81142408D01*
X157353000Y-81417592D01*
X157406686Y-81687490D01*
X157511995Y-81941727D01*
X157664880Y-82170535D01*
X157859465Y-82365120D01*
X158088273Y-82518005D01*
X158165515Y-82550000D01*
X158088273Y-82581995D01*
X157859465Y-82734880D01*
X157664880Y-82929465D01*
X157511995Y-83158273D01*
X157406686Y-83412510D01*
X157353000Y-83682408D01*
X157353000Y-83957592D01*
X157406686Y-84227490D01*
X157511995Y-84481727D01*
X157664880Y-84710535D01*
X157859465Y-84905120D01*
X158088273Y-85058005D01*
X158159943Y-85087692D01*
X158146977Y-85092364D01*
X158031020Y-85154344D01*
X157964040Y-85394435D01*
X158750000Y-86180395D01*
X159535960Y-85394435D01*
X159468980Y-85154344D01*
X159333240Y-85090515D01*
X159411727Y-85058005D01*
X159640535Y-84905120D01*
X159835120Y-84710535D01*
X159988005Y-84481727D01*
X160093314Y-84227490D01*
X160147000Y-83957592D01*
X160147000Y-83682408D01*
X160093314Y-83412510D01*
X159988005Y-83158273D01*
X159835120Y-82929465D01*
X159640535Y-82734880D01*
X159411727Y-82581995D01*
X159334485Y-82550000D01*
X159411727Y-82518005D01*
X159640535Y-82365120D01*
X159835120Y-82170535D01*
X159988005Y-81941727D01*
X160093314Y-81687490D01*
X160147000Y-81417592D01*
X160147000Y-81142408D01*
X160093314Y-80872510D01*
X159988005Y-80618273D01*
X159835120Y-80389465D01*
X159640535Y-80194880D01*
X159411727Y-80041995D01*
X159334485Y-80010000D01*
X159411727Y-79978005D01*
X159640535Y-79825120D01*
X159835120Y-79630535D01*
X159988005Y-79401727D01*
X160093314Y-79147490D01*
X160147000Y-78877592D01*
X160147000Y-78602408D01*
X160093314Y-78332510D01*
X159988005Y-78078273D01*
X159835120Y-77849465D01*
X159640535Y-77654880D01*
X159411727Y-77501995D01*
X159334485Y-77470000D01*
X159411727Y-77438005D01*
X159640535Y-77285120D01*
X159835120Y-77090535D01*
X159988005Y-76861727D01*
X160093314Y-76607490D01*
X160147000Y-76337592D01*
X160147000Y-76062408D01*
X160093314Y-75792510D01*
X159988005Y-75538273D01*
X159835120Y-75309465D01*
X159640535Y-75114880D01*
X159411727Y-74961995D01*
X159334485Y-74930000D01*
X159411727Y-74898005D01*
X159640535Y-74745120D01*
X159835120Y-74550535D01*
X159988005Y-74321727D01*
X160093314Y-74067490D01*
X160147000Y-73797592D01*
X160147000Y-73522408D01*
X160093314Y-73252510D01*
X159988005Y-72998273D01*
X159835120Y-72769465D01*
X159640535Y-72574880D01*
X159411727Y-72421995D01*
X159334485Y-72390000D01*
X159411727Y-72358005D01*
X159640535Y-72205120D01*
X159835120Y-72010535D01*
X159988005Y-71781727D01*
X160093314Y-71527490D01*
X160147000Y-71257592D01*
X160147000Y-70982408D01*
X160093314Y-70712510D01*
X159988005Y-70458273D01*
X159835120Y-70229465D01*
X159640535Y-70034880D01*
X159411727Y-69881995D01*
X159334485Y-69850000D01*
X159411727Y-69818005D01*
X159640535Y-69665120D01*
X159835120Y-69470535D01*
X159988005Y-69241727D01*
X160093314Y-68987490D01*
X160147000Y-68717592D01*
X160147000Y-68442408D01*
X160093314Y-68172510D01*
X159988005Y-67918273D01*
X159835120Y-67689465D01*
X159640535Y-67494880D01*
X159411727Y-67341995D01*
X159334485Y-67310000D01*
X159411727Y-67278005D01*
X159640535Y-67125120D01*
X159835120Y-66930535D01*
X159988005Y-66701727D01*
X160093314Y-66447490D01*
X160147000Y-66177592D01*
X160147000Y-65902408D01*
X160093314Y-65632510D01*
X159988005Y-65378273D01*
X159835120Y-65149465D01*
X159640535Y-64954880D01*
X159411727Y-64801995D01*
X159157490Y-64696686D01*
X158887592Y-64643000D01*
X158612408Y-64643000D01*
X158342510Y-64696686D01*
X158088273Y-64801995D01*
X157859465Y-64954880D01*
X157664880Y-65149465D01*
X157511995Y-65378273D01*
X157406686Y-65632510D01*
X157353000Y-65902408D01*
X153797000Y-65902408D01*
X153797000Y-53119872D01*
X155245000Y-53119872D01*
X155245000Y-53560128D01*
X155330890Y-53991925D01*
X155499369Y-54398669D01*
X155743962Y-54764729D01*
X156055271Y-55076038D01*
X156421331Y-55320631D01*
X156828075Y-55489110D01*
X157259872Y-55575000D01*
X157700128Y-55575000D01*
X158131925Y-55489110D01*
X158538669Y-55320631D01*
X158904729Y-55076038D01*
X159216038Y-54764729D01*
X159460631Y-54398669D01*
X159629110Y-53991925D01*
X159715000Y-53560128D01*
X159715000Y-53119872D01*
X159632477Y-52705000D01*
X161670718Y-52705000D01*
X161675000Y-52748477D01*
X161675001Y-62186513D01*
X161670718Y-62230000D01*
X161687805Y-62403490D01*
X161738411Y-62570313D01*
X161820589Y-62724059D01*
X161931183Y-62858817D01*
X162065941Y-62969411D01*
X162219687Y-63051589D01*
X162386510Y-63102195D01*
X162516523Y-63115000D01*
X162516524Y-63115000D01*
X162560000Y-63119282D01*
X162603477Y-63115000D01*
X163705000Y-63115000D01*
X163705000Y-86080000D01*
X167525000Y-86080000D01*
X167525000Y-73522408D01*
X172593000Y-73522408D01*
X172593000Y-73797592D01*
X172646686Y-74067490D01*
X172751995Y-74321727D01*
X172904880Y-74550535D01*
X173099465Y-74745120D01*
X173328273Y-74898005D01*
X173405515Y-74930000D01*
X173328273Y-74961995D01*
X173099465Y-75114880D01*
X172904880Y-75309465D01*
X172751995Y-75538273D01*
X172646686Y-75792510D01*
X172593000Y-76062408D01*
X172593000Y-76337592D01*
X172646686Y-76607490D01*
X172751995Y-76861727D01*
X172904880Y-77090535D01*
X173099465Y-77285120D01*
X173328273Y-77438005D01*
X173405515Y-77470000D01*
X173328273Y-77501995D01*
X173099465Y-77654880D01*
X172904880Y-77849465D01*
X172751995Y-78078273D01*
X172646686Y-78332510D01*
X172593000Y-78602408D01*
X172593000Y-78877592D01*
X172646686Y-79147490D01*
X172751995Y-79401727D01*
X172904880Y-79630535D01*
X173099465Y-79825120D01*
X173328273Y-79978005D01*
X173405515Y-80010000D01*
X173328273Y-80041995D01*
X173099465Y-80194880D01*
X172904880Y-80389465D01*
X172751995Y-80618273D01*
X172646686Y-80872510D01*
X172593000Y-81142408D01*
X172593000Y-81417592D01*
X172646686Y-81687490D01*
X172751995Y-81941727D01*
X172904880Y-82170535D01*
X173099465Y-82365120D01*
X173328273Y-82518005D01*
X173405515Y-82550000D01*
X173328273Y-82581995D01*
X173099465Y-82734880D01*
X172904880Y-82929465D01*
X172751995Y-83158273D01*
X172646686Y-83412510D01*
X172593000Y-83682408D01*
X172593000Y-83957592D01*
X172646686Y-84227490D01*
X172751995Y-84481727D01*
X172904880Y-84710535D01*
X173099465Y-84905120D01*
X173328273Y-85058005D01*
X173405515Y-85090000D01*
X173328273Y-85121995D01*
X173099465Y-85274880D01*
X172904880Y-85469465D01*
X172751995Y-85698273D01*
X172646686Y-85952510D01*
X172593000Y-86222408D01*
X172593000Y-86497592D01*
X172646686Y-86767490D01*
X172751995Y-87021727D01*
X172904880Y-87250535D01*
X173099465Y-87445120D01*
X173328273Y-87598005D01*
X173582510Y-87703314D01*
X173852408Y-87757000D01*
X174127592Y-87757000D01*
X174397490Y-87703314D01*
X174651727Y-87598005D01*
X174880535Y-87445120D01*
X174967060Y-87358595D01*
X179206282Y-87358595D01*
X179250039Y-87677675D01*
X179355205Y-87982088D01*
X179448186Y-88156044D01*
X179712587Y-88251808D01*
X180668395Y-87296000D01*
X181027605Y-87296000D01*
X181983413Y-88251808D01*
X182247814Y-88156044D01*
X182388704Y-87866429D01*
X182470384Y-87554892D01*
X182479717Y-87399702D01*
X186511903Y-87399702D01*
X186583486Y-87643671D01*
X186838996Y-87764571D01*
X187113184Y-87833300D01*
X187395512Y-87847217D01*
X187675130Y-87805787D01*
X187941292Y-87710603D01*
X188066514Y-87643671D01*
X188119231Y-87464000D01*
X195615928Y-87464000D01*
X195628188Y-87588482D01*
X195664498Y-87708180D01*
X195723463Y-87818494D01*
X195802815Y-87915185D01*
X195899506Y-87994537D01*
X196009820Y-88053502D01*
X196129518Y-88089812D01*
X196254000Y-88102072D01*
X196818250Y-88099000D01*
X196977000Y-87940250D01*
X196977000Y-86741000D01*
X195777750Y-86741000D01*
X195619000Y-86899750D01*
X195615928Y-87464000D01*
X188119231Y-87464000D01*
X188138097Y-87399702D01*
X187325000Y-86586605D01*
X186511903Y-87399702D01*
X182479717Y-87399702D01*
X182489718Y-87233405D01*
X182445961Y-86914325D01*
X182340795Y-86609912D01*
X182270027Y-86477512D01*
X185884783Y-86477512D01*
X185926213Y-86757130D01*
X186021397Y-87023292D01*
X186088329Y-87148514D01*
X186332298Y-87220097D01*
X187145395Y-86407000D01*
X187504605Y-86407000D01*
X188317702Y-87220097D01*
X188561671Y-87148514D01*
X188682571Y-86893004D01*
X188751300Y-86618816D01*
X188765217Y-86336488D01*
X188723787Y-86056870D01*
X188628603Y-85790708D01*
X188614328Y-85764000D01*
X195615928Y-85764000D01*
X195619000Y-86328250D01*
X195777750Y-86487000D01*
X196977000Y-86487000D01*
X196977000Y-85287750D01*
X197231000Y-85287750D01*
X197231000Y-86487000D01*
X197251000Y-86487000D01*
X197251000Y-86741000D01*
X197231000Y-86741000D01*
X197231000Y-87940250D01*
X197389750Y-88099000D01*
X197954000Y-88102072D01*
X198078482Y-88089812D01*
X198198180Y-88053502D01*
X198308494Y-87994537D01*
X198405185Y-87915185D01*
X198484537Y-87818494D01*
X198543502Y-87708180D01*
X198565513Y-87635620D01*
X198697368Y-87767475D01*
X198940589Y-87929990D01*
X199210842Y-88041932D01*
X199497740Y-88099000D01*
X199790260Y-88099000D01*
X200077158Y-88041932D01*
X200347411Y-87929990D01*
X200590632Y-87767475D01*
X200797475Y-87560632D01*
X200914000Y-87386240D01*
X201030525Y-87560632D01*
X201237368Y-87767475D01*
X201480589Y-87929990D01*
X201750842Y-88041932D01*
X202037740Y-88099000D01*
X202330260Y-88099000D01*
X202617158Y-88041932D01*
X202887411Y-87929990D01*
X203130632Y-87767475D01*
X203337475Y-87560632D01*
X203454000Y-87386240D01*
X203570525Y-87560632D01*
X203777368Y-87767475D01*
X204020589Y-87929990D01*
X204290842Y-88041932D01*
X204577740Y-88099000D01*
X204870260Y-88099000D01*
X205157158Y-88041932D01*
X205427411Y-87929990D01*
X205670632Y-87767475D01*
X205877475Y-87560632D01*
X205994000Y-87386240D01*
X206110525Y-87560632D01*
X206317368Y-87767475D01*
X206560589Y-87929990D01*
X206830842Y-88041932D01*
X207117740Y-88099000D01*
X207410260Y-88099000D01*
X207697158Y-88041932D01*
X207967411Y-87929990D01*
X208210632Y-87767475D01*
X208417475Y-87560632D01*
X208534000Y-87386240D01*
X208650525Y-87560632D01*
X208857368Y-87767475D01*
X209100589Y-87929990D01*
X209370842Y-88041932D01*
X209657740Y-88099000D01*
X209950260Y-88099000D01*
X210237158Y-88041932D01*
X210507411Y-87929990D01*
X210750632Y-87767475D01*
X210957475Y-87560632D01*
X211074000Y-87386240D01*
X211190525Y-87560632D01*
X211397368Y-87767475D01*
X211640589Y-87929990D01*
X211910842Y-88041932D01*
X212197740Y-88099000D01*
X212490260Y-88099000D01*
X212777158Y-88041932D01*
X213047411Y-87929990D01*
X213290632Y-87767475D01*
X213497475Y-87560632D01*
X213614000Y-87386240D01*
X213730525Y-87560632D01*
X213937368Y-87767475D01*
X214180589Y-87929990D01*
X214450842Y-88041932D01*
X214737740Y-88099000D01*
X215030260Y-88099000D01*
X215317158Y-88041932D01*
X215587411Y-87929990D01*
X215830632Y-87767475D01*
X216037475Y-87560632D01*
X216199990Y-87317411D01*
X216311932Y-87047158D01*
X216369000Y-86760260D01*
X216369000Y-86467740D01*
X216311932Y-86180842D01*
X216199990Y-85910589D01*
X216037475Y-85667368D01*
X215830632Y-85460525D01*
X215587411Y-85298010D01*
X215317158Y-85186068D01*
X215030260Y-85129000D01*
X214737740Y-85129000D01*
X214450842Y-85186068D01*
X214180589Y-85298010D01*
X213937368Y-85460525D01*
X213730525Y-85667368D01*
X213614000Y-85841760D01*
X213497475Y-85667368D01*
X213290632Y-85460525D01*
X213047411Y-85298010D01*
X212777158Y-85186068D01*
X212490260Y-85129000D01*
X212197740Y-85129000D01*
X211910842Y-85186068D01*
X211640589Y-85298010D01*
X211397368Y-85460525D01*
X211190525Y-85667368D01*
X211074000Y-85841760D01*
X210957475Y-85667368D01*
X210750632Y-85460525D01*
X210507411Y-85298010D01*
X210237158Y-85186068D01*
X209950260Y-85129000D01*
X209657740Y-85129000D01*
X209370842Y-85186068D01*
X209100589Y-85298010D01*
X208857368Y-85460525D01*
X208650525Y-85667368D01*
X208534000Y-85841760D01*
X208417475Y-85667368D01*
X208210632Y-85460525D01*
X207967411Y-85298010D01*
X207697158Y-85186068D01*
X207410260Y-85129000D01*
X207117740Y-85129000D01*
X206830842Y-85186068D01*
X206560589Y-85298010D01*
X206317368Y-85460525D01*
X206110525Y-85667368D01*
X205994000Y-85841760D01*
X205877475Y-85667368D01*
X205670632Y-85460525D01*
X205427411Y-85298010D01*
X205157158Y-85186068D01*
X204870260Y-85129000D01*
X204577740Y-85129000D01*
X204290842Y-85186068D01*
X204020589Y-85298010D01*
X203777368Y-85460525D01*
X203570525Y-85667368D01*
X203454000Y-85841760D01*
X203337475Y-85667368D01*
X203130632Y-85460525D01*
X202887411Y-85298010D01*
X202617158Y-85186068D01*
X202330260Y-85129000D01*
X202037740Y-85129000D01*
X201750842Y-85186068D01*
X201480589Y-85298010D01*
X201237368Y-85460525D01*
X201030525Y-85667368D01*
X200914000Y-85841760D01*
X200797475Y-85667368D01*
X200590632Y-85460525D01*
X200347411Y-85298010D01*
X200077158Y-85186068D01*
X199790260Y-85129000D01*
X199497740Y-85129000D01*
X199210842Y-85186068D01*
X198940589Y-85298010D01*
X198697368Y-85460525D01*
X198565513Y-85592380D01*
X198543502Y-85519820D01*
X198484537Y-85409506D01*
X198405185Y-85312815D01*
X198308494Y-85233463D01*
X198198180Y-85174498D01*
X198078482Y-85138188D01*
X197954000Y-85125928D01*
X197389750Y-85129000D01*
X197231000Y-85287750D01*
X196977000Y-85287750D01*
X196818250Y-85129000D01*
X196254000Y-85125928D01*
X196129518Y-85138188D01*
X196009820Y-85174498D01*
X195899506Y-85233463D01*
X195802815Y-85312815D01*
X195723463Y-85409506D01*
X195664498Y-85519820D01*
X195628188Y-85639518D01*
X195615928Y-85764000D01*
X188614328Y-85764000D01*
X188561671Y-85665486D01*
X188317702Y-85593903D01*
X187504605Y-86407000D01*
X187145395Y-86407000D01*
X186332298Y-85593903D01*
X186088329Y-85665486D01*
X185967429Y-85920996D01*
X185898700Y-86195184D01*
X185884783Y-86477512D01*
X182270027Y-86477512D01*
X182247814Y-86435956D01*
X181983413Y-86340192D01*
X181027605Y-87296000D01*
X180668395Y-87296000D01*
X179712587Y-86340192D01*
X179448186Y-86435956D01*
X179307296Y-86725571D01*
X179225616Y-87037108D01*
X179206282Y-87358595D01*
X174967060Y-87358595D01*
X175075120Y-87250535D01*
X175228005Y-87021727D01*
X175333314Y-86767490D01*
X175387000Y-86497592D01*
X175387000Y-86222408D01*
X175374704Y-86160587D01*
X179892192Y-86160587D01*
X180848000Y-87116395D01*
X181803808Y-86160587D01*
X181708044Y-85896186D01*
X181418429Y-85755296D01*
X181106892Y-85673616D01*
X180785405Y-85654282D01*
X180466325Y-85698039D01*
X180161912Y-85803205D01*
X179987956Y-85896186D01*
X179892192Y-86160587D01*
X175374704Y-86160587D01*
X175333314Y-85952510D01*
X175228005Y-85698273D01*
X175075120Y-85469465D01*
X175019953Y-85414298D01*
X186511903Y-85414298D01*
X187325000Y-86227395D01*
X188138097Y-85414298D01*
X188066514Y-85170329D01*
X187811004Y-85049429D01*
X187536816Y-84980700D01*
X187254488Y-84966783D01*
X186974870Y-85008213D01*
X186708708Y-85103397D01*
X186583486Y-85170329D01*
X186511903Y-85414298D01*
X175019953Y-85414298D01*
X174880535Y-85274880D01*
X174651727Y-85121995D01*
X174574485Y-85090000D01*
X174651727Y-85058005D01*
X174880535Y-84905120D01*
X175075120Y-84710535D01*
X175228005Y-84481727D01*
X175333314Y-84227490D01*
X175387000Y-83957592D01*
X175387000Y-83682408D01*
X175333314Y-83412510D01*
X175228005Y-83158273D01*
X175075120Y-82929465D01*
X174880535Y-82734880D01*
X174651727Y-82581995D01*
X174574485Y-82550000D01*
X174651727Y-82518005D01*
X174880535Y-82365120D01*
X175075120Y-82170535D01*
X175228005Y-81941727D01*
X175333314Y-81687490D01*
X175387000Y-81417592D01*
X175387000Y-81296000D01*
X179209928Y-81296000D01*
X179209928Y-83296000D01*
X179222188Y-83420482D01*
X179258498Y-83540180D01*
X179317463Y-83650494D01*
X179396815Y-83747185D01*
X179493506Y-83826537D01*
X179603820Y-83885502D01*
X179723518Y-83921812D01*
X179848000Y-83934072D01*
X181848000Y-83934072D01*
X181972482Y-83921812D01*
X182092180Y-83885502D01*
X182202494Y-83826537D01*
X182299185Y-83747185D01*
X182378537Y-83650494D01*
X182437502Y-83540180D01*
X182473812Y-83420482D01*
X182486072Y-83296000D01*
X182486072Y-81296000D01*
X182483085Y-81265665D01*
X185890000Y-81265665D01*
X185890000Y-81548335D01*
X185945147Y-81825574D01*
X186053320Y-82086727D01*
X186210363Y-82321759D01*
X186410241Y-82521637D01*
X186645273Y-82678680D01*
X186906426Y-82786853D01*
X187183665Y-82842000D01*
X187466335Y-82842000D01*
X187743574Y-82786853D01*
X188004727Y-82678680D01*
X188239759Y-82521637D01*
X188370396Y-82391000D01*
X197059000Y-82391000D01*
X197059000Y-83091000D01*
X197108467Y-83339251D01*
X197205415Y-83573081D01*
X197346118Y-83783505D01*
X197525170Y-83962436D01*
X197735689Y-84102997D01*
X197969585Y-84199787D01*
X198018529Y-84207099D01*
X198217000Y-84083067D01*
X198217000Y-82391000D01*
X197059000Y-82391000D01*
X188370396Y-82391000D01*
X188439637Y-82321759D01*
X188596680Y-82086727D01*
X188704853Y-81825574D01*
X188760000Y-81548335D01*
X188760000Y-81265665D01*
X188704853Y-80988426D01*
X188596680Y-80727273D01*
X188439637Y-80492241D01*
X188239759Y-80292363D01*
X188004727Y-80135320D01*
X187743574Y-80027147D01*
X187466335Y-79972000D01*
X187183665Y-79972000D01*
X186906426Y-80027147D01*
X186645273Y-80135320D01*
X186410241Y-80292363D01*
X186210363Y-80492241D01*
X186053320Y-80727273D01*
X185945147Y-80988426D01*
X185890000Y-81265665D01*
X182483085Y-81265665D01*
X182473812Y-81171518D01*
X182437502Y-81051820D01*
X182378537Y-80941506D01*
X182299185Y-80844815D01*
X182202494Y-80765463D01*
X182092180Y-80706498D01*
X181972482Y-80670188D01*
X181848000Y-80657928D01*
X179848000Y-80657928D01*
X179723518Y-80670188D01*
X179603820Y-80706498D01*
X179493506Y-80765463D01*
X179396815Y-80844815D01*
X179317463Y-80941506D01*
X179258498Y-81051820D01*
X179222188Y-81171518D01*
X179209928Y-81296000D01*
X175387000Y-81296000D01*
X175387000Y-81142408D01*
X175333314Y-80872510D01*
X175228005Y-80618273D01*
X175075120Y-80389465D01*
X174880535Y-80194880D01*
X174651727Y-80041995D01*
X174574485Y-80010000D01*
X174651727Y-79978005D01*
X174841802Y-79851000D01*
X197059000Y-79851000D01*
X197059000Y-80551000D01*
X197108467Y-80799251D01*
X197189212Y-80994000D01*
X197108467Y-81188749D01*
X197059000Y-81437000D01*
X197059000Y-82137000D01*
X198217000Y-82137000D01*
X198217000Y-79851000D01*
X197059000Y-79851000D01*
X174841802Y-79851000D01*
X174880535Y-79825120D01*
X175075120Y-79630535D01*
X175228005Y-79401727D01*
X175333314Y-79147490D01*
X175387000Y-78877592D01*
X175387000Y-78602408D01*
X175333314Y-78332510D01*
X175228005Y-78078273D01*
X175075120Y-77849465D01*
X174880535Y-77654880D01*
X174651727Y-77501995D01*
X174574485Y-77470000D01*
X174651727Y-77438005D01*
X174880535Y-77285120D01*
X175075120Y-77090535D01*
X175228005Y-76861727D01*
X175333314Y-76607490D01*
X175387000Y-76337592D01*
X175387000Y-76062408D01*
X175363724Y-75945391D01*
X190889000Y-75945391D01*
X190889000Y-76168967D01*
X190932617Y-76388246D01*
X191018176Y-76594803D01*
X191142388Y-76780699D01*
X191300480Y-76938791D01*
X191486376Y-77063003D01*
X191692933Y-77148562D01*
X191912212Y-77192179D01*
X192135788Y-77192179D01*
X192355067Y-77148562D01*
X192561624Y-77063003D01*
X192742450Y-76942179D01*
X194908016Y-76942179D01*
X194817996Y-77032200D01*
X194604697Y-77074627D01*
X194398140Y-77160186D01*
X194212244Y-77284398D01*
X194054152Y-77442490D01*
X193929940Y-77628386D01*
X193844381Y-77834943D01*
X193800764Y-78054222D01*
X193800764Y-78277798D01*
X193844381Y-78497077D01*
X193929940Y-78703634D01*
X194054152Y-78889530D01*
X194212244Y-79047622D01*
X194398140Y-79171834D01*
X194604697Y-79257393D01*
X194823976Y-79301010D01*
X195047552Y-79301010D01*
X195266831Y-79257393D01*
X195473388Y-79171834D01*
X195659284Y-79047622D01*
X195817376Y-78889530D01*
X195941588Y-78703634D01*
X196027147Y-78497077D01*
X196068534Y-78289010D01*
X197289606Y-78289010D01*
X197205415Y-78414919D01*
X197108467Y-78648749D01*
X197059000Y-78897000D01*
X197059000Y-79597000D01*
X198217000Y-79597000D01*
X198217000Y-79577000D01*
X198471000Y-79577000D01*
X198471000Y-79597000D01*
X198491000Y-79597000D01*
X198491000Y-79851000D01*
X198471000Y-79851000D01*
X198471000Y-82137000D01*
X198491000Y-82137000D01*
X198491000Y-82391000D01*
X198471000Y-82391000D01*
X198471000Y-84083067D01*
X198669471Y-84207099D01*
X198718415Y-84199787D01*
X198952311Y-84102997D01*
X199162830Y-83962436D01*
X199341882Y-83783505D01*
X199347421Y-83775221D01*
X199430972Y-83877028D01*
X199626638Y-84037608D01*
X199849873Y-84156929D01*
X200092096Y-84230407D01*
X200344000Y-84255217D01*
X200595903Y-84230407D01*
X200838126Y-84156929D01*
X201061361Y-84037608D01*
X201257028Y-83877028D01*
X201344000Y-83771053D01*
X201430972Y-83877028D01*
X201626638Y-84037608D01*
X201849873Y-84156929D01*
X202092096Y-84230407D01*
X202344000Y-84255217D01*
X202595903Y-84230407D01*
X202838126Y-84156929D01*
X203061361Y-84037608D01*
X203257028Y-83877028D01*
X203344000Y-83771053D01*
X203430972Y-83877028D01*
X203626638Y-84037608D01*
X203849873Y-84156929D01*
X204092096Y-84230407D01*
X204344000Y-84255217D01*
X204595903Y-84230407D01*
X204838126Y-84156929D01*
X205061361Y-84037608D01*
X205257028Y-83877028D01*
X205344000Y-83771053D01*
X205430972Y-83877028D01*
X205626638Y-84037608D01*
X205849873Y-84156929D01*
X206092096Y-84230407D01*
X206344000Y-84255217D01*
X206595903Y-84230407D01*
X206838126Y-84156929D01*
X207061361Y-84037608D01*
X207257028Y-83877028D01*
X207344000Y-83771053D01*
X207430972Y-83877028D01*
X207626638Y-84037608D01*
X207849873Y-84156929D01*
X208092096Y-84230407D01*
X208344000Y-84255217D01*
X208595903Y-84230407D01*
X208838126Y-84156929D01*
X209061361Y-84037608D01*
X209257028Y-83877028D01*
X209344000Y-83771053D01*
X209430972Y-83877028D01*
X209626638Y-84037608D01*
X209849873Y-84156929D01*
X210092096Y-84230407D01*
X210344000Y-84255217D01*
X210595903Y-84230407D01*
X210838126Y-84156929D01*
X211061361Y-84037608D01*
X211257028Y-83877028D01*
X211344000Y-83771053D01*
X211430972Y-83877028D01*
X211626638Y-84037608D01*
X211849873Y-84156929D01*
X212092096Y-84230407D01*
X212344000Y-84255217D01*
X212595903Y-84230407D01*
X212838126Y-84156929D01*
X213061361Y-84037608D01*
X213257028Y-83877028D01*
X213417608Y-83681362D01*
X213536929Y-83458127D01*
X213610407Y-83215904D01*
X213629000Y-83027123D01*
X213629000Y-81500877D01*
X213610407Y-81312096D01*
X213536929Y-81069873D01*
X213496374Y-80994000D01*
X213536929Y-80918127D01*
X213610407Y-80675904D01*
X213629000Y-80487123D01*
X213629000Y-78960877D01*
X213610407Y-78772096D01*
X213536929Y-78529873D01*
X213417608Y-78306638D01*
X213257028Y-78110972D01*
X213061362Y-77950392D01*
X212838127Y-77831071D01*
X212595904Y-77757593D01*
X212344000Y-77732783D01*
X212092097Y-77757593D01*
X211849874Y-77831071D01*
X211626639Y-77950392D01*
X211430973Y-78110972D01*
X211344001Y-78216948D01*
X211257028Y-78110972D01*
X211061362Y-77950392D01*
X210838127Y-77831071D01*
X210595904Y-77757593D01*
X210344000Y-77732783D01*
X210092097Y-77757593D01*
X209849874Y-77831071D01*
X209626639Y-77950392D01*
X209430973Y-78110972D01*
X209344001Y-78216948D01*
X209257028Y-78110972D01*
X209061362Y-77950392D01*
X209034208Y-77935878D01*
X209117383Y-77735077D01*
X209161000Y-77515798D01*
X209161000Y-77292222D01*
X209117383Y-77072943D01*
X209063219Y-76942179D01*
X213519345Y-76942179D01*
X213538617Y-77039067D01*
X213624176Y-77245624D01*
X213748388Y-77431520D01*
X213906480Y-77589612D01*
X214092376Y-77713824D01*
X214298933Y-77799383D01*
X214518212Y-77843000D01*
X214741788Y-77843000D01*
X214961067Y-77799383D01*
X215015001Y-77777043D01*
X215015001Y-77934514D01*
X215010718Y-77978000D01*
X215027805Y-78151490D01*
X215078411Y-78318313D01*
X215124400Y-78404353D01*
X215051687Y-78426411D01*
X214897941Y-78508589D01*
X214763183Y-78619183D01*
X214652589Y-78753941D01*
X214570411Y-78907687D01*
X214519805Y-79074510D01*
X214502718Y-79248000D01*
X214519805Y-79421490D01*
X214570411Y-79588313D01*
X214652589Y-79742059D01*
X214763183Y-79876817D01*
X214897941Y-79987411D01*
X215051687Y-80069589D01*
X215218510Y-80120195D01*
X215348523Y-80133000D01*
X217634524Y-80133000D01*
X217678000Y-80137282D01*
X217851490Y-80120195D01*
X218018313Y-80069589D01*
X218063000Y-80045703D01*
X218063000Y-84126344D01*
X218001368Y-84167525D01*
X217794525Y-84374368D01*
X217632010Y-84617589D01*
X217520068Y-84887842D01*
X217463000Y-85174740D01*
X217463000Y-85467260D01*
X217520068Y-85754158D01*
X217632010Y-86024411D01*
X217794525Y-86267632D01*
X218001368Y-86474475D01*
X218244589Y-86636990D01*
X218514842Y-86748932D01*
X218801740Y-86806000D01*
X219094260Y-86806000D01*
X219381158Y-86748932D01*
X219651411Y-86636990D01*
X219894632Y-86474475D01*
X220019710Y-86349397D01*
X222599208Y-86349397D01*
X222676843Y-86598472D01*
X222940883Y-86724371D01*
X223224411Y-86796339D01*
X223516531Y-86811611D01*
X223806019Y-86769599D01*
X224081747Y-86671919D01*
X224219157Y-86598472D01*
X224296792Y-86349397D01*
X223448000Y-85500605D01*
X222599208Y-86349397D01*
X220019710Y-86349397D01*
X220101475Y-86267632D01*
X220263990Y-86024411D01*
X220375932Y-85754158D01*
X220433000Y-85467260D01*
X220433000Y-85389531D01*
X221957389Y-85389531D01*
X221999401Y-85679019D01*
X222097081Y-85954747D01*
X222170528Y-86092157D01*
X222419603Y-86169792D01*
X223268395Y-85321000D01*
X223627605Y-85321000D01*
X224476397Y-86169792D01*
X224725472Y-86092157D01*
X224851371Y-85828117D01*
X224923339Y-85544589D01*
X224938611Y-85252469D01*
X224927331Y-85174740D01*
X225718000Y-85174740D01*
X225718000Y-85467260D01*
X225775068Y-85754158D01*
X225887010Y-86024411D01*
X226049525Y-86267632D01*
X226256368Y-86474475D01*
X226499589Y-86636990D01*
X226769842Y-86748932D01*
X227056740Y-86806000D01*
X227349260Y-86806000D01*
X227636158Y-86748932D01*
X227906411Y-86636990D01*
X228149632Y-86474475D01*
X228274710Y-86349397D01*
X230854208Y-86349397D01*
X230931843Y-86598472D01*
X231195883Y-86724371D01*
X231479411Y-86796339D01*
X231771531Y-86811611D01*
X232061019Y-86769599D01*
X232336747Y-86671919D01*
X232474157Y-86598472D01*
X232551792Y-86349397D01*
X231703000Y-85500605D01*
X230854208Y-86349397D01*
X228274710Y-86349397D01*
X228356475Y-86267632D01*
X228518990Y-86024411D01*
X228630932Y-85754158D01*
X228688000Y-85467260D01*
X228688000Y-85389531D01*
X230212389Y-85389531D01*
X230254401Y-85679019D01*
X230352081Y-85954747D01*
X230425528Y-86092157D01*
X230674603Y-86169792D01*
X231523395Y-85321000D01*
X231882605Y-85321000D01*
X232731397Y-86169792D01*
X232980472Y-86092157D01*
X233106371Y-85828117D01*
X233178339Y-85544589D01*
X233193611Y-85252469D01*
X233151599Y-84962981D01*
X233053919Y-84687253D01*
X232980472Y-84549843D01*
X232731397Y-84472208D01*
X231882605Y-85321000D01*
X231523395Y-85321000D01*
X230674603Y-84472208D01*
X230425528Y-84549843D01*
X230299629Y-84813883D01*
X230227661Y-85097411D01*
X230212389Y-85389531D01*
X228688000Y-85389531D01*
X228688000Y-85174740D01*
X228630932Y-84887842D01*
X228518990Y-84617589D01*
X228356475Y-84374368D01*
X228274710Y-84292603D01*
X230854208Y-84292603D01*
X231703000Y-85141395D01*
X232551792Y-84292603D01*
X232474157Y-84043528D01*
X232210117Y-83917629D01*
X231926589Y-83845661D01*
X231634469Y-83830389D01*
X231344981Y-83872401D01*
X231069253Y-83970081D01*
X230931843Y-84043528D01*
X230854208Y-84292603D01*
X228274710Y-84292603D01*
X228149632Y-84167525D01*
X227906411Y-84005010D01*
X227636158Y-83893068D01*
X227349260Y-83836000D01*
X227056740Y-83836000D01*
X226769842Y-83893068D01*
X226499589Y-84005010D01*
X226256368Y-84167525D01*
X226049525Y-84374368D01*
X225887010Y-84617589D01*
X225775068Y-84887842D01*
X225718000Y-85174740D01*
X224927331Y-85174740D01*
X224896599Y-84962981D01*
X224798919Y-84687253D01*
X224725472Y-84549843D01*
X224476397Y-84472208D01*
X223627605Y-85321000D01*
X223268395Y-85321000D01*
X222419603Y-84472208D01*
X222170528Y-84549843D01*
X222044629Y-84813883D01*
X221972661Y-85097411D01*
X221957389Y-85389531D01*
X220433000Y-85389531D01*
X220433000Y-85174740D01*
X220375932Y-84887842D01*
X220263990Y-84617589D01*
X220101475Y-84374368D01*
X220019710Y-84292603D01*
X222599208Y-84292603D01*
X223448000Y-85141395D01*
X224296792Y-84292603D01*
X224219157Y-84043528D01*
X223955117Y-83917629D01*
X223671589Y-83845661D01*
X223379469Y-83830389D01*
X223089981Y-83872401D01*
X222814253Y-83970081D01*
X222676843Y-84043528D01*
X222599208Y-84292603D01*
X220019710Y-84292603D01*
X219894632Y-84167525D01*
X219833000Y-84126344D01*
X219833000Y-79350890D01*
X233508524Y-79350890D01*
X233553175Y-79498099D01*
X233678359Y-79760920D01*
X233852412Y-79994269D01*
X234068645Y-80189178D01*
X234318748Y-80338157D01*
X234593109Y-80435481D01*
X234823000Y-80314814D01*
X234823000Y-79121000D01*
X233629845Y-79121000D01*
X233508524Y-79350890D01*
X219833000Y-79350890D01*
X219833000Y-63202450D01*
X219953824Y-63021624D01*
X220039383Y-62815067D01*
X220083000Y-62595788D01*
X220083000Y-62372212D01*
X220077123Y-62342665D01*
X226657000Y-62342665D01*
X226657000Y-62625335D01*
X226712147Y-62902574D01*
X226820320Y-63163727D01*
X226977363Y-63398759D01*
X227177241Y-63598637D01*
X227412273Y-63755680D01*
X227673426Y-63863853D01*
X227950665Y-63919000D01*
X228233335Y-63919000D01*
X228510574Y-63863853D01*
X228771727Y-63755680D01*
X229006759Y-63598637D01*
X229206637Y-63398759D01*
X229363680Y-63163727D01*
X229471853Y-62902574D01*
X229527000Y-62625335D01*
X229527000Y-62342665D01*
X236817000Y-62342665D01*
X236817000Y-62625335D01*
X236872147Y-62902574D01*
X236980320Y-63163727D01*
X237137363Y-63398759D01*
X237337241Y-63598637D01*
X237572273Y-63755680D01*
X237833426Y-63863853D01*
X238110665Y-63919000D01*
X238393335Y-63919000D01*
X238670574Y-63863853D01*
X238931727Y-63755680D01*
X239166759Y-63598637D01*
X239366637Y-63398759D01*
X239523680Y-63163727D01*
X239631853Y-62902574D01*
X239687000Y-62625335D01*
X239687000Y-62342665D01*
X239631853Y-62065426D01*
X239523680Y-61804273D01*
X239366637Y-61569241D01*
X239166759Y-61369363D01*
X238931727Y-61212320D01*
X238670574Y-61104147D01*
X238393335Y-61049000D01*
X238110665Y-61049000D01*
X237833426Y-61104147D01*
X237572273Y-61212320D01*
X237337241Y-61369363D01*
X237137363Y-61569241D01*
X236980320Y-61804273D01*
X236872147Y-62065426D01*
X236817000Y-62342665D01*
X229527000Y-62342665D01*
X229471853Y-62065426D01*
X229363680Y-61804273D01*
X229206637Y-61569241D01*
X229006759Y-61369363D01*
X228771727Y-61212320D01*
X228510574Y-61104147D01*
X228233335Y-61049000D01*
X227950665Y-61049000D01*
X227673426Y-61104147D01*
X227412273Y-61212320D01*
X227177241Y-61369363D01*
X226977363Y-61569241D01*
X226820320Y-61804273D01*
X226712147Y-62065426D01*
X226657000Y-62342665D01*
X220077123Y-62342665D01*
X220039383Y-62152933D01*
X219953824Y-61946376D01*
X219829612Y-61760480D01*
X219671520Y-61602388D01*
X219485624Y-61478176D01*
X219279067Y-61392617D01*
X219059788Y-61349000D01*
X218836212Y-61349000D01*
X218616933Y-61392617D01*
X218410376Y-61478176D01*
X218224480Y-61602388D01*
X218066388Y-61760480D01*
X217942176Y-61946376D01*
X217856617Y-62152933D01*
X217813000Y-62372212D01*
X217813000Y-62595788D01*
X217856617Y-62815067D01*
X217942176Y-63021624D01*
X218063001Y-63202451D01*
X218063001Y-69227620D01*
X217975477Y-69219000D01*
X217975476Y-69219000D01*
X217932000Y-69214718D01*
X217888523Y-69219000D01*
X215540533Y-69219000D01*
X215410520Y-69231805D01*
X215243697Y-69282411D01*
X215089951Y-69364589D01*
X214955193Y-69475183D01*
X214844599Y-69609941D01*
X214762421Y-69763687D01*
X214711815Y-69930510D01*
X214694728Y-70104000D01*
X214711815Y-70277490D01*
X214762421Y-70444313D01*
X214844599Y-70598059D01*
X214944457Y-70719735D01*
X214912412Y-70779687D01*
X214861806Y-70946510D01*
X214844719Y-71120000D01*
X214861806Y-71293490D01*
X214912412Y-71460313D01*
X214994590Y-71614059D01*
X215104142Y-71747547D01*
X215078411Y-71795687D01*
X215027805Y-71962510D01*
X215011900Y-72124000D01*
X205154000Y-72124000D01*
X205154000Y-75172179D01*
X192742450Y-75172179D01*
X192561624Y-75051355D01*
X192355067Y-74965796D01*
X192135788Y-74922179D01*
X191912212Y-74922179D01*
X191692933Y-74965796D01*
X191486376Y-75051355D01*
X191300480Y-75175567D01*
X191142388Y-75333659D01*
X191018176Y-75519555D01*
X190932617Y-75726112D01*
X190889000Y-75945391D01*
X175363724Y-75945391D01*
X175333314Y-75792510D01*
X175228005Y-75538273D01*
X175075120Y-75309465D01*
X174880535Y-75114880D01*
X174651727Y-74961995D01*
X174574485Y-74930000D01*
X174651727Y-74898005D01*
X174880535Y-74745120D01*
X175075120Y-74550535D01*
X175228005Y-74321727D01*
X175333314Y-74067490D01*
X175387000Y-73797592D01*
X175387000Y-73522408D01*
X175333314Y-73252510D01*
X175228005Y-72998273D01*
X175075120Y-72769465D01*
X174880535Y-72574880D01*
X174651727Y-72421995D01*
X174580057Y-72392308D01*
X174593023Y-72387636D01*
X174708980Y-72325656D01*
X174775960Y-72085565D01*
X173990000Y-71299605D01*
X173204040Y-72085565D01*
X173271020Y-72325656D01*
X173406760Y-72389485D01*
X173328273Y-72421995D01*
X173099465Y-72574880D01*
X172904880Y-72769465D01*
X172751995Y-72998273D01*
X172646686Y-73252510D01*
X172593000Y-73522408D01*
X167525000Y-73522408D01*
X167525000Y-71192017D01*
X172588090Y-71192017D01*
X172629078Y-71464133D01*
X172722364Y-71723023D01*
X172784344Y-71838980D01*
X173024435Y-71905960D01*
X173810395Y-71120000D01*
X174169605Y-71120000D01*
X174955565Y-71905960D01*
X175195656Y-71838980D01*
X175312756Y-71589952D01*
X175379023Y-71322865D01*
X175391910Y-71047983D01*
X175350922Y-70775867D01*
X175257636Y-70516977D01*
X175195656Y-70401020D01*
X174955565Y-70334040D01*
X174169605Y-71120000D01*
X173810395Y-71120000D01*
X173024435Y-70334040D01*
X172784344Y-70401020D01*
X172667244Y-70650048D01*
X172600977Y-70917135D01*
X172588090Y-71192017D01*
X167525000Y-71192017D01*
X167525000Y-65902408D01*
X172593000Y-65902408D01*
X172593000Y-66177592D01*
X172646686Y-66447490D01*
X172751995Y-66701727D01*
X172904880Y-66930535D01*
X173099465Y-67125120D01*
X173328273Y-67278005D01*
X173405515Y-67310000D01*
X173328273Y-67341995D01*
X173099465Y-67494880D01*
X172904880Y-67689465D01*
X172751995Y-67918273D01*
X172646686Y-68172510D01*
X172593000Y-68442408D01*
X172593000Y-68717592D01*
X172646686Y-68987490D01*
X172751995Y-69241727D01*
X172904880Y-69470535D01*
X173099465Y-69665120D01*
X173328273Y-69818005D01*
X173399943Y-69847692D01*
X173386977Y-69852364D01*
X173271020Y-69914344D01*
X173204040Y-70154435D01*
X173990000Y-70940395D01*
X174775960Y-70154435D01*
X174708980Y-69914344D01*
X174573240Y-69850515D01*
X174651727Y-69818005D01*
X174880535Y-69665120D01*
X175075120Y-69470535D01*
X175228005Y-69241727D01*
X175333314Y-68987490D01*
X175387000Y-68717592D01*
X175387000Y-68442408D01*
X175333314Y-68172510D01*
X175228005Y-67918273D01*
X175075120Y-67689465D01*
X174880535Y-67494880D01*
X174651727Y-67341995D01*
X174574485Y-67310000D01*
X174651727Y-67278005D01*
X174880535Y-67125120D01*
X175075120Y-66930535D01*
X175228005Y-66701727D01*
X175333314Y-66447490D01*
X175387000Y-66177592D01*
X175387000Y-65902408D01*
X175386256Y-65898665D01*
X175857000Y-65898665D01*
X175857000Y-66181335D01*
X175912147Y-66458574D01*
X176020320Y-66719727D01*
X176177363Y-66954759D01*
X176377241Y-67154637D01*
X176612273Y-67311680D01*
X176873426Y-67419853D01*
X177150665Y-67475000D01*
X177433335Y-67475000D01*
X177710574Y-67419853D01*
X177971727Y-67311680D01*
X178206759Y-67154637D01*
X178406637Y-66954759D01*
X178563680Y-66719727D01*
X178671853Y-66458574D01*
X178727000Y-66181335D01*
X178727000Y-65898665D01*
X179413000Y-65898665D01*
X179413000Y-66181335D01*
X179468147Y-66458574D01*
X179576320Y-66719727D01*
X179733363Y-66954759D01*
X179933241Y-67154637D01*
X180168273Y-67311680D01*
X180429426Y-67419853D01*
X180706665Y-67475000D01*
X180989335Y-67475000D01*
X181266574Y-67419853D01*
X181527727Y-67311680D01*
X181762759Y-67154637D01*
X181962637Y-66954759D01*
X182119680Y-66719727D01*
X182227853Y-66458574D01*
X182283000Y-66181335D01*
X182283000Y-65898665D01*
X182227853Y-65621426D01*
X182119680Y-65360273D01*
X181962637Y-65125241D01*
X181762759Y-64925363D01*
X181527727Y-64768320D01*
X181266574Y-64660147D01*
X180989335Y-64605000D01*
X180706665Y-64605000D01*
X180429426Y-64660147D01*
X180168273Y-64768320D01*
X179933241Y-64925363D01*
X179733363Y-65125241D01*
X179576320Y-65360273D01*
X179468147Y-65621426D01*
X179413000Y-65898665D01*
X178727000Y-65898665D01*
X178671853Y-65621426D01*
X178563680Y-65360273D01*
X178406637Y-65125241D01*
X178206759Y-64925363D01*
X177971727Y-64768320D01*
X177710574Y-64660147D01*
X177433335Y-64605000D01*
X177150665Y-64605000D01*
X176873426Y-64660147D01*
X176612273Y-64768320D01*
X176377241Y-64925363D01*
X176177363Y-65125241D01*
X176020320Y-65360273D01*
X175912147Y-65621426D01*
X175857000Y-65898665D01*
X175386256Y-65898665D01*
X175333314Y-65632510D01*
X175228005Y-65378273D01*
X175075120Y-65149465D01*
X174880535Y-64954880D01*
X174651727Y-64801995D01*
X174397490Y-64696686D01*
X174127592Y-64643000D01*
X173852408Y-64643000D01*
X173582510Y-64696686D01*
X173328273Y-64801995D01*
X173099465Y-64954880D01*
X172904880Y-65149465D01*
X172751995Y-65378273D01*
X172646686Y-65632510D01*
X172593000Y-65902408D01*
X167525000Y-65902408D01*
X167525000Y-63115000D01*
X170136523Y-63115000D01*
X170180000Y-63119282D01*
X170223476Y-63115000D01*
X170223477Y-63115000D01*
X170353490Y-63102195D01*
X170520313Y-63051589D01*
X170674059Y-62969411D01*
X170808817Y-62858817D01*
X170919411Y-62724059D01*
X171001589Y-62570313D01*
X171052195Y-62403490D01*
X171069282Y-62230000D01*
X171065000Y-62186523D01*
X171065000Y-61948021D01*
X182736000Y-61948021D01*
X182736000Y-62511978D01*
X182752785Y-62682399D01*
X182819115Y-62901059D01*
X182926829Y-63102578D01*
X183071788Y-63279212D01*
X183248421Y-63424171D01*
X183449940Y-63531885D01*
X183668600Y-63598215D01*
X183896000Y-63620612D01*
X184123399Y-63598215D01*
X184342059Y-63531885D01*
X184531000Y-63430894D01*
X184719940Y-63531885D01*
X184938600Y-63598215D01*
X185166000Y-63620612D01*
X185393399Y-63598215D01*
X185602098Y-63534907D01*
X185666820Y-63569502D01*
X185786518Y-63605812D01*
X185911000Y-63618072D01*
X186961000Y-63618072D01*
X187085482Y-63605812D01*
X187205180Y-63569502D01*
X187221315Y-63560877D01*
X197059000Y-63560877D01*
X197059000Y-65087122D01*
X197077593Y-65275903D01*
X197151071Y-65518126D01*
X197191626Y-65594000D01*
X197151071Y-65669873D01*
X197077593Y-65912096D01*
X197059000Y-66100877D01*
X197059000Y-67627122D01*
X197077593Y-67815903D01*
X197151071Y-68058126D01*
X197270392Y-68281361D01*
X197430972Y-68477028D01*
X197626638Y-68637608D01*
X197849873Y-68756929D01*
X198092096Y-68830407D01*
X198344000Y-68855217D01*
X198595903Y-68830407D01*
X198838126Y-68756929D01*
X199061361Y-68637608D01*
X199257028Y-68477028D01*
X199344000Y-68371053D01*
X199430972Y-68477028D01*
X199626638Y-68637608D01*
X199849873Y-68756929D01*
X200092096Y-68830407D01*
X200344000Y-68855217D01*
X200595903Y-68830407D01*
X200838126Y-68756929D01*
X201061361Y-68637608D01*
X201257028Y-68477028D01*
X201344000Y-68371053D01*
X201430972Y-68477028D01*
X201626638Y-68637608D01*
X201849873Y-68756929D01*
X202092096Y-68830407D01*
X202344000Y-68855217D01*
X202595903Y-68830407D01*
X202838126Y-68756929D01*
X203061361Y-68637608D01*
X203257028Y-68477028D01*
X203344000Y-68371053D01*
X203430972Y-68477028D01*
X203626638Y-68637608D01*
X203849873Y-68756929D01*
X204092096Y-68830407D01*
X204344000Y-68855217D01*
X204595903Y-68830407D01*
X204838126Y-68756929D01*
X205061361Y-68637608D01*
X205257028Y-68477028D01*
X205344000Y-68371053D01*
X205430972Y-68477028D01*
X205626638Y-68637608D01*
X205849873Y-68756929D01*
X206092096Y-68830407D01*
X206344000Y-68855217D01*
X206595903Y-68830407D01*
X206838126Y-68756929D01*
X207061361Y-68637608D01*
X207257028Y-68477028D01*
X207344000Y-68371053D01*
X207430972Y-68477028D01*
X207626638Y-68637608D01*
X207849873Y-68756929D01*
X208092096Y-68830407D01*
X208344000Y-68855217D01*
X208595903Y-68830407D01*
X208838126Y-68756929D01*
X209061361Y-68637608D01*
X209257028Y-68477028D01*
X209344000Y-68371053D01*
X209430972Y-68477028D01*
X209626638Y-68637608D01*
X209849873Y-68756929D01*
X210092096Y-68830407D01*
X210344000Y-68855217D01*
X210595903Y-68830407D01*
X210838126Y-68756929D01*
X211061361Y-68637608D01*
X211257028Y-68477028D01*
X211344000Y-68371053D01*
X211430972Y-68477028D01*
X211626638Y-68637608D01*
X211849873Y-68756929D01*
X212092096Y-68830407D01*
X212344000Y-68855217D01*
X212595903Y-68830407D01*
X212838126Y-68756929D01*
X213061361Y-68637608D01*
X213257028Y-68477028D01*
X213417608Y-68281362D01*
X213536929Y-68058127D01*
X213610407Y-67815904D01*
X213629000Y-67627123D01*
X213629000Y-66100877D01*
X213610407Y-65912096D01*
X213536929Y-65669873D01*
X213496374Y-65594000D01*
X213536929Y-65518127D01*
X213610407Y-65275904D01*
X213629000Y-65087123D01*
X213629000Y-63560877D01*
X213610407Y-63372096D01*
X213536929Y-63129873D01*
X213417608Y-62906638D01*
X213257028Y-62710972D01*
X213061362Y-62550392D01*
X212838127Y-62431071D01*
X212595904Y-62357593D01*
X212344000Y-62332783D01*
X212092097Y-62357593D01*
X211849874Y-62431071D01*
X211626639Y-62550392D01*
X211430973Y-62710972D01*
X211344001Y-62816948D01*
X211257028Y-62710972D01*
X211061362Y-62550392D01*
X210838127Y-62431071D01*
X210595904Y-62357593D01*
X210344000Y-62332783D01*
X210092097Y-62357593D01*
X209849874Y-62431071D01*
X209626639Y-62550392D01*
X209430973Y-62710972D01*
X209344001Y-62816948D01*
X209257028Y-62710972D01*
X209061362Y-62550392D01*
X208838127Y-62431071D01*
X208595904Y-62357593D01*
X208344000Y-62332783D01*
X208092097Y-62357593D01*
X207849874Y-62431071D01*
X207626639Y-62550392D01*
X207430973Y-62710972D01*
X207344001Y-62816948D01*
X207257028Y-62710972D01*
X207061362Y-62550392D01*
X206838127Y-62431071D01*
X206595904Y-62357593D01*
X206344000Y-62332783D01*
X206092097Y-62357593D01*
X205849874Y-62431071D01*
X205626639Y-62550392D01*
X205430973Y-62710972D01*
X205344001Y-62816948D01*
X205257028Y-62710972D01*
X205061362Y-62550392D01*
X204838127Y-62431071D01*
X204595904Y-62357593D01*
X204344000Y-62332783D01*
X204092097Y-62357593D01*
X203849874Y-62431071D01*
X203626639Y-62550392D01*
X203430973Y-62710972D01*
X203344001Y-62816948D01*
X203257028Y-62710972D01*
X203061362Y-62550392D01*
X202838127Y-62431071D01*
X202595904Y-62357593D01*
X202344000Y-62332783D01*
X202092097Y-62357593D01*
X201849874Y-62431071D01*
X201626639Y-62550392D01*
X201430973Y-62710972D01*
X201344001Y-62816948D01*
X201257028Y-62710972D01*
X201061362Y-62550392D01*
X200838127Y-62431071D01*
X200595904Y-62357593D01*
X200344000Y-62332783D01*
X200092097Y-62357593D01*
X199849874Y-62431071D01*
X199626639Y-62550392D01*
X199430973Y-62710972D01*
X199344001Y-62816948D01*
X199257028Y-62710972D01*
X199061362Y-62550392D01*
X198838127Y-62431071D01*
X198595904Y-62357593D01*
X198344000Y-62332783D01*
X198092097Y-62357593D01*
X197849874Y-62431071D01*
X197626639Y-62550392D01*
X197430973Y-62710972D01*
X197270393Y-62906638D01*
X197151071Y-63129873D01*
X197077593Y-63372096D01*
X197059000Y-63560877D01*
X187221315Y-63560877D01*
X187315494Y-63510537D01*
X187412185Y-63431185D01*
X187491537Y-63334494D01*
X187550502Y-63224180D01*
X187586812Y-63104482D01*
X187599072Y-62980000D01*
X187599072Y-61480000D01*
X187586812Y-61355518D01*
X187550502Y-61235820D01*
X187491537Y-61125506D01*
X187412185Y-61028815D01*
X187315494Y-60949463D01*
X187205180Y-60890498D01*
X187085482Y-60854188D01*
X186961000Y-60841928D01*
X185911000Y-60841928D01*
X185786518Y-60854188D01*
X185666820Y-60890498D01*
X185602098Y-60925093D01*
X185393400Y-60861785D01*
X185166000Y-60839388D01*
X184938601Y-60861785D01*
X184719941Y-60928115D01*
X184531001Y-61029106D01*
X184342060Y-60928115D01*
X184123400Y-60861785D01*
X183896000Y-60839388D01*
X183668601Y-60861785D01*
X183449941Y-60928115D01*
X183248422Y-61035829D01*
X183071789Y-61180788D01*
X182926830Y-61357421D01*
X182819115Y-61558940D01*
X182752785Y-61777600D01*
X182736000Y-61948021D01*
X171065000Y-61948021D01*
X171065000Y-59797740D01*
X195619000Y-59797740D01*
X195619000Y-60090260D01*
X195676068Y-60377158D01*
X195788010Y-60647411D01*
X195950525Y-60890632D01*
X196157368Y-61097475D01*
X196400589Y-61259990D01*
X196670842Y-61371932D01*
X196957740Y-61429000D01*
X197250260Y-61429000D01*
X197537158Y-61371932D01*
X197807411Y-61259990D01*
X198050632Y-61097475D01*
X198257475Y-60890632D01*
X198374000Y-60716240D01*
X198490525Y-60890632D01*
X198697368Y-61097475D01*
X198940589Y-61259990D01*
X199210842Y-61371932D01*
X199497740Y-61429000D01*
X199790260Y-61429000D01*
X200077158Y-61371932D01*
X200347411Y-61259990D01*
X200590632Y-61097475D01*
X200797475Y-60890632D01*
X200914000Y-60716240D01*
X201030525Y-60890632D01*
X201237368Y-61097475D01*
X201480589Y-61259990D01*
X201750842Y-61371932D01*
X202037740Y-61429000D01*
X202330260Y-61429000D01*
X202617158Y-61371932D01*
X202887411Y-61259990D01*
X203130632Y-61097475D01*
X203337475Y-60890632D01*
X203454000Y-60716240D01*
X203570525Y-60890632D01*
X203777368Y-61097475D01*
X204020589Y-61259990D01*
X204290842Y-61371932D01*
X204577740Y-61429000D01*
X204870260Y-61429000D01*
X205157158Y-61371932D01*
X205427411Y-61259990D01*
X205670632Y-61097475D01*
X205877475Y-60890632D01*
X205994000Y-60716240D01*
X206110525Y-60890632D01*
X206317368Y-61097475D01*
X206560589Y-61259990D01*
X206830842Y-61371932D01*
X207117740Y-61429000D01*
X207410260Y-61429000D01*
X207697158Y-61371932D01*
X207967411Y-61259990D01*
X208210632Y-61097475D01*
X208417475Y-60890632D01*
X208534000Y-60716240D01*
X208650525Y-60890632D01*
X208857368Y-61097475D01*
X209100589Y-61259990D01*
X209370842Y-61371932D01*
X209657740Y-61429000D01*
X209950260Y-61429000D01*
X210237158Y-61371932D01*
X210507411Y-61259990D01*
X210750632Y-61097475D01*
X210957475Y-60890632D01*
X211074000Y-60716240D01*
X211190525Y-60890632D01*
X211397368Y-61097475D01*
X211640589Y-61259990D01*
X211910842Y-61371932D01*
X212197740Y-61429000D01*
X212490260Y-61429000D01*
X212777158Y-61371932D01*
X213047411Y-61259990D01*
X213290632Y-61097475D01*
X213422487Y-60965620D01*
X213444498Y-61038180D01*
X213503463Y-61148494D01*
X213582815Y-61245185D01*
X213679506Y-61324537D01*
X213789820Y-61383502D01*
X213909518Y-61419812D01*
X214034000Y-61432072D01*
X215734000Y-61432072D01*
X215858482Y-61419812D01*
X215978180Y-61383502D01*
X216088494Y-61324537D01*
X216185185Y-61245185D01*
X216264537Y-61148494D01*
X216323502Y-61038180D01*
X216359812Y-60918482D01*
X216372072Y-60794000D01*
X216372072Y-59094000D01*
X216359812Y-58969518D01*
X216323502Y-58849820D01*
X216264537Y-58739506D01*
X216185185Y-58642815D01*
X216088494Y-58563463D01*
X215978180Y-58504498D01*
X215858482Y-58468188D01*
X215734000Y-58455928D01*
X214034000Y-58455928D01*
X213909518Y-58468188D01*
X213789820Y-58504498D01*
X213679506Y-58563463D01*
X213582815Y-58642815D01*
X213503463Y-58739506D01*
X213444498Y-58849820D01*
X213422487Y-58922380D01*
X213290632Y-58790525D01*
X213047411Y-58628010D01*
X212777158Y-58516068D01*
X212490260Y-58459000D01*
X212197740Y-58459000D01*
X211910842Y-58516068D01*
X211640589Y-58628010D01*
X211397368Y-58790525D01*
X211190525Y-58997368D01*
X211074000Y-59171760D01*
X210957475Y-58997368D01*
X210750632Y-58790525D01*
X210507411Y-58628010D01*
X210237158Y-58516068D01*
X209950260Y-58459000D01*
X209657740Y-58459000D01*
X209370842Y-58516068D01*
X209100589Y-58628010D01*
X208857368Y-58790525D01*
X208650525Y-58997368D01*
X208534000Y-59171760D01*
X208417475Y-58997368D01*
X208210632Y-58790525D01*
X207967411Y-58628010D01*
X207697158Y-58516068D01*
X207410260Y-58459000D01*
X207117740Y-58459000D01*
X206830842Y-58516068D01*
X206560589Y-58628010D01*
X206317368Y-58790525D01*
X206110525Y-58997368D01*
X205994000Y-59171760D01*
X205877475Y-58997368D01*
X205670632Y-58790525D01*
X205427411Y-58628010D01*
X205157158Y-58516068D01*
X204870260Y-58459000D01*
X204577740Y-58459000D01*
X204290842Y-58516068D01*
X204020589Y-58628010D01*
X203777368Y-58790525D01*
X203570525Y-58997368D01*
X203454000Y-59171760D01*
X203337475Y-58997368D01*
X203130632Y-58790525D01*
X202887411Y-58628010D01*
X202617158Y-58516068D01*
X202330260Y-58459000D01*
X202037740Y-58459000D01*
X201750842Y-58516068D01*
X201480589Y-58628010D01*
X201237368Y-58790525D01*
X201030525Y-58997368D01*
X200914000Y-59171760D01*
X200797475Y-58997368D01*
X200590632Y-58790525D01*
X200347411Y-58628010D01*
X200077158Y-58516068D01*
X199790260Y-58459000D01*
X199497740Y-58459000D01*
X199210842Y-58516068D01*
X198940589Y-58628010D01*
X198697368Y-58790525D01*
X198490525Y-58997368D01*
X198374000Y-59171760D01*
X198257475Y-58997368D01*
X198050632Y-58790525D01*
X197807411Y-58628010D01*
X197537158Y-58516068D01*
X197250260Y-58459000D01*
X196957740Y-58459000D01*
X196670842Y-58516068D01*
X196400589Y-58628010D01*
X196157368Y-58790525D01*
X195950525Y-58997368D01*
X195788010Y-59240589D01*
X195676068Y-59510842D01*
X195619000Y-59797740D01*
X171065000Y-59797740D01*
X171065000Y-55738665D01*
X175857000Y-55738665D01*
X175857000Y-56021335D01*
X175912147Y-56298574D01*
X176020320Y-56559727D01*
X176177363Y-56794759D01*
X176377241Y-56994637D01*
X176612273Y-57151680D01*
X176873426Y-57259853D01*
X177150665Y-57315000D01*
X177433335Y-57315000D01*
X177710574Y-57259853D01*
X177971727Y-57151680D01*
X178206759Y-56994637D01*
X178406637Y-56794759D01*
X178563680Y-56559727D01*
X178671853Y-56298574D01*
X178727000Y-56021335D01*
X178727000Y-55738665D01*
X179413000Y-55738665D01*
X179413000Y-56021335D01*
X179468147Y-56298574D01*
X179576320Y-56559727D01*
X179733363Y-56794759D01*
X179933241Y-56994637D01*
X180168273Y-57151680D01*
X180429426Y-57259853D01*
X180706665Y-57315000D01*
X180989335Y-57315000D01*
X181266574Y-57259853D01*
X181527727Y-57151680D01*
X181572114Y-57122021D01*
X182736000Y-57122021D01*
X182736000Y-57685978D01*
X182752785Y-57856399D01*
X182819115Y-58075059D01*
X182926829Y-58276578D01*
X183071788Y-58453212D01*
X183248421Y-58598171D01*
X183449940Y-58705885D01*
X183668600Y-58772215D01*
X183896000Y-58794612D01*
X184123399Y-58772215D01*
X184342059Y-58705885D01*
X184531000Y-58604894D01*
X184719940Y-58705885D01*
X184938600Y-58772215D01*
X185166000Y-58794612D01*
X185393399Y-58772215D01*
X185602098Y-58708907D01*
X185666820Y-58743502D01*
X185786518Y-58779812D01*
X185911000Y-58792072D01*
X186961000Y-58792072D01*
X187085482Y-58779812D01*
X187205180Y-58743502D01*
X187315494Y-58684537D01*
X187412185Y-58605185D01*
X187491537Y-58508494D01*
X187550502Y-58398180D01*
X187586812Y-58278482D01*
X187599072Y-58154000D01*
X187599072Y-56654000D01*
X187586812Y-56529518D01*
X187550502Y-56409820D01*
X187491537Y-56299506D01*
X187412185Y-56202815D01*
X187315494Y-56123463D01*
X187205180Y-56064498D01*
X187085482Y-56028188D01*
X186961000Y-56015928D01*
X185911000Y-56015928D01*
X185786518Y-56028188D01*
X185666820Y-56064498D01*
X185602098Y-56099093D01*
X185393400Y-56035785D01*
X185166000Y-56013388D01*
X184938601Y-56035785D01*
X184719941Y-56102115D01*
X184531001Y-56203106D01*
X184342060Y-56102115D01*
X184123400Y-56035785D01*
X183896000Y-56013388D01*
X183668601Y-56035785D01*
X183449941Y-56102115D01*
X183248422Y-56209829D01*
X183071789Y-56354788D01*
X182926830Y-56531421D01*
X182819115Y-56732940D01*
X182752785Y-56951600D01*
X182736000Y-57122021D01*
X181572114Y-57122021D01*
X181762759Y-56994637D01*
X181962637Y-56794759D01*
X182119680Y-56559727D01*
X182227853Y-56298574D01*
X182283000Y-56021335D01*
X182283000Y-55738665D01*
X182227853Y-55461426D01*
X182119680Y-55200273D01*
X181962637Y-54965241D01*
X181762759Y-54765363D01*
X181527727Y-54608320D01*
X181266574Y-54500147D01*
X180989335Y-54445000D01*
X180706665Y-54445000D01*
X180429426Y-54500147D01*
X180168273Y-54608320D01*
X179933241Y-54765363D01*
X179733363Y-54965241D01*
X179576320Y-55200273D01*
X179468147Y-55461426D01*
X179413000Y-55738665D01*
X178727000Y-55738665D01*
X178671853Y-55461426D01*
X178563680Y-55200273D01*
X178406637Y-54965241D01*
X178206759Y-54765363D01*
X177971727Y-54608320D01*
X177710574Y-54500147D01*
X177433335Y-54445000D01*
X177150665Y-54445000D01*
X176873426Y-54500147D01*
X176612273Y-54608320D01*
X176377241Y-54765363D01*
X176177363Y-54965241D01*
X176020320Y-55200273D01*
X175912147Y-55461426D01*
X175857000Y-55738665D01*
X171065000Y-55738665D01*
X171065000Y-52748477D01*
X171069282Y-52705000D01*
X171052195Y-52531510D01*
X171001589Y-52364687D01*
X170919411Y-52210941D01*
X170808817Y-52076183D01*
X170674059Y-51965589D01*
X170618969Y-51936143D01*
X195074000Y-51936143D01*
X195074000Y-57791857D01*
X198894000Y-57791857D01*
X198894000Y-57712572D01*
X207774000Y-57712572D01*
X207774000Y-57748286D01*
X210314000Y-57748286D01*
X210314000Y-57791857D01*
X214134000Y-57791857D01*
X214134000Y-57684715D01*
X216674000Y-57684715D01*
X216674000Y-53119872D01*
X233985000Y-53119872D01*
X233985000Y-53560128D01*
X234070890Y-53991925D01*
X234239369Y-54398669D01*
X234483962Y-54764729D01*
X234795271Y-55076038D01*
X235161331Y-55320631D01*
X235568075Y-55489110D01*
X235999872Y-55575000D01*
X236440128Y-55575000D01*
X236871925Y-55489110D01*
X237278669Y-55320631D01*
X237644729Y-55076038D01*
X237956038Y-54764729D01*
X238200631Y-54398669D01*
X238369110Y-53991925D01*
X238455000Y-53560128D01*
X238455000Y-53119872D01*
X238369110Y-52688075D01*
X238200631Y-52281331D01*
X237956038Y-51915271D01*
X237644729Y-51603962D01*
X237278669Y-51359369D01*
X236871925Y-51190890D01*
X236440128Y-51105000D01*
X235999872Y-51105000D01*
X235568075Y-51190890D01*
X235161331Y-51359369D01*
X234795271Y-51603962D01*
X234483962Y-51915271D01*
X234239369Y-52281331D01*
X234070890Y-52688075D01*
X233985000Y-53119872D01*
X216674000Y-53119872D01*
X216674000Y-52043286D01*
X214134000Y-52043286D01*
X214134000Y-51936143D01*
X210314000Y-51936143D01*
X210314000Y-53249715D01*
X207774000Y-53249715D01*
X207774000Y-53285429D01*
X198894000Y-53285429D01*
X198894000Y-51936143D01*
X195074000Y-51936143D01*
X170618969Y-51936143D01*
X170520313Y-51883411D01*
X170353490Y-51832805D01*
X170223477Y-51820000D01*
X170180000Y-51815718D01*
X170136524Y-51820000D01*
X162603476Y-51820000D01*
X162560000Y-51815718D01*
X162516523Y-51820000D01*
X162386510Y-51832805D01*
X162219687Y-51883411D01*
X162065941Y-51965589D01*
X161931183Y-52076183D01*
X161820589Y-52210941D01*
X161738411Y-52364687D01*
X161687805Y-52531510D01*
X161670718Y-52705000D01*
X159632477Y-52705000D01*
X159629110Y-52688075D01*
X159460631Y-52281331D01*
X159216038Y-51915271D01*
X158904729Y-51603962D01*
X158538669Y-51359369D01*
X158131925Y-51190890D01*
X157700128Y-51105000D01*
X157259872Y-51105000D01*
X156828075Y-51190890D01*
X156421331Y-51359369D01*
X156055271Y-51603962D01*
X155743962Y-51915271D01*
X155499369Y-52281331D01*
X155330890Y-52688075D01*
X155245000Y-53119872D01*
X153797000Y-53119872D01*
X153797000Y-50805548D01*
X153814843Y-50601605D01*
X153866388Y-50409235D01*
X153950555Y-50228740D01*
X154064780Y-50065610D01*
X154205610Y-49924780D01*
X154368740Y-49810555D01*
X154549235Y-49726388D01*
X154741605Y-49674843D01*
X154945548Y-49657000D01*
X238754452Y-49657000D01*
X238958395Y-49674843D01*
G04 #@! TA.AperFunction,Conductor*
D26*
G36*
X238958395Y-49674843D02*
G01*
X239150765Y-49726388D01*
X239331260Y-49810555D01*
X239494390Y-49924780D01*
X239635220Y-50065610D01*
X239749445Y-50228740D01*
X239833612Y-50409235D01*
X239885157Y-50601605D01*
X239903000Y-50805548D01*
X239903000Y-64504000D01*
X235903572Y-64504000D01*
X235903572Y-64816129D01*
X235800000Y-64805928D01*
X234100000Y-64805928D01*
X233975518Y-64818188D01*
X233855820Y-64854498D01*
X233745506Y-64913463D01*
X233648815Y-64992815D01*
X233569463Y-65089506D01*
X233510498Y-65199820D01*
X233474188Y-65319518D01*
X233461928Y-65444000D01*
X233461928Y-67144000D01*
X233474188Y-67268482D01*
X233510498Y-67388180D01*
X233569463Y-67498494D01*
X233648815Y-67595185D01*
X233745506Y-67674537D01*
X233855820Y-67733502D01*
X233928380Y-67755513D01*
X233796525Y-67887368D01*
X233634010Y-68130589D01*
X233522068Y-68400842D01*
X233465000Y-68687740D01*
X233465000Y-68980260D01*
X233522068Y-69267158D01*
X233634010Y-69537411D01*
X233796525Y-69780632D01*
X234003368Y-69987475D01*
X234177760Y-70104000D01*
X234003368Y-70220525D01*
X233796525Y-70427368D01*
X233634010Y-70670589D01*
X233522068Y-70940842D01*
X233465000Y-71227740D01*
X233465000Y-71520260D01*
X233522068Y-71807158D01*
X233634010Y-72077411D01*
X233796525Y-72320632D01*
X234003368Y-72527475D01*
X234177760Y-72644000D01*
X234003368Y-72760525D01*
X233796525Y-72967368D01*
X233634010Y-73210589D01*
X233522068Y-73480842D01*
X233465000Y-73767740D01*
X233465000Y-74060260D01*
X233522068Y-74347158D01*
X233634010Y-74617411D01*
X233796525Y-74860632D01*
X234003368Y-75067475D01*
X234177760Y-75184000D01*
X234003368Y-75300525D01*
X233796525Y-75507368D01*
X233634010Y-75750589D01*
X233522068Y-76020842D01*
X233465000Y-76307740D01*
X233465000Y-76600260D01*
X233522068Y-76887158D01*
X233634010Y-77157411D01*
X233796525Y-77400632D01*
X234003368Y-77607475D01*
X234185534Y-77729195D01*
X234068645Y-77798822D01*
X233852412Y-77993731D01*
X233678359Y-78227080D01*
X233553175Y-78489901D01*
X233508524Y-78637110D01*
X233629845Y-78867000D01*
X234823000Y-78867000D01*
X234823000Y-78847000D01*
X235077000Y-78847000D01*
X235077000Y-78867000D01*
X235097000Y-78867000D01*
X235097000Y-79121000D01*
X235077000Y-79121000D01*
X235077000Y-80314814D01*
X235306891Y-80435481D01*
X235581252Y-80338157D01*
X235831355Y-80189178D01*
X235943286Y-80088285D01*
X235943286Y-81278000D01*
X239903000Y-81278000D01*
X239903000Y-99054452D01*
X239885157Y-99258395D01*
X239833612Y-99450765D01*
X239749445Y-99631260D01*
X239635220Y-99794390D01*
X239494390Y-99935220D01*
X239331260Y-100049445D01*
X239150765Y-100133612D01*
X238958395Y-100185157D01*
X238754452Y-100203000D01*
X154945548Y-100203000D01*
X154741605Y-100185157D01*
X154549235Y-100133612D01*
X154368740Y-100049445D01*
X154205610Y-99935220D01*
X154064780Y-99794390D01*
X153950555Y-99631260D01*
X153866388Y-99450765D01*
X153814843Y-99258395D01*
X153797000Y-99054452D01*
X153797000Y-96299872D01*
X155245000Y-96299872D01*
X155245000Y-96740128D01*
X155330890Y-97171925D01*
X155499369Y-97578669D01*
X155743962Y-97944729D01*
X156055271Y-98256038D01*
X156421331Y-98500631D01*
X156828075Y-98669110D01*
X157259872Y-98755000D01*
X157700128Y-98755000D01*
X158131925Y-98669110D01*
X158538669Y-98500631D01*
X158904729Y-98256038D01*
X159216038Y-97944729D01*
X159460631Y-97578669D01*
X159629110Y-97171925D01*
X159715000Y-96740128D01*
X159715000Y-96299872D01*
X159668390Y-96065550D01*
X159679688Y-96071589D01*
X159846511Y-96122195D01*
X160020000Y-96139282D01*
X160193490Y-96122195D01*
X160360313Y-96071589D01*
X160514059Y-95989411D01*
X160648817Y-95878817D01*
X160759411Y-95744059D01*
X160841589Y-95590313D01*
X160892195Y-95423490D01*
X160905000Y-95293477D01*
X160905000Y-90126524D01*
X161675000Y-90126524D01*
X161675001Y-95293477D01*
X161687806Y-95423490D01*
X161738412Y-95590313D01*
X161820590Y-95744059D01*
X161931184Y-95878817D01*
X162065942Y-95989411D01*
X162219688Y-96071589D01*
X162386511Y-96122195D01*
X162560000Y-96139282D01*
X162733490Y-96122195D01*
X162900313Y-96071589D01*
X163054059Y-95989411D01*
X163188817Y-95878817D01*
X163299411Y-95744059D01*
X163381589Y-95590313D01*
X163432195Y-95423490D01*
X163445000Y-95293477D01*
X163445000Y-90126524D01*
X164215000Y-90126524D01*
X164215001Y-95293477D01*
X164227806Y-95423490D01*
X164278412Y-95590313D01*
X164360590Y-95744059D01*
X164471184Y-95878817D01*
X164605942Y-95989411D01*
X164759688Y-96071589D01*
X164926511Y-96122195D01*
X165100000Y-96139282D01*
X165273490Y-96122195D01*
X165440313Y-96071589D01*
X165594059Y-95989411D01*
X165728817Y-95878817D01*
X165839411Y-95744059D01*
X165921589Y-95590313D01*
X165972195Y-95423490D01*
X165985000Y-95293477D01*
X165985000Y-90126524D01*
X166755000Y-90126524D01*
X166755001Y-95293477D01*
X166767806Y-95423490D01*
X166818412Y-95590313D01*
X166900590Y-95744059D01*
X167011184Y-95878817D01*
X167145942Y-95989411D01*
X167299688Y-96071589D01*
X167466511Y-96122195D01*
X167640000Y-96139282D01*
X167813490Y-96122195D01*
X167980313Y-96071589D01*
X168134059Y-95989411D01*
X168268817Y-95878817D01*
X168379411Y-95744059D01*
X168461589Y-95590313D01*
X168512195Y-95423490D01*
X168525000Y-95293477D01*
X168525000Y-90126524D01*
X169295000Y-90126524D01*
X169295001Y-95293477D01*
X169307806Y-95423490D01*
X169358412Y-95590313D01*
X169440590Y-95744059D01*
X169551184Y-95878817D01*
X169685942Y-95989411D01*
X169839688Y-96071589D01*
X170006511Y-96122195D01*
X170180000Y-96139282D01*
X170353490Y-96122195D01*
X170520313Y-96071589D01*
X170674059Y-95989411D01*
X170808817Y-95878817D01*
X170919411Y-95744059D01*
X171001589Y-95590313D01*
X171052195Y-95423490D01*
X171065000Y-95293477D01*
X171065000Y-90126524D01*
X171835000Y-90126524D01*
X171835001Y-95293477D01*
X171847806Y-95423490D01*
X171898412Y-95590313D01*
X171980590Y-95744059D01*
X172091184Y-95878817D01*
X172225942Y-95989411D01*
X172379688Y-96071589D01*
X172546511Y-96122195D01*
X172720000Y-96139282D01*
X172893490Y-96122195D01*
X173060313Y-96071589D01*
X173214059Y-95989411D01*
X173348817Y-95878817D01*
X173459411Y-95744059D01*
X173541589Y-95590313D01*
X173592195Y-95423490D01*
X173605000Y-95293477D01*
X173605000Y-92551039D01*
X175646096Y-92551039D01*
X175686754Y-92685087D01*
X175806963Y-92939420D01*
X175974481Y-93165414D01*
X176182869Y-93354385D01*
X176424119Y-93499070D01*
X176688960Y-93593909D01*
X176911000Y-93472624D01*
X176911000Y-92329000D01*
X177165000Y-92329000D01*
X177165000Y-93472624D01*
X177387040Y-93593909D01*
X177651881Y-93499070D01*
X177893131Y-93354385D01*
X178101519Y-93165414D01*
X178269037Y-92939420D01*
X178389246Y-92685087D01*
X178429904Y-92551039D01*
X178307915Y-92329000D01*
X177165000Y-92329000D01*
X176911000Y-92329000D01*
X175768085Y-92329000D01*
X175646096Y-92551039D01*
X173605000Y-92551039D01*
X173605000Y-91852961D01*
X175646096Y-91852961D01*
X175768085Y-92075000D01*
X176911000Y-92075000D01*
X176911000Y-90931376D01*
X177165000Y-90931376D01*
X177165000Y-92075000D01*
X178307915Y-92075000D01*
X178315790Y-92060665D01*
X185763000Y-92060665D01*
X185763000Y-92343335D01*
X185818147Y-92620574D01*
X185926320Y-92881727D01*
X186083363Y-93116759D01*
X186283241Y-93316637D01*
X186518273Y-93473680D01*
X186779426Y-93581853D01*
X187056665Y-93637000D01*
X187339335Y-93637000D01*
X187616574Y-93581853D01*
X187877727Y-93473680D01*
X188112759Y-93316637D01*
X188312637Y-93116759D01*
X188469680Y-92881727D01*
X188577853Y-92620574D01*
X188633000Y-92343335D01*
X188633000Y-92060665D01*
X188577853Y-91783426D01*
X188469680Y-91522273D01*
X188312637Y-91287241D01*
X188112759Y-91087363D01*
X187877727Y-90930320D01*
X187616574Y-90822147D01*
X187339335Y-90767000D01*
X187056665Y-90767000D01*
X186779426Y-90822147D01*
X186518273Y-90930320D01*
X186283241Y-91087363D01*
X186083363Y-91287241D01*
X185926320Y-91522273D01*
X185818147Y-91783426D01*
X185763000Y-92060665D01*
X178315790Y-92060665D01*
X178429904Y-91852961D01*
X178389246Y-91718913D01*
X178269037Y-91464580D01*
X178101519Y-91238586D01*
X177893131Y-91049615D01*
X177651881Y-90904930D01*
X177387040Y-90810091D01*
X177165000Y-90931376D01*
X176911000Y-90931376D01*
X176688960Y-90810091D01*
X176424119Y-90904930D01*
X176182869Y-91049615D01*
X175974481Y-91238586D01*
X175806963Y-91464580D01*
X175686754Y-91718913D01*
X175646096Y-91852961D01*
X173605000Y-91852961D01*
X173605000Y-90126523D01*
X173592195Y-89996510D01*
X173541589Y-89829687D01*
X173459411Y-89675941D01*
X173348817Y-89541183D01*
X173214058Y-89430589D01*
X173060312Y-89348411D01*
X172893489Y-89297805D01*
X172720000Y-89280718D01*
X172546510Y-89297805D01*
X172379687Y-89348411D01*
X172225941Y-89430589D01*
X172091183Y-89541183D01*
X171980589Y-89675942D01*
X171898411Y-89829688D01*
X171847805Y-89996511D01*
X171835000Y-90126524D01*
X171065000Y-90126524D01*
X171065000Y-90126523D01*
X171052195Y-89996510D01*
X171001589Y-89829687D01*
X170919411Y-89675941D01*
X170808817Y-89541183D01*
X170674058Y-89430589D01*
X170520312Y-89348411D01*
X170353489Y-89297805D01*
X170180000Y-89280718D01*
X170006510Y-89297805D01*
X169839687Y-89348411D01*
X169685941Y-89430589D01*
X169551183Y-89541183D01*
X169440589Y-89675942D01*
X169358411Y-89829688D01*
X169307805Y-89996511D01*
X169295000Y-90126524D01*
X168525000Y-90126524D01*
X168525000Y-90126523D01*
X168512195Y-89996510D01*
X168461589Y-89829687D01*
X168379411Y-89675941D01*
X168268817Y-89541183D01*
X168134058Y-89430589D01*
X167980312Y-89348411D01*
X167813489Y-89297805D01*
X167640000Y-89280718D01*
X167466510Y-89297805D01*
X167299687Y-89348411D01*
X167145941Y-89430589D01*
X167011183Y-89541183D01*
X166900589Y-89675942D01*
X166818411Y-89829688D01*
X166767805Y-89996511D01*
X166755000Y-90126524D01*
X165985000Y-90126524D01*
X165985000Y-90126523D01*
X165972195Y-89996510D01*
X165921589Y-89829687D01*
X165839411Y-89675941D01*
X165728817Y-89541183D01*
X165594058Y-89430589D01*
X165440312Y-89348411D01*
X165273489Y-89297805D01*
X165100000Y-89280718D01*
X164926510Y-89297805D01*
X164759687Y-89348411D01*
X164605941Y-89430589D01*
X164471183Y-89541183D01*
X164360589Y-89675942D01*
X164278411Y-89829688D01*
X164227805Y-89996511D01*
X164215000Y-90126524D01*
X163445000Y-90126524D01*
X163445000Y-90126523D01*
X163432195Y-89996510D01*
X163381589Y-89829687D01*
X163299411Y-89675941D01*
X163188817Y-89541183D01*
X163054058Y-89430589D01*
X162900312Y-89348411D01*
X162733489Y-89297805D01*
X162560000Y-89280718D01*
X162386510Y-89297805D01*
X162219687Y-89348411D01*
X162065941Y-89430589D01*
X161931183Y-89541183D01*
X161820589Y-89675942D01*
X161738411Y-89829688D01*
X161687805Y-89996511D01*
X161675000Y-90126524D01*
X160905000Y-90126524D01*
X160905000Y-90126523D01*
X160892195Y-89996510D01*
X160841589Y-89829687D01*
X160759411Y-89675941D01*
X160648817Y-89541183D01*
X160514058Y-89430589D01*
X160360312Y-89348411D01*
X160193489Y-89297805D01*
X160020000Y-89280718D01*
X159846510Y-89297805D01*
X159679687Y-89348411D01*
X159525941Y-89430589D01*
X159391183Y-89541183D01*
X159280589Y-89675942D01*
X159198411Y-89829688D01*
X159147805Y-89996511D01*
X159135000Y-90126524D01*
X159135001Y-95014234D01*
X158904729Y-94783962D01*
X158538669Y-94539369D01*
X158131925Y-94370890D01*
X157700128Y-94285000D01*
X157259872Y-94285000D01*
X156828075Y-94370890D01*
X156421331Y-94539369D01*
X156055271Y-94783962D01*
X155743962Y-95095271D01*
X155499369Y-95461331D01*
X155330890Y-95868075D01*
X155245000Y-96299872D01*
X153797000Y-96299872D01*
X153797000Y-88431413D01*
X179892192Y-88431413D01*
X179987956Y-88695814D01*
X180277571Y-88836704D01*
X180589108Y-88918384D01*
X180910595Y-88937718D01*
X181229675Y-88893961D01*
X181534088Y-88788795D01*
X181708044Y-88695814D01*
X181734313Y-88623286D01*
X195074000Y-88623286D01*
X195074000Y-94764715D01*
X198894000Y-94764715D01*
X198894000Y-93841000D01*
X215599572Y-93841000D01*
X215599572Y-97661000D01*
X233845286Y-97661000D01*
X233845286Y-96299872D01*
X233985000Y-96299872D01*
X233985000Y-96740128D01*
X234070890Y-97171925D01*
X234239369Y-97578669D01*
X234483962Y-97944729D01*
X234795271Y-98256038D01*
X235161331Y-98500631D01*
X235568075Y-98669110D01*
X235999872Y-98755000D01*
X236440128Y-98755000D01*
X236871925Y-98669110D01*
X237278669Y-98500631D01*
X237644729Y-98256038D01*
X237956038Y-97944729D01*
X238200631Y-97578669D01*
X238369110Y-97171925D01*
X238455000Y-96740128D01*
X238455000Y-96299872D01*
X238369110Y-95868075D01*
X238200631Y-95461331D01*
X237956038Y-95095271D01*
X237644729Y-94783962D01*
X237278669Y-94539369D01*
X236871925Y-94370890D01*
X236440128Y-94285000D01*
X235999872Y-94285000D01*
X235568075Y-94370890D01*
X235161331Y-94539369D01*
X234795271Y-94783962D01*
X234483962Y-95095271D01*
X234239369Y-95461331D01*
X234070890Y-95868075D01*
X233985000Y-96299872D01*
X233845286Y-96299872D01*
X233845286Y-93841000D01*
X215599572Y-93841000D01*
X198894000Y-93841000D01*
X198894000Y-93272572D01*
X201434000Y-93272572D01*
X201434000Y-91923286D01*
X210314000Y-91923286D01*
X210314000Y-93308286D01*
X214134000Y-93308286D01*
X214134000Y-93129715D01*
X216674000Y-93129715D01*
X216674000Y-91674740D01*
X217463000Y-91674740D01*
X217463000Y-91967260D01*
X217520068Y-92254158D01*
X217632010Y-92524411D01*
X217794525Y-92767632D01*
X218001368Y-92974475D01*
X218244589Y-93136990D01*
X218514842Y-93248932D01*
X218801740Y-93306000D01*
X219094260Y-93306000D01*
X219381158Y-93248932D01*
X219651411Y-93136990D01*
X219894632Y-92974475D01*
X220019710Y-92849397D01*
X222599208Y-92849397D01*
X222676843Y-93098472D01*
X222940883Y-93224371D01*
X223224411Y-93296339D01*
X223516531Y-93311611D01*
X223806019Y-93269599D01*
X224081747Y-93171919D01*
X224219157Y-93098472D01*
X224296792Y-92849397D01*
X223448000Y-92000605D01*
X222599208Y-92849397D01*
X220019710Y-92849397D01*
X220101475Y-92767632D01*
X220263990Y-92524411D01*
X220375932Y-92254158D01*
X220433000Y-91967260D01*
X220433000Y-91889531D01*
X221957389Y-91889531D01*
X221999401Y-92179019D01*
X222097081Y-92454747D01*
X222170528Y-92592157D01*
X222419603Y-92669792D01*
X223268395Y-91821000D01*
X223627605Y-91821000D01*
X224476397Y-92669792D01*
X224725472Y-92592157D01*
X224851371Y-92328117D01*
X224923339Y-92044589D01*
X224938611Y-91752469D01*
X224927331Y-91674740D01*
X225718000Y-91674740D01*
X225718000Y-91967260D01*
X225775068Y-92254158D01*
X225887010Y-92524411D01*
X226049525Y-92767632D01*
X226256368Y-92974475D01*
X226499589Y-93136990D01*
X226769842Y-93248932D01*
X227056740Y-93306000D01*
X227349260Y-93306000D01*
X227636158Y-93248932D01*
X227906411Y-93136990D01*
X228149632Y-92974475D01*
X228274710Y-92849397D01*
X230854208Y-92849397D01*
X230931843Y-93098472D01*
X231195883Y-93224371D01*
X231479411Y-93296339D01*
X231771531Y-93311611D01*
X232061019Y-93269599D01*
X232336747Y-93171919D01*
X232474157Y-93098472D01*
X232551792Y-92849397D01*
X231703000Y-92000605D01*
X230854208Y-92849397D01*
X228274710Y-92849397D01*
X228356475Y-92767632D01*
X228518990Y-92524411D01*
X228630932Y-92254158D01*
X228688000Y-91967260D01*
X228688000Y-91889531D01*
X230212389Y-91889531D01*
X230254401Y-92179019D01*
X230352081Y-92454747D01*
X230425528Y-92592157D01*
X230674603Y-92669792D01*
X231523395Y-91821000D01*
X231882605Y-91821000D01*
X232731397Y-92669792D01*
X232980472Y-92592157D01*
X233106371Y-92328117D01*
X233178339Y-92044589D01*
X233193611Y-91752469D01*
X233151599Y-91462981D01*
X233053919Y-91187253D01*
X232980472Y-91049843D01*
X232731397Y-90972208D01*
X231882605Y-91821000D01*
X231523395Y-91821000D01*
X230674603Y-90972208D01*
X230425528Y-91049843D01*
X230299629Y-91313883D01*
X230227661Y-91597411D01*
X230212389Y-91889531D01*
X228688000Y-91889531D01*
X228688000Y-91674740D01*
X228630932Y-91387842D01*
X228518990Y-91117589D01*
X228356475Y-90874368D01*
X228274710Y-90792603D01*
X230854208Y-90792603D01*
X231703000Y-91641395D01*
X232551792Y-90792603D01*
X232474157Y-90543528D01*
X232210117Y-90417629D01*
X231926589Y-90345661D01*
X231634469Y-90330389D01*
X231344981Y-90372401D01*
X231069253Y-90470081D01*
X230931843Y-90543528D01*
X230854208Y-90792603D01*
X228274710Y-90792603D01*
X228149632Y-90667525D01*
X227906411Y-90505010D01*
X227636158Y-90393068D01*
X227349260Y-90336000D01*
X227056740Y-90336000D01*
X226769842Y-90393068D01*
X226499589Y-90505010D01*
X226256368Y-90667525D01*
X226049525Y-90874368D01*
X225887010Y-91117589D01*
X225775068Y-91387842D01*
X225718000Y-91674740D01*
X224927331Y-91674740D01*
X224896599Y-91462981D01*
X224798919Y-91187253D01*
X224725472Y-91049843D01*
X224476397Y-90972208D01*
X223627605Y-91821000D01*
X223268395Y-91821000D01*
X222419603Y-90972208D01*
X222170528Y-91049843D01*
X222044629Y-91313883D01*
X221972661Y-91597411D01*
X221957389Y-91889531D01*
X220433000Y-91889531D01*
X220433000Y-91674740D01*
X220375932Y-91387842D01*
X220263990Y-91117589D01*
X220101475Y-90874368D01*
X220019710Y-90792603D01*
X222599208Y-90792603D01*
X223448000Y-91641395D01*
X224296792Y-90792603D01*
X224219157Y-90543528D01*
X223955117Y-90417629D01*
X223671589Y-90345661D01*
X223379469Y-90330389D01*
X223089981Y-90372401D01*
X222814253Y-90470081D01*
X222676843Y-90543528D01*
X222599208Y-90792603D01*
X220019710Y-90792603D01*
X219894632Y-90667525D01*
X219651411Y-90505010D01*
X219381158Y-90393068D01*
X219094260Y-90336000D01*
X218801740Y-90336000D01*
X218514842Y-90393068D01*
X218244589Y-90505010D01*
X218001368Y-90667525D01*
X217794525Y-90874368D01*
X217632010Y-91117589D01*
X217520068Y-91387842D01*
X217463000Y-91674740D01*
X216674000Y-91674740D01*
X216674000Y-88988286D01*
X214134000Y-88988286D01*
X214134000Y-88809715D01*
X210314000Y-88809715D01*
X210314000Y-88924715D01*
X201434000Y-88924715D01*
X201434000Y-88845429D01*
X198894000Y-88845429D01*
X198894000Y-88623286D01*
X195074000Y-88623286D01*
X181734313Y-88623286D01*
X181803808Y-88431413D01*
X180848000Y-87475605D01*
X179892192Y-88431413D01*
X153797000Y-88431413D01*
X153797000Y-87325565D01*
X157964040Y-87325565D01*
X158031020Y-87565656D01*
X158280048Y-87682756D01*
X158547135Y-87749023D01*
X158822017Y-87761910D01*
X159094133Y-87720922D01*
X159353023Y-87627636D01*
X159468980Y-87565656D01*
X159535960Y-87325565D01*
X158750000Y-86539605D01*
X157964040Y-87325565D01*
X153797000Y-87325565D01*
X153797000Y-86432017D01*
X157348090Y-86432017D01*
X157389078Y-86704133D01*
X157482364Y-86963023D01*
X157544344Y-87078980D01*
X157784435Y-87145960D01*
X158570395Y-86360000D01*
X158929605Y-86360000D01*
X159715565Y-87145960D01*
X159955656Y-87078980D01*
X160072756Y-86829952D01*
X160139023Y-86562865D01*
X160151910Y-86287983D01*
X160110922Y-86015867D01*
X160017636Y-85756977D01*
X159955656Y-85641020D01*
X159715565Y-85574040D01*
X158929605Y-86360000D01*
X158570395Y-86360000D01*
X157784435Y-85574040D01*
X157544344Y-85641020D01*
X157427244Y-85890048D01*
X157360977Y-86157135D01*
X157348090Y-86432017D01*
X153797000Y-86432017D01*
X153797000Y-65902408D01*
X157353000Y-65902408D01*
X157353000Y-66177592D01*
X157406686Y-66447490D01*
X157511995Y-66701727D01*
X157664880Y-66930535D01*
X157859465Y-67125120D01*
X158088273Y-67278005D01*
X158165515Y-67310000D01*
X158088273Y-67341995D01*
X157859465Y-67494880D01*
X157664880Y-67689465D01*
X157511995Y-67918273D01*
X157406686Y-68172510D01*
X157353000Y-68442408D01*
X157353000Y-68717592D01*
X157406686Y-68987490D01*
X157511995Y-69241727D01*
X157664880Y-69470535D01*
X157859465Y-69665120D01*
X158088273Y-69818005D01*
X158165515Y-69850000D01*
X158088273Y-69881995D01*
X157859465Y-70034880D01*
X157664880Y-70229465D01*
X157511995Y-70458273D01*
X157406686Y-70712510D01*
X157353000Y-70982408D01*
X157353000Y-71257592D01*
X157406686Y-71527490D01*
X157511995Y-71781727D01*
X157664880Y-72010535D01*
X157859465Y-72205120D01*
X158088273Y-72358005D01*
X158165515Y-72390000D01*
X158088273Y-72421995D01*
X157859465Y-72574880D01*
X157664880Y-72769465D01*
X157511995Y-72998273D01*
X157406686Y-73252510D01*
X157353000Y-73522408D01*
X157353000Y-73797592D01*
X157406686Y-74067490D01*
X157511995Y-74321727D01*
X157664880Y-74550535D01*
X157859465Y-74745120D01*
X158088273Y-74898005D01*
X158165515Y-74930000D01*
X158088273Y-74961995D01*
X157859465Y-75114880D01*
X157664880Y-75309465D01*
X157511995Y-75538273D01*
X157406686Y-75792510D01*
X157353000Y-76062408D01*
X157353000Y-76337592D01*
X157406686Y-76607490D01*
X157511995Y-76861727D01*
X157664880Y-77090535D01*
X157859465Y-77285120D01*
X158088273Y-77438005D01*
X158165515Y-77470000D01*
X158088273Y-77501995D01*
X157859465Y-77654880D01*
X157664880Y-77849465D01*
X157511995Y-78078273D01*
X157406686Y-78332510D01*
X157353000Y-78602408D01*
X157353000Y-78877592D01*
X157406686Y-79147490D01*
X157511995Y-79401727D01*
X157664880Y-79630535D01*
X157859465Y-79825120D01*
X158088273Y-79978005D01*
X158165515Y-80010000D01*
X158088273Y-80041995D01*
X157859465Y-80194880D01*
X157664880Y-80389465D01*
X157511995Y-80618273D01*
X157406686Y-80872510D01*
X157353000Y-81142408D01*
X157353000Y-81417592D01*
X157406686Y-81687490D01*
X157511995Y-81941727D01*
X157664880Y-82170535D01*
X157859465Y-82365120D01*
X158088273Y-82518005D01*
X158165515Y-82550000D01*
X158088273Y-82581995D01*
X157859465Y-82734880D01*
X157664880Y-82929465D01*
X157511995Y-83158273D01*
X157406686Y-83412510D01*
X157353000Y-83682408D01*
X157353000Y-83957592D01*
X157406686Y-84227490D01*
X157511995Y-84481727D01*
X157664880Y-84710535D01*
X157859465Y-84905120D01*
X158088273Y-85058005D01*
X158159943Y-85087692D01*
X158146977Y-85092364D01*
X158031020Y-85154344D01*
X157964040Y-85394435D01*
X158750000Y-86180395D01*
X159535960Y-85394435D01*
X159468980Y-85154344D01*
X159333240Y-85090515D01*
X159411727Y-85058005D01*
X159640535Y-84905120D01*
X159835120Y-84710535D01*
X159988005Y-84481727D01*
X160093314Y-84227490D01*
X160147000Y-83957592D01*
X160147000Y-83682408D01*
X160093314Y-83412510D01*
X159988005Y-83158273D01*
X159835120Y-82929465D01*
X159640535Y-82734880D01*
X159411727Y-82581995D01*
X159334485Y-82550000D01*
X159411727Y-82518005D01*
X159640535Y-82365120D01*
X159835120Y-82170535D01*
X159988005Y-81941727D01*
X160093314Y-81687490D01*
X160147000Y-81417592D01*
X160147000Y-81142408D01*
X160093314Y-80872510D01*
X159988005Y-80618273D01*
X159835120Y-80389465D01*
X159640535Y-80194880D01*
X159411727Y-80041995D01*
X159334485Y-80010000D01*
X159411727Y-79978005D01*
X159640535Y-79825120D01*
X159835120Y-79630535D01*
X159988005Y-79401727D01*
X160093314Y-79147490D01*
X160147000Y-78877592D01*
X160147000Y-78602408D01*
X160093314Y-78332510D01*
X159988005Y-78078273D01*
X159835120Y-77849465D01*
X159640535Y-77654880D01*
X159411727Y-77501995D01*
X159334485Y-77470000D01*
X159411727Y-77438005D01*
X159640535Y-77285120D01*
X159835120Y-77090535D01*
X159988005Y-76861727D01*
X160093314Y-76607490D01*
X160147000Y-76337592D01*
X160147000Y-76062408D01*
X160093314Y-75792510D01*
X159988005Y-75538273D01*
X159835120Y-75309465D01*
X159640535Y-75114880D01*
X159411727Y-74961995D01*
X159334485Y-74930000D01*
X159411727Y-74898005D01*
X159640535Y-74745120D01*
X159835120Y-74550535D01*
X159988005Y-74321727D01*
X160093314Y-74067490D01*
X160147000Y-73797592D01*
X160147000Y-73522408D01*
X160093314Y-73252510D01*
X159988005Y-72998273D01*
X159835120Y-72769465D01*
X159640535Y-72574880D01*
X159411727Y-72421995D01*
X159334485Y-72390000D01*
X159411727Y-72358005D01*
X159640535Y-72205120D01*
X159835120Y-72010535D01*
X159988005Y-71781727D01*
X160093314Y-71527490D01*
X160147000Y-71257592D01*
X160147000Y-70982408D01*
X160093314Y-70712510D01*
X159988005Y-70458273D01*
X159835120Y-70229465D01*
X159640535Y-70034880D01*
X159411727Y-69881995D01*
X159334485Y-69850000D01*
X159411727Y-69818005D01*
X159640535Y-69665120D01*
X159835120Y-69470535D01*
X159988005Y-69241727D01*
X160093314Y-68987490D01*
X160147000Y-68717592D01*
X160147000Y-68442408D01*
X160093314Y-68172510D01*
X159988005Y-67918273D01*
X159835120Y-67689465D01*
X159640535Y-67494880D01*
X159411727Y-67341995D01*
X159334485Y-67310000D01*
X159411727Y-67278005D01*
X159640535Y-67125120D01*
X159835120Y-66930535D01*
X159988005Y-66701727D01*
X160093314Y-66447490D01*
X160147000Y-66177592D01*
X160147000Y-65902408D01*
X160093314Y-65632510D01*
X159988005Y-65378273D01*
X159835120Y-65149465D01*
X159640535Y-64954880D01*
X159411727Y-64801995D01*
X159157490Y-64696686D01*
X158887592Y-64643000D01*
X158612408Y-64643000D01*
X158342510Y-64696686D01*
X158088273Y-64801995D01*
X157859465Y-64954880D01*
X157664880Y-65149465D01*
X157511995Y-65378273D01*
X157406686Y-65632510D01*
X157353000Y-65902408D01*
X153797000Y-65902408D01*
X153797000Y-53119872D01*
X155245000Y-53119872D01*
X155245000Y-53560128D01*
X155330890Y-53991925D01*
X155499369Y-54398669D01*
X155743962Y-54764729D01*
X156055271Y-55076038D01*
X156421331Y-55320631D01*
X156828075Y-55489110D01*
X157259872Y-55575000D01*
X157700128Y-55575000D01*
X158131925Y-55489110D01*
X158538669Y-55320631D01*
X158904729Y-55076038D01*
X159216038Y-54764729D01*
X159460631Y-54398669D01*
X159629110Y-53991925D01*
X159715000Y-53560128D01*
X159715000Y-53119872D01*
X159632477Y-52705000D01*
X161670718Y-52705000D01*
X161675000Y-52748477D01*
X161675001Y-62186513D01*
X161670718Y-62230000D01*
X161687805Y-62403490D01*
X161738411Y-62570313D01*
X161820589Y-62724059D01*
X161931183Y-62858817D01*
X162065941Y-62969411D01*
X162219687Y-63051589D01*
X162386510Y-63102195D01*
X162516523Y-63115000D01*
X162516524Y-63115000D01*
X162560000Y-63119282D01*
X162603477Y-63115000D01*
X163705000Y-63115000D01*
X163705000Y-86080000D01*
X167525000Y-86080000D01*
X167525000Y-73522408D01*
X172593000Y-73522408D01*
X172593000Y-73797592D01*
X172646686Y-74067490D01*
X172751995Y-74321727D01*
X172904880Y-74550535D01*
X173099465Y-74745120D01*
X173328273Y-74898005D01*
X173405515Y-74930000D01*
X173328273Y-74961995D01*
X173099465Y-75114880D01*
X172904880Y-75309465D01*
X172751995Y-75538273D01*
X172646686Y-75792510D01*
X172593000Y-76062408D01*
X172593000Y-76337592D01*
X172646686Y-76607490D01*
X172751995Y-76861727D01*
X172904880Y-77090535D01*
X173099465Y-77285120D01*
X173328273Y-77438005D01*
X173405515Y-77470000D01*
X173328273Y-77501995D01*
X173099465Y-77654880D01*
X172904880Y-77849465D01*
X172751995Y-78078273D01*
X172646686Y-78332510D01*
X172593000Y-78602408D01*
X172593000Y-78877592D01*
X172646686Y-79147490D01*
X172751995Y-79401727D01*
X172904880Y-79630535D01*
X173099465Y-79825120D01*
X173328273Y-79978005D01*
X173405515Y-80010000D01*
X173328273Y-80041995D01*
X173099465Y-80194880D01*
X172904880Y-80389465D01*
X172751995Y-80618273D01*
X172646686Y-80872510D01*
X172593000Y-81142408D01*
X172593000Y-81417592D01*
X172646686Y-81687490D01*
X172751995Y-81941727D01*
X172904880Y-82170535D01*
X173099465Y-82365120D01*
X173328273Y-82518005D01*
X173405515Y-82550000D01*
X173328273Y-82581995D01*
X173099465Y-82734880D01*
X172904880Y-82929465D01*
X172751995Y-83158273D01*
X172646686Y-83412510D01*
X172593000Y-83682408D01*
X172593000Y-83957592D01*
X172646686Y-84227490D01*
X172751995Y-84481727D01*
X172904880Y-84710535D01*
X173099465Y-84905120D01*
X173328273Y-85058005D01*
X173405515Y-85090000D01*
X173328273Y-85121995D01*
X173099465Y-85274880D01*
X172904880Y-85469465D01*
X172751995Y-85698273D01*
X172646686Y-85952510D01*
X172593000Y-86222408D01*
X172593000Y-86497592D01*
X172646686Y-86767490D01*
X172751995Y-87021727D01*
X172904880Y-87250535D01*
X173099465Y-87445120D01*
X173328273Y-87598005D01*
X173582510Y-87703314D01*
X173852408Y-87757000D01*
X174127592Y-87757000D01*
X174397490Y-87703314D01*
X174651727Y-87598005D01*
X174880535Y-87445120D01*
X174967060Y-87358595D01*
X179206282Y-87358595D01*
X179250039Y-87677675D01*
X179355205Y-87982088D01*
X179448186Y-88156044D01*
X179712587Y-88251808D01*
X180668395Y-87296000D01*
X181027605Y-87296000D01*
X181983413Y-88251808D01*
X182247814Y-88156044D01*
X182388704Y-87866429D01*
X182470384Y-87554892D01*
X182479717Y-87399702D01*
X186511903Y-87399702D01*
X186583486Y-87643671D01*
X186838996Y-87764571D01*
X187113184Y-87833300D01*
X187395512Y-87847217D01*
X187675130Y-87805787D01*
X187941292Y-87710603D01*
X188066514Y-87643671D01*
X188119231Y-87464000D01*
X195615928Y-87464000D01*
X195628188Y-87588482D01*
X195664498Y-87708180D01*
X195723463Y-87818494D01*
X195802815Y-87915185D01*
X195899506Y-87994537D01*
X196009820Y-88053502D01*
X196129518Y-88089812D01*
X196254000Y-88102072D01*
X196818250Y-88099000D01*
X196977000Y-87940250D01*
X196977000Y-86741000D01*
X195777750Y-86741000D01*
X195619000Y-86899750D01*
X195615928Y-87464000D01*
X188119231Y-87464000D01*
X188138097Y-87399702D01*
X187325000Y-86586605D01*
X186511903Y-87399702D01*
X182479717Y-87399702D01*
X182489718Y-87233405D01*
X182445961Y-86914325D01*
X182340795Y-86609912D01*
X182270027Y-86477512D01*
X185884783Y-86477512D01*
X185926213Y-86757130D01*
X186021397Y-87023292D01*
X186088329Y-87148514D01*
X186332298Y-87220097D01*
X187145395Y-86407000D01*
X187504605Y-86407000D01*
X188317702Y-87220097D01*
X188561671Y-87148514D01*
X188682571Y-86893004D01*
X188751300Y-86618816D01*
X188765217Y-86336488D01*
X188723787Y-86056870D01*
X188628603Y-85790708D01*
X188614328Y-85764000D01*
X195615928Y-85764000D01*
X195619000Y-86328250D01*
X195777750Y-86487000D01*
X196977000Y-86487000D01*
X196977000Y-85287750D01*
X197231000Y-85287750D01*
X197231000Y-86487000D01*
X197251000Y-86487000D01*
X197251000Y-86741000D01*
X197231000Y-86741000D01*
X197231000Y-87940250D01*
X197389750Y-88099000D01*
X197954000Y-88102072D01*
X198078482Y-88089812D01*
X198198180Y-88053502D01*
X198308494Y-87994537D01*
X198405185Y-87915185D01*
X198484537Y-87818494D01*
X198543502Y-87708180D01*
X198565513Y-87635620D01*
X198697368Y-87767475D01*
X198940589Y-87929990D01*
X199210842Y-88041932D01*
X199497740Y-88099000D01*
X199790260Y-88099000D01*
X200077158Y-88041932D01*
X200347411Y-87929990D01*
X200590632Y-87767475D01*
X200797475Y-87560632D01*
X200914000Y-87386240D01*
X201030525Y-87560632D01*
X201237368Y-87767475D01*
X201480589Y-87929990D01*
X201750842Y-88041932D01*
X202037740Y-88099000D01*
X202330260Y-88099000D01*
X202617158Y-88041932D01*
X202887411Y-87929990D01*
X203130632Y-87767475D01*
X203337475Y-87560632D01*
X203454000Y-87386240D01*
X203570525Y-87560632D01*
X203777368Y-87767475D01*
X204020589Y-87929990D01*
X204290842Y-88041932D01*
X204577740Y-88099000D01*
X204870260Y-88099000D01*
X205157158Y-88041932D01*
X205427411Y-87929990D01*
X205670632Y-87767475D01*
X205877475Y-87560632D01*
X205994000Y-87386240D01*
X206110525Y-87560632D01*
X206317368Y-87767475D01*
X206560589Y-87929990D01*
X206830842Y-88041932D01*
X207117740Y-88099000D01*
X207410260Y-88099000D01*
X207697158Y-88041932D01*
X207967411Y-87929990D01*
X208210632Y-87767475D01*
X208417475Y-87560632D01*
X208534000Y-87386240D01*
X208650525Y-87560632D01*
X208857368Y-87767475D01*
X209100589Y-87929990D01*
X209370842Y-88041932D01*
X209657740Y-88099000D01*
X209950260Y-88099000D01*
X210237158Y-88041932D01*
X210507411Y-87929990D01*
X210750632Y-87767475D01*
X210957475Y-87560632D01*
X211074000Y-87386240D01*
X211190525Y-87560632D01*
X211397368Y-87767475D01*
X211640589Y-87929990D01*
X211910842Y-88041932D01*
X212197740Y-88099000D01*
X212490260Y-88099000D01*
X212777158Y-88041932D01*
X213047411Y-87929990D01*
X213290632Y-87767475D01*
X213497475Y-87560632D01*
X213614000Y-87386240D01*
X213730525Y-87560632D01*
X213937368Y-87767475D01*
X214180589Y-87929990D01*
X214450842Y-88041932D01*
X214737740Y-88099000D01*
X215030260Y-88099000D01*
X215317158Y-88041932D01*
X215587411Y-87929990D01*
X215830632Y-87767475D01*
X216037475Y-87560632D01*
X216199990Y-87317411D01*
X216311932Y-87047158D01*
X216369000Y-86760260D01*
X216369000Y-86467740D01*
X216311932Y-86180842D01*
X216199990Y-85910589D01*
X216037475Y-85667368D01*
X215830632Y-85460525D01*
X215587411Y-85298010D01*
X215317158Y-85186068D01*
X215030260Y-85129000D01*
X214737740Y-85129000D01*
X214450842Y-85186068D01*
X214180589Y-85298010D01*
X213937368Y-85460525D01*
X213730525Y-85667368D01*
X213614000Y-85841760D01*
X213497475Y-85667368D01*
X213290632Y-85460525D01*
X213047411Y-85298010D01*
X212777158Y-85186068D01*
X212490260Y-85129000D01*
X212197740Y-85129000D01*
X211910842Y-85186068D01*
X211640589Y-85298010D01*
X211397368Y-85460525D01*
X211190525Y-85667368D01*
X211074000Y-85841760D01*
X210957475Y-85667368D01*
X210750632Y-85460525D01*
X210507411Y-85298010D01*
X210237158Y-85186068D01*
X209950260Y-85129000D01*
X209657740Y-85129000D01*
X209370842Y-85186068D01*
X209100589Y-85298010D01*
X208857368Y-85460525D01*
X208650525Y-85667368D01*
X208534000Y-85841760D01*
X208417475Y-85667368D01*
X208210632Y-85460525D01*
X207967411Y-85298010D01*
X207697158Y-85186068D01*
X207410260Y-85129000D01*
X207117740Y-85129000D01*
X206830842Y-85186068D01*
X206560589Y-85298010D01*
X206317368Y-85460525D01*
X206110525Y-85667368D01*
X205994000Y-85841760D01*
X205877475Y-85667368D01*
X205670632Y-85460525D01*
X205427411Y-85298010D01*
X205157158Y-85186068D01*
X204870260Y-85129000D01*
X204577740Y-85129000D01*
X204290842Y-85186068D01*
X204020589Y-85298010D01*
X203777368Y-85460525D01*
X203570525Y-85667368D01*
X203454000Y-85841760D01*
X203337475Y-85667368D01*
X203130632Y-85460525D01*
X202887411Y-85298010D01*
X202617158Y-85186068D01*
X202330260Y-85129000D01*
X202037740Y-85129000D01*
X201750842Y-85186068D01*
X201480589Y-85298010D01*
X201237368Y-85460525D01*
X201030525Y-85667368D01*
X200914000Y-85841760D01*
X200797475Y-85667368D01*
X200590632Y-85460525D01*
X200347411Y-85298010D01*
X200077158Y-85186068D01*
X199790260Y-85129000D01*
X199497740Y-85129000D01*
X199210842Y-85186068D01*
X198940589Y-85298010D01*
X198697368Y-85460525D01*
X198565513Y-85592380D01*
X198543502Y-85519820D01*
X198484537Y-85409506D01*
X198405185Y-85312815D01*
X198308494Y-85233463D01*
X198198180Y-85174498D01*
X198078482Y-85138188D01*
X197954000Y-85125928D01*
X197389750Y-85129000D01*
X197231000Y-85287750D01*
X196977000Y-85287750D01*
X196818250Y-85129000D01*
X196254000Y-85125928D01*
X196129518Y-85138188D01*
X196009820Y-85174498D01*
X195899506Y-85233463D01*
X195802815Y-85312815D01*
X195723463Y-85409506D01*
X195664498Y-85519820D01*
X195628188Y-85639518D01*
X195615928Y-85764000D01*
X188614328Y-85764000D01*
X188561671Y-85665486D01*
X188317702Y-85593903D01*
X187504605Y-86407000D01*
X187145395Y-86407000D01*
X186332298Y-85593903D01*
X186088329Y-85665486D01*
X185967429Y-85920996D01*
X185898700Y-86195184D01*
X185884783Y-86477512D01*
X182270027Y-86477512D01*
X182247814Y-86435956D01*
X181983413Y-86340192D01*
X181027605Y-87296000D01*
X180668395Y-87296000D01*
X179712587Y-86340192D01*
X179448186Y-86435956D01*
X179307296Y-86725571D01*
X179225616Y-87037108D01*
X179206282Y-87358595D01*
X174967060Y-87358595D01*
X175075120Y-87250535D01*
X175228005Y-87021727D01*
X175333314Y-86767490D01*
X175387000Y-86497592D01*
X175387000Y-86222408D01*
X175374704Y-86160587D01*
X179892192Y-86160587D01*
X180848000Y-87116395D01*
X181803808Y-86160587D01*
X181708044Y-85896186D01*
X181418429Y-85755296D01*
X181106892Y-85673616D01*
X180785405Y-85654282D01*
X180466325Y-85698039D01*
X180161912Y-85803205D01*
X179987956Y-85896186D01*
X179892192Y-86160587D01*
X175374704Y-86160587D01*
X175333314Y-85952510D01*
X175228005Y-85698273D01*
X175075120Y-85469465D01*
X175019953Y-85414298D01*
X186511903Y-85414298D01*
X187325000Y-86227395D01*
X188138097Y-85414298D01*
X188066514Y-85170329D01*
X187811004Y-85049429D01*
X187536816Y-84980700D01*
X187254488Y-84966783D01*
X186974870Y-85008213D01*
X186708708Y-85103397D01*
X186583486Y-85170329D01*
X186511903Y-85414298D01*
X175019953Y-85414298D01*
X174880535Y-85274880D01*
X174651727Y-85121995D01*
X174574485Y-85090000D01*
X174651727Y-85058005D01*
X174880535Y-84905120D01*
X175075120Y-84710535D01*
X175228005Y-84481727D01*
X175333314Y-84227490D01*
X175387000Y-83957592D01*
X175387000Y-83682408D01*
X175333314Y-83412510D01*
X175228005Y-83158273D01*
X175075120Y-82929465D01*
X174880535Y-82734880D01*
X174651727Y-82581995D01*
X174574485Y-82550000D01*
X174651727Y-82518005D01*
X174880535Y-82365120D01*
X175075120Y-82170535D01*
X175228005Y-81941727D01*
X175333314Y-81687490D01*
X175387000Y-81417592D01*
X175387000Y-81296000D01*
X179209928Y-81296000D01*
X179209928Y-83296000D01*
X179222188Y-83420482D01*
X179258498Y-83540180D01*
X179317463Y-83650494D01*
X179396815Y-83747185D01*
X179493506Y-83826537D01*
X179603820Y-83885502D01*
X179723518Y-83921812D01*
X179848000Y-83934072D01*
X181848000Y-83934072D01*
X181972482Y-83921812D01*
X182092180Y-83885502D01*
X182202494Y-83826537D01*
X182299185Y-83747185D01*
X182378537Y-83650494D01*
X182437502Y-83540180D01*
X182473812Y-83420482D01*
X182486072Y-83296000D01*
X182486072Y-81296000D01*
X182483085Y-81265665D01*
X185890000Y-81265665D01*
X185890000Y-81548335D01*
X185945147Y-81825574D01*
X186053320Y-82086727D01*
X186210363Y-82321759D01*
X186410241Y-82521637D01*
X186645273Y-82678680D01*
X186906426Y-82786853D01*
X187183665Y-82842000D01*
X187466335Y-82842000D01*
X187743574Y-82786853D01*
X188004727Y-82678680D01*
X188239759Y-82521637D01*
X188370396Y-82391000D01*
X197059000Y-82391000D01*
X197059000Y-83091000D01*
X197108467Y-83339251D01*
X197205415Y-83573081D01*
X197346118Y-83783505D01*
X197525170Y-83962436D01*
X197735689Y-84102997D01*
X197969585Y-84199787D01*
X198018529Y-84207099D01*
X198217000Y-84083067D01*
X198217000Y-82391000D01*
X197059000Y-82391000D01*
X188370396Y-82391000D01*
X188439637Y-82321759D01*
X188596680Y-82086727D01*
X188704853Y-81825574D01*
X188760000Y-81548335D01*
X188760000Y-81265665D01*
X188704853Y-80988426D01*
X188596680Y-80727273D01*
X188439637Y-80492241D01*
X188239759Y-80292363D01*
X188004727Y-80135320D01*
X187743574Y-80027147D01*
X187466335Y-79972000D01*
X187183665Y-79972000D01*
X186906426Y-80027147D01*
X186645273Y-80135320D01*
X186410241Y-80292363D01*
X186210363Y-80492241D01*
X186053320Y-80727273D01*
X185945147Y-80988426D01*
X185890000Y-81265665D01*
X182483085Y-81265665D01*
X182473812Y-81171518D01*
X182437502Y-81051820D01*
X182378537Y-80941506D01*
X182299185Y-80844815D01*
X182202494Y-80765463D01*
X182092180Y-80706498D01*
X181972482Y-80670188D01*
X181848000Y-80657928D01*
X179848000Y-80657928D01*
X179723518Y-80670188D01*
X179603820Y-80706498D01*
X179493506Y-80765463D01*
X179396815Y-80844815D01*
X179317463Y-80941506D01*
X179258498Y-81051820D01*
X179222188Y-81171518D01*
X179209928Y-81296000D01*
X175387000Y-81296000D01*
X175387000Y-81142408D01*
X175333314Y-80872510D01*
X175228005Y-80618273D01*
X175075120Y-80389465D01*
X174880535Y-80194880D01*
X174651727Y-80041995D01*
X174574485Y-80010000D01*
X174651727Y-79978005D01*
X174841802Y-79851000D01*
X197059000Y-79851000D01*
X197059000Y-80551000D01*
X197108467Y-80799251D01*
X197189212Y-80994000D01*
X197108467Y-81188749D01*
X197059000Y-81437000D01*
X197059000Y-82137000D01*
X198217000Y-82137000D01*
X198217000Y-79851000D01*
X197059000Y-79851000D01*
X174841802Y-79851000D01*
X174880535Y-79825120D01*
X175075120Y-79630535D01*
X175228005Y-79401727D01*
X175333314Y-79147490D01*
X175387000Y-78877592D01*
X175387000Y-78602408D01*
X175333314Y-78332510D01*
X175228005Y-78078273D01*
X175075120Y-77849465D01*
X174880535Y-77654880D01*
X174651727Y-77501995D01*
X174574485Y-77470000D01*
X174651727Y-77438005D01*
X174880535Y-77285120D01*
X175075120Y-77090535D01*
X175228005Y-76861727D01*
X175333314Y-76607490D01*
X175387000Y-76337592D01*
X175387000Y-76062408D01*
X175363724Y-75945391D01*
X190889000Y-75945391D01*
X190889000Y-76168967D01*
X190932617Y-76388246D01*
X191018176Y-76594803D01*
X191142388Y-76780699D01*
X191300480Y-76938791D01*
X191486376Y-77063003D01*
X191692933Y-77148562D01*
X191912212Y-77192179D01*
X192135788Y-77192179D01*
X192355067Y-77148562D01*
X192561624Y-77063003D01*
X192742450Y-76942179D01*
X194908016Y-76942179D01*
X194817996Y-77032200D01*
X194604697Y-77074627D01*
X194398140Y-77160186D01*
X194212244Y-77284398D01*
X194054152Y-77442490D01*
X193929940Y-77628386D01*
X193844381Y-77834943D01*
X193800764Y-78054222D01*
X193800764Y-78277798D01*
X193844381Y-78497077D01*
X193929940Y-78703634D01*
X194054152Y-78889530D01*
X194212244Y-79047622D01*
X194398140Y-79171834D01*
X194604697Y-79257393D01*
X194823976Y-79301010D01*
X195047552Y-79301010D01*
X195266831Y-79257393D01*
X195473388Y-79171834D01*
X195659284Y-79047622D01*
X195817376Y-78889530D01*
X195941588Y-78703634D01*
X196027147Y-78497077D01*
X196068534Y-78289010D01*
X197289606Y-78289010D01*
X197205415Y-78414919D01*
X197108467Y-78648749D01*
X197059000Y-78897000D01*
X197059000Y-79597000D01*
X198217000Y-79597000D01*
X198217000Y-79577000D01*
X198471000Y-79577000D01*
X198471000Y-79597000D01*
X198491000Y-79597000D01*
X198491000Y-79851000D01*
X198471000Y-79851000D01*
X198471000Y-82137000D01*
X198491000Y-82137000D01*
X198491000Y-82391000D01*
X198471000Y-82391000D01*
X198471000Y-84083067D01*
X198669471Y-84207099D01*
X198718415Y-84199787D01*
X198952311Y-84102997D01*
X199162830Y-83962436D01*
X199341882Y-83783505D01*
X199347421Y-83775221D01*
X199430972Y-83877028D01*
X199626638Y-84037608D01*
X199849873Y-84156929D01*
X200092096Y-84230407D01*
X200344000Y-84255217D01*
X200595903Y-84230407D01*
X200838126Y-84156929D01*
X201061361Y-84037608D01*
X201257028Y-83877028D01*
X201344000Y-83771053D01*
X201430972Y-83877028D01*
X201626638Y-84037608D01*
X201849873Y-84156929D01*
X202092096Y-84230407D01*
X202344000Y-84255217D01*
X202595903Y-84230407D01*
X202838126Y-84156929D01*
X203061361Y-84037608D01*
X203257028Y-83877028D01*
X203344000Y-83771053D01*
X203430972Y-83877028D01*
X203626638Y-84037608D01*
X203849873Y-84156929D01*
X204092096Y-84230407D01*
X204344000Y-84255217D01*
X204595903Y-84230407D01*
X204838126Y-84156929D01*
X205061361Y-84037608D01*
X205257028Y-83877028D01*
X205344000Y-83771053D01*
X205430972Y-83877028D01*
X205626638Y-84037608D01*
X205849873Y-84156929D01*
X206092096Y-84230407D01*
X206344000Y-84255217D01*
X206595903Y-84230407D01*
X206838126Y-84156929D01*
X207061361Y-84037608D01*
X207257028Y-83877028D01*
X207344000Y-83771053D01*
X207430972Y-83877028D01*
X207626638Y-84037608D01*
X207849873Y-84156929D01*
X208092096Y-84230407D01*
X208344000Y-84255217D01*
X208595903Y-84230407D01*
X208838126Y-84156929D01*
X209061361Y-84037608D01*
X209257028Y-83877028D01*
X209344000Y-83771053D01*
X209430972Y-83877028D01*
X209626638Y-84037608D01*
X209849873Y-84156929D01*
X210092096Y-84230407D01*
X210344000Y-84255217D01*
X210595903Y-84230407D01*
X210838126Y-84156929D01*
X211061361Y-84037608D01*
X211257028Y-83877028D01*
X211344000Y-83771053D01*
X211430972Y-83877028D01*
X211626638Y-84037608D01*
X211849873Y-84156929D01*
X212092096Y-84230407D01*
X212344000Y-84255217D01*
X212595903Y-84230407D01*
X212838126Y-84156929D01*
X213061361Y-84037608D01*
X213257028Y-83877028D01*
X213417608Y-83681362D01*
X213536929Y-83458127D01*
X213610407Y-83215904D01*
X213629000Y-83027123D01*
X213629000Y-81500877D01*
X213610407Y-81312096D01*
X213536929Y-81069873D01*
X213496374Y-80994000D01*
X213536929Y-80918127D01*
X213610407Y-80675904D01*
X213629000Y-80487123D01*
X213629000Y-78960877D01*
X213610407Y-78772096D01*
X213536929Y-78529873D01*
X213417608Y-78306638D01*
X213257028Y-78110972D01*
X213061362Y-77950392D01*
X212838127Y-77831071D01*
X212595904Y-77757593D01*
X212344000Y-77732783D01*
X212092097Y-77757593D01*
X211849874Y-77831071D01*
X211626639Y-77950392D01*
X211430973Y-78110972D01*
X211344001Y-78216948D01*
X211257028Y-78110972D01*
X211061362Y-77950392D01*
X210838127Y-77831071D01*
X210595904Y-77757593D01*
X210344000Y-77732783D01*
X210092097Y-77757593D01*
X209849874Y-77831071D01*
X209626639Y-77950392D01*
X209430973Y-78110972D01*
X209344001Y-78216948D01*
X209257028Y-78110972D01*
X209061362Y-77950392D01*
X209034208Y-77935878D01*
X209117383Y-77735077D01*
X209161000Y-77515798D01*
X209161000Y-77292222D01*
X209117383Y-77072943D01*
X209063219Y-76942179D01*
X213519345Y-76942179D01*
X213538617Y-77039067D01*
X213624176Y-77245624D01*
X213748388Y-77431520D01*
X213906480Y-77589612D01*
X214092376Y-77713824D01*
X214298933Y-77799383D01*
X214518212Y-77843000D01*
X214741788Y-77843000D01*
X214961067Y-77799383D01*
X215015001Y-77777043D01*
X215015001Y-77934514D01*
X215010718Y-77978000D01*
X215027805Y-78151490D01*
X215078411Y-78318313D01*
X215124400Y-78404353D01*
X215051687Y-78426411D01*
X214897941Y-78508589D01*
X214763183Y-78619183D01*
X214652589Y-78753941D01*
X214570411Y-78907687D01*
X214519805Y-79074510D01*
X214502718Y-79248000D01*
X214519805Y-79421490D01*
X214570411Y-79588313D01*
X214652589Y-79742059D01*
X214763183Y-79876817D01*
X214897941Y-79987411D01*
X215051687Y-80069589D01*
X215218510Y-80120195D01*
X215348523Y-80133000D01*
X217634524Y-80133000D01*
X217678000Y-80137282D01*
X217851490Y-80120195D01*
X218018313Y-80069589D01*
X218063000Y-80045703D01*
X218063000Y-84126344D01*
X218001368Y-84167525D01*
X217794525Y-84374368D01*
X217632010Y-84617589D01*
X217520068Y-84887842D01*
X217463000Y-85174740D01*
X217463000Y-85467260D01*
X217520068Y-85754158D01*
X217632010Y-86024411D01*
X217794525Y-86267632D01*
X218001368Y-86474475D01*
X218244589Y-86636990D01*
X218514842Y-86748932D01*
X218801740Y-86806000D01*
X219094260Y-86806000D01*
X219381158Y-86748932D01*
X219651411Y-86636990D01*
X219894632Y-86474475D01*
X220019710Y-86349397D01*
X222599208Y-86349397D01*
X222676843Y-86598472D01*
X222940883Y-86724371D01*
X223224411Y-86796339D01*
X223516531Y-86811611D01*
X223806019Y-86769599D01*
X224081747Y-86671919D01*
X224219157Y-86598472D01*
X224296792Y-86349397D01*
X223448000Y-85500605D01*
X222599208Y-86349397D01*
X220019710Y-86349397D01*
X220101475Y-86267632D01*
X220263990Y-86024411D01*
X220375932Y-85754158D01*
X220433000Y-85467260D01*
X220433000Y-85389531D01*
X221957389Y-85389531D01*
X221999401Y-85679019D01*
X222097081Y-85954747D01*
X222170528Y-86092157D01*
X222419603Y-86169792D01*
X223268395Y-85321000D01*
X223627605Y-85321000D01*
X224476397Y-86169792D01*
X224725472Y-86092157D01*
X224851371Y-85828117D01*
X224923339Y-85544589D01*
X224938611Y-85252469D01*
X224927331Y-85174740D01*
X225718000Y-85174740D01*
X225718000Y-85467260D01*
X225775068Y-85754158D01*
X225887010Y-86024411D01*
X226049525Y-86267632D01*
X226256368Y-86474475D01*
X226499589Y-86636990D01*
X226769842Y-86748932D01*
X227056740Y-86806000D01*
X227349260Y-86806000D01*
X227636158Y-86748932D01*
X227906411Y-86636990D01*
X228149632Y-86474475D01*
X228274710Y-86349397D01*
X230854208Y-86349397D01*
X230931843Y-86598472D01*
X231195883Y-86724371D01*
X231479411Y-86796339D01*
X231771531Y-86811611D01*
X232061019Y-86769599D01*
X232336747Y-86671919D01*
X232474157Y-86598472D01*
X232551792Y-86349397D01*
X231703000Y-85500605D01*
X230854208Y-86349397D01*
X228274710Y-86349397D01*
X228356475Y-86267632D01*
X228518990Y-86024411D01*
X228630932Y-85754158D01*
X228688000Y-85467260D01*
X228688000Y-85389531D01*
X230212389Y-85389531D01*
X230254401Y-85679019D01*
X230352081Y-85954747D01*
X230425528Y-86092157D01*
X230674603Y-86169792D01*
X231523395Y-85321000D01*
X231882605Y-85321000D01*
X232731397Y-86169792D01*
X232980472Y-86092157D01*
X233106371Y-85828117D01*
X233178339Y-85544589D01*
X233193611Y-85252469D01*
X233151599Y-84962981D01*
X233053919Y-84687253D01*
X232980472Y-84549843D01*
X232731397Y-84472208D01*
X231882605Y-85321000D01*
X231523395Y-85321000D01*
X230674603Y-84472208D01*
X230425528Y-84549843D01*
X230299629Y-84813883D01*
X230227661Y-85097411D01*
X230212389Y-85389531D01*
X228688000Y-85389531D01*
X228688000Y-85174740D01*
X228630932Y-84887842D01*
X228518990Y-84617589D01*
X228356475Y-84374368D01*
X228274710Y-84292603D01*
X230854208Y-84292603D01*
X231703000Y-85141395D01*
X232551792Y-84292603D01*
X232474157Y-84043528D01*
X232210117Y-83917629D01*
X231926589Y-83845661D01*
X231634469Y-83830389D01*
X231344981Y-83872401D01*
X231069253Y-83970081D01*
X230931843Y-84043528D01*
X230854208Y-84292603D01*
X228274710Y-84292603D01*
X228149632Y-84167525D01*
X227906411Y-84005010D01*
X227636158Y-83893068D01*
X227349260Y-83836000D01*
X227056740Y-83836000D01*
X226769842Y-83893068D01*
X226499589Y-84005010D01*
X226256368Y-84167525D01*
X226049525Y-84374368D01*
X225887010Y-84617589D01*
X225775068Y-84887842D01*
X225718000Y-85174740D01*
X224927331Y-85174740D01*
X224896599Y-84962981D01*
X224798919Y-84687253D01*
X224725472Y-84549843D01*
X224476397Y-84472208D01*
X223627605Y-85321000D01*
X223268395Y-85321000D01*
X222419603Y-84472208D01*
X222170528Y-84549843D01*
X222044629Y-84813883D01*
X221972661Y-85097411D01*
X221957389Y-85389531D01*
X220433000Y-85389531D01*
X220433000Y-85174740D01*
X220375932Y-84887842D01*
X220263990Y-84617589D01*
X220101475Y-84374368D01*
X220019710Y-84292603D01*
X222599208Y-84292603D01*
X223448000Y-85141395D01*
X224296792Y-84292603D01*
X224219157Y-84043528D01*
X223955117Y-83917629D01*
X223671589Y-83845661D01*
X223379469Y-83830389D01*
X223089981Y-83872401D01*
X222814253Y-83970081D01*
X222676843Y-84043528D01*
X222599208Y-84292603D01*
X220019710Y-84292603D01*
X219894632Y-84167525D01*
X219833000Y-84126344D01*
X219833000Y-79350890D01*
X233508524Y-79350890D01*
X233553175Y-79498099D01*
X233678359Y-79760920D01*
X233852412Y-79994269D01*
X234068645Y-80189178D01*
X234318748Y-80338157D01*
X234593109Y-80435481D01*
X234823000Y-80314814D01*
X234823000Y-79121000D01*
X233629845Y-79121000D01*
X233508524Y-79350890D01*
X219833000Y-79350890D01*
X219833000Y-63202450D01*
X219953824Y-63021624D01*
X220039383Y-62815067D01*
X220083000Y-62595788D01*
X220083000Y-62372212D01*
X220077123Y-62342665D01*
X226657000Y-62342665D01*
X226657000Y-62625335D01*
X226712147Y-62902574D01*
X226820320Y-63163727D01*
X226977363Y-63398759D01*
X227177241Y-63598637D01*
X227412273Y-63755680D01*
X227673426Y-63863853D01*
X227950665Y-63919000D01*
X228233335Y-63919000D01*
X228510574Y-63863853D01*
X228771727Y-63755680D01*
X229006759Y-63598637D01*
X229206637Y-63398759D01*
X229363680Y-63163727D01*
X229471853Y-62902574D01*
X229527000Y-62625335D01*
X229527000Y-62342665D01*
X236817000Y-62342665D01*
X236817000Y-62625335D01*
X236872147Y-62902574D01*
X236980320Y-63163727D01*
X237137363Y-63398759D01*
X237337241Y-63598637D01*
X237572273Y-63755680D01*
X237833426Y-63863853D01*
X238110665Y-63919000D01*
X238393335Y-63919000D01*
X238670574Y-63863853D01*
X238931727Y-63755680D01*
X239166759Y-63598637D01*
X239366637Y-63398759D01*
X239523680Y-63163727D01*
X239631853Y-62902574D01*
X239687000Y-62625335D01*
X239687000Y-62342665D01*
X239631853Y-62065426D01*
X239523680Y-61804273D01*
X239366637Y-61569241D01*
X239166759Y-61369363D01*
X238931727Y-61212320D01*
X238670574Y-61104147D01*
X238393335Y-61049000D01*
X238110665Y-61049000D01*
X237833426Y-61104147D01*
X237572273Y-61212320D01*
X237337241Y-61369363D01*
X237137363Y-61569241D01*
X236980320Y-61804273D01*
X236872147Y-62065426D01*
X236817000Y-62342665D01*
X229527000Y-62342665D01*
X229471853Y-62065426D01*
X229363680Y-61804273D01*
X229206637Y-61569241D01*
X229006759Y-61369363D01*
X228771727Y-61212320D01*
X228510574Y-61104147D01*
X228233335Y-61049000D01*
X227950665Y-61049000D01*
X227673426Y-61104147D01*
X227412273Y-61212320D01*
X227177241Y-61369363D01*
X226977363Y-61569241D01*
X226820320Y-61804273D01*
X226712147Y-62065426D01*
X226657000Y-62342665D01*
X220077123Y-62342665D01*
X220039383Y-62152933D01*
X219953824Y-61946376D01*
X219829612Y-61760480D01*
X219671520Y-61602388D01*
X219485624Y-61478176D01*
X219279067Y-61392617D01*
X219059788Y-61349000D01*
X218836212Y-61349000D01*
X218616933Y-61392617D01*
X218410376Y-61478176D01*
X218224480Y-61602388D01*
X218066388Y-61760480D01*
X217942176Y-61946376D01*
X217856617Y-62152933D01*
X217813000Y-62372212D01*
X217813000Y-62595788D01*
X217856617Y-62815067D01*
X217942176Y-63021624D01*
X218063001Y-63202451D01*
X218063001Y-69227620D01*
X217975477Y-69219000D01*
X217975476Y-69219000D01*
X217932000Y-69214718D01*
X217888523Y-69219000D01*
X215540533Y-69219000D01*
X215410520Y-69231805D01*
X215243697Y-69282411D01*
X215089951Y-69364589D01*
X214955193Y-69475183D01*
X214844599Y-69609941D01*
X214762421Y-69763687D01*
X214711815Y-69930510D01*
X214694728Y-70104000D01*
X214711815Y-70277490D01*
X214762421Y-70444313D01*
X214844599Y-70598059D01*
X214944457Y-70719735D01*
X214912412Y-70779687D01*
X214861806Y-70946510D01*
X214844719Y-71120000D01*
X214861806Y-71293490D01*
X214912412Y-71460313D01*
X214994590Y-71614059D01*
X215104142Y-71747547D01*
X215078411Y-71795687D01*
X215027805Y-71962510D01*
X215011900Y-72124000D01*
X205154000Y-72124000D01*
X205154000Y-75172179D01*
X192742450Y-75172179D01*
X192561624Y-75051355D01*
X192355067Y-74965796D01*
X192135788Y-74922179D01*
X191912212Y-74922179D01*
X191692933Y-74965796D01*
X191486376Y-75051355D01*
X191300480Y-75175567D01*
X191142388Y-75333659D01*
X191018176Y-75519555D01*
X190932617Y-75726112D01*
X190889000Y-75945391D01*
X175363724Y-75945391D01*
X175333314Y-75792510D01*
X175228005Y-75538273D01*
X175075120Y-75309465D01*
X174880535Y-75114880D01*
X174651727Y-74961995D01*
X174574485Y-74930000D01*
X174651727Y-74898005D01*
X174880535Y-74745120D01*
X175075120Y-74550535D01*
X175228005Y-74321727D01*
X175333314Y-74067490D01*
X175387000Y-73797592D01*
X175387000Y-73522408D01*
X175333314Y-73252510D01*
X175228005Y-72998273D01*
X175075120Y-72769465D01*
X174880535Y-72574880D01*
X174651727Y-72421995D01*
X174580057Y-72392308D01*
X174593023Y-72387636D01*
X174708980Y-72325656D01*
X174775960Y-72085565D01*
X173990000Y-71299605D01*
X173204040Y-72085565D01*
X173271020Y-72325656D01*
X173406760Y-72389485D01*
X173328273Y-72421995D01*
X173099465Y-72574880D01*
X172904880Y-72769465D01*
X172751995Y-72998273D01*
X172646686Y-73252510D01*
X172593000Y-73522408D01*
X167525000Y-73522408D01*
X167525000Y-71192017D01*
X172588090Y-71192017D01*
X172629078Y-71464133D01*
X172722364Y-71723023D01*
X172784344Y-71838980D01*
X173024435Y-71905960D01*
X173810395Y-71120000D01*
X174169605Y-71120000D01*
X174955565Y-71905960D01*
X175195656Y-71838980D01*
X175312756Y-71589952D01*
X175379023Y-71322865D01*
X175391910Y-71047983D01*
X175350922Y-70775867D01*
X175257636Y-70516977D01*
X175195656Y-70401020D01*
X174955565Y-70334040D01*
X174169605Y-71120000D01*
X173810395Y-71120000D01*
X173024435Y-70334040D01*
X172784344Y-70401020D01*
X172667244Y-70650048D01*
X172600977Y-70917135D01*
X172588090Y-71192017D01*
X167525000Y-71192017D01*
X167525000Y-65902408D01*
X172593000Y-65902408D01*
X172593000Y-66177592D01*
X172646686Y-66447490D01*
X172751995Y-66701727D01*
X172904880Y-66930535D01*
X173099465Y-67125120D01*
X173328273Y-67278005D01*
X173405515Y-67310000D01*
X173328273Y-67341995D01*
X173099465Y-67494880D01*
X172904880Y-67689465D01*
X172751995Y-67918273D01*
X172646686Y-68172510D01*
X172593000Y-68442408D01*
X172593000Y-68717592D01*
X172646686Y-68987490D01*
X172751995Y-69241727D01*
X172904880Y-69470535D01*
X173099465Y-69665120D01*
X173328273Y-69818005D01*
X173399943Y-69847692D01*
X173386977Y-69852364D01*
X173271020Y-69914344D01*
X173204040Y-70154435D01*
X173990000Y-70940395D01*
X174775960Y-70154435D01*
X174708980Y-69914344D01*
X174573240Y-69850515D01*
X174651727Y-69818005D01*
X174880535Y-69665120D01*
X175075120Y-69470535D01*
X175228005Y-69241727D01*
X175333314Y-68987490D01*
X175387000Y-68717592D01*
X175387000Y-68442408D01*
X175333314Y-68172510D01*
X175228005Y-67918273D01*
X175075120Y-67689465D01*
X174880535Y-67494880D01*
X174651727Y-67341995D01*
X174574485Y-67310000D01*
X174651727Y-67278005D01*
X174880535Y-67125120D01*
X175075120Y-66930535D01*
X175228005Y-66701727D01*
X175333314Y-66447490D01*
X175387000Y-66177592D01*
X175387000Y-65902408D01*
X175386256Y-65898665D01*
X175857000Y-65898665D01*
X175857000Y-66181335D01*
X175912147Y-66458574D01*
X176020320Y-66719727D01*
X176177363Y-66954759D01*
X176377241Y-67154637D01*
X176612273Y-67311680D01*
X176873426Y-67419853D01*
X177150665Y-67475000D01*
X177433335Y-67475000D01*
X177710574Y-67419853D01*
X177971727Y-67311680D01*
X178206759Y-67154637D01*
X178406637Y-66954759D01*
X178563680Y-66719727D01*
X178671853Y-66458574D01*
X178727000Y-66181335D01*
X178727000Y-65898665D01*
X179413000Y-65898665D01*
X179413000Y-66181335D01*
X179468147Y-66458574D01*
X179576320Y-66719727D01*
X179733363Y-66954759D01*
X179933241Y-67154637D01*
X180168273Y-67311680D01*
X180429426Y-67419853D01*
X180706665Y-67475000D01*
X180989335Y-67475000D01*
X181266574Y-67419853D01*
X181527727Y-67311680D01*
X181762759Y-67154637D01*
X181962637Y-66954759D01*
X182119680Y-66719727D01*
X182227853Y-66458574D01*
X182283000Y-66181335D01*
X182283000Y-65898665D01*
X182227853Y-65621426D01*
X182119680Y-65360273D01*
X181962637Y-65125241D01*
X181762759Y-64925363D01*
X181527727Y-64768320D01*
X181266574Y-64660147D01*
X180989335Y-64605000D01*
X180706665Y-64605000D01*
X180429426Y-64660147D01*
X180168273Y-64768320D01*
X179933241Y-64925363D01*
X179733363Y-65125241D01*
X179576320Y-65360273D01*
X179468147Y-65621426D01*
X179413000Y-65898665D01*
X178727000Y-65898665D01*
X178671853Y-65621426D01*
X178563680Y-65360273D01*
X178406637Y-65125241D01*
X178206759Y-64925363D01*
X177971727Y-64768320D01*
X177710574Y-64660147D01*
X177433335Y-64605000D01*
X177150665Y-64605000D01*
X176873426Y-64660147D01*
X176612273Y-64768320D01*
X176377241Y-64925363D01*
X176177363Y-65125241D01*
X176020320Y-65360273D01*
X175912147Y-65621426D01*
X175857000Y-65898665D01*
X175386256Y-65898665D01*
X175333314Y-65632510D01*
X175228005Y-65378273D01*
X175075120Y-65149465D01*
X174880535Y-64954880D01*
X174651727Y-64801995D01*
X174397490Y-64696686D01*
X174127592Y-64643000D01*
X173852408Y-64643000D01*
X173582510Y-64696686D01*
X173328273Y-64801995D01*
X173099465Y-64954880D01*
X172904880Y-65149465D01*
X172751995Y-65378273D01*
X172646686Y-65632510D01*
X172593000Y-65902408D01*
X167525000Y-65902408D01*
X167525000Y-63115000D01*
X170136523Y-63115000D01*
X170180000Y-63119282D01*
X170223476Y-63115000D01*
X170223477Y-63115000D01*
X170353490Y-63102195D01*
X170520313Y-63051589D01*
X170674059Y-62969411D01*
X170808817Y-62858817D01*
X170919411Y-62724059D01*
X171001589Y-62570313D01*
X171052195Y-62403490D01*
X171069282Y-62230000D01*
X171065000Y-62186523D01*
X171065000Y-61948021D01*
X182736000Y-61948021D01*
X182736000Y-62511978D01*
X182752785Y-62682399D01*
X182819115Y-62901059D01*
X182926829Y-63102578D01*
X183071788Y-63279212D01*
X183248421Y-63424171D01*
X183449940Y-63531885D01*
X183668600Y-63598215D01*
X183896000Y-63620612D01*
X184123399Y-63598215D01*
X184342059Y-63531885D01*
X184531000Y-63430894D01*
X184719940Y-63531885D01*
X184938600Y-63598215D01*
X185166000Y-63620612D01*
X185393399Y-63598215D01*
X185602098Y-63534907D01*
X185666820Y-63569502D01*
X185786518Y-63605812D01*
X185911000Y-63618072D01*
X186961000Y-63618072D01*
X187085482Y-63605812D01*
X187205180Y-63569502D01*
X187221315Y-63560877D01*
X197059000Y-63560877D01*
X197059000Y-65087122D01*
X197077593Y-65275903D01*
X197151071Y-65518126D01*
X197191626Y-65594000D01*
X197151071Y-65669873D01*
X197077593Y-65912096D01*
X197059000Y-66100877D01*
X197059000Y-67627122D01*
X197077593Y-67815903D01*
X197151071Y-68058126D01*
X197270392Y-68281361D01*
X197430972Y-68477028D01*
X197626638Y-68637608D01*
X197849873Y-68756929D01*
X198092096Y-68830407D01*
X198344000Y-68855217D01*
X198595903Y-68830407D01*
X198838126Y-68756929D01*
X199061361Y-68637608D01*
X199257028Y-68477028D01*
X199344000Y-68371053D01*
X199430972Y-68477028D01*
X199626638Y-68637608D01*
X199849873Y-68756929D01*
X200092096Y-68830407D01*
X200344000Y-68855217D01*
X200595903Y-68830407D01*
X200838126Y-68756929D01*
X201061361Y-68637608D01*
X201257028Y-68477028D01*
X201344000Y-68371053D01*
X201430972Y-68477028D01*
X201626638Y-68637608D01*
X201849873Y-68756929D01*
X202092096Y-68830407D01*
X202344000Y-68855217D01*
X202595903Y-68830407D01*
X202838126Y-68756929D01*
X203061361Y-68637608D01*
X203257028Y-68477028D01*
X203344000Y-68371053D01*
X203430972Y-68477028D01*
X203626638Y-68637608D01*
X203849873Y-68756929D01*
X204092096Y-68830407D01*
X204344000Y-68855217D01*
X204595903Y-68830407D01*
X204838126Y-68756929D01*
X205061361Y-68637608D01*
X205257028Y-68477028D01*
X205344000Y-68371053D01*
X205430972Y-68477028D01*
X205626638Y-68637608D01*
X205849873Y-68756929D01*
X206092096Y-68830407D01*
X206344000Y-68855217D01*
X206595903Y-68830407D01*
X206838126Y-68756929D01*
X207061361Y-68637608D01*
X207257028Y-68477028D01*
X207344000Y-68371053D01*
X207430972Y-68477028D01*
X207626638Y-68637608D01*
X207849873Y-68756929D01*
X208092096Y-68830407D01*
X208344000Y-68855217D01*
X208595903Y-68830407D01*
X208838126Y-68756929D01*
X209061361Y-68637608D01*
X209257028Y-68477028D01*
X209344000Y-68371053D01*
X209430972Y-68477028D01*
X209626638Y-68637608D01*
X209849873Y-68756929D01*
X210092096Y-68830407D01*
X210344000Y-68855217D01*
X210595903Y-68830407D01*
X210838126Y-68756929D01*
X211061361Y-68637608D01*
X211257028Y-68477028D01*
X211344000Y-68371053D01*
X211430972Y-68477028D01*
X211626638Y-68637608D01*
X211849873Y-68756929D01*
X212092096Y-68830407D01*
X212344000Y-68855217D01*
X212595903Y-68830407D01*
X212838126Y-68756929D01*
X213061361Y-68637608D01*
X213257028Y-68477028D01*
X213417608Y-68281362D01*
X213536929Y-68058127D01*
X213610407Y-67815904D01*
X213629000Y-67627123D01*
X213629000Y-66100877D01*
X213610407Y-65912096D01*
X213536929Y-65669873D01*
X213496374Y-65594000D01*
X213536929Y-65518127D01*
X213610407Y-65275904D01*
X213629000Y-65087123D01*
X213629000Y-63560877D01*
X213610407Y-63372096D01*
X213536929Y-63129873D01*
X213417608Y-62906638D01*
X213257028Y-62710972D01*
X213061362Y-62550392D01*
X212838127Y-62431071D01*
X212595904Y-62357593D01*
X212344000Y-62332783D01*
X212092097Y-62357593D01*
X211849874Y-62431071D01*
X211626639Y-62550392D01*
X211430973Y-62710972D01*
X211344001Y-62816948D01*
X211257028Y-62710972D01*
X211061362Y-62550392D01*
X210838127Y-62431071D01*
X210595904Y-62357593D01*
X210344000Y-62332783D01*
X210092097Y-62357593D01*
X209849874Y-62431071D01*
X209626639Y-62550392D01*
X209430973Y-62710972D01*
X209344001Y-62816948D01*
X209257028Y-62710972D01*
X209061362Y-62550392D01*
X208838127Y-62431071D01*
X208595904Y-62357593D01*
X208344000Y-62332783D01*
X208092097Y-62357593D01*
X207849874Y-62431071D01*
X207626639Y-62550392D01*
X207430973Y-62710972D01*
X207344001Y-62816948D01*
X207257028Y-62710972D01*
X207061362Y-62550392D01*
X206838127Y-62431071D01*
X206595904Y-62357593D01*
X206344000Y-62332783D01*
X206092097Y-62357593D01*
X205849874Y-62431071D01*
X205626639Y-62550392D01*
X205430973Y-62710972D01*
X205344001Y-62816948D01*
X205257028Y-62710972D01*
X205061362Y-62550392D01*
X204838127Y-62431071D01*
X204595904Y-62357593D01*
X204344000Y-62332783D01*
X204092097Y-62357593D01*
X203849874Y-62431071D01*
X203626639Y-62550392D01*
X203430973Y-62710972D01*
X203344001Y-62816948D01*
X203257028Y-62710972D01*
X203061362Y-62550392D01*
X202838127Y-62431071D01*
X202595904Y-62357593D01*
X202344000Y-62332783D01*
X202092097Y-62357593D01*
X201849874Y-62431071D01*
X201626639Y-62550392D01*
X201430973Y-62710972D01*
X201344001Y-62816948D01*
X201257028Y-62710972D01*
X201061362Y-62550392D01*
X200838127Y-62431071D01*
X200595904Y-62357593D01*
X200344000Y-62332783D01*
X200092097Y-62357593D01*
X199849874Y-62431071D01*
X199626639Y-62550392D01*
X199430973Y-62710972D01*
X199344001Y-62816948D01*
X199257028Y-62710972D01*
X199061362Y-62550392D01*
X198838127Y-62431071D01*
X198595904Y-62357593D01*
X198344000Y-62332783D01*
X198092097Y-62357593D01*
X197849874Y-62431071D01*
X197626639Y-62550392D01*
X197430973Y-62710972D01*
X197270393Y-62906638D01*
X197151071Y-63129873D01*
X197077593Y-63372096D01*
X197059000Y-63560877D01*
X187221315Y-63560877D01*
X187315494Y-63510537D01*
X187412185Y-63431185D01*
X187491537Y-63334494D01*
X187550502Y-63224180D01*
X187586812Y-63104482D01*
X187599072Y-62980000D01*
X187599072Y-61480000D01*
X187586812Y-61355518D01*
X187550502Y-61235820D01*
X187491537Y-61125506D01*
X187412185Y-61028815D01*
X187315494Y-60949463D01*
X187205180Y-60890498D01*
X187085482Y-60854188D01*
X186961000Y-60841928D01*
X185911000Y-60841928D01*
X185786518Y-60854188D01*
X185666820Y-60890498D01*
X185602098Y-60925093D01*
X185393400Y-60861785D01*
X185166000Y-60839388D01*
X184938601Y-60861785D01*
X184719941Y-60928115D01*
X184531001Y-61029106D01*
X184342060Y-60928115D01*
X184123400Y-60861785D01*
X183896000Y-60839388D01*
X183668601Y-60861785D01*
X183449941Y-60928115D01*
X183248422Y-61035829D01*
X183071789Y-61180788D01*
X182926830Y-61357421D01*
X182819115Y-61558940D01*
X182752785Y-61777600D01*
X182736000Y-61948021D01*
X171065000Y-61948021D01*
X171065000Y-59797740D01*
X195619000Y-59797740D01*
X195619000Y-60090260D01*
X195676068Y-60377158D01*
X195788010Y-60647411D01*
X195950525Y-60890632D01*
X196157368Y-61097475D01*
X196400589Y-61259990D01*
X196670842Y-61371932D01*
X196957740Y-61429000D01*
X197250260Y-61429000D01*
X197537158Y-61371932D01*
X197807411Y-61259990D01*
X198050632Y-61097475D01*
X198257475Y-60890632D01*
X198374000Y-60716240D01*
X198490525Y-60890632D01*
X198697368Y-61097475D01*
X198940589Y-61259990D01*
X199210842Y-61371932D01*
X199497740Y-61429000D01*
X199790260Y-61429000D01*
X200077158Y-61371932D01*
X200347411Y-61259990D01*
X200590632Y-61097475D01*
X200797475Y-60890632D01*
X200914000Y-60716240D01*
X201030525Y-60890632D01*
X201237368Y-61097475D01*
X201480589Y-61259990D01*
X201750842Y-61371932D01*
X202037740Y-61429000D01*
X202330260Y-61429000D01*
X202617158Y-61371932D01*
X202887411Y-61259990D01*
X203130632Y-61097475D01*
X203337475Y-60890632D01*
X203454000Y-60716240D01*
X203570525Y-60890632D01*
X203777368Y-61097475D01*
X204020589Y-61259990D01*
X204290842Y-61371932D01*
X204577740Y-61429000D01*
X204870260Y-61429000D01*
X205157158Y-61371932D01*
X205427411Y-61259990D01*
X205670632Y-61097475D01*
X205877475Y-60890632D01*
X205994000Y-60716240D01*
X206110525Y-60890632D01*
X206317368Y-61097475D01*
X206560589Y-61259990D01*
X206830842Y-61371932D01*
X207117740Y-61429000D01*
X207410260Y-61429000D01*
X207697158Y-61371932D01*
X207967411Y-61259990D01*
X208210632Y-61097475D01*
X208417475Y-60890632D01*
X208534000Y-60716240D01*
X208650525Y-60890632D01*
X208857368Y-61097475D01*
X209100589Y-61259990D01*
X209370842Y-61371932D01*
X209657740Y-61429000D01*
X209950260Y-61429000D01*
X210237158Y-61371932D01*
X210507411Y-61259990D01*
X210750632Y-61097475D01*
X210957475Y-60890632D01*
X211074000Y-60716240D01*
X211190525Y-60890632D01*
X211397368Y-61097475D01*
X211640589Y-61259990D01*
X211910842Y-61371932D01*
X212197740Y-61429000D01*
X212490260Y-61429000D01*
X212777158Y-61371932D01*
X213047411Y-61259990D01*
X213290632Y-61097475D01*
X213422487Y-60965620D01*
X213444498Y-61038180D01*
X213503463Y-61148494D01*
X213582815Y-61245185D01*
X213679506Y-61324537D01*
X213789820Y-61383502D01*
X213909518Y-61419812D01*
X214034000Y-61432072D01*
X215734000Y-61432072D01*
X215858482Y-61419812D01*
X215978180Y-61383502D01*
X216088494Y-61324537D01*
X216185185Y-61245185D01*
X216264537Y-61148494D01*
X216323502Y-61038180D01*
X216359812Y-60918482D01*
X216372072Y-60794000D01*
X216372072Y-59094000D01*
X216359812Y-58969518D01*
X216323502Y-58849820D01*
X216264537Y-58739506D01*
X216185185Y-58642815D01*
X216088494Y-58563463D01*
X215978180Y-58504498D01*
X215858482Y-58468188D01*
X215734000Y-58455928D01*
X214034000Y-58455928D01*
X213909518Y-58468188D01*
X213789820Y-58504498D01*
X213679506Y-58563463D01*
X213582815Y-58642815D01*
X213503463Y-58739506D01*
X213444498Y-58849820D01*
X213422487Y-58922380D01*
X213290632Y-58790525D01*
X213047411Y-58628010D01*
X212777158Y-58516068D01*
X212490260Y-58459000D01*
X212197740Y-58459000D01*
X211910842Y-58516068D01*
X211640589Y-58628010D01*
X211397368Y-58790525D01*
X211190525Y-58997368D01*
X211074000Y-59171760D01*
X210957475Y-58997368D01*
X210750632Y-58790525D01*
X210507411Y-58628010D01*
X210237158Y-58516068D01*
X209950260Y-58459000D01*
X209657740Y-58459000D01*
X209370842Y-58516068D01*
X209100589Y-58628010D01*
X208857368Y-58790525D01*
X208650525Y-58997368D01*
X208534000Y-59171760D01*
X208417475Y-58997368D01*
X208210632Y-58790525D01*
X207967411Y-58628010D01*
X207697158Y-58516068D01*
X207410260Y-58459000D01*
X207117740Y-58459000D01*
X206830842Y-58516068D01*
X206560589Y-58628010D01*
X206317368Y-58790525D01*
X206110525Y-58997368D01*
X205994000Y-59171760D01*
X205877475Y-58997368D01*
X205670632Y-58790525D01*
X205427411Y-58628010D01*
X205157158Y-58516068D01*
X204870260Y-58459000D01*
X204577740Y-58459000D01*
X204290842Y-58516068D01*
X204020589Y-58628010D01*
X203777368Y-58790525D01*
X203570525Y-58997368D01*
X203454000Y-59171760D01*
X203337475Y-58997368D01*
X203130632Y-58790525D01*
X202887411Y-58628010D01*
X202617158Y-58516068D01*
X202330260Y-58459000D01*
X202037740Y-58459000D01*
X201750842Y-58516068D01*
X201480589Y-58628010D01*
X201237368Y-58790525D01*
X201030525Y-58997368D01*
X200914000Y-59171760D01*
X200797475Y-58997368D01*
X200590632Y-58790525D01*
X200347411Y-58628010D01*
X200077158Y-58516068D01*
X199790260Y-58459000D01*
X199497740Y-58459000D01*
X199210842Y-58516068D01*
X198940589Y-58628010D01*
X198697368Y-58790525D01*
X198490525Y-58997368D01*
X198374000Y-59171760D01*
X198257475Y-58997368D01*
X198050632Y-58790525D01*
X197807411Y-58628010D01*
X197537158Y-58516068D01*
X197250260Y-58459000D01*
X196957740Y-58459000D01*
X196670842Y-58516068D01*
X196400589Y-58628010D01*
X196157368Y-58790525D01*
X195950525Y-58997368D01*
X195788010Y-59240589D01*
X195676068Y-59510842D01*
X195619000Y-59797740D01*
X171065000Y-59797740D01*
X171065000Y-55738665D01*
X175857000Y-55738665D01*
X175857000Y-56021335D01*
X175912147Y-56298574D01*
X176020320Y-56559727D01*
X176177363Y-56794759D01*
X176377241Y-56994637D01*
X176612273Y-57151680D01*
X176873426Y-57259853D01*
X177150665Y-57315000D01*
X177433335Y-57315000D01*
X177710574Y-57259853D01*
X177971727Y-57151680D01*
X178206759Y-56994637D01*
X178406637Y-56794759D01*
X178563680Y-56559727D01*
X178671853Y-56298574D01*
X178727000Y-56021335D01*
X178727000Y-55738665D01*
X179413000Y-55738665D01*
X179413000Y-56021335D01*
X179468147Y-56298574D01*
X179576320Y-56559727D01*
X179733363Y-56794759D01*
X179933241Y-56994637D01*
X180168273Y-57151680D01*
X180429426Y-57259853D01*
X180706665Y-57315000D01*
X180989335Y-57315000D01*
X181266574Y-57259853D01*
X181527727Y-57151680D01*
X181572114Y-57122021D01*
X182736000Y-57122021D01*
X182736000Y-57685978D01*
X182752785Y-57856399D01*
X182819115Y-58075059D01*
X182926829Y-58276578D01*
X183071788Y-58453212D01*
X183248421Y-58598171D01*
X183449940Y-58705885D01*
X183668600Y-58772215D01*
X183896000Y-58794612D01*
X184123399Y-58772215D01*
X184342059Y-58705885D01*
X184531000Y-58604894D01*
X184719940Y-58705885D01*
X184938600Y-58772215D01*
X185166000Y-58794612D01*
X185393399Y-58772215D01*
X185602098Y-58708907D01*
X185666820Y-58743502D01*
X185786518Y-58779812D01*
X185911000Y-58792072D01*
X186961000Y-58792072D01*
X187085482Y-58779812D01*
X187205180Y-58743502D01*
X187315494Y-58684537D01*
X187412185Y-58605185D01*
X187491537Y-58508494D01*
X187550502Y-58398180D01*
X187586812Y-58278482D01*
X187599072Y-58154000D01*
X187599072Y-56654000D01*
X187586812Y-56529518D01*
X187550502Y-56409820D01*
X187491537Y-56299506D01*
X187412185Y-56202815D01*
X187315494Y-56123463D01*
X187205180Y-56064498D01*
X187085482Y-56028188D01*
X186961000Y-56015928D01*
X185911000Y-56015928D01*
X185786518Y-56028188D01*
X185666820Y-56064498D01*
X185602098Y-56099093D01*
X185393400Y-56035785D01*
X185166000Y-56013388D01*
X184938601Y-56035785D01*
X184719941Y-56102115D01*
X184531001Y-56203106D01*
X184342060Y-56102115D01*
X184123400Y-56035785D01*
X183896000Y-56013388D01*
X183668601Y-56035785D01*
X183449941Y-56102115D01*
X183248422Y-56209829D01*
X183071789Y-56354788D01*
X182926830Y-56531421D01*
X182819115Y-56732940D01*
X182752785Y-56951600D01*
X182736000Y-57122021D01*
X181572114Y-57122021D01*
X181762759Y-56994637D01*
X181962637Y-56794759D01*
X182119680Y-56559727D01*
X182227853Y-56298574D01*
X182283000Y-56021335D01*
X182283000Y-55738665D01*
X182227853Y-55461426D01*
X182119680Y-55200273D01*
X181962637Y-54965241D01*
X181762759Y-54765363D01*
X181527727Y-54608320D01*
X181266574Y-54500147D01*
X180989335Y-54445000D01*
X180706665Y-54445000D01*
X180429426Y-54500147D01*
X180168273Y-54608320D01*
X179933241Y-54765363D01*
X179733363Y-54965241D01*
X179576320Y-55200273D01*
X179468147Y-55461426D01*
X179413000Y-55738665D01*
X178727000Y-55738665D01*
X178671853Y-55461426D01*
X178563680Y-55200273D01*
X178406637Y-54965241D01*
X178206759Y-54765363D01*
X177971727Y-54608320D01*
X177710574Y-54500147D01*
X177433335Y-54445000D01*
X177150665Y-54445000D01*
X176873426Y-54500147D01*
X176612273Y-54608320D01*
X176377241Y-54765363D01*
X176177363Y-54965241D01*
X176020320Y-55200273D01*
X175912147Y-55461426D01*
X175857000Y-55738665D01*
X171065000Y-55738665D01*
X171065000Y-52748477D01*
X171069282Y-52705000D01*
X171052195Y-52531510D01*
X171001589Y-52364687D01*
X170919411Y-52210941D01*
X170808817Y-52076183D01*
X170674059Y-51965589D01*
X170618969Y-51936143D01*
X195074000Y-51936143D01*
X195074000Y-57791857D01*
X198894000Y-57791857D01*
X198894000Y-57712572D01*
X207774000Y-57712572D01*
X207774000Y-57748286D01*
X210314000Y-57748286D01*
X210314000Y-57791857D01*
X214134000Y-57791857D01*
X214134000Y-57684715D01*
X216674000Y-57684715D01*
X216674000Y-53119872D01*
X233985000Y-53119872D01*
X233985000Y-53560128D01*
X234070890Y-53991925D01*
X234239369Y-54398669D01*
X234483962Y-54764729D01*
X234795271Y-55076038D01*
X235161331Y-55320631D01*
X235568075Y-55489110D01*
X235999872Y-55575000D01*
X236440128Y-55575000D01*
X236871925Y-55489110D01*
X237278669Y-55320631D01*
X237644729Y-55076038D01*
X237956038Y-54764729D01*
X238200631Y-54398669D01*
X238369110Y-53991925D01*
X238455000Y-53560128D01*
X238455000Y-53119872D01*
X238369110Y-52688075D01*
X238200631Y-52281331D01*
X237956038Y-51915271D01*
X237644729Y-51603962D01*
X237278669Y-51359369D01*
X236871925Y-51190890D01*
X236440128Y-51105000D01*
X235999872Y-51105000D01*
X235568075Y-51190890D01*
X235161331Y-51359369D01*
X234795271Y-51603962D01*
X234483962Y-51915271D01*
X234239369Y-52281331D01*
X234070890Y-52688075D01*
X233985000Y-53119872D01*
X216674000Y-53119872D01*
X216674000Y-52043286D01*
X214134000Y-52043286D01*
X214134000Y-51936143D01*
X210314000Y-51936143D01*
X210314000Y-53249715D01*
X207774000Y-53249715D01*
X207774000Y-53285429D01*
X198894000Y-53285429D01*
X198894000Y-51936143D01*
X195074000Y-51936143D01*
X170618969Y-51936143D01*
X170520313Y-51883411D01*
X170353490Y-51832805D01*
X170223477Y-51820000D01*
X170180000Y-51815718D01*
X170136524Y-51820000D01*
X162603476Y-51820000D01*
X162560000Y-51815718D01*
X162516523Y-51820000D01*
X162386510Y-51832805D01*
X162219687Y-51883411D01*
X162065941Y-51965589D01*
X161931183Y-52076183D01*
X161820589Y-52210941D01*
X161738411Y-52364687D01*
X161687805Y-52531510D01*
X161670718Y-52705000D01*
X159632477Y-52705000D01*
X159629110Y-52688075D01*
X159460631Y-52281331D01*
X159216038Y-51915271D01*
X158904729Y-51603962D01*
X158538669Y-51359369D01*
X158131925Y-51190890D01*
X157700128Y-51105000D01*
X157259872Y-51105000D01*
X156828075Y-51190890D01*
X156421331Y-51359369D01*
X156055271Y-51603962D01*
X155743962Y-51915271D01*
X155499369Y-52281331D01*
X155330890Y-52688075D01*
X155245000Y-53119872D01*
X153797000Y-53119872D01*
X153797000Y-50805548D01*
X153814843Y-50601605D01*
X153866388Y-50409235D01*
X153950555Y-50228740D01*
X154064780Y-50065610D01*
X154205610Y-49924780D01*
X154368740Y-49810555D01*
X154549235Y-49726388D01*
X154741605Y-49674843D01*
X154945548Y-49657000D01*
X238754452Y-49657000D01*
X238958395Y-49674843D01*
G37*
G04 #@! TD.AperFunction*
G04 #@! TD*
D27*
X214630000Y-76708000D03*
X192024000Y-76057179D03*
X194935764Y-78166010D03*
X208026000Y-77404010D03*
X218948000Y-62484000D03*
X218948000Y-91821000D03*
X218948000Y-85321000D03*
X223448000Y-91821000D03*
X223448000Y-85321000D03*
X180848000Y-66040000D03*
X180848000Y-55880000D03*
X185166000Y-62230000D03*
X183896000Y-62230000D03*
X186436000Y-62230000D03*
X234950000Y-78994000D03*
X234950000Y-76454000D03*
X234950000Y-73914000D03*
X234950000Y-71374000D03*
X234950000Y-68834000D03*
X234950000Y-66294000D03*
X180848000Y-87296000D03*
X180848000Y-82296000D03*
X228092000Y-62484000D03*
X238252000Y-62484000D03*
X212344000Y-79024000D03*
X210344000Y-79024000D03*
X208344000Y-79024000D03*
X206344000Y-79024000D03*
X204344000Y-79024000D03*
X202344000Y-79024000D03*
X200344000Y-79024000D03*
X198344000Y-79024000D03*
X198344000Y-65024000D03*
X200344000Y-65024000D03*
X202344000Y-65024000D03*
X204344000Y-65024000D03*
X206344000Y-65024000D03*
X208344000Y-65024000D03*
X210344000Y-65024000D03*
X212344000Y-65024000D03*
X212344000Y-81564000D03*
X210344000Y-81564000D03*
X208344000Y-81564000D03*
X206344000Y-81564000D03*
X204344000Y-81564000D03*
X202344000Y-81564000D03*
X200344000Y-81564000D03*
X198344000Y-81564000D03*
X198344000Y-67564000D03*
X200344000Y-67564000D03*
X202344000Y-67564000D03*
X204344000Y-67564000D03*
X206344000Y-67564000D03*
X208344000Y-67564000D03*
X210344000Y-67564000D03*
X212344000Y-67564000D03*
X236220000Y-53340000D03*
X236220000Y-96520000D03*
X157480000Y-96520000D03*
X157480000Y-53340000D03*
X214884000Y-86614000D03*
X212344000Y-86614000D03*
X209804000Y-86614000D03*
X207264000Y-86614000D03*
X204724000Y-86614000D03*
X202184000Y-86614000D03*
X199644000Y-86614000D03*
X197104000Y-86614000D03*
X187325000Y-81407000D03*
X187325000Y-86407000D03*
X158750000Y-66040000D03*
X158750000Y-68580000D03*
X158750000Y-71120000D03*
X158750000Y-73660000D03*
X158750000Y-76200000D03*
X158750000Y-78740000D03*
X158750000Y-81280000D03*
X158750000Y-83820000D03*
X158750000Y-86360000D03*
X173990000Y-86360000D03*
X173990000Y-83820000D03*
X173990000Y-81280000D03*
X173990000Y-78740000D03*
X173990000Y-76200000D03*
X173990000Y-73660000D03*
X173990000Y-71120000D03*
X173990000Y-68580000D03*
X173990000Y-66040000D03*
X227203000Y-91821000D03*
X227203000Y-85321000D03*
X231703000Y-91821000D03*
X231703000Y-85321000D03*
X177292000Y-55880000D03*
X177292000Y-66040000D03*
X187198000Y-92202000D03*
X177038000Y-92202000D03*
X185166000Y-57404000D03*
X183896000Y-57404000D03*
X186436000Y-57404000D03*
X214884000Y-59944000D03*
X212344000Y-59944000D03*
X209804000Y-59944000D03*
X207264000Y-59944000D03*
X204724000Y-59944000D03*
X202184000Y-59944000D03*
X199644000Y-59944000D03*
X197104000Y-59944000D03*
M02*
